<?xml version="1.0" encoding="UTF-8" standalone="no"?>
<svg
   xmlns:dc="http://purl.org/dc/elements/1.1/"
   xmlns:cc="http://creativecommons.org/ns#"
   xmlns:rdf="http://www.w3.org/1999/02/22-rdf-syntax-ns#"
   xmlns:svg="http://www.w3.org/2000/svg"
   xmlns="http://www.w3.org/2000/svg"
   xmlns:sodipodi="http://sodipodi.sourceforge.net/DTD/sodipodi-0.dtd"
   xmlns:inkscape="http://www.inkscape.org/namespaces/inkscape"
   width="100"
   height="100"
   version="1.1"
   viewBox="0 0 75.000002 75.000002"
   id="svg155"
   sodipodi:docname="bull.svg"
   inkscape:version="0.92.4 (5da689c313, 2019-01-14)">
  <metadata
     id="metadata159">
    <rdf:RDF>
      <cc:Work
         rdf:about="">
        <dc:format>image/svg+xml</dc:format>
        <dc:type
           rdf:resource="http://purl.org/dc/dcmitype/StillImage" />
        <dc:title />
      </cc:Work>
    </rdf:RDF>
  </metadata>
  <sodipodi:namedview
     pagecolor="#ffffff"
     bordercolor="#666666"
     borderopacity="1"
     objecttolerance="10"
     gridtolerance="10"
     guidetolerance="10"
     inkscape:pageopacity="0"
     inkscape:pageshadow="2"
     inkscape:window-width="1366"
     inkscape:window-height="703"
     id="namedview157"
     showgrid="false"
     units="px"
     inkscape:zoom="0.715188"
     inkscape:cx="215.95831"
     inkscape:cy="218.85415"
     inkscape:window-x="0"
     inkscape:window-y="0"
     inkscape:window-maximized="1"
     inkscape:current-layer="g153" />
  <defs
     id="defs71">
    <symbol
       id="w"
       overflow="visible"
       style="overflow:visible">
      <path
         d="m 18.766,-1.125 c -0.96875,0.5 -1.9805,0.875 -3.0312,1.125 -1.043,0.25781 -2.1367,0.39062 -3.2812,0.39062 -3.3984,0 -6.0898,-0.94531 -8.0781,-2.8438 -1.9922,-1.9062 -2.9844,-4.4844 -2.9844,-7.7344 0,-3.2578 0.99219,-5.8359 2.9844,-7.7344 1.9883,-1.9062 4.6797,-2.8594 8.0781,-2.8594 1.1445,0 2.2383,0.13281 3.2812,0.39062 1.0508,0.25 2.0625,0.625 3.0312,1.125 v 4.2188 c -0.98047,-0.65625 -1.9453,-1.1406 -2.8906,-1.4531 -0.94922,-0.3125 -1.9492,-0.46875 -3,-0.46875 -1.875,0 -3.3516,0.60547 -4.4219,1.8125 -1.0742,1.1992 -1.6094,2.8555 -1.6094,4.9688 0,2.1055 0.53516,3.7617 1.6094,4.9688 1.0703,1.1992 2.5469,1.7969 4.4219,1.7969 1.0508,0 2.0508,-0.14844 3,-0.45312 0.94531,-0.3125 1.9102,-0.80078 2.8906,-1.4688 z"
         id="path2"
         inkscape:connector-curvature="0" />
    </symbol>
    <symbol
       id="c"
       overflow="visible"
       style="overflow:visible">
      <path
         d="m 13.734,-11.141 c -0.4375,-0.19531 -0.87109,-0.34375 -1.2969,-0.4375 -0.41797,-0.10156 -0.83984,-0.15625 -1.2656,-0.15625 -1.2617,0 -2.2305,0.40625 -2.9062,1.2188 -0.67969,0.80469 -1.0156,1.9531 -1.0156,3.4531 v 7.0625 H 2.3591 v -15.312 h 4.8906 v 2.5156 c 0.625,-1 1.3438,-1.7266 2.1562,-2.1875 0.82031,-0.46875 1.8008,-0.70312 2.9375,-0.70312 0.16406,0 0.34375,0.01172 0.53125,0.03125 0.19531,0.01172 0.47656,0.03906 0.84375,0.07813 z"
         id="path5"
         inkscape:connector-curvature="0" />
    </symbol>
    <symbol
       id="a"
       overflow="visible"
       style="overflow:visible">
      <path
         d="m 17.641,-7.7031 v 1.4062 H 6.188 c 0.125,1.1484 0.53906,2.0078 1.25,2.5781 0.70703,0.57422 1.7031,0.85938 2.9844,0.85938 1.0312,0 2.082,-0.14844 3.1562,-0.45312 1.082,-0.3125 2.1914,-0.77344 3.3281,-1.3906 v 3.7656 c -1.1562,0.4375 -2.3125,0.76562 -3.4688,0.98438 -1.1562,0.22656 -2.3125,0.34375 -3.4688,0.34375 -2.7734,0 -4.9297,-0.70312 -6.4688,-2.1094 -1.5312,-1.4062 -2.2969,-3.3789 -2.2969,-5.9219 0,-2.5 0.75391,-4.4609 2.2656,-5.8906 1.5078,-1.4375 3.582,-2.1562 6.2188,-2.1562 2.4062,0 4.332,0.73047 5.7812,2.1875 1.4453,1.4492 2.1719,3.3828 2.1719,5.7969 z m -5.0312,-1.625 c 0,-0.92578 -0.27344,-1.6719 -0.8125,-2.2344 -0.54297,-0.57031 -1.25,-0.85938 -2.125,-0.85938 -0.94922,0 -1.7188,0.26562 -2.3125,0.79688 -0.5937,0.53126 -0.96484,1.2969 -1.1094,2.2969 z"
         id="path8"
         inkscape:connector-curvature="0" />
    </symbol>
    <symbol
       id="f"
       overflow="visible"
       style="overflow:visible">
      <path
         d="m 9.2188,-6.8906 c -1.0234,0 -1.793,0.17188 -2.3125,0.51562 -0.51172,0.34375 -0.76562,0.85547 -0.76562,1.5312 0,0.625 0.20703,1.1172 0.625,1.4688 0.41406,0.34375 0.98828,0.51562 1.7188,0.51562 0.92578,0 1.7031,-0.32812 2.3281,-0.98438 0.63281,-0.66406 0.95312,-1.4922 0.95312,-2.4844 v -0.5625 z m 7.4688,-1.8438 V 0 h -4.9219 v -2.2656 c -0.65625,0.92969 -1.3984,1.6055 -2.2188,2.0312 -0.82422,0.41406 -1.8242,0.625 -3,0.625 -1.5859,0 -2.8711,-0.45703 -3.8594,-1.375 -0.99219,-0.92578 -1.4844,-2.1289 -1.4844,-3.6094 0,-1.7891 0.61328,-3.1016 1.8438,-3.9375 1.2383,-0.84375 3.1797,-1.2656 5.8281,-1.2656 h 2.8906 v -0.39062 c 0,-0.76953 -0.30859,-1.332 -0.92188,-1.6875 -0.61719,-0.36328 -1.5703,-0.54688 -2.8594,-0.54688 -1.0547,0 -2.0312,0.10547 -2.9375,0.3125 -0.89844,0.21094 -1.7305,0.52344 -2.5,0.9375 v -3.7344 c 1.0391,-0.25 2.0859,-0.44141 3.1406,-0.57812 1.0625,-0.13281 2.125,-0.20312 3.1875,-0.20312 2.7578,0 4.75,0.54688 5.9688,1.6406 1.2266,1.0859 1.8438,2.8555 1.8438,5.3125 z"
         id="path11"
         inkscape:connector-curvature="0" />
    </symbol>
    <symbol
       id="b"
       overflow="visible"
       style="overflow:visible">
      <path
         d="m 7.7031,-19.656 v 4.3438 H 12.75 v 3.5 H 7.7031 v 6.5 c 0,0.71094 0.14062,1.1875 0.42188,1.4375 0.28126,0.25 0.83594,0.375 1.6719,0.375 h 2.5156 v 3.5 h -4.1875 c -1.9375,0 -3.3125,-0.39844 -4.125,-1.2031 -0.80469,-0.8125 -1.2031,-2.1797 -1.2031,-4.1094 v -6.5 h -2.4219 v -3.5 h 2.4219 v -4.3438 z"
         id="path14"
         inkscape:connector-curvature="0" />
    </symbol>
    <symbol
       id="m"
       overflow="visible"
       style="overflow:visible">
      <path
         d="m 12.766,-13.078 v -8.2031 h 4.9219 V -1e-4 H 12.766 v -2.2188 c -0.66797,0.90625 -1.4062,1.5703 -2.2188,1.9844 -0.8126,0.4141 -1.7578,0.625 -2.8281,0.625 -1.8867,0 -3.4336,-0.75 -4.6406,-2.25 -1.2109,-1.5 -1.8125,-3.4258 -1.8125,-5.7812 0,-2.3633 0.60156,-4.2969 1.8125,-5.7969 1.207,-1.5 2.7539,-2.25 4.6406,-2.25 1.0625,0 2,0.21484 2.8125,0.64062 0.82031,0.42969 1.5664,1.0859 2.2344,1.9688 z m -3.2188,9.9219 c 1.0391,0 1.8359,-0.37891 2.3906,-1.1406 0.55078,-0.76953 0.82812,-1.8828 0.82812,-3.3438 0,-1.457 -0.27734,-2.5664 -0.82812,-3.3281 -0.55469,-0.76953 -1.3516,-1.1562 -2.3906,-1.1562 -1.043,0 -1.8398,0.38672 -2.3906,1.1562 -0.55469,0.76172 -0.82812,1.8711 -0.82812,3.3281 0,1.4609 0.27344,2.5742 0.82812,3.3438 0.55078,0.76172 1.3477,1.1406 2.3906,1.1406 z"
         id="path17"
         inkscape:connector-curvature="0" />
    </symbol>
    <symbol
       id="l"
       overflow="visible"
       style="overflow:visible">
      <path
         d="m 10.5,-3.1562 c 1.0508,0 1.8516,-0.37891 2.4062,-1.1406 0.55078,-0.76953 0.82812,-1.8828 0.82812,-3.3438 0,-1.457 -0.27734,-2.5664 -0.82812,-3.3281 -0.55469,-0.76953 -1.3555,-1.1562 -2.4062,-1.1562 -1.0547,0 -1.8594,0.38672 -2.4219,1.1562 -0.55469,0.77344 -0.82812,1.8828 -0.82812,3.3281 0,1.4492 0.27344,2.5586 0.82812,3.3281 0.5625,0.77344 1.3672,1.1562 2.4219,1.1562 z m -3.25,-9.9219 c 0.67578,-0.88281 1.4219,-1.5391 2.2344,-1.9688 0.82031,-0.42578 1.7656,-0.64062 2.8281,-0.64062 1.8945,0 3.4453,0.75 4.6562,2.25 1.207,1.5 1.8125,3.4336 1.8125,5.7969 0,2.3555 -0.60547,4.2812 -1.8125,5.7812 -1.2109,1.5 -2.7617,2.25 -4.6562,2.25 -1.0625,0 -2.0078,-0.21094 -2.8281,-0.625 C 8.6719,-0.6602 7.9258,-1.32032 7.25,-2.21882 V -2e-5 H 2.3594 v -21.281 H 7.25 Z"
         id="path20"
         inkscape:connector-curvature="0" />
    </symbol>
    <symbol
       id="k"
       overflow="visible"
       style="overflow:visible">
      <path
         d="m 0.34375,-15.312 h 4.8906 l 4.125,10.391 3.5,-10.391 h 4.8906 l -6.4375,16.766 c -0.64844,1.6953 -1.4023,2.8828 -2.2656,3.5625 -0.86719,0.6875 -2,1.0312 -3.4062,1.0312 H 2.79685 V 2.8289 h 1.5312 c 0.83203,0 1.4375,-0.13672 1.8125,-0.40625 C 6.52336,2.16093 6.82024,1.69218 7.03117,1.01645 L 7.17179,0.59457 Z"
         id="path23"
         inkscape:connector-curvature="0" />
    </symbol>
    <symbol
       id="j"
       overflow="visible"
       style="overflow:visible">
      <path
         d="m 16.781,-19.766 v 4.3125 c -1.125,-0.5 -2.2266,-0.875 -3.2969,-1.125 -1.0625,-0.25781 -2.0703,-0.39062 -3.0156,-0.39062 -1.25,0 -2.1797,0.17969 -2.7812,0.53125 -0.60547,0.34375 -0.90625,0.88281 -0.90625,1.6094 0,0.54297 0.20312,0.96875 0.60938,1.2812 0.40625,0.30469 1.1406,0.5625 2.2031,0.78125 l 2.25,0.45312 c 2.2695,0.44922 3.8789,1.1406 4.8281,2.0781 0.95703,0.92969 1.4375,2.2461 1.4375,3.9531 0,2.25 -0.66797,3.9297 -2,5.0312 -1.3359,1.0938 -3.3711,1.6406 -6.1094,1.6406 -1.3047,0 -2.6055,-0.125 -3.9062,-0.375 -1.3047,-0.23828 -2.6055,-0.59766 -3.9062,-1.0781 v -4.4531 c 1.3008,0.69922 2.5625,1.2266 3.7812,1.5781 1.2188,0.34375 2.3906,0.51562 3.5156,0.51562 1.1562,0 2.0352,-0.1875 2.6406,-0.5625 0.61328,-0.38281 0.92188,-0.9375 0.92188,-1.6562 0,-0.63281 -0.21094,-1.125 -0.625,-1.4688 -0.41797,-0.34375 -1.2461,-0.65625 -2.4844,-0.9375 l -2.0312,-0.4375 c -2.043,-0.4375 -3.5391,-1.1328 -4.4844,-2.0938 -0.9375,-0.95703 -1.4062,-2.25 -1.4062,-3.875 0,-2.0312 0.65625,-3.5938 1.9688,-4.6875 1.31255,-1.0937 3.1953,-1.6406 5.6562,-1.6406 1.125,0 2.2734,0.08594 3.4531,0.25 1.1875,0.16797 2.4141,0.42188 3.6875,0.76562 z"
         id="path26"
         inkscape:connector-curvature="0" />
    </symbol>
    <symbol
       id="i"
       overflow="visible"
       style="overflow:visible">
      <path
         d="m 12.422,-21.281 v 3.2188 H 9.7189 c -0.6875,0 -1.1719,0.125 -1.4531,0.375 -0.27344,0.25 -0.40625,0.6875 -0.40625,1.3125 v 1.0625 h 4.1875 v 3.5 H 7.85955 V -2e-4 h -4.8906 v -11.812 h -2.4375 v -3.5 h 2.4375 v -1.0625 c 0,-1.6641 0.46094,-2.8984 1.3906,-3.7031 0.92578,-0.80078 2.3672,-1.2031 4.3281,-1.2031 z"
         id="path29"
         inkscape:connector-curvature="0" />
    </symbol>
    <symbol
       id="e"
       overflow="visible"
       style="overflow:visible">
      <path
         d="m 2.1875,-5.9688 v -9.3438 h 4.9219 v 1.5312 c 0,0.83594 -0.00781,1.875 -0.015625,3.125 -0.011719,1.25 -0.015625,2.0859 -0.015625,2.5 0,1.2422 0.03125,2.1328 0.09375,2.6719 0.070313,0.54297 0.17969,0.93359 0.32812,1.1719 0.20703,0.32422 0.47266,0.57422 0.79688,0.75 0.32031,0.16797 0.69141,0.25 1.1094,0.25 1.0195,0 1.8203,-0.39062 2.4062,-1.1719 0.58203,-0.78125 0.875,-1.8672 0.875,-3.2656 v -7.5625 h 4.8906 V -6e-4 H 12.6875 V -2.2194 C 11.94531,-1.32096 11.1641,-0.6608 10.3437,-0.235 9.51948,0.17906 8.6093,0.39 7.6093,0.39 5.8476,0.39 4.5038,-0.14906 3.5781,-1.235 2.64841,-2.317 2.1875,-3.8952 2.1875,-5.9694 Z"
         id="path32"
         inkscape:connector-curvature="0" />
    </symbol>
    <symbol
       id="h"
       overflow="visible"
       style="overflow:visible">
      <path
         d="M 2.3594,-21.281 H 7.25 V 0 H 2.3594 Z"
         id="path35"
         inkscape:connector-curvature="0" />
    </symbol>
    <symbol
       id="v"
       overflow="visible"
       style="overflow:visible">
      <path
         d="m 2.5781,-20.406 h 6.6875 l 4.6562,10.922 4.6719,-10.922 h 6.6875 V 0 H 20.2968 V -14.938 L 15.5937,-3.922 H 12.2656 L 7.5625,-14.938 V 0 H 2.5781 Z"
         id="path38"
         inkscape:connector-curvature="0" />
    </symbol>
    <symbol
       id="u"
       overflow="visible"
       style="overflow:visible">
      <path
         d="m 14.312,-14.828 v 3.7188 c -1.043,-0.4375 -2.0547,-0.76562 -3.0312,-0.98438 -0.98047,-0.21875 -1.9023,-0.32812 -2.7656,-0.32812 -0.92969,0 -1.6211,0.11719 -2.0781,0.34375 -0.44922,0.23047 -0.67188,0.58984 -0.67188,1.0781 0,0.38672 0.17188,0.68359 0.51562,0.89062 0.34375,0.21094 0.95703,0.36719 1.8438,0.46875 l 0.85938,0.125 c 2.5078,0.32422 4.1953,0.85156 5.0625,1.5781 0.86328,0.73047 1.2969,1.8711 1.2969,3.4219 0,1.6367 -0.60547,2.8672 -1.8125,3.6875 -1.1992,0.8125 -2.9922,1.2188 -5.375,1.2188 -1.0234,0 -2.0742,-0.078125 -3.1562,-0.23438 -1.0742,-0.15625 -2.1797,-0.39453 -3.3125,-0.71875 v -3.7188 c 0.96875,0.48047 1.9609,0.83984 2.9844,1.0781 1.0312,0.23047 2.0781,0.34375 3.1406,0.34375 0.95703,0 1.6758,-0.12891 2.1562,-0.39062 0.47656,-0.26953 0.71875,-0.66406 0.71875,-1.1875 0,-0.4375 -0.16797,-0.75781 -0.5,-0.96875 -0.33594,-0.21875 -0.99609,-0.38281 -1.9844,-0.5 L 7.34339,-6.01551 c -2.1797,-0.26953 -3.7031,-0.77344 -4.5781,-1.5156 -0.875,-0.73828 -1.3125,-1.8594 -1.3125,-3.3594 0,-1.625 0.55078,-2.8281 1.6562,-3.6094 1.1133,-0.78906 2.8203,-1.1875 5.125,-1.1875 0.89453,0 1.8359,0.07422 2.8281,0.21875 1,0.13672 2.082,0.35156 3.25,0.64062 z"
         id="path41"
         inkscape:connector-curvature="0" />
    </symbol>
    <symbol
       id="t"
       overflow="visible"
       style="overflow:visible">
      <path
         d="M 2.3594,-15.312 H 7.25 V 0 H 2.3594 Z m 0,-5.9688 H 7.25 v 4 H 2.3594 Z"
         id="path44"
         inkscape:connector-curvature="0" />
    </symbol>
    <symbol
       id="g"
       overflow="visible"
       style="overflow:visible">
      <path
         d="m 16.547,-12.766 c 0.61328,-0.94531 1.3477,-1.6719 2.2031,-2.1719 0.85156,-0.5 1.7891,-0.75 2.8125,-0.75 1.7578,0 3.0977,0.54688 4.0156,1.6406 0.92578,1.0859 1.3906,2.6562 1.3906,4.7188 V -4e-4 h -4.9219 v -7.9844 -0.35938 c 0.0078,-0.13281 0.01563,-0.32031 0.01563,-0.5625 0,-1.082 -0.16406,-1.8633 -0.48438,-2.3438 -0.3125,-0.48828 -0.82422,-0.73438 -1.5312,-0.73438 -0.92969,0 -1.6484,0.38672 -2.1562,1.1562 -0.51172,0.76172 -0.77344,1.8672 -0.78125,3.3125 v 7.5156 h -4.9219 v -7.9844 c 0,-1.6953 -0.14844,-2.7852 -0.4375,-3.2656 -0.29297,-0.48828 -0.8125,-0.73438 -1.5625,-0.73438 -0.9375,0 -1.6641,0.38672 -2.1719,1.1562 -0.51172,0.76172 -0.76562,1.8594 -0.76562,3.2969 v 7.5312 h -4.9219 v -15.312 h 4.9219 v 2.2344 c 0.60156,-0.86328 1.2891,-1.5156 2.0625,-1.9531 0.78125,-0.4375 1.6406,-0.65625 2.5781,-0.65625 1.0625,0 2,0.25781 2.8125,0.76562 0.8125,0.51172 1.4258,1.2305 1.8438,2.1562 z"
         id="path47"
         inkscape:connector-curvature="0" />
    </symbol>
    <symbol
       id="d"
       overflow="visible"
       style="overflow:visible">
      <path
         d="m 9.6406,-12.188 c -1.0859,0 -1.9141,0.39062 -2.4844,1.1719 -0.57422,0.78125 -0.85938,1.9062 -0.85938,3.375 0,1.4688 0.28516,2.5938 0.85938,3.375 0.57031,0.77344 1.3984,1.1562 2.4844,1.1562 1.0625,0 1.875,-0.38281 2.4375,-1.1562 0.57031,-0.78125 0.85938,-1.9062 0.85938,-3.375 0,-1.4688 -0.28906,-2.5938 -0.85938,-3.375 -0.5625,-0.78125 -1.375,-1.1719 -2.4375,-1.1719 z m 0,-3.5 c 2.6328,0 4.6914,0.71484 6.1719,2.1406 1.4766,1.418 2.2188,3.3867 2.2188,5.9062 0,2.5117 -0.74219,4.4805 -2.2188,5.9062 C 14.332,-0.317 12.2734,0.39 9.6406,0.39 6.9922,0.39 4.9258,-0.31703 3.4375,-1.735 1.9453,-3.1608 1.2031,-5.1295 1.2031,-7.6412 c 0,-2.5195 0.74219,-4.4883 2.2344,-5.9062 1.4883,-1.4258 3.5547,-2.1406 6.2031,-2.1406 z"
         id="path50"
         inkscape:connector-curvature="0" />
    </symbol>
    <symbol
       id="s"
       overflow="visible"
       style="overflow:visible">
      <path
         d="M 17.75,-9.3281 V 0 h -4.9219 v -7.1094 c 0,-1.3438 -0.03125,-2.2656 -0.09375,-2.7656 -0.0625,-0.5 -0.16797,-0.86719 -0.3125,-1.1094 -0.1875,-0.3125 -0.44922,-0.55469 -0.78125,-0.73438 -0.32422,-0.17578 -0.69531,-0.26562 -1.1094,-0.26562 -1.0234,0 -1.8242,0.39844 -2.4062,1.1875 -0.58594,0.78125 -0.875,1.8711 -0.875,3.2656 V -1e-4 H 2.3594 v -21.281 H 7.25 v 8.2031 c 0.73828,-0.88281 1.5195,-1.5391 2.3438,-1.9688 0.83203,-0.42578 1.75,-0.64062 2.75,-0.64062 1.7695,0 3.1133,0.54688 4.0312,1.6406 0.91406,1.0859 1.375,2.6562 1.375,4.7188 z"
         id="path53"
         inkscape:connector-curvature="0" />
    </symbol>
    <symbol
       id="r"
       overflow="visible"
       style="overflow:visible">
      <path
         d="m 2.5781,-20.406 h 5.875 l 7.4219,14 v -14 h 4.9844 V 0 h -5.875 L 7.5625,-14 V 0 H 2.5781 Z"
         id="path56"
         inkscape:connector-curvature="0" />
    </symbol>
    <symbol
       id="q"
       overflow="visible"
       style="overflow:visible">
      <path
         d="M 17.75,-9.3281 V 0 h -4.9219 v -7.1406 c 0,-1.3203 -0.03125,-2.2344 -0.09375,-2.7344 -0.0625,-0.5 -0.16797,-0.86719 -0.3125,-1.1094 -0.1875,-0.3125 -0.44922,-0.55469 -0.78125,-0.73438 -0.32422,-0.17578 -0.69531,-0.26562 -1.1094,-0.26562 -1.0234,0 -1.8242,0.39844 -2.4062,1.1875 -0.58594,0.78125 -0.875,1.8711 -0.875,3.2656 V -1e-4 H 2.3594 v -15.312 H 7.25 v 2.2344 c 0.73828,-0.88281 1.5195,-1.5391 2.3438,-1.9688 0.83203,-0.42578 1.75,-0.64062 2.75,-0.64062 1.7695,0 3.1133,0.54688 4.0312,1.6406 0.91406,1.0859 1.375,2.6562 1.375,4.7188 z"
         id="path59"
         inkscape:connector-curvature="0" />
    </symbol>
    <symbol
       id="p"
       overflow="visible"
       style="overflow:visible">
      <path
         d="m 2.5781,-20.406 h 8.7344 c 2.5938,0 4.582,0.57812 5.9688,1.7344 1.3945,1.1484 2.0938,2.7891 2.0938,4.9219 0,2.1367 -0.69922,3.7812 -2.0938,4.9375 -1.3867,1.1562 -3.375,1.7344 -5.9688,1.7344 H 7.8281 V 3e-4 h -5.25 z m 5.25,3.8125 v 5.7031 H 10.75 c 1.0195,0 1.8047,-0.25 2.3594,-0.75 0.5625,-0.5 0.84375,-1.2031 0.84375,-2.1094 0,-0.91406 -0.28125,-1.6172 -0.84375,-2.1094 -0.55469,-0.48828 -1.3398,-0.73438 -2.3594,-0.73438 z"
         id="path62"
         inkscape:connector-curvature="0" />
    </symbol>
    <symbol
       id="o"
       overflow="visible"
       style="overflow:visible">
      <path
         d="M 2.3594,-15.312 H 7.25 v 15.031 c 0,2.0508 -0.49609,3.6172 -1.4844,4.7031 -0.98047,1.082 -2.4062,1.625 -4.2812,1.625 H -0.9375 V 2.8283 h 0.85938 c 0.92578,0 1.5625,-0.21094 1.9062,-0.625 0.35156,-0.41797 0.53125,-1.2461 0.53125,-2.4844 z m 0,-5.9688 H 7.25 v 4 H 2.3594 Z"
         id="path65"
         inkscape:connector-curvature="0" />
    </symbol>
    <symbol
       id="n"
       overflow="visible"
       style="overflow:visible">
      <path
         d="m 14.719,-14.828 v 3.9844 c -0.65625,-0.45703 -1.3242,-0.79688 -2,-1.0156 -0.66797,-0.21875 -1.3594,-0.32812 -2.0781,-0.32812 -1.3672,0 -2.4336,0.40234 -3.2031,1.2031 -0.76172,0.79297 -1.1406,1.9062 -1.1406,3.3438 0,1.4297 0.37891,2.543 1.1406,3.3438 0.76953,0.79297 1.8359,1.1875 3.2031,1.1875 0.75781,0 1.4844,-0.10938 2.1719,-0.32812 0.6875,-0.22656 1.3203,-0.56641 1.9062,-1.0156 v 4 c -0.76172,0.28125 -1.5391,0.48828 -2.3281,0.625 -0.78125,0.14453 -1.5742,0.21875 -2.375,0.21875 -2.7617,0 -4.9219,-0.70703 -6.4844,-2.125 -1.5547,-1.4141 -2.3281,-3.3828 -2.3281,-5.9062 0,-2.5312 0.77344,-4.5039 2.3281,-5.9219 1.5625,-1.4141 3.7227,-2.125 6.4844,-2.125 0.80078,0 1.5938,0.07422 2.375,0.21875 0.78125,0.13672 1.5547,0.35156 2.3281,0.64062 z"
         id="path68"
         inkscape:connector-curvature="0" />
    </symbol>
  </defs>
  <g
     id="g153"
     transform="translate(0,-624.99998)">
    <path
       d="m 70.906145,650.85894 c 0.38573,-0.0824 0.68786,0.0415 0.90927,0.37189 2.20374,3.85794 1.63812,7.46672 -1.69509,10.82812 l 0.0824,0.12397 c 0.22141,0.44051 0.97846,2.32816 2.27282,5.66196 0.63481,1.62601 1.41896,3.08582 2.35768,4.3809 0.24736,0.38573 0.21968,0.72995 -0.0842,1.03323 l -1.61095,1.73612 c -1.04649,1.13009 -1.90218,1.6945 -2.56227,1.6945 -0.33038,0 -1.52904,-0.48201 -3.5955,-1.44664 -1.87443,-0.82682 -3.01718,-1.23964 -3.43003,-1.23964 -0.88102,0 -1.72284,0.66134 -2.52197,1.98395 l -2.5202,5.29015 c -0.46761,0.93637 -1.03323,1.88712 -1.69509,2.85172 0,1.40512 0.16433,3.12685 0.49586,5.16616 l 0.70285,4.58725 c 0.0559,0.49586 0.56562,1.23964 1.53081,2.23193 l 2.4799,2.43842 c 0.27445,0.27503 0.34364,0.57889 0.20641,0.90928 -0.13896,0.35805 -0.38574,0.53736 -0.7438,0.53736 h -4.29898 c -0.21968,0 -0.41341,-0.0824 -0.57774,-0.24793 -1.57065,-1.43222 -2.67134,-3.14117 -3.30604,-5.12468 v -0.0824 c -0.35864,-2.06646 -0.82682,-4.09145 -1.40455,-6.0754 -1.37859,0.66134 -2.89334,0.99173 -4.54636,0.99173 -0.77205,0 -1.5435,-0.0969 -2.31562,-0.28944 -0.0548,0.22083 -0.0824,0.52296 -0.0824,0.90927 0,2.20433 1.13009,5.08365 3.38914,8.63782 0.19316,0.30328 0.20641,0.57889 0.0421,0.82682 -0.13896,0.30328 -0.38574,0.45434 -0.7438,0.45434 h -2.76935 c -0.30329,0 -0.52469,-0.1378 -0.66192,-0.41341 -2.42514,-3.74724 -3.84348,-6.03393 -4.25692,-6.86066 -0.44051,-0.93637 -0.66019,-3.08582 -0.66019,-6.44736 -1.15719,-0.7167 -2.20536,-1.32267 -3.14176,-1.81849 0.16433,0.55121 0.24908,1.08801 0.24908,1.61214 0,0.90927 -0.74379,2.23192 -2.23251,3.96746 -1.23965,1.43222 -1.86012,2.3968 -1.86012,2.89334 0,0.55121 0.4826,1.76314 1.44665,3.63712 l 1.23964,2.14898 c 0.13895,0.30328 0.13895,0.57889 0,0.82682 -0.16433,0.30328 -0.39842,0.45434 -0.70285,0.45434 h -3.5955 c -0.30328,0 -0.51027,-0.1378 -0.61982,-0.41341 l -2.10853,-3.14117 c -0.90927,-1.43222 -1.36361,-2.56227 -1.36361,-3.38915 0,-0.41341 0.0969,-1.03323 0.29117,-1.86011 0.21968,-0.96463 0.32924,-1.58439 0.32924,-1.86011 0,-0.66135 -0.34364,-1.40512 -1.03323,-2.23193 l -1.65303,-1.86011 c -1.8173,1.48756 -4.29721,2.45215 -7.43897,2.89334 -1.90041,0.30328 -3.41631,1.91546 -4.54637,4.83582 -0.7974,2.20433 -1.19756,4.09145 -1.19756,5.66196 v 0.24793 c 0.0824,0.24793 0.0548,0.49586 -0.0825,0.7438 -0.19315,0.24793 -0.42839,0.37189 -0.70284,0.37189 H 7.7984552 c -0.21968,0 -0.42667,-0.0969 -0.61982,-0.28944 -0.16433,-0.19258 -0.21968,-0.39899 -0.16433,-0.61982 0.63482,-7.60459 2.05318,-12.16409 4.2569098,-13.67999 1.9292,-1.37802 2.98959,-3.33379 3.18221,-5.86905 0.19315,-3.03106 1.41897,-5.86905 3.67742,-8.51383 0.68959,-0.79914 1.43337,-1.47374 2.23252,-2.02498 -0.66192,-1.10184 -1.21255,-1.9286 -1.65303,-2.47991 -0.74379,-0.90927 -1.86011,-1.36361 -3.34885,-1.36361 -1.65302,0 -2.78146,0.46876 -3.38914,1.40512 -0.44052,0.74379 -0.77205,1.96963 -0.99114,3.6786 -0.27618,2.12181 -0.57946,3.51313 -0.911,4.1744 -0.5506398,1.21197 -1.4466398,1.95635 -2.6862498,2.23193 h -0.0824 c -0.33039,0.0824 -0.6746,0.12396 -1.03324,0.12396 -1.98395,0 -3.526415,-0.84065 -4.628725,-2.52079 l -0.04209,-0.0824 c -0.110127,-0.1378 -0.619821,-1.21254 -1.529035,-3.22368 -0.137227,-0.35806 -0.0680399959,-0.67517 0.20641,-0.95078 0.303283,-0.24793 0.634817,-0.28944 0.992876,-0.12396 1.34977,0.79857 2.230747,1.23964 2.644187,1.32267 l 1.197557,-0.0824 0.12397,-0.0415 c 1.5435,0 2.43946,0.89543 2.68625,2.68626 l 0.0824,0.7853 c 0.24908,-0.22083 0.44224,-0.48202 0.57947,-0.7853 0.27618,-0.49587 0.55064,-1.73613 0.82682,-3.71949 0.192,-1.98395 0.5927198,-3.43003 1.1975598,-4.33928 0.9652,-1.46047 2.54913,-2.19045 4.75272,-2.19045 2.0117,0 3.5552,0.66135 4.62872,1.98396 0.60657,0.77204 1.19929,1.68077 1.77702,2.72773 1.46162,-0.68845 3.00449,-0.95078 4.62873,-0.7853 2.78308,0.19258 5.20822,0.12396 7.27468,-0.20641 1.87443,-0.7438 3.58236,-2.12182 5.12409,-4.13293 0.7167,-1.04708 2.27282,-1.901 4.67036,-2.56227 2.75607,-0.74379 4.38208,-1.22581 4.8767,-1.44664 l 4.54637,-2.52079 c 1.43337,-0.66134 2.83843,-0.99172 4.21544,-0.99172 1.21254,0 2.34263,0.0824 3.38914,0.24793 0.52469,-0.44166 1.17219,-0.84065 1.94425,-1.19871 1.40455,-0.52297 2.18868,-0.86776 2.35592,-1.03323 0.63309,-0.57889 0.95078,-1.41897 0.95078,-2.52079 -0.0271,-0.0554 -0.17931,-0.72995 -0.4555,-2.02499 -0.0824,-0.44051 0.0692,-0.7582 0.4555,-0.95078 0.46761,-0.16548 0.81182,-0.0553 1.03323,0.33038 l 1.52903,2.3968 c 0.49586,0.85393 0.70285,1.86012 0.61982,3.01719 -0.0824,1.26789 -0.95078,2.4799 -2.60389,3.63712 l -0.33038,0.20641 1.15719,0.7853 c 2.0117,-1.40512 3.05763,-3.69247 3.14176,-6.86066 0.0536,-0.44166 0.26003,-0.68959 0.61867,-0.74494 z m -26.98801,11.28304 c -2.0117,0.52296 -3.29291,1.17103 -3.84347,1.94247 -1.7903,2.31444 -3.74724,3.87123 -5.86905,4.67036 l -0.16606,0.0415 c -2.23075,0.38574 -4.82076,0.45434 -7.76828,0.20641 -1.59885,-0.11012 -3.0594,0.22083 -4.38208,0.99173 h -0.0421 c -0.88102,0.49586 -1.70778,1.19871 -2.4799,2.10794 -2.03768,2.36979 -3.15446,4.89117 -3.34708,7.56296 -0.22141,3.11357 -1.48874,5.46948 -3.80259,7.06715 -1.70778,1.15719 -2.8933398,5.0283 -3.5551998,11.61353 h 1.07533 c 0.0548,-1.73613 0.4808598,-3.71949 1.2805798,-5.95142 1.32267,-3.49867 3.26575,-5.45561 5.82802,-5.86905 3.30604,-0.49586 5.71672,-1.51531 7.23262,-3.05822 0.35863,-0.44051 0.60484,-0.7582 0.74379,-0.95078 l 0.94906,-1.48755 c 0.66191,-1.15719 1.44664,-2.72773 2.35768,-4.71183 0.11013,-0.19258 0.27446,-0.33039 0.49587,-0.41342 0.192,-0.0824 0.39841,-0.0824 0.61982,0 0.192,0.11013 0.33038,0.27504 0.41341,0.49587 0.0825,0.19258 0.0825,0.38573 0,0.57889 l -2.02617,4.00894 3.51314,0.0415 c 0.55236,0.0548 1.84682,0.44051 3.88554,1.15719 l 0.45376,0.16548 c 0.66192,0.24793 1.94425,0.93637 3.84348,2.06646 l 0.0824,-3.30604 c -0.0271,-0.22083 0.0421,-0.41341 0.20641,-0.57889 0.16605,-0.16548 0.35863,-0.24794 0.57946,-0.24794 0.21968,-0.0271 0.41341,0.0415 0.57774,0.20642 0.16606,0.16547 0.24908,0.35863 0.24908,0.57889 0.0548,0.63424 0.0133,2.21746 -0.12396,4.75271 0.0271,3.38915 0.20641,5.44115 0.53737,6.15792 0.30328,0.68844 1.58379,2.81024 3.84347,6.36485 h 0.94905 c -1.92756,-3.2507 -2.89334,-6.00677 -2.89334,-8.26585 0,-0.77147 0.15221,-1.50085 0.45549,-2.19045 0.35864,-0.88218 0.93638,-1.87384 1.73613,-2.97571 1.29442,-1.70779 1.94247,-2.75489 1.94247,-3.14117 -0.30155,-2.83844 -0.42666,-4.56024 -0.37131,-5.16616 0.0271,-0.22083 0.12396,-0.41341 0.28944,-0.57889 0.13895,-0.1378 0.31826,-0.19258 0.53737,-0.16548 0.2214,0.0271 0.41341,0.12396 0.57773,0.28944 0.13896,0.16548 0.19316,0.35863 0.16606,0.57889 0,0.79914 0.13723,2.43842 0.41341,4.91818 v 0.0824 c 0,0.77205 -0.74379,2.14897 -2.23252,4.13293 -0.52296,0.71669 -0.90927,1.32267 -1.15546,1.81848 0.52296,0.11013 1.07359,0.16548 1.65302,0.16548 1.70779,0 3.25188,-0.41341 4.62873,-1.23964 l 0.0404,-0.0415 c 1.18544,-0.7167 2.28787,-1.77701 3.30605,-3.18221 0.55236,-0.79857 1.11741,-1.72166 1.69509,-2.76935 l 2.56227,-5.45561 c 1.15719,-1.84565 2.4799,-2.76936 3.96864,-2.76936 0.68959,0 2.06646,0.45434 4.13292,1.36362 1.65303,0.77204 2.61703,1.18544 2.89335,1.23964 0.30328,-0.11013 0.75705,-0.46761 1.36361,-1.07474 l 1.19756,-1.28116 c -0.90927,-1.40512 -1.63811,-2.81025 -2.19045,-4.21544 -1.21254,-3.22368 -1.94247,-5.05605 -2.19045,-5.4965 l -0.37131,-0.53737 -0.0421,-0.0824 c -0.57774,-0.96462 -1.17046,-1.70778 -1.77524,-2.23192 l -0.0421,-0.0415 c -0.49587,-0.41341 -1.08801,-0.8124 -1.77702,-1.19871 l -0.24735,0.33038 c 0.0271,0 0.0951,0.13781 0.20641,0.41342 0.192,0.38573 0.48086,0.88217 0.86718,1.48755 0.13895,0.19258 0.17931,0.39899 0.12396,0.61982 -0.0548,0.22084 -0.17931,0.38574 -0.37131,0.49587 -0.19316,0.1378 -0.38574,0.17931 -0.57947,0.12396 -0.21968,-0.0548 -0.38573,-0.17873 -0.49586,-0.37189 -0.90928,-1.34977 -1.36362,-2.27281 -1.36362,-2.76935 0,-0.63425 0.37304,-1.28117 1.11569,-1.94248 0.30328,-0.35806 0.77204,-0.71669 1.40627,-1.07474 1.21254,-0.88217 1.86011,-1.68077 1.94247,-2.3968 0,-0.46876 -0.0421,-0.90927 -0.12396,-1.32267 -0.21968,0.96463 -0.68787,1.74985 -1.40455,2.35592 -0.33038,0.33038 -1.26731,0.7853 -2.81024,1.36361 -0.68959,0.30328 -1.23964,0.66134 -1.65302,1.07474 l -0.0421,0.0415 c -1.01824,1.01939 -1.52904,2.49378 -1.52904,4.42238 0,0.66134 0.13896,1.11569 0.41341,1.36362 0.38574,0.27503 1.18545,0.55121 2.39681,0.82682 0.2214,0.0548 0.38573,0.17873 0.49586,0.37189 0.13895,0.19258 0.17931,0.39899 0.12396,0.61982 -0.0271,0.22083 -0.15221,0.38573 -0.37131,0.49586 -0.19316,0.11013 -0.40014,0.1378 -0.61982,0.0824 -1.5159,-0.30328 -2.53408,-0.67517 -3.0594,-1.11568 -0.66019,-0.57889 -0.99114,-1.46048 -0.99114,-2.64537 0,-1.79148 0.34364,-3.26516 1.03324,-4.42238 -0.44051,-0.0553 -1.14336,-0.0824 -2.10853,-0.0824 -1.23965,0 -2.41009,0.27503 -3.51314,0.82682 l -4.5043,2.47991 c -0.60829,0.30558 -2.32935,0.85564 -5.16734,1.65538 z m 25.29351,-1.52904 c 1.70778,-1.79147 2.43783,-3.66413 2.19045,-5.62048 -0.52296,1.84565 -1.5435,3.37468 -3.0594,4.58725 z m -13.47408,28.93049 c -0.21968,-1.46048 -0.37131,-2.64537 -0.45377,-3.55402 -0.68959,0.68844 -1.33651,1.23964 -1.94247,1.65302 0.63309,2.20432 1.15546,4.39419 1.56889,6.57135 0.49759,1.5435 1.35149,2.92036 2.56404,4.13293 h 1.98232 l -1.03323,-1.07474 c -1.23964,-1.21254 -1.91428,-2.25909 -2.02439,-3.14117 -0.19086,-1.23964 -0.41284,-2.76936 -0.66135,-4.58725 z M 3.0427572,673.46634 c 0.743794,1.13009 1.874428,1.66749 3.390918,1.61214 l -0.0842,-1.07474 c -0.11013,-0.85449 -0.46761,-1.28116 -1.07359,-1.28116 l -1.282311,0.12396 c -0.301556,0.0554 -0.772045,-0.0824 -1.404545,-0.41341 z m 27.8573978,9.13362 -4.13293,-0.0415 -1.07532,1.48756 c 0.41341,0.55121 0.9652,1.19871 1.65302,1.94247 0.99288,1.13009 1.48874,2.24522 1.48874,3.34767 0,0.49587 -0.12397,1.22582 -0.37304,2.19045 -0.16433,0.7438 -0.24736,1.25407 -0.24736,1.52904 0,0.52296 0.37132,1.34977 1.11568,2.4799 0.7167,1.04708 1.32267,1.98396 1.81731,2.81025 h 1.73731 l -0.53737,-1.03324 c -1.13009,-2.09362 -1.69509,-3.55402 -1.69509,-4.3809 0,-0.88217 0.75877,-2.20432 2.27281,-3.96746 1.23964,-1.46047 1.86011,-2.42455 1.86011,-2.89334 0,-0.46761 -0.0824,-0.93638 -0.24735,-1.40512 l -0.37304,-1.07474 c -1.32152,-0.46761 -2.4095,-0.79857 -3.26339,-0.99114 z"
       id="path73"
       style="fill:#525252;fill-opacity:1;fill-rule:evenodd;stroke-width:0.14760451"
       inkscape:connector-curvature="0" />
  </g>
</svg>
