<?xml version="1.0" encoding="UTF-8" standalone="no"?>
<svg
   xmlns:dc="http://purl.org/dc/elements/1.1/"
   xmlns:cc="http://creativecommons.org/ns#"
   xmlns:rdf="http://www.w3.org/1999/02/22-rdf-syntax-ns#"
   xmlns:svg="http://www.w3.org/2000/svg"
   xmlns="http://www.w3.org/2000/svg"
   xmlns:sodipodi="http://sodipodi.sourceforge.net/DTD/sodipodi-0.dtd"
   xmlns:inkscape="http://www.inkscape.org/namespaces/inkscape"
   width="100"
   height="100"
   version="1.1"
   viewBox="0 0 75.000002 75.000002"
   id="svg155"
   sodipodi:docname="deer.svg"
   inkscape:version="0.92.4 (5da689c313, 2019-01-14)">
  <metadata
     id="metadata159">
    <rdf:RDF>
      <cc:Work
         rdf:about="">
        <dc:format>image/svg+xml</dc:format>
        <dc:type
           rdf:resource="http://purl.org/dc/dcmitype/StillImage" />
        <dc:title></dc:title>
      </cc:Work>
    </rdf:RDF>
  </metadata>
  <sodipodi:namedview
     pagecolor="#ffffff"
     bordercolor="#666666"
     borderopacity="1"
     objecttolerance="10"
     gridtolerance="10"
     guidetolerance="10"
     inkscape:pageopacity="0"
     inkscape:pageshadow="2"
     inkscape:window-width="1366"
     inkscape:window-height="703"
     id="namedview157"
     showgrid="false"
     units="px"
     inkscape:zoom="1.430376"
     inkscape:cx="96.106225"
     inkscape:cy="110.00624"
     inkscape:window-x="0"
     inkscape:window-y="0"
     inkscape:window-maximized="1"
     inkscape:current-layer="g153" />
  <defs
     id="defs71">
    <symbol
       id="w"
       overflow="visible"
       style="overflow:visible">
      <path
         d="m 18.766,-1.125 c -0.96875,0.5 -1.9805,0.875 -3.0312,1.125 -1.043,0.25781 -2.1367,0.39062 -3.2812,0.39062 -3.3984,0 -6.0898,-0.94531 -8.0781,-2.8438 -1.9922,-1.9062 -2.9844,-4.4844 -2.9844,-7.7344 0,-3.2578 0.99219,-5.8359 2.9844,-7.7344 1.9883,-1.9062 4.6797,-2.8594 8.0781,-2.8594 1.1445,0 2.2383,0.13281 3.2812,0.39062 1.0508,0.25 2.0625,0.625 3.0312,1.125 v 4.2188 c -0.98047,-0.65625 -1.9453,-1.1406 -2.8906,-1.4531 -0.94922,-0.3125 -1.9492,-0.46875 -3,-0.46875 -1.875,0 -3.3516,0.60547 -4.4219,1.8125 -1.0742,1.1992 -1.6094,2.8555 -1.6094,4.9688 0,2.1055 0.53516,3.7617 1.6094,4.9688 1.0703,1.1992 2.5469,1.7969 4.4219,1.7969 1.0508,0 2.0508,-0.14844 3,-0.45312 0.94531,-0.3125 1.9102,-0.80078 2.8906,-1.4688 z"
         id="path2"
         inkscape:connector-curvature="0" />
    </symbol>
    <symbol
       id="c"
       overflow="visible"
       style="overflow:visible">
      <path
         d="m 13.734,-11.141 c -0.4375,-0.19531 -0.87109,-0.34375 -1.2969,-0.4375 -0.41797,-0.10156 -0.83984,-0.15625 -1.2656,-0.15625 -1.2617,0 -2.2305,0.40625 -2.9062,1.2188 -0.67969,0.80469 -1.0156,1.9531 -1.0156,3.4531 v 7.0625 H 2.3591 v -15.312 h 4.8906 v 2.5156 c 0.625,-1 1.3438,-1.7266 2.1562,-2.1875 0.82031,-0.46875 1.8008,-0.70312 2.9375,-0.70312 0.16406,0 0.34375,0.01172 0.53125,0.03125 0.19531,0.01172 0.47656,0.03906 0.84375,0.07813 z"
         id="path5"
         inkscape:connector-curvature="0" />
    </symbol>
    <symbol
       id="a"
       overflow="visible"
       style="overflow:visible">
      <path
         d="m 17.641,-7.7031 v 1.4062 H 6.188 c 0.125,1.1484 0.53906,2.0078 1.25,2.5781 0.70703,0.57422 1.7031,0.85938 2.9844,0.85938 1.0312,0 2.082,-0.14844 3.1562,-0.45312 1.082,-0.3125 2.1914,-0.77344 3.3281,-1.3906 v 3.7656 c -1.1562,0.4375 -2.3125,0.76562 -3.4688,0.98438 -1.1562,0.22656 -2.3125,0.34375 -3.4688,0.34375 -2.7734,0 -4.9297,-0.70312 -6.4688,-2.1094 -1.5312,-1.4062 -2.2969,-3.3789 -2.2969,-5.9219 0,-2.5 0.75391,-4.4609 2.2656,-5.8906 1.5078,-1.4375 3.582,-2.1562 6.2188,-2.1562 2.4062,0 4.332,0.73047 5.7812,2.1875 1.4453,1.4492 2.1719,3.3828 2.1719,5.7969 z m -5.0312,-1.625 c 0,-0.92578 -0.27344,-1.6719 -0.8125,-2.2344 -0.54297,-0.57031 -1.25,-0.85938 -2.125,-0.85938 -0.94922,0 -1.7188,0.26562 -2.3125,0.79688 -0.5937,0.53126 -0.96484,1.2969 -1.1094,2.2969 z"
         id="path8"
         inkscape:connector-curvature="0" />
    </symbol>
    <symbol
       id="f"
       overflow="visible"
       style="overflow:visible">
      <path
         d="m 9.2188,-6.8906 c -1.0234,0 -1.793,0.17188 -2.3125,0.51562 -0.51172,0.34375 -0.76562,0.85547 -0.76562,1.5312 0,0.625 0.20703,1.1172 0.625,1.4688 0.41406,0.34375 0.98828,0.51562 1.7188,0.51562 0.92578,0 1.7031,-0.32812 2.3281,-0.98438 0.63281,-0.66406 0.95312,-1.4922 0.95312,-2.4844 v -0.5625 z m 7.4688,-1.8438 V 0 h -4.9219 v -2.2656 c -0.65625,0.92969 -1.3984,1.6055 -2.2188,2.0312 -0.82422,0.41406 -1.8242,0.625 -3,0.625 -1.5859,0 -2.8711,-0.45703 -3.8594,-1.375 -0.99219,-0.92578 -1.4844,-2.1289 -1.4844,-3.6094 0,-1.7891 0.61328,-3.1016 1.8438,-3.9375 1.2383,-0.84375 3.1797,-1.2656 5.8281,-1.2656 h 2.8906 v -0.39062 c 0,-0.76953 -0.30859,-1.332 -0.92188,-1.6875 -0.61719,-0.36328 -1.5703,-0.54688 -2.8594,-0.54688 -1.0547,0 -2.0312,0.10547 -2.9375,0.3125 -0.89844,0.21094 -1.7305,0.52344 -2.5,0.9375 v -3.7344 c 1.0391,-0.25 2.0859,-0.44141 3.1406,-0.57812 1.0625,-0.13281 2.125,-0.20312 3.1875,-0.20312 2.7578,0 4.75,0.54688 5.9688,1.6406 1.2266,1.0859 1.8438,2.8555 1.8438,5.3125 z"
         id="path11"
         inkscape:connector-curvature="0" />
    </symbol>
    <symbol
       id="b"
       overflow="visible"
       style="overflow:visible">
      <path
         d="m 7.7031,-19.656 v 4.3438 H 12.75 v 3.5 H 7.7031 v 6.5 c 0,0.71094 0.14062,1.1875 0.42188,1.4375 0.28126,0.25 0.83594,0.375 1.6719,0.375 h 2.5156 v 3.5 h -4.1875 c -1.9375,0 -3.3125,-0.39844 -4.125,-1.2031 -0.80469,-0.8125 -1.2031,-2.1797 -1.2031,-4.1094 v -6.5 h -2.4219 v -3.5 h 2.4219 v -4.3438 z"
         id="path14"
         inkscape:connector-curvature="0" />
    </symbol>
    <symbol
       id="m"
       overflow="visible"
       style="overflow:visible">
      <path
         d="m 12.766,-13.078 v -8.2031 h 4.9219 V -1e-4 H 12.766 v -2.2188 c -0.66797,0.90625 -1.4062,1.5703 -2.2188,1.9844 -0.8126,0.4141 -1.7578,0.625 -2.8281,0.625 -1.8867,0 -3.4336,-0.75 -4.6406,-2.25 -1.2109,-1.5 -1.8125,-3.4258 -1.8125,-5.7812 0,-2.3633 0.60156,-4.2969 1.8125,-5.7969 1.207,-1.5 2.7539,-2.25 4.6406,-2.25 1.0625,0 2,0.21484 2.8125,0.64062 0.82031,0.42969 1.5664,1.0859 2.2344,1.9688 z m -3.2188,9.9219 c 1.0391,0 1.8359,-0.37891 2.3906,-1.1406 0.55078,-0.76953 0.82812,-1.8828 0.82812,-3.3438 0,-1.457 -0.27734,-2.5664 -0.82812,-3.3281 -0.55469,-0.76953 -1.3516,-1.1562 -2.3906,-1.1562 -1.043,0 -1.8398,0.38672 -2.3906,1.1562 -0.55469,0.76172 -0.82812,1.8711 -0.82812,3.3281 0,1.4609 0.27344,2.5742 0.82812,3.3438 0.55078,0.76172 1.3477,1.1406 2.3906,1.1406 z"
         id="path17"
         inkscape:connector-curvature="0" />
    </symbol>
    <symbol
       id="l"
       overflow="visible"
       style="overflow:visible">
      <path
         d="m 10.5,-3.1562 c 1.0508,0 1.8516,-0.37891 2.4062,-1.1406 0.55078,-0.76953 0.82812,-1.8828 0.82812,-3.3438 0,-1.457 -0.27734,-2.5664 -0.82812,-3.3281 -0.55469,-0.76953 -1.3555,-1.1562 -2.4062,-1.1562 -1.0547,0 -1.8594,0.38672 -2.4219,1.1562 -0.55469,0.77344 -0.82812,1.8828 -0.82812,3.3281 0,1.4492 0.27344,2.5586 0.82812,3.3281 0.5625,0.77344 1.3672,1.1562 2.4219,1.1562 z m -3.25,-9.9219 c 0.67578,-0.88281 1.4219,-1.5391 2.2344,-1.9688 0.82031,-0.42578 1.7656,-0.64062 2.8281,-0.64062 1.8945,0 3.4453,0.75 4.6562,2.25 1.207,1.5 1.8125,3.4336 1.8125,5.7969 0,2.3555 -0.60547,4.2812 -1.8125,5.7812 -1.2109,1.5 -2.7617,2.25 -4.6562,2.25 -1.0625,0 -2.0078,-0.21094 -2.8281,-0.625 C 8.6719,-0.6602 7.9258,-1.32032 7.25,-2.21882 V -2e-5 H 2.3594 v -21.281 H 7.25 Z"
         id="path20"
         inkscape:connector-curvature="0" />
    </symbol>
    <symbol
       id="k"
       overflow="visible"
       style="overflow:visible">
      <path
         d="m 0.34375,-15.312 h 4.8906 l 4.125,10.391 3.5,-10.391 h 4.8906 l -6.4375,16.766 c -0.64844,1.6953 -1.4023,2.8828 -2.2656,3.5625 -0.86719,0.6875 -2,1.0312 -3.4062,1.0312 H 2.79685 V 2.8289 h 1.5312 c 0.83203,0 1.4375,-0.13672 1.8125,-0.40625 C 6.52336,2.16093 6.82024,1.69218 7.03117,1.01645 L 7.17179,0.59457 Z"
         id="path23"
         inkscape:connector-curvature="0" />
    </symbol>
    <symbol
       id="j"
       overflow="visible"
       style="overflow:visible">
      <path
         d="m 16.781,-19.766 v 4.3125 c -1.125,-0.5 -2.2266,-0.875 -3.2969,-1.125 -1.0625,-0.25781 -2.0703,-0.39062 -3.0156,-0.39062 -1.25,0 -2.1797,0.17969 -2.7812,0.53125 -0.60547,0.34375 -0.90625,0.88281 -0.90625,1.6094 0,0.54297 0.20312,0.96875 0.60938,1.2812 0.40625,0.30469 1.1406,0.5625 2.2031,0.78125 l 2.25,0.45312 c 2.2695,0.44922 3.8789,1.1406 4.8281,2.0781 0.95703,0.92969 1.4375,2.2461 1.4375,3.9531 0,2.25 -0.66797,3.9297 -2,5.0312 -1.3359,1.0938 -3.3711,1.6406 -6.1094,1.6406 -1.3047,0 -2.6055,-0.125 -3.9062,-0.375 -1.3047,-0.23828 -2.6055,-0.59766 -3.9062,-1.0781 v -4.4531 c 1.3008,0.69922 2.5625,1.2266 3.7812,1.5781 1.2188,0.34375 2.3906,0.51562 3.5156,0.51562 1.1562,0 2.0352,-0.1875 2.6406,-0.5625 0.61328,-0.38281 0.92188,-0.9375 0.92188,-1.6562 0,-0.63281 -0.21094,-1.125 -0.625,-1.4688 -0.41797,-0.34375 -1.2461,-0.65625 -2.4844,-0.9375 l -2.0312,-0.4375 c -2.043,-0.4375 -3.5391,-1.1328 -4.4844,-2.0938 -0.9375,-0.95703 -1.4062,-2.25 -1.4062,-3.875 0,-2.0312 0.65625,-3.5938 1.9688,-4.6875 1.31255,-1.0937 3.1953,-1.6406 5.6562,-1.6406 1.125,0 2.2734,0.08594 3.4531,0.25 1.1875,0.16797 2.4141,0.42188 3.6875,0.76562 z"
         id="path26"
         inkscape:connector-curvature="0" />
    </symbol>
    <symbol
       id="i"
       overflow="visible"
       style="overflow:visible">
      <path
         d="m 12.422,-21.281 v 3.2188 H 9.7189 c -0.6875,0 -1.1719,0.125 -1.4531,0.375 -0.27344,0.25 -0.40625,0.6875 -0.40625,1.3125 v 1.0625 h 4.1875 v 3.5 H 7.85955 V -2e-4 h -4.8906 v -11.812 h -2.4375 v -3.5 h 2.4375 v -1.0625 c 0,-1.6641 0.46094,-2.8984 1.3906,-3.7031 0.92578,-0.80078 2.3672,-1.2031 4.3281,-1.2031 z"
         id="path29"
         inkscape:connector-curvature="0" />
    </symbol>
    <symbol
       id="e"
       overflow="visible"
       style="overflow:visible">
      <path
         d="m 2.1875,-5.9688 v -9.3438 h 4.9219 v 1.5312 c 0,0.83594 -0.00781,1.875 -0.015625,3.125 -0.011719,1.25 -0.015625,2.0859 -0.015625,2.5 0,1.2422 0.03125,2.1328 0.09375,2.6719 0.070313,0.54297 0.17969,0.93359 0.32812,1.1719 0.20703,0.32422 0.47266,0.57422 0.79688,0.75 0.32031,0.16797 0.69141,0.25 1.1094,0.25 1.0195,0 1.8203,-0.39062 2.4062,-1.1719 0.58203,-0.78125 0.875,-1.8672 0.875,-3.2656 v -7.5625 h 4.8906 V -6e-4 H 12.6875 V -2.2194 C 11.94531,-1.32096 11.1641,-0.6608 10.3437,-0.235 9.51948,0.17906 8.6093,0.39 7.6093,0.39 5.8476,0.39 4.5038,-0.14906 3.5781,-1.235 2.64841,-2.317 2.1875,-3.8952 2.1875,-5.9694 Z"
         id="path32"
         inkscape:connector-curvature="0" />
    </symbol>
    <symbol
       id="h"
       overflow="visible"
       style="overflow:visible">
      <path
         d="M 2.3594,-21.281 H 7.25 V 0 H 2.3594 Z"
         id="path35"
         inkscape:connector-curvature="0" />
    </symbol>
    <symbol
       id="v"
       overflow="visible"
       style="overflow:visible">
      <path
         d="m 2.5781,-20.406 h 6.6875 l 4.6562,10.922 4.6719,-10.922 h 6.6875 V 0 H 20.2968 V -14.938 L 15.5937,-3.922 H 12.2656 L 7.5625,-14.938 V 0 H 2.5781 Z"
         id="path38"
         inkscape:connector-curvature="0" />
    </symbol>
    <symbol
       id="u"
       overflow="visible"
       style="overflow:visible">
      <path
         d="m 14.312,-14.828 v 3.7188 c -1.043,-0.4375 -2.0547,-0.76562 -3.0312,-0.98438 -0.98047,-0.21875 -1.9023,-0.32812 -2.7656,-0.32812 -0.92969,0 -1.6211,0.11719 -2.0781,0.34375 -0.44922,0.23047 -0.67188,0.58984 -0.67188,1.0781 0,0.38672 0.17188,0.68359 0.51562,0.89062 0.34375,0.21094 0.95703,0.36719 1.8438,0.46875 l 0.85938,0.125 c 2.5078,0.32422 4.1953,0.85156 5.0625,1.5781 0.86328,0.73047 1.2969,1.8711 1.2969,3.4219 0,1.6367 -0.60547,2.8672 -1.8125,3.6875 -1.1992,0.8125 -2.9922,1.2188 -5.375,1.2188 -1.0234,0 -2.0742,-0.078125 -3.1562,-0.23438 -1.0742,-0.15625 -2.1797,-0.39453 -3.3125,-0.71875 v -3.7188 c 0.96875,0.48047 1.9609,0.83984 2.9844,1.0781 1.0312,0.23047 2.0781,0.34375 3.1406,0.34375 0.95703,0 1.6758,-0.12891 2.1562,-0.39062 0.47656,-0.26953 0.71875,-0.66406 0.71875,-1.1875 0,-0.4375 -0.16797,-0.75781 -0.5,-0.96875 -0.33594,-0.21875 -0.99609,-0.38281 -1.9844,-0.5 L 7.34339,-6.01551 c -2.1797,-0.26953 -3.7031,-0.77344 -4.5781,-1.5156 -0.875,-0.73828 -1.3125,-1.8594 -1.3125,-3.3594 0,-1.625 0.55078,-2.8281 1.6562,-3.6094 1.1133,-0.78906 2.8203,-1.1875 5.125,-1.1875 0.89453,0 1.8359,0.07422 2.8281,0.21875 1,0.13672 2.082,0.35156 3.25,0.64062 z"
         id="path41"
         inkscape:connector-curvature="0" />
    </symbol>
    <symbol
       id="t"
       overflow="visible"
       style="overflow:visible">
      <path
         d="M 2.3594,-15.312 H 7.25 V 0 H 2.3594 Z m 0,-5.9688 H 7.25 v 4 H 2.3594 Z"
         id="path44"
         inkscape:connector-curvature="0" />
    </symbol>
    <symbol
       id="g"
       overflow="visible"
       style="overflow:visible">
      <path
         d="m 16.547,-12.766 c 0.61328,-0.94531 1.3477,-1.6719 2.2031,-2.1719 0.85156,-0.5 1.7891,-0.75 2.8125,-0.75 1.7578,0 3.0977,0.54688 4.0156,1.6406 0.92578,1.0859 1.3906,2.6562 1.3906,4.7188 V -4e-4 h -4.9219 v -7.9844 -0.35938 c 0.0078,-0.13281 0.01563,-0.32031 0.01563,-0.5625 0,-1.082 -0.16406,-1.8633 -0.48438,-2.3438 -0.3125,-0.48828 -0.82422,-0.73438 -1.5312,-0.73438 -0.92969,0 -1.6484,0.38672 -2.1562,1.1562 -0.51172,0.76172 -0.77344,1.8672 -0.78125,3.3125 v 7.5156 h -4.9219 v -7.9844 c 0,-1.6953 -0.14844,-2.7852 -0.4375,-3.2656 -0.29297,-0.48828 -0.8125,-0.73438 -1.5625,-0.73438 -0.9375,0 -1.6641,0.38672 -2.1719,1.1562 -0.51172,0.76172 -0.76562,1.8594 -0.76562,3.2969 v 7.5312 h -4.9219 v -15.312 h 4.9219 v 2.2344 c 0.60156,-0.86328 1.2891,-1.5156 2.0625,-1.9531 0.78125,-0.4375 1.6406,-0.65625 2.5781,-0.65625 1.0625,0 2,0.25781 2.8125,0.76562 0.8125,0.51172 1.4258,1.2305 1.8438,2.1562 z"
         id="path47"
         inkscape:connector-curvature="0" />
    </symbol>
    <symbol
       id="d"
       overflow="visible"
       style="overflow:visible">
      <path
         d="m 9.6406,-12.188 c -1.0859,0 -1.9141,0.39062 -2.4844,1.1719 -0.57422,0.78125 -0.85938,1.9062 -0.85938,3.375 0,1.4688 0.28516,2.5938 0.85938,3.375 0.57031,0.77344 1.3984,1.1562 2.4844,1.1562 1.0625,0 1.875,-0.38281 2.4375,-1.1562 0.57031,-0.78125 0.85938,-1.9062 0.85938,-3.375 0,-1.4688 -0.28906,-2.5938 -0.85938,-3.375 -0.5625,-0.78125 -1.375,-1.1719 -2.4375,-1.1719 z m 0,-3.5 c 2.6328,0 4.6914,0.71484 6.1719,2.1406 1.4766,1.418 2.2188,3.3867 2.2188,5.9062 0,2.5117 -0.74219,4.4805 -2.2188,5.9062 C 14.332,-0.317 12.2734,0.39 9.6406,0.39 6.9922,0.39 4.9258,-0.31703 3.4375,-1.735 1.9453,-3.1608 1.2031,-5.1295 1.2031,-7.6412 c 0,-2.5195 0.74219,-4.4883 2.2344,-5.9062 1.4883,-1.4258 3.5547,-2.1406 6.2031,-2.1406 z"
         id="path50"
         inkscape:connector-curvature="0" />
    </symbol>
    <symbol
       id="s"
       overflow="visible"
       style="overflow:visible">
      <path
         d="M 17.75,-9.3281 V 0 h -4.9219 v -7.1094 c 0,-1.3438 -0.03125,-2.2656 -0.09375,-2.7656 -0.0625,-0.5 -0.16797,-0.86719 -0.3125,-1.1094 -0.1875,-0.3125 -0.44922,-0.55469 -0.78125,-0.73438 -0.32422,-0.17578 -0.69531,-0.26562 -1.1094,-0.26562 -1.0234,0 -1.8242,0.39844 -2.4062,1.1875 -0.58594,0.78125 -0.875,1.8711 -0.875,3.2656 V -1e-4 H 2.3594 v -21.281 H 7.25 v 8.2031 c 0.73828,-0.88281 1.5195,-1.5391 2.3438,-1.9688 0.83203,-0.42578 1.75,-0.64062 2.75,-0.64062 1.7695,0 3.1133,0.54688 4.0312,1.6406 0.91406,1.0859 1.375,2.6562 1.375,4.7188 z"
         id="path53"
         inkscape:connector-curvature="0" />
    </symbol>
    <symbol
       id="r"
       overflow="visible"
       style="overflow:visible">
      <path
         d="m 2.5781,-20.406 h 5.875 l 7.4219,14 v -14 h 4.9844 V 0 h -5.875 L 7.5625,-14 V 0 H 2.5781 Z"
         id="path56"
         inkscape:connector-curvature="0" />
    </symbol>
    <symbol
       id="q"
       overflow="visible"
       style="overflow:visible">
      <path
         d="M 17.75,-9.3281 V 0 h -4.9219 v -7.1406 c 0,-1.3203 -0.03125,-2.2344 -0.09375,-2.7344 -0.0625,-0.5 -0.16797,-0.86719 -0.3125,-1.1094 -0.1875,-0.3125 -0.44922,-0.55469 -0.78125,-0.73438 -0.32422,-0.17578 -0.69531,-0.26562 -1.1094,-0.26562 -1.0234,0 -1.8242,0.39844 -2.4062,1.1875 -0.58594,0.78125 -0.875,1.8711 -0.875,3.2656 V -1e-4 H 2.3594 v -15.312 H 7.25 v 2.2344 c 0.73828,-0.88281 1.5195,-1.5391 2.3438,-1.9688 0.83203,-0.42578 1.75,-0.64062 2.75,-0.64062 1.7695,0 3.1133,0.54688 4.0312,1.6406 0.91406,1.0859 1.375,2.6562 1.375,4.7188 z"
         id="path59"
         inkscape:connector-curvature="0" />
    </symbol>
    <symbol
       id="p"
       overflow="visible"
       style="overflow:visible">
      <path
         d="m 2.5781,-20.406 h 8.7344 c 2.5938,0 4.582,0.57812 5.9688,1.7344 1.3945,1.1484 2.0938,2.7891 2.0938,4.9219 0,2.1367 -0.69922,3.7812 -2.0938,4.9375 -1.3867,1.1562 -3.375,1.7344 -5.9688,1.7344 H 7.8281 V 3e-4 h -5.25 z m 5.25,3.8125 v 5.7031 H 10.75 c 1.0195,0 1.8047,-0.25 2.3594,-0.75 0.5625,-0.5 0.84375,-1.2031 0.84375,-2.1094 0,-0.91406 -0.28125,-1.6172 -0.84375,-2.1094 -0.55469,-0.48828 -1.3398,-0.73438 -2.3594,-0.73438 z"
         id="path62"
         inkscape:connector-curvature="0" />
    </symbol>
    <symbol
       id="o"
       overflow="visible"
       style="overflow:visible">
      <path
         d="M 2.3594,-15.312 H 7.25 v 15.031 c 0,2.0508 -0.49609,3.6172 -1.4844,4.7031 -0.98047,1.082 -2.4062,1.625 -4.2812,1.625 H -0.9375 V 2.8283 h 0.85938 c 0.92578,0 1.5625,-0.21094 1.9062,-0.625 0.35156,-0.41797 0.53125,-1.2461 0.53125,-2.4844 z m 0,-5.9688 H 7.25 v 4 H 2.3594 Z"
         id="path65"
         inkscape:connector-curvature="0" />
    </symbol>
    <symbol
       id="n"
       overflow="visible"
       style="overflow:visible">
      <path
         d="m 14.719,-14.828 v 3.9844 c -0.65625,-0.45703 -1.3242,-0.79688 -2,-1.0156 -0.66797,-0.21875 -1.3594,-0.32812 -2.0781,-0.32812 -1.3672,0 -2.4336,0.40234 -3.2031,1.2031 -0.76172,0.79297 -1.1406,1.9062 -1.1406,3.3438 0,1.4297 0.37891,2.543 1.1406,3.3438 0.76953,0.79297 1.8359,1.1875 3.2031,1.1875 0.75781,0 1.4844,-0.10938 2.1719,-0.32812 0.6875,-0.22656 1.3203,-0.56641 1.9062,-1.0156 v 4 c -0.76172,0.28125 -1.5391,0.48828 -2.3281,0.625 -0.78125,0.14453 -1.5742,0.21875 -2.375,0.21875 -2.7617,0 -4.9219,-0.70703 -6.4844,-2.125 -1.5547,-1.4141 -2.3281,-3.3828 -2.3281,-5.9062 0,-2.5312 0.77344,-4.5039 2.3281,-5.9219 1.5625,-1.4141 3.7227,-2.125 6.4844,-2.125 0.80078,0 1.5938,0.07422 2.375,0.21875 0.78125,0.13672 1.5547,0.35156 2.3281,0.64062 z"
         id="path68"
         inkscape:connector-curvature="0" />
    </symbol>
  </defs>
  <g
     id="g153"
     transform="translate(0,-624.99999)">
    <path
       d="m 47.56268,625.78557 v 0.57909 c 0,4.90657 -1.94313,9.09583 -5.82941,12.56853 -1.15758,1.0751 -2.43926,1.98462 -3.84478,2.72866 2.06717,-0.63446 3.91344,-1.5712 5.54001,-2.8112 0.16553,-0.13785 0.35875,-0.19265 0.57908,-0.16554 0.22091,0.0283 0.39913,0.12401 0.53756,0.28954 0.13785,0.19264 0.19264,0.38586 0.16553,0.57908 -0.0271,0.22091 -0.124,0.39913 -0.28953,0.53756 -2.64627,2.06716 -5.74703,3.34881 -9.30226,3.84478 1.95702,1.21296 3.81762,2.27359 5.5815,3.18329 0.3305,0.13785 0.46892,0.38587 0.41355,0.74405 0,1.01973 -0.35818,1.87448 -1.0751,2.56314 -1.15758,0.99206 -3.10075,1.43271 -5.82941,1.32312 -2.23269,1.54403 -3.34881,3.11463 -3.34881,4.71344 0,1.32312 0.3449,2.37059 1.03358,3.14224 1.24006,1.43271 3.58299,2.14971 7.02866,2.14971 1.1847,0 2.97673,-0.15227 5.37434,-0.4545 2.78404,-0.3305 4.52016,-0.49603 5.20941,-0.49603 2.94971,0 5.32016,1.21295 7.11106,3.63836 1.43271,1.87448 2.14971,3.83091 2.14971,5.87105 0,1.29544 -0.26185,2.63298 -0.78557,4.01031 -0.5514,1.48806 -0.89573,2.54941 -1.03358,3.18329 0,0.33049 0.0686,0.7302 0.20648,1.19912 0.49603,1.62538 1.86074,3.19761 4.09284,4.71343 0.16554,0.13785 0.27513,0.31665 0.3305,0.53756 0.79941,4.98911 1.25449,10.06075 1.36408,15.21435 0.0554,0.24802 -0.0138,0.44066 -0.20648,0.57909 -0.16554,0.16553 -0.35819,0.24801 -0.57909,0.24801 h -2.35672 c -0.22091,0 -0.39913,-0.0686 -0.53755,-0.20648 -0.16554,-0.16553 -0.24802,-0.3449 -0.24802,-0.53755 -0.49603,-6.06359 -1.47424,-10.54226 -2.93523,-13.43659 -3.14224,-2.0118 -5.4021,-4.1615 -6.7806,-6.44956 l -0.12401,-0.24802 c -0.11016,2.34225 0.27513,4.27225 1.15758,5.78792 0.11017,0.19265 0.15227,0.41356 0.12401,0.66157 -1.15758,4.49314 -2.70164,9.13674 -4.63031,13.93256 -0.11016,0.3305 -0.37201,0.49604 -0.78557,0.49604 h -2.52164 c -0.27513,0 -0.49604,-0.11017 -0.66157,-0.3305 -0.19265,-0.22091 -0.22091,-0.46777 -0.0825,-0.74405 2.09537,-5.98061 3.05926,-10.61092 2.89433,-13.89107 -1.35023,-1.95702 -2.31523,-3.84478 -2.89433,-5.66389 -2.23269,0.79942 -4.5618,1.24006 -6.98703,1.32312 l -0.8271,18.52182 c 0,0.22091 -0.0825,0.41355 -0.24802,0.57909 -0.16553,0.13785 -0.35818,0.20648 -0.57908,0.20648 h -2.35672 c -0.22091,0 -0.41355,-0.0686 -0.57909,-0.20648 -0.16554,-0.16554 -0.24802,-0.35876 -0.24802,-0.57909 -0.0554,-3.91344 -0.23416,-7.49643 -0.53755,-10.74942 l -0.124,-1.03358 -2.7703,11.94852 c -0.0825,0.41355 -0.3305,0.62004 -0.74405,0.62004 h -2.52165 c -0.24802,0 -0.4545,-0.0825 -0.62003,-0.24802 -0.13785,-0.24802 -0.19265,-0.46777 -0.16554,-0.66157 0.63446,-4.27224 1.10221,-8.26867 1.4056,-11.98942 0.19265,-2.8112 0.17937,-7.15255 -0.0415,-13.02301 -6.80762,-7.96524 -6.35373,-16.52405 1.36408,-25.67422 -1.35023,-0.44066 -2.54941,-1.17144 -3.59672,-2.1912 -0.24802,-0.22091 -0.3305,-0.49603 -0.24802,-0.8271 0.0825,-0.27513 0.28954,-0.4545 0.62004,-0.53756 0.90958,-0.19264 1.80537,-0.52314 2.68717,-0.99206 -3.25299,-0.52314 -6.20151,-1.77762 -8.84778,-3.76224 -0.16553,-0.13785 -0.26127,-0.31665 -0.28953,-0.53756 -0.0271,-0.19264 0.0283,-0.38586 0.16553,-0.57908 0.13785,-0.16554 0.31665,-0.26128 0.53755,-0.28954 0.22091,-0.0271 0.42739,0.0283 0.62004,0.16554 1.70895,1.26774 3.52821,2.20507 5.45747,2.8112 -1.1847,-0.66157 -2.43926,-1.5712 -3.76225,-2.72867 C 14.67867,635.46263 12.75,631.27293 12.75,626.36695 l 0.002,-0.58139 c 0,-0.22091 0.0825,-0.41356 0.24802,-0.57909 0.16553,-0.13785 0.35818,-0.20648 0.57908,-0.20648 0.55141,0 0.82711,0.26185 0.82711,0.78557 v 0.57908 c 0,4.43777 1.75044,8.22718 5.25045,11.36943 l 0.57909,0.49603 c -1.46097,-2.39762 -2.23269,-4.98852 -2.31523,-7.7727 -0.0283,-0.22091 0.0415,-0.41355 0.20649,-0.57909 0.16553,-0.16553 0.35818,-0.24801 0.57908,-0.24801 0.22091,-0.0271 0.41355,0.0415 0.57909,0.20648 0.16554,0.16553 0.24802,0.35818 0.24802,0.57908 0.16553,4.10717 1.87447,7.6342 5.12642,10.5839 l 2.14971,0.78557 c -0.85479,-1.37849 -1.51582,-2.82567 -1.98463,-4.34076 -0.0548,-0.2209 -0.0271,-0.42738 0.0825,-0.62003 0.11016,-0.19264 0.27513,-0.31664 0.49603,-0.37201 0.22091,-0.0554 0.44066,-0.0271 0.66157,0.0825 0.16554,0.0825 0.27513,0.23417 0.3305,0.4545 0.52314,1.84628 1.46097,3.61119 2.8112,5.29195 l 0.9511,0.12401 0.9511,-0.12401 c 1.32312,-1.68135 2.24657,-3.44567 2.7703,-5.29195 0.0554,-0.22091 0.19265,-0.37202 0.41356,-0.4545 0.19264,-0.11016 0.39912,-0.13785 0.62003,-0.0825 0.19264,0.0548 0.3449,0.17937 0.45449,0.37201 0.11017,0.19265 0.13785,0.39913 0.0825,0.62003 -0.44066,1.54403 -1.10221,2.97673 -1.98463,4.29986 0.85422,-0.22091 1.58493,-0.48218 2.1912,-0.78557 3.25298,-2.92135 4.94703,-6.43568 5.08538,-10.54226 0,-0.2209 0.0825,-0.41355 0.24802,-0.57908 0.16553,-0.16554 0.35818,-0.23417 0.57908,-0.20649 0.22091,0 0.41356,0.0825 0.57909,0.24802 0.16554,0.16554 0.23417,0.35876 0.20648,0.57909 -0.0825,2.83896 -0.85421,5.443 -2.31523,7.81419 l 0.62004,-0.53756 c 3.52821,-3.16941 5.29195,-6.96 5.29195,-11.36942 l 5.7e-4,-0.57966 c 0,-0.22091 0.0825,-0.41355 0.24802,-0.57909 0.13785,-0.13785 0.31664,-0.20648 0.53755,-0.20648 0.22091,0 0.41355,0.0686 0.57909,0.20648 0.16496,0.16554 0.24744,0.35818 0.24744,0.57909 z m -8.10314,22.49079 c -2.06717,-1.04744 -4.42389,-2.43926 -7.06957,-4.17583 H 27.5525 c -1.26775,0.8271 -2.49463,1.43271 -3.67985,1.81911 0.90958,0.63445 1.88777,1.04743 2.93523,1.24006 0.33049,0.0554 0.53755,0.23474 0.62003,0.53755 0.13785,0.30339 0.0825,0.56466 -0.16553,0.78557 -4.02419,4.46479 -6.21539,8.73762 -6.5736,12.81659 -0.30338,4.07955 1.21296,8.04778 4.54792,11.90703 h 0.0415 c 1.01973,1.18585 2.25985,2.39762 3.72075,3.63836 0.13785,0.11017 0.22091,0.24802 0.24802,0.41356 l 1.03358,5.5815 v 0.0415 c 0.3305,1.70896 0.57909,3.51434 0.74405,5.41598 0.30338,3.05926 0.48218,6.40793 0.53755,10.04629 h 0.78557 l 0.8271,-18.43914 c 0,-0.2209 0.0825,-0.41355 0.24802,-0.57908 0.13785,-0.16554 0.31664,-0.24802 0.53755,-0.24802 2.86657,0 5.54001,-0.52314 8.02061,-1.57119 2.06717,-0.82711 3.96881,-1.94314 5.70553,-3.34882 -0.0283,-0.7723 0.0686,-1.6397 0.28954,-2.60477 0.0554,-0.19265 0.19264,-0.34491 0.41355,-0.4545 0.19264,-0.11016 0.39912,-0.13785 0.62003,-0.0825 0.22091,0.0554 0.37202,0.17937 0.4545,0.37202 0.11016,0.19264 0.13785,0.39912 0.0825,0.62003 -0.19264,0.71694 -0.26185,1.51582 -0.20648,2.39762 v 0.0415 l 0.16554,1.4056 c 0.22091,0.90958 0.6062,1.79208 1.15758,2.64627 1.29544,2.1497 3.45956,4.18911 6.49106,6.11896 0.16553,0.11016 0.26185,0.20648 0.28953,0.28954 1.54403,2.97672 2.59031,7.45598 3.14225,13.43659 h 0.70309 c -0.16554,-4.76881 -0.57909,-9.35763 -1.24007,-13.76704 -2.3706,-1.68135 -3.87254,-3.48599 -4.50642,-5.41598 -0.16554,-0.71694 -0.24802,-1.26775 -0.24802,-1.65359 v -0.24802 c 0.22091,-1.01973 0.6062,-2.17731 1.15758,-3.47284 0.46893,-1.24006 0.70309,-2.39762 0.70309,-3.47284 0,-1.62538 -0.60619,-3.23866 -1.81911,-4.83747 -1.48806,-2.01238 -3.4312,-3.01821 -5.82941,-3.01821 -0.5514,0 -2.21822,0.13785 -5.0024,0.41355 -2.42597,0.3305 -4.28656,0.49603 -5.5815,0.49603 -3.61119,0 -6.22867,-0.75845 -7.85509,-2.27359 -1.24006,-1.13047 -1.86074,-2.67329 -1.86074,-4.6303 0,-2.17732 1.43271,-4.24449 4.29985,-6.20151 0.16554,-0.11016 0.34491,-0.15111 0.53756,-0.124 2.42537,0.13785 4.05179,-0.1788 4.87836,-0.95111 0.27398,-0.27743 0.45335,-0.57966 0.5364,-0.91073 z m 3.84478,30.47005 c 0.57909,1.79208 1.52956,3.63836 2.85269,5.54001 0.0825,0.13784 0.12401,0.27512 0.12401,0.41355 0.2209,3.33493 -0.64772,7.88285 -2.60478,13.64301 h 0.8271 c 1.68135,-4.18971 3.11463,-8.47509 4.29986,-12.85749 -1.35023,-2.3706 -1.65359,-5.51284 -0.90959,-9.42628 -1.48865,1.0751 -3.01821,1.9703 -4.5894,2.68717 z m -17.7363,-2.8527 c 0.13785,5.04389 0.11016,8.82002 -0.0825,11.32794 -0.24801,3.22478 -0.6754,6.93165 -1.2816,11.12136 h 0.90959 l 3.55523,-15.37973 -0.9511,-5.08538 c -0.68868,-0.55083 -1.40503,-1.21238 -2.14971,-1.98419 z"
       id="path73"
       style="fill:#525252;fill-opacity:1;fill-rule:evenodd;stroke-width:0.14765483"
       inkscape:connector-curvature="0" />
  </g>
</svg>
