<?xml version="1.0" encoding="UTF-8" standalone="no"?>
<svg
   xmlns:dc="http://purl.org/dc/elements/1.1/"
   xmlns:cc="http://creativecommons.org/ns#"
   xmlns:rdf="http://www.w3.org/1999/02/22-rdf-syntax-ns#"
   xmlns:svg="http://www.w3.org/2000/svg"
   xmlns="http://www.w3.org/2000/svg"
   xmlns:sodipodi="http://sodipodi.sourceforge.net/DTD/sodipodi-0.dtd"
   xmlns:inkscape="http://www.inkscape.org/namespaces/inkscape"
   width="100"
   height="100"
   version="1.1"
   viewBox="0 0 75.000002 75.000002"
   id="svg155"
   sodipodi:docname="giraffe.svg"
   inkscape:version="0.92.4 (5da689c313, 2019-01-14)">
  <metadata
     id="metadata159">
    <rdf:RDF>
      <cc:Work
         rdf:about="">
        <dc:format>image/svg+xml</dc:format>
        <dc:type
           rdf:resource="http://purl.org/dc/dcmitype/StillImage" />
        <dc:title></dc:title>
      </cc:Work>
    </rdf:RDF>
  </metadata>
  <sodipodi:namedview
     pagecolor="#ffffff"
     bordercolor="#666666"
     borderopacity="1"
     objecttolerance="10"
     gridtolerance="10"
     guidetolerance="10"
     inkscape:pageopacity="0"
     inkscape:pageshadow="2"
     inkscape:window-width="1366"
     inkscape:window-height="703"
     id="namedview157"
     showgrid="false"
     units="px"
     inkscape:zoom="2.0228571"
     inkscape:cx="108.50115"
     inkscape:cy="47.480704"
     inkscape:window-x="0"
     inkscape:window-y="0"
     inkscape:window-maximized="1"
     inkscape:current-layer="g153" />
  <defs
     id="defs71">
    <symbol
       id="w"
       overflow="visible"
       style="overflow:visible">
      <path
         d="m 18.766,-1.125 c -0.96875,0.5 -1.9805,0.875 -3.0312,1.125 -1.043,0.25781 -2.1367,0.39062 -3.2812,0.39062 -3.3984,0 -6.0898,-0.94531 -8.0781,-2.8438 -1.9922,-1.9062 -2.9844,-4.4844 -2.9844,-7.7344 0,-3.2578 0.99219,-5.8359 2.9844,-7.7344 1.9883,-1.9062 4.6797,-2.8594 8.0781,-2.8594 1.1445,0 2.2383,0.13281 3.2812,0.39062 1.0508,0.25 2.0625,0.625 3.0312,1.125 v 4.2188 c -0.98047,-0.65625 -1.9453,-1.1406 -2.8906,-1.4531 -0.94922,-0.3125 -1.9492,-0.46875 -3,-0.46875 -1.875,0 -3.3516,0.60547 -4.4219,1.8125 -1.0742,1.1992 -1.6094,2.8555 -1.6094,4.9688 0,2.1055 0.53516,3.7617 1.6094,4.9688 1.0703,1.1992 2.5469,1.7969 4.4219,1.7969 1.0508,0 2.0508,-0.14844 3,-0.45312 0.94531,-0.3125 1.9102,-0.80078 2.8906,-1.4688 z"
         id="path2"
         inkscape:connector-curvature="0" />
    </symbol>
    <symbol
       id="c"
       overflow="visible"
       style="overflow:visible">
      <path
         d="m 13.734,-11.141 c -0.4375,-0.19531 -0.87109,-0.34375 -1.2969,-0.4375 -0.41797,-0.10156 -0.83984,-0.15625 -1.2656,-0.15625 -1.2617,0 -2.2305,0.40625 -2.9062,1.2188 -0.67969,0.80469 -1.0156,1.9531 -1.0156,3.4531 v 7.0625 H 2.3591 v -15.312 h 4.8906 v 2.5156 c 0.625,-1 1.3438,-1.7266 2.1562,-2.1875 0.82031,-0.46875 1.8008,-0.70312 2.9375,-0.70312 0.16406,0 0.34375,0.01172 0.53125,0.03125 0.19531,0.01172 0.47656,0.03906 0.84375,0.07813 z"
         id="path5"
         inkscape:connector-curvature="0" />
    </symbol>
    <symbol
       id="a"
       overflow="visible"
       style="overflow:visible">
      <path
         d="m 17.641,-7.7031 v 1.4062 H 6.188 c 0.125,1.1484 0.53906,2.0078 1.25,2.5781 0.70703,0.57422 1.7031,0.85938 2.9844,0.85938 1.0312,0 2.082,-0.14844 3.1562,-0.45312 1.082,-0.3125 2.1914,-0.77344 3.3281,-1.3906 v 3.7656 c -1.1562,0.4375 -2.3125,0.76562 -3.4688,0.98438 -1.1562,0.22656 -2.3125,0.34375 -3.4688,0.34375 -2.7734,0 -4.9297,-0.70312 -6.4688,-2.1094 -1.5312,-1.4062 -2.2969,-3.3789 -2.2969,-5.9219 0,-2.5 0.75391,-4.4609 2.2656,-5.8906 1.5078,-1.4375 3.582,-2.1562 6.2188,-2.1562 2.4062,0 4.332,0.73047 5.7812,2.1875 1.4453,1.4492 2.1719,3.3828 2.1719,5.7969 z m -5.0312,-1.625 c 0,-0.92578 -0.27344,-1.6719 -0.8125,-2.2344 -0.54297,-0.57031 -1.25,-0.85938 -2.125,-0.85938 -0.94922,0 -1.7188,0.26562 -2.3125,0.79688 -0.5937,0.53126 -0.96484,1.2969 -1.1094,2.2969 z"
         id="path8"
         inkscape:connector-curvature="0" />
    </symbol>
    <symbol
       id="f"
       overflow="visible"
       style="overflow:visible">
      <path
         d="m 9.2188,-6.8906 c -1.0234,0 -1.793,0.17188 -2.3125,0.51562 -0.51172,0.34375 -0.76562,0.85547 -0.76562,1.5312 0,0.625 0.20703,1.1172 0.625,1.4688 0.41406,0.34375 0.98828,0.51562 1.7188,0.51562 0.92578,0 1.7031,-0.32812 2.3281,-0.98438 0.63281,-0.66406 0.95312,-1.4922 0.95312,-2.4844 v -0.5625 z m 7.4688,-1.8438 V 0 h -4.9219 v -2.2656 c -0.65625,0.92969 -1.3984,1.6055 -2.2188,2.0312 -0.82422,0.41406 -1.8242,0.625 -3,0.625 -1.5859,0 -2.8711,-0.45703 -3.8594,-1.375 -0.99219,-0.92578 -1.4844,-2.1289 -1.4844,-3.6094 0,-1.7891 0.61328,-3.1016 1.8438,-3.9375 1.2383,-0.84375 3.1797,-1.2656 5.8281,-1.2656 h 2.8906 v -0.39062 c 0,-0.76953 -0.30859,-1.332 -0.92188,-1.6875 -0.61719,-0.36328 -1.5703,-0.54688 -2.8594,-0.54688 -1.0547,0 -2.0312,0.10547 -2.9375,0.3125 -0.89844,0.21094 -1.7305,0.52344 -2.5,0.9375 v -3.7344 c 1.0391,-0.25 2.0859,-0.44141 3.1406,-0.57812 1.0625,-0.13281 2.125,-0.20312 3.1875,-0.20312 2.7578,0 4.75,0.54688 5.9688,1.6406 1.2266,1.0859 1.8438,2.8555 1.8438,5.3125 z"
         id="path11"
         inkscape:connector-curvature="0" />
    </symbol>
    <symbol
       id="b"
       overflow="visible"
       style="overflow:visible">
      <path
         d="m 7.7031,-19.656 v 4.3438 H 12.75 v 3.5 H 7.7031 v 6.5 c 0,0.71094 0.14062,1.1875 0.42188,1.4375 0.28126,0.25 0.83594,0.375 1.6719,0.375 h 2.5156 v 3.5 h -4.1875 c -1.9375,0 -3.3125,-0.39844 -4.125,-1.2031 -0.80469,-0.8125 -1.2031,-2.1797 -1.2031,-4.1094 v -6.5 h -2.4219 v -3.5 h 2.4219 v -4.3438 z"
         id="path14"
         inkscape:connector-curvature="0" />
    </symbol>
    <symbol
       id="m"
       overflow="visible"
       style="overflow:visible">
      <path
         d="m 12.766,-13.078 v -8.2031 h 4.9219 V -1e-4 H 12.766 v -2.2188 c -0.66797,0.90625 -1.4062,1.5703 -2.2188,1.9844 -0.8126,0.4141 -1.7578,0.625 -2.8281,0.625 -1.8867,0 -3.4336,-0.75 -4.6406,-2.25 -1.2109,-1.5 -1.8125,-3.4258 -1.8125,-5.7812 0,-2.3633 0.60156,-4.2969 1.8125,-5.7969 1.207,-1.5 2.7539,-2.25 4.6406,-2.25 1.0625,0 2,0.21484 2.8125,0.64062 0.82031,0.42969 1.5664,1.0859 2.2344,1.9688 z m -3.2188,9.9219 c 1.0391,0 1.8359,-0.37891 2.3906,-1.1406 0.55078,-0.76953 0.82812,-1.8828 0.82812,-3.3438 0,-1.457 -0.27734,-2.5664 -0.82812,-3.3281 -0.55469,-0.76953 -1.3516,-1.1562 -2.3906,-1.1562 -1.043,0 -1.8398,0.38672 -2.3906,1.1562 -0.55469,0.76172 -0.82812,1.8711 -0.82812,3.3281 0,1.4609 0.27344,2.5742 0.82812,3.3438 0.55078,0.76172 1.3477,1.1406 2.3906,1.1406 z"
         id="path17"
         inkscape:connector-curvature="0" />
    </symbol>
    <symbol
       id="l"
       overflow="visible"
       style="overflow:visible">
      <path
         d="m 10.5,-3.1562 c 1.0508,0 1.8516,-0.37891 2.4062,-1.1406 0.55078,-0.76953 0.82812,-1.8828 0.82812,-3.3438 0,-1.457 -0.27734,-2.5664 -0.82812,-3.3281 -0.55469,-0.76953 -1.3555,-1.1562 -2.4062,-1.1562 -1.0547,0 -1.8594,0.38672 -2.4219,1.1562 -0.55469,0.77344 -0.82812,1.8828 -0.82812,3.3281 0,1.4492 0.27344,2.5586 0.82812,3.3281 0.5625,0.77344 1.3672,1.1562 2.4219,1.1562 z m -3.25,-9.9219 c 0.67578,-0.88281 1.4219,-1.5391 2.2344,-1.9688 0.82031,-0.42578 1.7656,-0.64062 2.8281,-0.64062 1.8945,0 3.4453,0.75 4.6562,2.25 1.207,1.5 1.8125,3.4336 1.8125,5.7969 0,2.3555 -0.60547,4.2812 -1.8125,5.7812 -1.2109,1.5 -2.7617,2.25 -4.6562,2.25 -1.0625,0 -2.0078,-0.21094 -2.8281,-0.625 C 8.6719,-0.6602 7.9258,-1.32032 7.25,-2.21882 V -2e-5 H 2.3594 v -21.281 H 7.25 Z"
         id="path20"
         inkscape:connector-curvature="0" />
    </symbol>
    <symbol
       id="k"
       overflow="visible"
       style="overflow:visible">
      <path
         d="m 0.34375,-15.312 h 4.8906 l 4.125,10.391 3.5,-10.391 h 4.8906 l -6.4375,16.766 c -0.64844,1.6953 -1.4023,2.8828 -2.2656,3.5625 -0.86719,0.6875 -2,1.0312 -3.4062,1.0312 H 2.79685 V 2.8289 h 1.5312 c 0.83203,0 1.4375,-0.13672 1.8125,-0.40625 C 6.52336,2.16093 6.82024,1.69218 7.03117,1.01645 L 7.17179,0.59457 Z"
         id="path23"
         inkscape:connector-curvature="0" />
    </symbol>
    <symbol
       id="j"
       overflow="visible"
       style="overflow:visible">
      <path
         d="m 16.781,-19.766 v 4.3125 c -1.125,-0.5 -2.2266,-0.875 -3.2969,-1.125 -1.0625,-0.25781 -2.0703,-0.39062 -3.0156,-0.39062 -1.25,0 -2.1797,0.17969 -2.7812,0.53125 -0.60547,0.34375 -0.90625,0.88281 -0.90625,1.6094 0,0.54297 0.20312,0.96875 0.60938,1.2812 0.40625,0.30469 1.1406,0.5625 2.2031,0.78125 l 2.25,0.45312 c 2.2695,0.44922 3.8789,1.1406 4.8281,2.0781 0.95703,0.92969 1.4375,2.2461 1.4375,3.9531 0,2.25 -0.66797,3.9297 -2,5.0312 -1.3359,1.0938 -3.3711,1.6406 -6.1094,1.6406 -1.3047,0 -2.6055,-0.125 -3.9062,-0.375 -1.3047,-0.23828 -2.6055,-0.59766 -3.9062,-1.0781 v -4.4531 c 1.3008,0.69922 2.5625,1.2266 3.7812,1.5781 1.2188,0.34375 2.3906,0.51562 3.5156,0.51562 1.1562,0 2.0352,-0.1875 2.6406,-0.5625 0.61328,-0.38281 0.92188,-0.9375 0.92188,-1.6562 0,-0.63281 -0.21094,-1.125 -0.625,-1.4688 -0.41797,-0.34375 -1.2461,-0.65625 -2.4844,-0.9375 l -2.0312,-0.4375 c -2.043,-0.4375 -3.5391,-1.1328 -4.4844,-2.0938 -0.9375,-0.95703 -1.4062,-2.25 -1.4062,-3.875 0,-2.0312 0.65625,-3.5938 1.9688,-4.6875 1.31255,-1.0937 3.1953,-1.6406 5.6562,-1.6406 1.125,0 2.2734,0.08594 3.4531,0.25 1.1875,0.16797 2.4141,0.42188 3.6875,0.76562 z"
         id="path26"
         inkscape:connector-curvature="0" />
    </symbol>
    <symbol
       id="i"
       overflow="visible"
       style="overflow:visible">
      <path
         d="m 12.422,-21.281 v 3.2188 H 9.7189 c -0.6875,0 -1.1719,0.125 -1.4531,0.375 -0.27344,0.25 -0.40625,0.6875 -0.40625,1.3125 v 1.0625 h 4.1875 v 3.5 H 7.85955 V -2e-4 h -4.8906 v -11.812 h -2.4375 v -3.5 h 2.4375 v -1.0625 c 0,-1.6641 0.46094,-2.8984 1.3906,-3.7031 0.92578,-0.80078 2.3672,-1.2031 4.3281,-1.2031 z"
         id="path29"
         inkscape:connector-curvature="0" />
    </symbol>
    <symbol
       id="e"
       overflow="visible"
       style="overflow:visible">
      <path
         d="m 2.1875,-5.9688 v -9.3438 h 4.9219 v 1.5312 c 0,0.83594 -0.00781,1.875 -0.015625,3.125 -0.011719,1.25 -0.015625,2.0859 -0.015625,2.5 0,1.2422 0.03125,2.1328 0.09375,2.6719 0.070313,0.54297 0.17969,0.93359 0.32812,1.1719 0.20703,0.32422 0.47266,0.57422 0.79688,0.75 0.32031,0.16797 0.69141,0.25 1.1094,0.25 1.0195,0 1.8203,-0.39062 2.4062,-1.1719 0.58203,-0.78125 0.875,-1.8672 0.875,-3.2656 v -7.5625 h 4.8906 V -6e-4 H 12.6875 V -2.2194 C 11.94531,-1.32096 11.1641,-0.6608 10.3437,-0.235 9.51948,0.17906 8.6093,0.39 7.6093,0.39 5.8476,0.39 4.5038,-0.14906 3.5781,-1.235 2.64841,-2.317 2.1875,-3.8952 2.1875,-5.9694 Z"
         id="path32"
         inkscape:connector-curvature="0" />
    </symbol>
    <symbol
       id="h"
       overflow="visible"
       style="overflow:visible">
      <path
         d="M 2.3594,-21.281 H 7.25 V 0 H 2.3594 Z"
         id="path35"
         inkscape:connector-curvature="0" />
    </symbol>
    <symbol
       id="v"
       overflow="visible"
       style="overflow:visible">
      <path
         d="m 2.5781,-20.406 h 6.6875 l 4.6562,10.922 4.6719,-10.922 h 6.6875 V 0 H 20.2968 V -14.938 L 15.5937,-3.922 H 12.2656 L 7.5625,-14.938 V 0 H 2.5781 Z"
         id="path38"
         inkscape:connector-curvature="0" />
    </symbol>
    <symbol
       id="u"
       overflow="visible"
       style="overflow:visible">
      <path
         d="m 14.312,-14.828 v 3.7188 c -1.043,-0.4375 -2.0547,-0.76562 -3.0312,-0.98438 -0.98047,-0.21875 -1.9023,-0.32812 -2.7656,-0.32812 -0.92969,0 -1.6211,0.11719 -2.0781,0.34375 -0.44922,0.23047 -0.67188,0.58984 -0.67188,1.0781 0,0.38672 0.17188,0.68359 0.51562,0.89062 0.34375,0.21094 0.95703,0.36719 1.8438,0.46875 l 0.85938,0.125 c 2.5078,0.32422 4.1953,0.85156 5.0625,1.5781 0.86328,0.73047 1.2969,1.8711 1.2969,3.4219 0,1.6367 -0.60547,2.8672 -1.8125,3.6875 -1.1992,0.8125 -2.9922,1.2188 -5.375,1.2188 -1.0234,0 -2.0742,-0.078125 -3.1562,-0.23438 -1.0742,-0.15625 -2.1797,-0.39453 -3.3125,-0.71875 v -3.7188 c 0.96875,0.48047 1.9609,0.83984 2.9844,1.0781 1.0312,0.23047 2.0781,0.34375 3.1406,0.34375 0.95703,0 1.6758,-0.12891 2.1562,-0.39062 0.47656,-0.26953 0.71875,-0.66406 0.71875,-1.1875 0,-0.4375 -0.16797,-0.75781 -0.5,-0.96875 -0.33594,-0.21875 -0.99609,-0.38281 -1.9844,-0.5 L 7.34339,-6.01551 c -2.1797,-0.26953 -3.7031,-0.77344 -4.5781,-1.5156 -0.875,-0.73828 -1.3125,-1.8594 -1.3125,-3.3594 0,-1.625 0.55078,-2.8281 1.6562,-3.6094 1.1133,-0.78906 2.8203,-1.1875 5.125,-1.1875 0.89453,0 1.8359,0.07422 2.8281,0.21875 1,0.13672 2.082,0.35156 3.25,0.64062 z"
         id="path41"
         inkscape:connector-curvature="0" />
    </symbol>
    <symbol
       id="t"
       overflow="visible"
       style="overflow:visible">
      <path
         d="M 2.3594,-15.312 H 7.25 V 0 H 2.3594 Z m 0,-5.9688 H 7.25 v 4 H 2.3594 Z"
         id="path44"
         inkscape:connector-curvature="0" />
    </symbol>
    <symbol
       id="g"
       overflow="visible"
       style="overflow:visible">
      <path
         d="m 16.547,-12.766 c 0.61328,-0.94531 1.3477,-1.6719 2.2031,-2.1719 0.85156,-0.5 1.7891,-0.75 2.8125,-0.75 1.7578,0 3.0977,0.54688 4.0156,1.6406 0.92578,1.0859 1.3906,2.6562 1.3906,4.7188 V -4e-4 h -4.9219 v -7.9844 -0.35938 c 0.0078,-0.13281 0.01563,-0.32031 0.01563,-0.5625 0,-1.082 -0.16406,-1.8633 -0.48438,-2.3438 -0.3125,-0.48828 -0.82422,-0.73438 -1.5312,-0.73438 -0.92969,0 -1.6484,0.38672 -2.1562,1.1562 -0.51172,0.76172 -0.77344,1.8672 -0.78125,3.3125 v 7.5156 h -4.9219 v -7.9844 c 0,-1.6953 -0.14844,-2.7852 -0.4375,-3.2656 -0.29297,-0.48828 -0.8125,-0.73438 -1.5625,-0.73438 -0.9375,0 -1.6641,0.38672 -2.1719,1.1562 -0.51172,0.76172 -0.76562,1.8594 -0.76562,3.2969 v 7.5312 h -4.9219 v -15.312 h 4.9219 v 2.2344 c 0.60156,-0.86328 1.2891,-1.5156 2.0625,-1.9531 0.78125,-0.4375 1.6406,-0.65625 2.5781,-0.65625 1.0625,0 2,0.25781 2.8125,0.76562 0.8125,0.51172 1.4258,1.2305 1.8438,2.1562 z"
         id="path47"
         inkscape:connector-curvature="0" />
    </symbol>
    <symbol
       id="d"
       overflow="visible"
       style="overflow:visible">
      <path
         d="m 9.6406,-12.188 c -1.0859,0 -1.9141,0.39062 -2.4844,1.1719 -0.57422,0.78125 -0.85938,1.9062 -0.85938,3.375 0,1.4688 0.28516,2.5938 0.85938,3.375 0.57031,0.77344 1.3984,1.1562 2.4844,1.1562 1.0625,0 1.875,-0.38281 2.4375,-1.1562 0.57031,-0.78125 0.85938,-1.9062 0.85938,-3.375 0,-1.4688 -0.28906,-2.5938 -0.85938,-3.375 -0.5625,-0.78125 -1.375,-1.1719 -2.4375,-1.1719 z m 0,-3.5 c 2.6328,0 4.6914,0.71484 6.1719,2.1406 1.4766,1.418 2.2188,3.3867 2.2188,5.9062 0,2.5117 -0.74219,4.4805 -2.2188,5.9062 C 14.332,-0.317 12.2734,0.39 9.6406,0.39 6.9922,0.39 4.9258,-0.31703 3.4375,-1.735 1.9453,-3.1608 1.2031,-5.1295 1.2031,-7.6412 c 0,-2.5195 0.74219,-4.4883 2.2344,-5.9062 1.4883,-1.4258 3.5547,-2.1406 6.2031,-2.1406 z"
         id="path50"
         inkscape:connector-curvature="0" />
    </symbol>
    <symbol
       id="s"
       overflow="visible"
       style="overflow:visible">
      <path
         d="M 17.75,-9.3281 V 0 h -4.9219 v -7.1094 c 0,-1.3438 -0.03125,-2.2656 -0.09375,-2.7656 -0.0625,-0.5 -0.16797,-0.86719 -0.3125,-1.1094 -0.1875,-0.3125 -0.44922,-0.55469 -0.78125,-0.73438 -0.32422,-0.17578 -0.69531,-0.26562 -1.1094,-0.26562 -1.0234,0 -1.8242,0.39844 -2.4062,1.1875 -0.58594,0.78125 -0.875,1.8711 -0.875,3.2656 V -1e-4 H 2.3594 v -21.281 H 7.25 v 8.2031 c 0.73828,-0.88281 1.5195,-1.5391 2.3438,-1.9688 0.83203,-0.42578 1.75,-0.64062 2.75,-0.64062 1.7695,0 3.1133,0.54688 4.0312,1.6406 0.91406,1.0859 1.375,2.6562 1.375,4.7188 z"
         id="path53"
         inkscape:connector-curvature="0" />
    </symbol>
    <symbol
       id="r"
       overflow="visible"
       style="overflow:visible">
      <path
         d="m 2.5781,-20.406 h 5.875 l 7.4219,14 v -14 h 4.9844 V 0 h -5.875 L 7.5625,-14 V 0 H 2.5781 Z"
         id="path56"
         inkscape:connector-curvature="0" />
    </symbol>
    <symbol
       id="q"
       overflow="visible"
       style="overflow:visible">
      <path
         d="M 17.75,-9.3281 V 0 h -4.9219 v -7.1406 c 0,-1.3203 -0.03125,-2.2344 -0.09375,-2.7344 -0.0625,-0.5 -0.16797,-0.86719 -0.3125,-1.1094 -0.1875,-0.3125 -0.44922,-0.55469 -0.78125,-0.73438 -0.32422,-0.17578 -0.69531,-0.26562 -1.1094,-0.26562 -1.0234,0 -1.8242,0.39844 -2.4062,1.1875 -0.58594,0.78125 -0.875,1.8711 -0.875,3.2656 V -1e-4 H 2.3594 v -15.312 H 7.25 v 2.2344 c 0.73828,-0.88281 1.5195,-1.5391 2.3438,-1.9688 0.83203,-0.42578 1.75,-0.64062 2.75,-0.64062 1.7695,0 3.1133,0.54688 4.0312,1.6406 0.91406,1.0859 1.375,2.6562 1.375,4.7188 z"
         id="path59"
         inkscape:connector-curvature="0" />
    </symbol>
    <symbol
       id="p"
       overflow="visible"
       style="overflow:visible">
      <path
         d="m 2.5781,-20.406 h 8.7344 c 2.5938,0 4.582,0.57812 5.9688,1.7344 1.3945,1.1484 2.0938,2.7891 2.0938,4.9219 0,2.1367 -0.69922,3.7812 -2.0938,4.9375 -1.3867,1.1562 -3.375,1.7344 -5.9688,1.7344 H 7.8281 V 3e-4 h -5.25 z m 5.25,3.8125 v 5.7031 H 10.75 c 1.0195,0 1.8047,-0.25 2.3594,-0.75 0.5625,-0.5 0.84375,-1.2031 0.84375,-2.1094 0,-0.91406 -0.28125,-1.6172 -0.84375,-2.1094 -0.55469,-0.48828 -1.3398,-0.73438 -2.3594,-0.73438 z"
         id="path62"
         inkscape:connector-curvature="0" />
    </symbol>
    <symbol
       id="o"
       overflow="visible"
       style="overflow:visible">
      <path
         d="M 2.3594,-15.312 H 7.25 v 15.031 c 0,2.0508 -0.49609,3.6172 -1.4844,4.7031 -0.98047,1.082 -2.4062,1.625 -4.2812,1.625 H -0.9375 V 2.8283 h 0.85938 c 0.92578,0 1.5625,-0.21094 1.9062,-0.625 0.35156,-0.41797 0.53125,-1.2461 0.53125,-2.4844 z m 0,-5.9688 H 7.25 v 4 H 2.3594 Z"
         id="path65"
         inkscape:connector-curvature="0" />
    </symbol>
    <symbol
       id="n"
       overflow="visible"
       style="overflow:visible">
      <path
         d="m 14.719,-14.828 v 3.9844 c -0.65625,-0.45703 -1.3242,-0.79688 -2,-1.0156 -0.66797,-0.21875 -1.3594,-0.32812 -2.0781,-0.32812 -1.3672,0 -2.4336,0.40234 -3.2031,1.2031 -0.76172,0.79297 -1.1406,1.9062 -1.1406,3.3438 0,1.4297 0.37891,2.543 1.1406,3.3438 0.76953,0.79297 1.8359,1.1875 3.2031,1.1875 0.75781,0 1.4844,-0.10938 2.1719,-0.32812 0.6875,-0.22656 1.3203,-0.56641 1.9062,-1.0156 v 4 c -0.76172,0.28125 -1.5391,0.48828 -2.3281,0.625 -0.78125,0.14453 -1.5742,0.21875 -2.375,0.21875 -2.7617,0 -4.9219,-0.70703 -6.4844,-2.125 -1.5547,-1.4141 -2.3281,-3.3828 -2.3281,-5.9062 0,-2.5312 0.77344,-4.5039 2.3281,-5.9219 1.5625,-1.4141 3.7227,-2.125 6.4844,-2.125 0.80078,0 1.5938,0.07422 2.375,0.21875 0.78125,0.13672 1.5547,0.35156 2.3281,0.64062 z"
         id="path68"
         inkscape:connector-curvature="0" />
    </symbol>
  </defs>
  <g
     id="g153"
     transform="translate(0,-624.99998)">
    <path
       d="m 32.01466,653.15954 c 0.82706,-1.68185 1.58484,-2.7424 2.27346,-3.18312 0.82706,-0.4689 2.21928,-1.00642 4.1756,-1.6126 1.73663,-0.57906 3.15536,-1.29479 4.25814,-2.14959 3.47206,-3.11446 7.73064,-8.10271 12.77381,-14.96548 0.24915,-0.33048 0.23473,-0.66153 -0.0415,-0.99201 -0.41352,-0.49601 -0.67479,-1.04738 -0.78552,-1.6535 0.91011,0.66153 1.81901,1.116 2.7291,1.36401 l 0.70305,0.248 h 0.0415 l 0.0415,0.0415 2.27347,0.74401 h 0.0415 l 0.868,0.248 c 0.46774,0.16553 1.26768,0.74401 2.3969,1.73663 1.13041,0.99201 1.73721,1.70886 1.819,2.14959 l -0.41353,0.41353 c -0.248,0.27511 -0.3991,0.41352 -0.45447,0.41352 -0.744,-0.19263 -1.33632,-0.35816 -1.77752,-0.496 -1.48798,-0.30279 -2.36988,-0.45447 -2.64494,-0.45447 -1.32363,-0.13784 -2.24645,-0.44064 -2.77074,-0.90954 -0.35816,-0.35816 -0.60617,-0.73015 -0.74343,-1.116 -0.0836,-0.19263 -0.23416,-0.34489 -0.45563,-0.45447 -0.22089,-0.0548 -0.42736,-0.0548 -0.62,0 -0.22089,0.0825 -0.37142,0.23415 -0.45447,0.45447 -0.0825,0.2209 -0.0825,0.42736 0,0.62 0.24801,0.52426 0.49716,0.95105 0.74401,1.28153 -0.66153,1.6535 -1.46089,3.26609 -2.39749,4.8372 l -2.77015,5.00213 c -0.79937,1.43263 -2.77074,3.91323 -5.91163,7.44111 -3.36192,3.61099 -5.04362,6.10431 -5.04362,7.48274 0,0.79937 0.17937,1.6126 0.53638,2.43912 0.30337,0.68864 0.45562,1.30864 0.45562,1.86065 0,0.46889 -0.66211,2.3151 -1.98452,5.53971 -0.99201,2.3151 -1.87438,4.34052 -2.64613,6.07714 v 0.0415 l -0.0415,0.124 -0.0825,0.124 -0.53752,1.44706 c -2.48061,6.06327 -3.69353,13.09096 -3.63817,21.08397 l -0.53637,-10e-4 c -0.55137,-8.29539 0.24801,-15.65352 2.3969,-22.07616 0.0836,-0.16552 0.0836,-0.33047 0,-0.496 l -0.62,-1.90154 c -0.44063,-1.40553 -0.77169,-2.85254 -0.99142,-4.34053 -0.0271,-0.22089 -0.124,-0.3991 -0.29009,-0.53752 -0.19264,-0.13784 -0.38585,-0.19263 -0.57906,-0.16553 -0.22089,0.0271 -0.39853,0.124 -0.53637,0.28952 -0.16553,0.19264 -0.22089,0.39911 -0.16553,0.62 0.13784,1.15752 0.39911,2.45286 0.78553,3.88607 -0.13784,0.0271 -0.46775,0.0415 -0.99201,0.0415 -0.88128,0 -2.16273,-0.28952 -3.84458,-0.868 -1.46089,-0.55137 -2.61777,-0.88242 -3.47206,-0.99201 0.44064,-1.37841 0.85417,-2.563 1.24,-3.55504 0.0825,-0.19263 0.0825,-0.3991 0,-0.62 -0.11074,-0.22089 -0.26184,-0.37199 -0.45563,-0.45447 -0.22089,-0.0554 -0.42736,-0.0554 -0.61999,0 -0.2209,0.11016 -0.35817,0.26126 -0.41353,0.45447 -0.60502,1.54395 -1.14369,3.12775 -1.61142,4.75408 -2.3433,8.07555 -2.9079,16.72839 -1.69558,25.96222 l -0.78552,-10e-4 c -0.9378,-6.8356 -1.40553,-10.56945 -1.40553,-11.20329 0,-0.27511 0.0957,-1.01968 0.28952,-2.23257 0.24801,-1.26768 0.24801,-2.2181 0,-2.85254 l -1.07504,-4.25813 c -0.55137,-2.23257 -0.89569,-4.36828 -1.03353,-6.40758 0,-0.22089 -0.0825,-0.3991 -0.248,-0.53752 -0.19264,-0.16553 -0.39911,-0.23415 -0.62,-0.20647 -0.22089,0 -0.3991,0.0825 -0.53752,0.248 -0.13727,0.19264 -0.19264,0.39911 -0.16553,0.62 0.0836,1.87438 0.41353,4.10591 0.99201,6.69711 l 0.74401,2.85254 c -1.81901,4.96123 -2.64613,10.72108 -2.48062,17.28058 h -0.57905 l -0.20647,-2.52151 c -0.24801,-3.05909 0.0969,-6.32519 1.03352,-9.79769 0.9378,-3.74831 1.35131,-5.93939 1.24,-6.57324 -0.0271,-0.44064 -0.248,-1.55664 -0.66153,-3.34863 -0.38585,-1.57111 -0.74401,-2.86642 -1.07505,-3.88607 0,-2.92119 0.34374,-5.59507 1.03353,-8.02017 0.60617,-2.25974 2.57629,-3.85905 5.91104,-4.79557 4.21768,-0.7988 7.20753,-1.6535 8.97191,-2.563 1.18578,-0.52369 2.23316,-1.76364 3.14266,-3.72114 z m -1.44706,-0.66096 c -0.74401,1.57111 -1.54394,2.54927 -2.39749,2.93507 -1.56993,0.77169 -4.45081,1.58484 -8.64029,2.43913 -3.99621,1.13041 -6.37997,3.10058 -7.15113,5.91163 -0.744,2.75568 -1.08832,5.62209 -1.03352,8.59865 v 0.0415 c 0,1.21289 -0.53753,2.27346 -1.6125998,3.18312 -1.48799,1.13041 -2.23257,2.32839 -2.23257,3.59653 v 0.496 c 0,0.55137 0.27626,0.82706 0.82706,0.82706 0.19263,0 0.37199,-0.0825 0.53752,-0.248 0.16553,-0.16553 0.248,-0.35817 0.248,-0.57906 v -0.496 c 0,-0.7169 0.55138,-1.50246 1.6534998,-2.3566 0.55137,-0.44063 1.00642,-0.93664 1.36401,-1.48798 l 0.28952,1.15752 c 0.41353,1.70827 0.64768,2.77015 0.70305,3.18312 0,0.66153 -0.42737,2.64613 -1.28153,5.95312 -0.96431,3.63816 -1.29479,7.08365 -0.99201,10.33528 l 0.24915,3.2246 c 0,0.2209 0.0825,0.39911 0.248,0.53753 0.11016,0.16552 0.27511,0.248 0.49601,0.248 l 2.18871,5.9e-4 c 0.19264,0 0.38585,-0.0969 0.57906,-0.28952 0.16438,-0.16553 0.23415,-0.35816 0.20647,-0.57906 -0.13784,-4.63005 0.17936,-8.73596 0.9499,-12.3198 l -0.0415,0.372 c 0,0.7169 0.496,4.7402 1.48798,12.0719 0.0554,0.496 0.33048,0.74401 0.82706,0.74401 l 2.35777,5.9e-4 c 0.248,0 0.46775,-0.0969 0.66153,-0.28952 0.13784,-0.24801 0.19264,-0.4689 0.16553,-0.66154 -1.26768,-9.06758 -0.78553,-17.61131 1.44706,-25.63148 0.60616,0.0548 1.72215,0.35816 3.34863,0.90953 1.95632,0.68864 3.41728,1.03353 4.38215,1.03353 0.74401,0 1.24,-0.0271 1.48799,-0.0825 l 0.248,0.78553 c -2.20437,6.75248 -2.97656,14.46939 -2.3151,23.15102 0,0.2209 0.0836,0.39911 0.248,0.53752 0.13784,0.16553 0.31778,0.24801 0.53752,0.24801 h 2.14959 c 0.19264,0 0.39911,-0.0825 0.62,-0.24801 0.19264,-0.19263 0.26184,-0.3991 0.20647,-0.61999 -0.13726,-7.90944 1.00642,-14.90938 3.43102,-21.00129 3.05909,7.85467 5.16764,14.90938 6.32519,21.16665 0.0825,0.4689 0.35816,0.70305 0.82706,0.70305 l 2.10913,-5.9e-4 c 0.248,0 0.46775,-0.0969 0.66153,-0.28952 0.13784,-0.248 0.19264,-0.4689 0.16553,-0.66153 -1.35131,-9.81217 -3.55504,-19.55435 -6.61473,-29.22817 1.35016,-3.2246 2.02557,-5.18152 2.02557,-5.87073 0,-0.74401 -0.19263,-1.58484 -0.57905,-2.52151 -0.30337,-0.60617 -0.45448,-1.19906 -0.45448,-1.77752 0,-0.93664 1.52948,-3.07239 4.58857,-6.40758 3.27998,-3.66518 5.33315,-6.24266 6.15968,-7.73064 l 2.77015,-4.96123 c 0.99201,-1.68184 1.77752,-3.23848 2.35659,-4.67169 0.68979,0.38584 1.62648,0.62 2.81105,0.70305 0.66153,0.11016 1.44705,0.27511 2.35659,0.496 1.26826,0.38585 1.9984,0.57906 2.19108,0.57906 0.52426,0 1.06063,-0.31663 1.6126,-0.95105 0.57905,-0.57906 0.868,-1.07505 0.868,-1.48799 0,-0.90953 -0.77227,-2.03989 -2.31511,-3.39012 -1.3513,-1.21231 -2.35718,-1.92915 -3.01804,-2.14959 l -0.16553,-0.0825 0.33048,-1.81901 c 0.0271,-0.22089 -0.0138,-0.42736 -0.124,-0.62 -0.13727,-0.16552 -0.31663,-0.27511 -0.53637,-0.33047 -0.2209,-0.0283 -0.42737,0.0138 -0.62,0.12399 -0.19264,0.13785 -0.30337,0.31663 -0.33048,0.53753 l -0.28952,1.69498 -0.99201,-0.33047 -0.66153,-3.18312 c -0.0548,-0.2209 -0.17936,-0.39911 -0.372,-0.53753 -0.16553,-0.11015 -0.35874,-0.1511 -0.57905,-0.12399 -0.19264,0.0554 -0.35817,0.17936 -0.49601,0.37199 -0.13784,0.16553 -0.17936,0.35816 -0.124,0.57906 l 0.45447,2.27346 c -1.12926,-0.41353 -2.12183,-1.12926 -2.97656,-2.14959 -0.27511,-0.27511 -0.57905,-0.34489 -0.90953,-0.20647 -0.35874,0.11016 -0.53752,0.34489 -0.53752,0.70305 -0.16553,1.62648 0.13784,3.01805 0.90953,4.1756 -4.68483,6.39385 -8.76417,11.13464 -12.23682,14.22134 -0.93664,0.77227 -2.14959,1.37842 -3.63699,1.81901 -2.12242,0.66153 -3.63816,1.26768 -4.54766,1.81901 -0.99374,0.63153 -1.94481,1.92635 -2.85431,3.88385 z m 8.97132,19.67837 c 2.64612,8.79133 4.58857,17.52863 5.82909,26.21026 h -0.53637 c -1.26768,-6.69711 -3.59771,-14.19432 -6.98665,-22.48956 z"
       id="path73"
       inkscape:connector-curvature="0"
       style="fill-rule:evenodd;stroke-width:0.14764681;fill:#525252;fill-opacity:1" />
  </g>
</svg>
