<?xml version="1.0" encoding="UTF-8" standalone="no"?>
<svg
   xmlns:dc="http://purl.org/dc/elements/1.1/"
   xmlns:cc="http://creativecommons.org/ns#"
   xmlns:rdf="http://www.w3.org/1999/02/22-rdf-syntax-ns#"
   xmlns:svg="http://www.w3.org/2000/svg"
   xmlns="http://www.w3.org/2000/svg"
   xmlns:sodipodi="http://sodipodi.sourceforge.net/DTD/sodipodi-0.dtd"
   xmlns:inkscape="http://www.inkscape.org/namespaces/inkscape"
   width="100"
   height="100"
   version="1.1"
   viewBox="0 0 75.000002 75.000002"
   id="svg155"
   sodipodi:docname="horse.svg"
   inkscape:version="0.92.4 (5da689c313, 2019-01-14)">
  <metadata
     id="metadata159">
    <rdf:RDF>
      <cc:Work
         rdf:about="">
        <dc:format>image/svg+xml</dc:format>
        <dc:type
           rdf:resource="http://purl.org/dc/dcmitype/StillImage" />
        <dc:title></dc:title>
      </cc:Work>
    </rdf:RDF>
  </metadata>
  <sodipodi:namedview
     pagecolor="#ffffff"
     bordercolor="#666666"
     borderopacity="1"
     objecttolerance="10"
     gridtolerance="10"
     guidetolerance="10"
     inkscape:pageopacity="0"
     inkscape:pageshadow="2"
     inkscape:window-width="1366"
     inkscape:window-height="703"
     id="namedview157"
     showgrid="false"
     inkscape:zoom="1.0114286"
     inkscape:cx="36.807696"
     inkscape:cy="-2.0979563"
     inkscape:window-x="0"
     inkscape:window-y="0"
     inkscape:window-maximized="1"
     inkscape:current-layer="g153"
     units="px" />
  <defs
     id="defs71">
    <symbol
       id="w"
       overflow="visible"
       style="overflow:visible">
      <path
         d="m 18.766,-1.125 c -0.96875,0.5 -1.9805,0.875 -3.0312,1.125 -1.043,0.25781 -2.1367,0.39062 -3.2812,0.39062 -3.3984,0 -6.0898,-0.94531 -8.0781,-2.8438 -1.9922,-1.9062 -2.9844,-4.4844 -2.9844,-7.7344 0,-3.2578 0.99219,-5.8359 2.9844,-7.7344 1.9883,-1.9062 4.6797,-2.8594 8.0781,-2.8594 1.1445,0 2.2383,0.13281 3.2812,0.39062 1.0508,0.25 2.0625,0.625 3.0312,1.125 v 4.2188 c -0.98047,-0.65625 -1.9453,-1.1406 -2.8906,-1.4531 -0.94922,-0.3125 -1.9492,-0.46875 -3,-0.46875 -1.875,0 -3.3516,0.60547 -4.4219,1.8125 -1.0742,1.1992 -1.6094,2.8555 -1.6094,4.9688 0,2.1055 0.53516,3.7617 1.6094,4.9688 1.0703,1.1992 2.5469,1.7969 4.4219,1.7969 1.0508,0 2.0508,-0.14844 3,-0.45312 0.94531,-0.3125 1.9102,-0.80078 2.8906,-1.4688 z"
         id="path2"
         inkscape:connector-curvature="0" />
    </symbol>
    <symbol
       id="c"
       overflow="visible"
       style="overflow:visible">
      <path
         d="m 13.734,-11.141 c -0.4375,-0.19531 -0.87109,-0.34375 -1.2969,-0.4375 -0.41797,-0.10156 -0.83984,-0.15625 -1.2656,-0.15625 -1.2617,0 -2.2305,0.40625 -2.9062,1.2188 -0.67969,0.80469 -1.0156,1.9531 -1.0156,3.4531 v 7.0625 H 2.3591 v -15.312 h 4.8906 v 2.5156 c 0.625,-1 1.3438,-1.7266 2.1562,-2.1875 0.82031,-0.46875 1.8008,-0.70312 2.9375,-0.70312 0.16406,0 0.34375,0.01172 0.53125,0.03125 0.19531,0.01172 0.47656,0.03906 0.84375,0.07813 z"
         id="path5"
         inkscape:connector-curvature="0" />
    </symbol>
    <symbol
       id="a"
       overflow="visible"
       style="overflow:visible">
      <path
         d="m 17.641,-7.7031 v 1.4062 H 6.188 c 0.125,1.1484 0.53906,2.0078 1.25,2.5781 0.70703,0.57422 1.7031,0.85938 2.9844,0.85938 1.0312,0 2.082,-0.14844 3.1562,-0.45312 1.082,-0.3125 2.1914,-0.77344 3.3281,-1.3906 v 3.7656 c -1.1562,0.4375 -2.3125,0.76562 -3.4688,0.98438 -1.1562,0.22656 -2.3125,0.34375 -3.4688,0.34375 -2.7734,0 -4.9297,-0.70312 -6.4688,-2.1094 -1.5312,-1.4062 -2.2969,-3.3789 -2.2969,-5.9219 0,-2.5 0.75391,-4.4609 2.2656,-5.8906 1.5078,-1.4375 3.582,-2.1562 6.2188,-2.1562 2.4062,0 4.332,0.73047 5.7812,2.1875 1.4453,1.4492 2.1719,3.3828 2.1719,5.7969 z m -5.0312,-1.625 c 0,-0.92578 -0.27344,-1.6719 -0.8125,-2.2344 -0.54297,-0.57031 -1.25,-0.85938 -2.125,-0.85938 -0.94922,0 -1.7188,0.26562 -2.3125,0.79688 -0.5937,0.53126 -0.96484,1.2969 -1.1094,2.2969 z"
         id="path8"
         inkscape:connector-curvature="0" />
    </symbol>
    <symbol
       id="f"
       overflow="visible"
       style="overflow:visible">
      <path
         d="m 9.2188,-6.8906 c -1.0234,0 -1.793,0.17188 -2.3125,0.51562 -0.51172,0.34375 -0.76562,0.85547 -0.76562,1.5312 0,0.625 0.20703,1.1172 0.625,1.4688 0.41406,0.34375 0.98828,0.51562 1.7188,0.51562 0.92578,0 1.7031,-0.32812 2.3281,-0.98438 0.63281,-0.66406 0.95312,-1.4922 0.95312,-2.4844 v -0.5625 z m 7.4688,-1.8438 V 0 h -4.9219 v -2.2656 c -0.65625,0.92969 -1.3984,1.6055 -2.2188,2.0312 -0.82422,0.41406 -1.8242,0.625 -3,0.625 -1.5859,0 -2.8711,-0.45703 -3.8594,-1.375 -0.99219,-0.92578 -1.4844,-2.1289 -1.4844,-3.6094 0,-1.7891 0.61328,-3.1016 1.8438,-3.9375 1.2383,-0.84375 3.1797,-1.2656 5.8281,-1.2656 h 2.8906 v -0.39062 c 0,-0.76953 -0.30859,-1.332 -0.92188,-1.6875 -0.61719,-0.36328 -1.5703,-0.54688 -2.8594,-0.54688 -1.0547,0 -2.0312,0.10547 -2.9375,0.3125 -0.89844,0.21094 -1.7305,0.52344 -2.5,0.9375 v -3.7344 c 1.0391,-0.25 2.0859,-0.44141 3.1406,-0.57812 1.0625,-0.13281 2.125,-0.20312 3.1875,-0.20312 2.7578,0 4.75,0.54688 5.9688,1.6406 1.2266,1.0859 1.8438,2.8555 1.8438,5.3125 z"
         id="path11"
         inkscape:connector-curvature="0" />
    </symbol>
    <symbol
       id="b"
       overflow="visible"
       style="overflow:visible">
      <path
         d="m 7.7031,-19.656 v 4.3438 H 12.75 v 3.5 H 7.7031 v 6.5 c 0,0.71094 0.14062,1.1875 0.42188,1.4375 0.28126,0.25 0.83594,0.375 1.6719,0.375 h 2.5156 v 3.5 h -4.1875 c -1.9375,0 -3.3125,-0.39844 -4.125,-1.2031 -0.80469,-0.8125 -1.2031,-2.1797 -1.2031,-4.1094 v -6.5 h -2.4219 v -3.5 h 2.4219 v -4.3438 z"
         id="path14"
         inkscape:connector-curvature="0" />
    </symbol>
    <symbol
       id="m"
       overflow="visible"
       style="overflow:visible">
      <path
         d="m 12.766,-13.078 v -8.2031 h 4.9219 V -1e-4 H 12.766 v -2.2188 c -0.66797,0.90625 -1.4062,1.5703 -2.2188,1.9844 -0.8126,0.4141 -1.7578,0.625 -2.8281,0.625 -1.8867,0 -3.4336,-0.75 -4.6406,-2.25 -1.2109,-1.5 -1.8125,-3.4258 -1.8125,-5.7812 0,-2.3633 0.60156,-4.2969 1.8125,-5.7969 1.207,-1.5 2.7539,-2.25 4.6406,-2.25 1.0625,0 2,0.21484 2.8125,0.64062 0.82031,0.42969 1.5664,1.0859 2.2344,1.9688 z m -3.2188,9.9219 c 1.0391,0 1.8359,-0.37891 2.3906,-1.1406 0.55078,-0.76953 0.82812,-1.8828 0.82812,-3.3438 0,-1.457 -0.27734,-2.5664 -0.82812,-3.3281 -0.55469,-0.76953 -1.3516,-1.1562 -2.3906,-1.1562 -1.043,0 -1.8398,0.38672 -2.3906,1.1562 -0.55469,0.76172 -0.82812,1.8711 -0.82812,3.3281 0,1.4609 0.27344,2.5742 0.82812,3.3438 0.55078,0.76172 1.3477,1.1406 2.3906,1.1406 z"
         id="path17"
         inkscape:connector-curvature="0" />
    </symbol>
    <symbol
       id="l"
       overflow="visible"
       style="overflow:visible">
      <path
         d="m 10.5,-3.1562 c 1.0508,0 1.8516,-0.37891 2.4062,-1.1406 0.55078,-0.76953 0.82812,-1.8828 0.82812,-3.3438 0,-1.457 -0.27734,-2.5664 -0.82812,-3.3281 -0.55469,-0.76953 -1.3555,-1.1562 -2.4062,-1.1562 -1.0547,0 -1.8594,0.38672 -2.4219,1.1562 -0.55469,0.77344 -0.82812,1.8828 -0.82812,3.3281 0,1.4492 0.27344,2.5586 0.82812,3.3281 0.5625,0.77344 1.3672,1.1562 2.4219,1.1562 z m -3.25,-9.9219 c 0.67578,-0.88281 1.4219,-1.5391 2.2344,-1.9688 0.82031,-0.42578 1.7656,-0.64062 2.8281,-0.64062 1.8945,0 3.4453,0.75 4.6562,2.25 1.207,1.5 1.8125,3.4336 1.8125,5.7969 0,2.3555 -0.60547,4.2812 -1.8125,5.7812 -1.2109,1.5 -2.7617,2.25 -4.6562,2.25 -1.0625,0 -2.0078,-0.21094 -2.8281,-0.625 C 8.6719,-0.6602 7.9258,-1.32032 7.25,-2.21882 V -2e-5 H 2.3594 v -21.281 H 7.25 Z"
         id="path20"
         inkscape:connector-curvature="0" />
    </symbol>
    <symbol
       id="k"
       overflow="visible"
       style="overflow:visible">
      <path
         d="m 0.34375,-15.312 h 4.8906 l 4.125,10.391 3.5,-10.391 h 4.8906 l -6.4375,16.766 c -0.64844,1.6953 -1.4023,2.8828 -2.2656,3.5625 -0.86719,0.6875 -2,1.0312 -3.4062,1.0312 H 2.79685 V 2.8289 h 1.5312 c 0.83203,0 1.4375,-0.13672 1.8125,-0.40625 C 6.52336,2.16093 6.82024,1.69218 7.03117,1.01645 L 7.17179,0.59457 Z"
         id="path23"
         inkscape:connector-curvature="0" />
    </symbol>
    <symbol
       id="j"
       overflow="visible"
       style="overflow:visible">
      <path
         d="m 16.781,-19.766 v 4.3125 c -1.125,-0.5 -2.2266,-0.875 -3.2969,-1.125 -1.0625,-0.25781 -2.0703,-0.39062 -3.0156,-0.39062 -1.25,0 -2.1797,0.17969 -2.7812,0.53125 -0.60547,0.34375 -0.90625,0.88281 -0.90625,1.6094 0,0.54297 0.20312,0.96875 0.60938,1.2812 0.40625,0.30469 1.1406,0.5625 2.2031,0.78125 l 2.25,0.45312 c 2.2695,0.44922 3.8789,1.1406 4.8281,2.0781 0.95703,0.92969 1.4375,2.2461 1.4375,3.9531 0,2.25 -0.66797,3.9297 -2,5.0312 -1.3359,1.0938 -3.3711,1.6406 -6.1094,1.6406 -1.3047,0 -2.6055,-0.125 -3.9062,-0.375 -1.3047,-0.23828 -2.6055,-0.59766 -3.9062,-1.0781 v -4.4531 c 1.3008,0.69922 2.5625,1.2266 3.7812,1.5781 1.2188,0.34375 2.3906,0.51562 3.5156,0.51562 1.1562,0 2.0352,-0.1875 2.6406,-0.5625 0.61328,-0.38281 0.92188,-0.9375 0.92188,-1.6562 0,-0.63281 -0.21094,-1.125 -0.625,-1.4688 -0.41797,-0.34375 -1.2461,-0.65625 -2.4844,-0.9375 l -2.0312,-0.4375 c -2.043,-0.4375 -3.5391,-1.1328 -4.4844,-2.0938 -0.9375,-0.95703 -1.4062,-2.25 -1.4062,-3.875 0,-2.0312 0.65625,-3.5938 1.9688,-4.6875 1.31255,-1.0937 3.1953,-1.6406 5.6562,-1.6406 1.125,0 2.2734,0.08594 3.4531,0.25 1.1875,0.16797 2.4141,0.42188 3.6875,0.76562 z"
         id="path26"
         inkscape:connector-curvature="0" />
    </symbol>
    <symbol
       id="i"
       overflow="visible"
       style="overflow:visible">
      <path
         d="m 12.422,-21.281 v 3.2188 H 9.7189 c -0.6875,0 -1.1719,0.125 -1.4531,0.375 -0.27344,0.25 -0.40625,0.6875 -0.40625,1.3125 v 1.0625 h 4.1875 v 3.5 H 7.85955 V -2e-4 h -4.8906 v -11.812 h -2.4375 v -3.5 h 2.4375 v -1.0625 c 0,-1.6641 0.46094,-2.8984 1.3906,-3.7031 0.92578,-0.80078 2.3672,-1.2031 4.3281,-1.2031 z"
         id="path29"
         inkscape:connector-curvature="0" />
    </symbol>
    <symbol
       id="e"
       overflow="visible"
       style="overflow:visible">
      <path
         d="m 2.1875,-5.9688 v -9.3438 h 4.9219 v 1.5312 c 0,0.83594 -0.00781,1.875 -0.015625,3.125 -0.011719,1.25 -0.015625,2.0859 -0.015625,2.5 0,1.2422 0.03125,2.1328 0.09375,2.6719 0.070313,0.54297 0.17969,0.93359 0.32812,1.1719 0.20703,0.32422 0.47266,0.57422 0.79688,0.75 0.32031,0.16797 0.69141,0.25 1.1094,0.25 1.0195,0 1.8203,-0.39062 2.4062,-1.1719 0.58203,-0.78125 0.875,-1.8672 0.875,-3.2656 v -7.5625 h 4.8906 V -6e-4 H 12.6875 V -2.2194 C 11.94531,-1.32096 11.1641,-0.6608 10.3437,-0.235 9.51948,0.17906 8.6093,0.39 7.6093,0.39 5.8476,0.39 4.5038,-0.14906 3.5781,-1.235 2.64841,-2.317 2.1875,-3.8952 2.1875,-5.9694 Z"
         id="path32"
         inkscape:connector-curvature="0" />
    </symbol>
    <symbol
       id="h"
       overflow="visible"
       style="overflow:visible">
      <path
         d="M 2.3594,-21.281 H 7.25 V 0 H 2.3594 Z"
         id="path35"
         inkscape:connector-curvature="0" />
    </symbol>
    <symbol
       id="v"
       overflow="visible"
       style="overflow:visible">
      <path
         d="m 2.5781,-20.406 h 6.6875 l 4.6562,10.922 4.6719,-10.922 h 6.6875 V 0 H 20.2968 V -14.938 L 15.5937,-3.922 H 12.2656 L 7.5625,-14.938 V 0 H 2.5781 Z"
         id="path38"
         inkscape:connector-curvature="0" />
    </symbol>
    <symbol
       id="u"
       overflow="visible"
       style="overflow:visible">
      <path
         d="m 14.312,-14.828 v 3.7188 c -1.043,-0.4375 -2.0547,-0.76562 -3.0312,-0.98438 -0.98047,-0.21875 -1.9023,-0.32812 -2.7656,-0.32812 -0.92969,0 -1.6211,0.11719 -2.0781,0.34375 -0.44922,0.23047 -0.67188,0.58984 -0.67188,1.0781 0,0.38672 0.17188,0.68359 0.51562,0.89062 0.34375,0.21094 0.95703,0.36719 1.8438,0.46875 l 0.85938,0.125 c 2.5078,0.32422 4.1953,0.85156 5.0625,1.5781 0.86328,0.73047 1.2969,1.8711 1.2969,3.4219 0,1.6367 -0.60547,2.8672 -1.8125,3.6875 -1.1992,0.8125 -2.9922,1.2188 -5.375,1.2188 -1.0234,0 -2.0742,-0.078125 -3.1562,-0.23438 -1.0742,-0.15625 -2.1797,-0.39453 -3.3125,-0.71875 v -3.7188 c 0.96875,0.48047 1.9609,0.83984 2.9844,1.0781 1.0312,0.23047 2.0781,0.34375 3.1406,0.34375 0.95703,0 1.6758,-0.12891 2.1562,-0.39062 0.47656,-0.26953 0.71875,-0.66406 0.71875,-1.1875 0,-0.4375 -0.16797,-0.75781 -0.5,-0.96875 -0.33594,-0.21875 -0.99609,-0.38281 -1.9844,-0.5 L 7.34339,-6.01551 c -2.1797,-0.26953 -3.7031,-0.77344 -4.5781,-1.5156 -0.875,-0.73828 -1.3125,-1.8594 -1.3125,-3.3594 0,-1.625 0.55078,-2.8281 1.6562,-3.6094 1.1133,-0.78906 2.8203,-1.1875 5.125,-1.1875 0.89453,0 1.8359,0.07422 2.8281,0.21875 1,0.13672 2.082,0.35156 3.25,0.64062 z"
         id="path41"
         inkscape:connector-curvature="0" />
    </symbol>
    <symbol
       id="t"
       overflow="visible"
       style="overflow:visible">
      <path
         d="M 2.3594,-15.312 H 7.25 V 0 H 2.3594 Z m 0,-5.9688 H 7.25 v 4 H 2.3594 Z"
         id="path44"
         inkscape:connector-curvature="0" />
    </symbol>
    <symbol
       id="g"
       overflow="visible"
       style="overflow:visible">
      <path
         d="m 16.547,-12.766 c 0.61328,-0.94531 1.3477,-1.6719 2.2031,-2.1719 0.85156,-0.5 1.7891,-0.75 2.8125,-0.75 1.7578,0 3.0977,0.54688 4.0156,1.6406 0.92578,1.0859 1.3906,2.6562 1.3906,4.7188 V -4e-4 h -4.9219 v -7.9844 -0.35938 c 0.0078,-0.13281 0.01563,-0.32031 0.01563,-0.5625 0,-1.082 -0.16406,-1.8633 -0.48438,-2.3438 -0.3125,-0.48828 -0.82422,-0.73438 -1.5312,-0.73438 -0.92969,0 -1.6484,0.38672 -2.1562,1.1562 -0.51172,0.76172 -0.77344,1.8672 -0.78125,3.3125 v 7.5156 h -4.9219 v -7.9844 c 0,-1.6953 -0.14844,-2.7852 -0.4375,-3.2656 -0.29297,-0.48828 -0.8125,-0.73438 -1.5625,-0.73438 -0.9375,0 -1.6641,0.38672 -2.1719,1.1562 -0.51172,0.76172 -0.76562,1.8594 -0.76562,3.2969 v 7.5312 h -4.9219 v -15.312 h 4.9219 v 2.2344 c 0.60156,-0.86328 1.2891,-1.5156 2.0625,-1.9531 0.78125,-0.4375 1.6406,-0.65625 2.5781,-0.65625 1.0625,0 2,0.25781 2.8125,0.76562 0.8125,0.51172 1.4258,1.2305 1.8438,2.1562 z"
         id="path47"
         inkscape:connector-curvature="0" />
    </symbol>
    <symbol
       id="d"
       overflow="visible"
       style="overflow:visible">
      <path
         d="m 9.6406,-12.188 c -1.0859,0 -1.9141,0.39062 -2.4844,1.1719 -0.57422,0.78125 -0.85938,1.9062 -0.85938,3.375 0,1.4688 0.28516,2.5938 0.85938,3.375 0.57031,0.77344 1.3984,1.1562 2.4844,1.1562 1.0625,0 1.875,-0.38281 2.4375,-1.1562 0.57031,-0.78125 0.85938,-1.9062 0.85938,-3.375 0,-1.4688 -0.28906,-2.5938 -0.85938,-3.375 -0.5625,-0.78125 -1.375,-1.1719 -2.4375,-1.1719 z m 0,-3.5 c 2.6328,0 4.6914,0.71484 6.1719,2.1406 1.4766,1.418 2.2188,3.3867 2.2188,5.9062 0,2.5117 -0.74219,4.4805 -2.2188,5.9062 C 14.332,-0.317 12.2734,0.39 9.6406,0.39 6.9922,0.39 4.9258,-0.31703 3.4375,-1.735 1.9453,-3.1608 1.2031,-5.1295 1.2031,-7.6412 c 0,-2.5195 0.74219,-4.4883 2.2344,-5.9062 1.4883,-1.4258 3.5547,-2.1406 6.2031,-2.1406 z"
         id="path50"
         inkscape:connector-curvature="0" />
    </symbol>
    <symbol
       id="s"
       overflow="visible"
       style="overflow:visible">
      <path
         d="M 17.75,-9.3281 V 0 h -4.9219 v -7.1094 c 0,-1.3438 -0.03125,-2.2656 -0.09375,-2.7656 -0.0625,-0.5 -0.16797,-0.86719 -0.3125,-1.1094 -0.1875,-0.3125 -0.44922,-0.55469 -0.78125,-0.73438 -0.32422,-0.17578 -0.69531,-0.26562 -1.1094,-0.26562 -1.0234,0 -1.8242,0.39844 -2.4062,1.1875 -0.58594,0.78125 -0.875,1.8711 -0.875,3.2656 V -1e-4 H 2.3594 v -21.281 H 7.25 v 8.2031 c 0.73828,-0.88281 1.5195,-1.5391 2.3438,-1.9688 0.83203,-0.42578 1.75,-0.64062 2.75,-0.64062 1.7695,0 3.1133,0.54688 4.0312,1.6406 0.91406,1.0859 1.375,2.6562 1.375,4.7188 z"
         id="path53"
         inkscape:connector-curvature="0" />
    </symbol>
    <symbol
       id="r"
       overflow="visible"
       style="overflow:visible">
      <path
         d="m 2.5781,-20.406 h 5.875 l 7.4219,14 v -14 h 4.9844 V 0 h -5.875 L 7.5625,-14 V 0 H 2.5781 Z"
         id="path56"
         inkscape:connector-curvature="0" />
    </symbol>
    <symbol
       id="q"
       overflow="visible"
       style="overflow:visible">
      <path
         d="M 17.75,-9.3281 V 0 h -4.9219 v -7.1406 c 0,-1.3203 -0.03125,-2.2344 -0.09375,-2.7344 -0.0625,-0.5 -0.16797,-0.86719 -0.3125,-1.1094 -0.1875,-0.3125 -0.44922,-0.55469 -0.78125,-0.73438 -0.32422,-0.17578 -0.69531,-0.26562 -1.1094,-0.26562 -1.0234,0 -1.8242,0.39844 -2.4062,1.1875 -0.58594,0.78125 -0.875,1.8711 -0.875,3.2656 V -1e-4 H 2.3594 v -15.312 H 7.25 v 2.2344 c 0.73828,-0.88281 1.5195,-1.5391 2.3438,-1.9688 0.83203,-0.42578 1.75,-0.64062 2.75,-0.64062 1.7695,0 3.1133,0.54688 4.0312,1.6406 0.91406,1.0859 1.375,2.6562 1.375,4.7188 z"
         id="path59"
         inkscape:connector-curvature="0" />
    </symbol>
    <symbol
       id="p"
       overflow="visible"
       style="overflow:visible">
      <path
         d="m 2.5781,-20.406 h 8.7344 c 2.5938,0 4.582,0.57812 5.9688,1.7344 1.3945,1.1484 2.0938,2.7891 2.0938,4.9219 0,2.1367 -0.69922,3.7812 -2.0938,4.9375 -1.3867,1.1562 -3.375,1.7344 -5.9688,1.7344 H 7.8281 V 3e-4 h -5.25 z m 5.25,3.8125 v 5.7031 H 10.75 c 1.0195,0 1.8047,-0.25 2.3594,-0.75 0.5625,-0.5 0.84375,-1.2031 0.84375,-2.1094 0,-0.91406 -0.28125,-1.6172 -0.84375,-2.1094 -0.55469,-0.48828 -1.3398,-0.73438 -2.3594,-0.73438 z"
         id="path62"
         inkscape:connector-curvature="0" />
    </symbol>
    <symbol
       id="o"
       overflow="visible"
       style="overflow:visible">
      <path
         d="M 2.3594,-15.312 H 7.25 v 15.031 c 0,2.0508 -0.49609,3.6172 -1.4844,4.7031 -0.98047,1.082 -2.4062,1.625 -4.2812,1.625 H -0.9375 V 2.8283 h 0.85938 c 0.92578,0 1.5625,-0.21094 1.9062,-0.625 0.35156,-0.41797 0.53125,-1.2461 0.53125,-2.4844 z m 0,-5.9688 H 7.25 v 4 H 2.3594 Z"
         id="path65"
         inkscape:connector-curvature="0" />
    </symbol>
    <symbol
       id="n"
       overflow="visible"
       style="overflow:visible">
      <path
         d="m 14.719,-14.828 v 3.9844 c -0.65625,-0.45703 -1.3242,-0.79688 -2,-1.0156 -0.66797,-0.21875 -1.3594,-0.32812 -2.0781,-0.32812 -1.3672,0 -2.4336,0.40234 -3.2031,1.2031 -0.76172,0.79297 -1.1406,1.9062 -1.1406,3.3438 0,1.4297 0.37891,2.543 1.1406,3.3438 0.76953,0.79297 1.8359,1.1875 3.2031,1.1875 0.75781,0 1.4844,-0.10938 2.1719,-0.32812 0.6875,-0.22656 1.3203,-0.56641 1.9062,-1.0156 v 4 c -0.76172,0.28125 -1.5391,0.48828 -2.3281,0.625 -0.78125,0.14453 -1.5742,0.21875 -2.375,0.21875 -2.7617,0 -4.9219,-0.70703 -6.4844,-2.125 -1.5547,-1.4141 -2.3281,-3.3828 -2.3281,-5.9062 0,-2.5312 0.77344,-4.5039 2.3281,-5.9219 1.5625,-1.4141 3.7227,-2.125 6.4844,-2.125 0.80078,0 1.5938,0.07422 2.375,0.21875 0.78125,0.13672 1.5547,0.35156 2.3281,0.64062 z"
         id="path68"
         inkscape:connector-curvature="0" />
    </symbol>
  </defs>
  <g
     id="g153"
     transform="translate(0,-624.99998)">
    <path
       d="m 34.64751,654.06659 c 2.20517,-2.12204 3.30732,-4.67097 3.30732,-7.64901 v -0.0825 c -0.41357,-3.03223 -0.62006,-5.36085 -0.62006,-6.98734 -0.0548,-2.37071 -0.0138,-4.07974 0.12344,-5.12666 0.22149,-1.35029 1.07574,-2.61863 2.56443,-3.80406 1.62664,-1.24012 3.29359,-2.06726 5.00262,-2.48086 1.10227,-0.27629 2.6873,-0.41357 4.75456,-0.41357 l 1.36414,0.12401 -0.413,1.4472 c -0.0836,0.35878 0.0139,0.64775 0.28955,0.86924 l 2.31533,1.90174 c 0.55143,0.35819 0.86809,0.73023 0.95115,1.11611 v 0.0415 l 0.20649,1.65366 c 0.11017,1.04748 0.97883,2.43937 2.60372,4.17661 0.77234,0.88136 1.32375,1.59828 1.65366,2.1498 0.16612,0.30167 0.24918,0.4949 0.24918,0.57738 0,0.4678 -0.31782,0.92289 -0.95115,1.36357 -0.68871,0.46894 -1.21301,0.70369 -1.57127,0.70369 l -0.37203,-0.20648 c -0.41357,-0.24803 -0.89635,-0.64775 -1.4472,-1.19918 l -2.02577,-1.90173 c -0.13785,-0.13786 -0.27514,-0.20649 -0.41357,-0.20649 -1.24012,-0.24803 -2.20518,-0.53758 -2.89446,-0.86809 -0.77234,-0.46894 -1.32375,-0.88251 -1.65366,-1.24012 -0.16554,-0.13785 -0.37203,-0.20649 -0.62006,-0.20649 -0.22092,0 -0.41357,0.0686 -0.57911,0.20649 -0.11017,0.16439 -0.16555,0.3582 -0.16555,0.57796 0,0.21977 0.0554,0.41357 0.16555,0.57912 0.44068,0.44068 0.9921,0.85425 1.65366,1.24012 0,3.0594 0.88136,5.34756 2.64639,6.8633 2.01247,1.81919 3.55539,3.6939 4.63051,5.62384 0.11075,0.19208 0.3034,0.31666 0.57912,0.37145 0.24802,0.0554 0.4822,-0.0138 0.70312,-0.20648 4.13452,-3.6939 6.67075,-5.69132 7.60751,-5.99536 0.99211,0.0554 1.66814,0.71697 2.02577,1.98472 l 0.0415,0.16555 0.12401,0.33051 0.12402,1.48931 v 7.48348 c 0,0.3582 -0.41357,1.1438 -1.24012,2.35683 -0.60508,0.85425 -1.12938,1.4472 -1.57009,1.77769 -0.27514,-0.3034 -0.68871,-1.00652 -1.24012,-2.10875 0.16554,-0.16554 0.53643,-0.31781 1.11612,-0.45567 1.57126,-0.52316 2.35741,-1.39183 2.35741,-2.60371 0,-0.79946 -0.16554,-2.09443 -0.4972,-3.88645 -0.19266,-1.29492 -0.42741,-2.23279 -0.70312,-2.81133 -0.3034,-0.68871 -0.7037,-1.03363 -1.19918,-1.03363 -0.38588,0 -0.75849,0.23418 -1.11611,0.7037 -0.57912,0.7435 -1.57127,2.42548 -2.97745,5.04411 -1.76381,3.22493 -3.19657,4.83828 -4.30005,4.83828 -0.46779,0 -1.30877,-0.26187 -2.52176,-0.78561 h -0.0415 l -0.0825,-0.0415 c -1.24012,-0.52431 -2.24667,-1.04863 -3.01835,-1.57126 -0.19265,-0.13786 -0.38588,-0.17938 -0.57911,-0.12401 -0.24803,0.0271 -0.42741,0.13785 -0.53643,0.33051 -0.13785,0.19265 -0.17938,0.39914 -0.12401,0.62006 0.0271,0.22091 0.13785,0.38588 0.33051,0.49605 0.79945,0.55143 1.61158,1.00652 2.43878,1.36414 -2.39714,3.08701 -3.80406,4.80934 -4.21707,5.16815 -1.98471,1.7368 -4.61678,2.6049 -7.89693,2.6049 l -4.79605,-0.16554 c -1.04748,0 -2.24667,0.27513 -3.59806,0.82714 l -0.12344,-0.49836 c -0.0554,-0.22092 -0.19265,-0.38588 -0.41357,-0.49605 -0.19265,-0.11075 -0.39914,-0.13786 -0.62006,-0.0825 -0.22092,0.0548 -0.37203,0.19208 -0.45567,0.41357 -0.11017,0.19208 -0.13728,0.39857 -0.0825,0.62006 l 0.24803,1.15706 v 0.0836 l 0.0421,0.12344 c 0.16555,0.85425 0.29013,1.94381 0.37204,3.26642 0,0.6887 -0.27514,1.59947 -0.82714,2.72878 -0.44069,0.85425 -1.07516,1.88785 -1.90174,3.10089 -0.82714,1.1859 -1.35029,1.98472 -1.57126,2.39773 h -0.0415 c -1.07515,1.76381 -1.69516,3.11477 -1.86083,4.05094 -0.24803,1.35145 0.33051,3.68002 1.73738,6.98734 0.55085,1.13053 1.33646,2.94866 2.35683,5.45831 h -0.99211 c -3.41763,-7.66393 -5.20964,-11.89428 -5.37458,-12.69372 0,-0.71582 0.56584,-1.73679 1.69515,-3.0594 1.37855,-1.57008 2.06726,-2.81073 2.06726,-3.72092 0,-1.40508 -1.29492,-3.26524 -3.88527,-5.58175 -2.04009,-1.79098 -3.03223,-3.7757 -2.97744,-5.95253 l 0.0415,-0.53757 c 0.13785,-0.60623 0.22149,-0.92346 0.24918,-0.95115 l -5.8e-4,-0.041 c 0.41357,-1.35029 1.32318,-2.57655 2.72878,-3.68002 0.88136,-0.6616 3.08701,-1.87456 6.61538,-3.63735 3.19555,-1.59947 5.53849,-3.0876 7.02662,-4.46617 z m 1.03363,-14.71889 c 0,1.70844 0.22091,4.09302 0.66159,7.15287 0,2.4525 -0.93673,4.58902 -2.81132,6.40821 -1.21244,1.12937 -3.41763,2.52176 -6.61538,4.17601 -3.69272,1.79099 -5.99535,3.07372 -6.90495,3.84437 -1.40566,0.99211 -2.38399,2.16412 -2.93536,3.51449 -2.48086,-1.29492 -5.16815,-1.94323 -8.06261,-1.94323 -3.00521,0 -5.2789,0.82714 -6.82182,2.48086 C 0.73026,666.55255 0,668.78534 0,671.67906 c 0,3.0594 0.88251,5.34756 2.64639,6.8639 1.04748,0.90962 2.78415,1.68142 5.20964,2.31533 l 0.33051,0.0415 c 2.75596,0.6616 4.39588,1.10226 4.92008,1.32318 1.07516,0.57911 1.69516,1.47431 1.86083,2.68729 0.0548,0.33051 0.22092,0.55143 0.49606,0.66217 0.3034,0.13728 0.57911,0.0958 0.82714,-0.12401 1.51589,-1.21301 2.27369,-2.75595 2.27369,-4.63052 0,-1.62663 -0.56584,-2.97744 -1.69516,-4.05197 -1.32375,-1.29492 -3.2388,-1.98472 -5.74728,-2.06726 -2.59042,-0.13786 -4.34095,-0.35878 -5.25069,-0.6616 l -0.45567,-0.16555 -0.0825,-0.66159 c 0,-1.48813 0.51047,-2.8667 1.52962,-4.13452 1.24012,-1.46104 2.85282,-2.1913 4.83828,-2.1913 0.44068,0 1.65366,0.23418 3.63735,0.7037 l 1.07574,0.28782 c 0.0825,2.50788 1.24012,4.75455 3.47241,6.73941 2.23279,1.90174 3.35014,3.33509 3.35014,4.29887 0,0.49721 -0.56584,1.39241 -1.69574,2.68729 -1.37741,1.62664 -2.06727,3.00521 -2.06727,4.13453 0,0.68985 1.91621,5.27889 5.74728,13.76766 0.13786,0.33051 0.38589,0.49605 0.74409,0.49605 l 2.68729,5.8e-4 c 0.24802,0 0.46779,-0.12344 0.66159,-0.37146 0.19266,-0.24918 0.22092,-0.49721 0.0825,-0.74408 l -2.81074,-6.61538 c -1.26781,-2.97686 -1.8059,-4.97546 -1.61276,-5.99535 0.11075,-0.55143 0.39914,-1.26781 0.86809,-2.14981 1.87456,4.29887 4.35542,9.44 7.44184,15.42029 0.13786,0.3034 0.38588,0.45452 0.74408,0.45452 h 3.14239 c 0.3034,0 0.53757,-0.13728 0.70312,-0.41357 0.13785,-0.22092 0.13785,-0.48221 0,-0.78446 -1.70845,-3.36269 -3.14239,-6.27103 -4.29887,-8.72472 -1.37913,-2.9203 -2.02695,-4.79501 -1.94441,-5.62147 0.13786,-0.99211 0.97883,-2.8258 2.52176,-5.49803 1.73739,-3.0594 2.50907,-5.36085 2.31652,-6.90554 l -0.33051,-2.10875 2.85282,0.0825 c 3.74868,0 6.75315,-1.00652 9.01251,-3.01731 0.49721,-0.41357 2.04009,-2.30145 4.6317,-5.66533 1.12937,0.41357 1.9986,0.62006 2.60372,0.62006 1.7644,0 3.66672,-1.90173 5.70578,-5.70461 1.26781,-2.28816 2.12205,-3.74868 2.56326,-4.38259 0.13785,0.57796 0.27629,1.25455 0.41357,2.02518 0.3034,1.73679 0.45451,2.93654 0.45451,3.59688 0,0.44069 -0.39914,0.78561 -1.19917,1.03363 -1.57126,0.4678 -2.35741,1.14381 -2.35741,2.02577 l 0.0421,0.33109 c 0.63449,1.32375 1.18475,2.25996 1.65366,2.81133 0.38589,0.44068 0.77177,0.66159 1.15706,0.66159 0.85426,0 1.86083,-0.85425 3.01835,-2.56325 1.04806,-1.48873 1.57186,-2.54953 1.57186,-3.18344 v -6.65687 c 0.41357,0.19265 0.66217,0.60622 0.74408,1.24012 0.19265,1.12937 0.35877,1.86083 0.49605,2.1913 0.41357,0.90962 1.24012,1.36356 2.480864,1.36356 0.854827,-0.026 1.488723,-0.0946 1.901732,-0.20534 0.743505,-0.22091 1.116114,-0.60622 1.116114,-1.15706 0,-0.35877 -0.467792,-1.41951 -1.405663,-3.18447 -0.771768,-1.43277 -1.336455,-2.37011 -1.695154,-2.81073 -0.606224,-0.68986 -1.612763,-1.10286 -3.018353,-1.24012 l -1.19859,-0.0836 c -0.63449,-1.73679 -1.7777,-2.60371 -3.43136,-2.60371 -0.93673,0 -3.58315,1.91502 -7.93858,5.7461 -1.07574,-1.7368 -2.55011,-3.43077 -4.42467,-5.08458 -1.26781,-1.10285 -1.98369,-2.74266 -2.14981,-4.92008 0.57912,0.19265 1.24012,0.34492 1.98369,0.45452 l 1.81919,1.77769 c 1.21301,1.18475 2.178,1.77711 2.89446,1.77711 h 0.0415 c 0.74408,0 1.585,-0.30282 2.52294,-0.90962 1.10227,-0.77235 1.65366,-1.68143 1.65366,-2.72879 0,-0.85425 -0.79945,-2.12263 -2.39772,-3.80464 -1.29492,-1.40509 -2.02577,-2.49474 -2.1913,-3.26524 l -0.20649,-1.94382 c -0.19208,-0.7435 -0.70312,-1.41951 -1.52963,-2.02577 l -1.90173,-1.52962 0.537,-1.86024 c 0.0554,-0.22092 0.015,-0.44068 -0.12343,-0.6616 -0.16555,-0.22091 -0.35878,-0.33051 -0.57912,-0.33051 -1.15763,-0.16554 -1.98471,-0.24803 -2.48086,-0.24803 -2.23279,0 -3.94182,0.15227 -5.12666,0.45452 -1.98368,0.46779 -3.87271,1.40567 -5.66414,2.81133 -1.81919,1.48813 -2.8667,3.08701 -3.14239,4.79604 -0.16554,1.12995 -0.22034,2.92149 -0.16554,5.37518 z M 3.96936,674.7392 c 0.35877,1.07515 0.965,2.25996 1.81919,3.55539 l 0.12401,0.24918 c -0.965,-0.35877 -1.70844,-0.7856 -2.23279,-1.28281 -1.37855,-1.12937 -2.06726,-2.99015 -2.06726,-5.58175 0,-2.48086 0.57912,-4.34095 1.7368,-5.58175 1.24012,-1.29492 3.12909,-1.94323 5.66532,-1.94323 2.75596,0 5.26384,0.62006 7.52498,1.86083 l -0.0415,0.20649 -0.74408,-0.20649 c -2.03906,-0.52431 -3.39046,-0.7856 -4.05095,-0.7856 -2.50788,0 -4.53365,0.93789 -6.07833,2.81133 -1.29492,1.57008 -1.94323,3.29358 -1.94323,5.16815 0,0.46779 0.0825,0.9644 0.24803,1.48813 z m 12.19654,8.47547 c -0.46779,-1.01978 -1.24012,-1.81919 -2.31533,-2.39714 -0.77177,-0.38588 -2.53505,-0.88251 -5.2916,-1.48931 -0.3034,-0.32993 -0.7856,-0.97826 -1.4472,-1.94322 l -0.95114,-1.57127 c 1.07515,0.22092 2.70176,0.37203 4.87858,0.45567 2.17742,0.13728 3.7354,0.70312 4.67098,1.69515 0.82714,0.71582 1.24012,1.66813 1.24012,2.85282 10e-4,0.90904 -0.26071,1.70844 -0.78445,2.39714 z m 18.68804,-10.95633 c 0.13785,1.24012 -0.57912,3.21163 -2.15084,5.91221 -1.73679,2.97686 -2.63192,5.03024 -2.68729,6.16029 -0.11017,1.04748 0.56584,3.18344 2.02577,6.40822 l 3.80523,7.65019 h -1.32318 c -3.33508,-6.47806 -5.89833,-11.82562 -7.68991,-16.04194 l 1.36414,-1.90174 c 0.93674,-1.40566 1.58441,-2.50788 1.94323,-3.30732 0.74408,-1.35144 1.08842,-2.52176 1.03363,-3.51449 -0.0548,-1.13052 -0.13786,-2.10875 -0.24803,-2.93536 1.32318,-0.55143 2.39714,-0.82714 3.22434,-0.82714 l 0.29012,0.0404 c 0.13786,0.46894 0.27514,1.25454 0.41299,2.35682 z m 37.127998,-17.11692 c -0.496054,0 -0.840976,-0.15112 -1.033628,-0.45452 -0.11017,-0.24802 -0.23418,-0.81271 -0.37146,-1.69515 -0.16554,-1.59947 -0.965,-2.52176 -2.39773,-2.77043 l -0.0415,-0.45566 0.61949,5.7e-4 c 0.93673,0.13786 1.57008,0.38589 1.90173,0.74408 0.13786,0.11017 0.647747,0.93674 1.529626,2.48086 l 0.992107,2.02577 z"
       id="path73"
       inkscape:connector-curvature="0"
       style="fill:#525252;fill-opacity:1;fill-rule:evenodd;stroke-width:0.14766148" />
  </g>
</svg>
