<?xml version="1.0" encoding="UTF-8" standalone="no"?>
<svg
   xmlns:dc="http://purl.org/dc/elements/1.1/"
   xmlns:cc="http://creativecommons.org/ns#"
   xmlns:rdf="http://www.w3.org/1999/02/22-rdf-syntax-ns#"
   xmlns:svg="http://www.w3.org/2000/svg"
   xmlns="http://www.w3.org/2000/svg"
   xmlns:sodipodi="http://sodipodi.sourceforge.net/DTD/sodipodi-0.dtd"
   xmlns:inkscape="http://www.inkscape.org/namespaces/inkscape"
   width="100"
   height="100"
   version="1.1"
   viewBox="0 0 75.000002 75.000002"
   id="svg155"
   sodipodi:docname="lion.svg"
   inkscape:version="0.92.4 (5da689c313, 2019-01-14)">
  <metadata
     id="metadata159">
    <rdf:RDF>
      <cc:Work
         rdf:about="">
        <dc:format>image/svg+xml</dc:format>
        <dc:type
           rdf:resource="http://purl.org/dc/dcmitype/StillImage" />
        <dc:title></dc:title>
      </cc:Work>
    </rdf:RDF>
  </metadata>
  <sodipodi:namedview
     pagecolor="#ffffff"
     bordercolor="#666666"
     borderopacity="1"
     objecttolerance="10"
     gridtolerance="10"
     guidetolerance="10"
     inkscape:pageopacity="0"
     inkscape:pageshadow="2"
     inkscape:window-width="1366"
     inkscape:window-height="703"
     id="namedview157"
     showgrid="false"
     inkscape:zoom="2.860752"
     inkscape:cx="51.383325"
     inkscape:cy="50.060349"
     inkscape:window-x="0"
     inkscape:window-y="0"
     inkscape:window-maximized="1"
     inkscape:current-layer="g153"
     units="px" />
  <defs
     id="defs71">
    <symbol
       id="w"
       overflow="visible"
       style="overflow:visible">
      <path
         d="m 18.766,-1.125 c -0.96875,0.5 -1.9805,0.875 -3.0312,1.125 -1.043,0.25781 -2.1367,0.39062 -3.2812,0.39062 -3.3984,0 -6.0898,-0.94531 -8.0781,-2.8438 -1.9922,-1.9062 -2.9844,-4.4844 -2.9844,-7.7344 0,-3.2578 0.99219,-5.8359 2.9844,-7.7344 1.9883,-1.9062 4.6797,-2.8594 8.0781,-2.8594 1.1445,0 2.2383,0.13281 3.2812,0.39062 1.0508,0.25 2.0625,0.625 3.0312,1.125 v 4.2188 c -0.98047,-0.65625 -1.9453,-1.1406 -2.8906,-1.4531 -0.94922,-0.3125 -1.9492,-0.46875 -3,-0.46875 -1.875,0 -3.3516,0.60547 -4.4219,1.8125 -1.0742,1.1992 -1.6094,2.8555 -1.6094,4.9688 0,2.1055 0.53516,3.7617 1.6094,4.9688 1.0703,1.1992 2.5469,1.7969 4.4219,1.7969 1.0508,0 2.0508,-0.14844 3,-0.45312 0.94531,-0.3125 1.9102,-0.80078 2.8906,-1.4688 z"
         id="path2"
         inkscape:connector-curvature="0" />
    </symbol>
    <symbol
       id="c"
       overflow="visible"
       style="overflow:visible">
      <path
         d="m 13.734,-11.141 c -0.4375,-0.19531 -0.87109,-0.34375 -1.2969,-0.4375 -0.41797,-0.10156 -0.83984,-0.15625 -1.2656,-0.15625 -1.2617,0 -2.2305,0.40625 -2.9062,1.2188 -0.67969,0.80469 -1.0156,1.9531 -1.0156,3.4531 v 7.0625 H 2.3591 v -15.312 h 4.8906 v 2.5156 c 0.625,-1 1.3438,-1.7266 2.1562,-2.1875 0.82031,-0.46875 1.8008,-0.70312 2.9375,-0.70312 0.16406,0 0.34375,0.01172 0.53125,0.03125 0.19531,0.01172 0.47656,0.03906 0.84375,0.07813 z"
         id="path5"
         inkscape:connector-curvature="0" />
    </symbol>
    <symbol
       id="a"
       overflow="visible"
       style="overflow:visible">
      <path
         d="m 17.641,-7.7031 v 1.4062 H 6.188 c 0.125,1.1484 0.53906,2.0078 1.25,2.5781 0.70703,0.57422 1.7031,0.85938 2.9844,0.85938 1.0312,0 2.082,-0.14844 3.1562,-0.45312 1.082,-0.3125 2.1914,-0.77344 3.3281,-1.3906 v 3.7656 c -1.1562,0.4375 -2.3125,0.76562 -3.4688,0.98438 -1.1562,0.22656 -2.3125,0.34375 -3.4688,0.34375 -2.7734,0 -4.9297,-0.70312 -6.4688,-2.1094 -1.5312,-1.4062 -2.2969,-3.3789 -2.2969,-5.9219 0,-2.5 0.75391,-4.4609 2.2656,-5.8906 1.5078,-1.4375 3.582,-2.1562 6.2188,-2.1562 2.4062,0 4.332,0.73047 5.7812,2.1875 1.4453,1.4492 2.1719,3.3828 2.1719,5.7969 z m -5.0312,-1.625 c 0,-0.92578 -0.27344,-1.6719 -0.8125,-2.2344 -0.54297,-0.57031 -1.25,-0.85938 -2.125,-0.85938 -0.94922,0 -1.7188,0.26562 -2.3125,0.79688 -0.5937,0.53126 -0.96484,1.2969 -1.1094,2.2969 z"
         id="path8"
         inkscape:connector-curvature="0" />
    </symbol>
    <symbol
       id="f"
       overflow="visible"
       style="overflow:visible">
      <path
         d="m 9.2188,-6.8906 c -1.0234,0 -1.793,0.17188 -2.3125,0.51562 -0.51172,0.34375 -0.76562,0.85547 -0.76562,1.5312 0,0.625 0.20703,1.1172 0.625,1.4688 0.41406,0.34375 0.98828,0.51562 1.7188,0.51562 0.92578,0 1.7031,-0.32812 2.3281,-0.98438 0.63281,-0.66406 0.95312,-1.4922 0.95312,-2.4844 v -0.5625 z m 7.4688,-1.8438 V 0 h -4.9219 v -2.2656 c -0.65625,0.92969 -1.3984,1.6055 -2.2188,2.0312 -0.82422,0.41406 -1.8242,0.625 -3,0.625 -1.5859,0 -2.8711,-0.45703 -3.8594,-1.375 -0.99219,-0.92578 -1.4844,-2.1289 -1.4844,-3.6094 0,-1.7891 0.61328,-3.1016 1.8438,-3.9375 1.2383,-0.84375 3.1797,-1.2656 5.8281,-1.2656 h 2.8906 v -0.39062 c 0,-0.76953 -0.30859,-1.332 -0.92188,-1.6875 -0.61719,-0.36328 -1.5703,-0.54688 -2.8594,-0.54688 -1.0547,0 -2.0312,0.10547 -2.9375,0.3125 -0.89844,0.21094 -1.7305,0.52344 -2.5,0.9375 v -3.7344 c 1.0391,-0.25 2.0859,-0.44141 3.1406,-0.57812 1.0625,-0.13281 2.125,-0.20312 3.1875,-0.20312 2.7578,0 4.75,0.54688 5.9688,1.6406 1.2266,1.0859 1.8438,2.8555 1.8438,5.3125 z"
         id="path11"
         inkscape:connector-curvature="0" />
    </symbol>
    <symbol
       id="b"
       overflow="visible"
       style="overflow:visible">
      <path
         d="m 7.7031,-19.656 v 4.3438 H 12.75 v 3.5 H 7.7031 v 6.5 c 0,0.71094 0.14062,1.1875 0.42188,1.4375 0.28126,0.25 0.83594,0.375 1.6719,0.375 h 2.5156 v 3.5 h -4.1875 c -1.9375,0 -3.3125,-0.39844 -4.125,-1.2031 -0.80469,-0.8125 -1.2031,-2.1797 -1.2031,-4.1094 v -6.5 h -2.4219 v -3.5 h 2.4219 v -4.3438 z"
         id="path14"
         inkscape:connector-curvature="0" />
    </symbol>
    <symbol
       id="m"
       overflow="visible"
       style="overflow:visible">
      <path
         d="m 12.766,-13.078 v -8.2031 h 4.9219 V -1e-4 H 12.766 v -2.2188 c -0.66797,0.90625 -1.4062,1.5703 -2.2188,1.9844 -0.8126,0.4141 -1.7578,0.625 -2.8281,0.625 -1.8867,0 -3.4336,-0.75 -4.6406,-2.25 -1.2109,-1.5 -1.8125,-3.4258 -1.8125,-5.7812 0,-2.3633 0.60156,-4.2969 1.8125,-5.7969 1.207,-1.5 2.7539,-2.25 4.6406,-2.25 1.0625,0 2,0.21484 2.8125,0.64062 0.82031,0.42969 1.5664,1.0859 2.2344,1.9688 z m -3.2188,9.9219 c 1.0391,0 1.8359,-0.37891 2.3906,-1.1406 0.55078,-0.76953 0.82812,-1.8828 0.82812,-3.3438 0,-1.457 -0.27734,-2.5664 -0.82812,-3.3281 -0.55469,-0.76953 -1.3516,-1.1562 -2.3906,-1.1562 -1.043,0 -1.8398,0.38672 -2.3906,1.1562 -0.55469,0.76172 -0.82812,1.8711 -0.82812,3.3281 0,1.4609 0.27344,2.5742 0.82812,3.3438 0.55078,0.76172 1.3477,1.1406 2.3906,1.1406 z"
         id="path17"
         inkscape:connector-curvature="0" />
    </symbol>
    <symbol
       id="l"
       overflow="visible"
       style="overflow:visible">
      <path
         d="m 10.5,-3.1562 c 1.0508,0 1.8516,-0.37891 2.4062,-1.1406 0.55078,-0.76953 0.82812,-1.8828 0.82812,-3.3438 0,-1.457 -0.27734,-2.5664 -0.82812,-3.3281 -0.55469,-0.76953 -1.3555,-1.1562 -2.4062,-1.1562 -1.0547,0 -1.8594,0.38672 -2.4219,1.1562 -0.55469,0.77344 -0.82812,1.8828 -0.82812,3.3281 0,1.4492 0.27344,2.5586 0.82812,3.3281 0.5625,0.77344 1.3672,1.1562 2.4219,1.1562 z m -3.25,-9.9219 c 0.67578,-0.88281 1.4219,-1.5391 2.2344,-1.9688 0.82031,-0.42578 1.7656,-0.64062 2.8281,-0.64062 1.8945,0 3.4453,0.75 4.6562,2.25 1.207,1.5 1.8125,3.4336 1.8125,5.7969 0,2.3555 -0.60547,4.2812 -1.8125,5.7812 -1.2109,1.5 -2.7617,2.25 -4.6562,2.25 -1.0625,0 -2.0078,-0.21094 -2.8281,-0.625 C 8.6719,-0.6602 7.9258,-1.32032 7.25,-2.21882 V -2e-5 H 2.3594 v -21.281 H 7.25 Z"
         id="path20"
         inkscape:connector-curvature="0" />
    </symbol>
    <symbol
       id="k"
       overflow="visible"
       style="overflow:visible">
      <path
         d="m 0.34375,-15.312 h 4.8906 l 4.125,10.391 3.5,-10.391 h 4.8906 l -6.4375,16.766 c -0.64844,1.6953 -1.4023,2.8828 -2.2656,3.5625 -0.86719,0.6875 -2,1.0312 -3.4062,1.0312 H 2.79685 V 2.8289 h 1.5312 c 0.83203,0 1.4375,-0.13672 1.8125,-0.40625 C 6.52336,2.16093 6.82024,1.69218 7.03117,1.01645 L 7.17179,0.59457 Z"
         id="path23"
         inkscape:connector-curvature="0" />
    </symbol>
    <symbol
       id="j"
       overflow="visible"
       style="overflow:visible">
      <path
         d="m 16.781,-19.766 v 4.3125 c -1.125,-0.5 -2.2266,-0.875 -3.2969,-1.125 -1.0625,-0.25781 -2.0703,-0.39062 -3.0156,-0.39062 -1.25,0 -2.1797,0.17969 -2.7812,0.53125 -0.60547,0.34375 -0.90625,0.88281 -0.90625,1.6094 0,0.54297 0.20312,0.96875 0.60938,1.2812 0.40625,0.30469 1.1406,0.5625 2.2031,0.78125 l 2.25,0.45312 c 2.2695,0.44922 3.8789,1.1406 4.8281,2.0781 0.95703,0.92969 1.4375,2.2461 1.4375,3.9531 0,2.25 -0.66797,3.9297 -2,5.0312 -1.3359,1.0938 -3.3711,1.6406 -6.1094,1.6406 -1.3047,0 -2.6055,-0.125 -3.9062,-0.375 -1.3047,-0.23828 -2.6055,-0.59766 -3.9062,-1.0781 v -4.4531 c 1.3008,0.69922 2.5625,1.2266 3.7812,1.5781 1.2188,0.34375 2.3906,0.51562 3.5156,0.51562 1.1562,0 2.0352,-0.1875 2.6406,-0.5625 0.61328,-0.38281 0.92188,-0.9375 0.92188,-1.6562 0,-0.63281 -0.21094,-1.125 -0.625,-1.4688 -0.41797,-0.34375 -1.2461,-0.65625 -2.4844,-0.9375 l -2.0312,-0.4375 c -2.043,-0.4375 -3.5391,-1.1328 -4.4844,-2.0938 -0.9375,-0.95703 -1.4062,-2.25 -1.4062,-3.875 0,-2.0312 0.65625,-3.5938 1.9688,-4.6875 1.31255,-1.0937 3.1953,-1.6406 5.6562,-1.6406 1.125,0 2.2734,0.08594 3.4531,0.25 1.1875,0.16797 2.4141,0.42188 3.6875,0.76562 z"
         id="path26"
         inkscape:connector-curvature="0" />
    </symbol>
    <symbol
       id="i"
       overflow="visible"
       style="overflow:visible">
      <path
         d="m 12.422,-21.281 v 3.2188 H 9.7189 c -0.6875,0 -1.1719,0.125 -1.4531,0.375 -0.27344,0.25 -0.40625,0.6875 -0.40625,1.3125 v 1.0625 h 4.1875 v 3.5 H 7.85955 V -2e-4 h -4.8906 v -11.812 h -2.4375 v -3.5 h 2.4375 v -1.0625 c 0,-1.6641 0.46094,-2.8984 1.3906,-3.7031 0.92578,-0.80078 2.3672,-1.2031 4.3281,-1.2031 z"
         id="path29"
         inkscape:connector-curvature="0" />
    </symbol>
    <symbol
       id="e"
       overflow="visible"
       style="overflow:visible">
      <path
         d="m 2.1875,-5.9688 v -9.3438 h 4.9219 v 1.5312 c 0,0.83594 -0.00781,1.875 -0.015625,3.125 -0.011719,1.25 -0.015625,2.0859 -0.015625,2.5 0,1.2422 0.03125,2.1328 0.09375,2.6719 0.070313,0.54297 0.17969,0.93359 0.32812,1.1719 0.20703,0.32422 0.47266,0.57422 0.79688,0.75 0.32031,0.16797 0.69141,0.25 1.1094,0.25 1.0195,0 1.8203,-0.39062 2.4062,-1.1719 0.58203,-0.78125 0.875,-1.8672 0.875,-3.2656 v -7.5625 h 4.8906 V -6e-4 H 12.6875 V -2.2194 C 11.94531,-1.32096 11.1641,-0.6608 10.3437,-0.235 9.51948,0.17906 8.6093,0.39 7.6093,0.39 5.8476,0.39 4.5038,-0.14906 3.5781,-1.235 2.64841,-2.317 2.1875,-3.8952 2.1875,-5.9694 Z"
         id="path32"
         inkscape:connector-curvature="0" />
    </symbol>
    <symbol
       id="h"
       overflow="visible"
       style="overflow:visible">
      <path
         d="M 2.3594,-21.281 H 7.25 V 0 H 2.3594 Z"
         id="path35"
         inkscape:connector-curvature="0" />
    </symbol>
    <symbol
       id="v"
       overflow="visible"
       style="overflow:visible">
      <path
         d="m 2.5781,-20.406 h 6.6875 l 4.6562,10.922 4.6719,-10.922 h 6.6875 V 0 H 20.2968 V -14.938 L 15.5937,-3.922 H 12.2656 L 7.5625,-14.938 V 0 H 2.5781 Z"
         id="path38"
         inkscape:connector-curvature="0" />
    </symbol>
    <symbol
       id="u"
       overflow="visible"
       style="overflow:visible">
      <path
         d="m 14.312,-14.828 v 3.7188 c -1.043,-0.4375 -2.0547,-0.76562 -3.0312,-0.98438 -0.98047,-0.21875 -1.9023,-0.32812 -2.7656,-0.32812 -0.92969,0 -1.6211,0.11719 -2.0781,0.34375 -0.44922,0.23047 -0.67188,0.58984 -0.67188,1.0781 0,0.38672 0.17188,0.68359 0.51562,0.89062 0.34375,0.21094 0.95703,0.36719 1.8438,0.46875 l 0.85938,0.125 c 2.5078,0.32422 4.1953,0.85156 5.0625,1.5781 0.86328,0.73047 1.2969,1.8711 1.2969,3.4219 0,1.6367 -0.60547,2.8672 -1.8125,3.6875 -1.1992,0.8125 -2.9922,1.2188 -5.375,1.2188 -1.0234,0 -2.0742,-0.078125 -3.1562,-0.23438 -1.0742,-0.15625 -2.1797,-0.39453 -3.3125,-0.71875 v -3.7188 c 0.96875,0.48047 1.9609,0.83984 2.9844,1.0781 1.0312,0.23047 2.0781,0.34375 3.1406,0.34375 0.95703,0 1.6758,-0.12891 2.1562,-0.39062 0.47656,-0.26953 0.71875,-0.66406 0.71875,-1.1875 0,-0.4375 -0.16797,-0.75781 -0.5,-0.96875 -0.33594,-0.21875 -0.99609,-0.38281 -1.9844,-0.5 L 7.34339,-6.01551 c -2.1797,-0.26953 -3.7031,-0.77344 -4.5781,-1.5156 -0.875,-0.73828 -1.3125,-1.8594 -1.3125,-3.3594 0,-1.625 0.55078,-2.8281 1.6562,-3.6094 1.1133,-0.78906 2.8203,-1.1875 5.125,-1.1875 0.89453,0 1.8359,0.07422 2.8281,0.21875 1,0.13672 2.082,0.35156 3.25,0.64062 z"
         id="path41"
         inkscape:connector-curvature="0" />
    </symbol>
    <symbol
       id="t"
       overflow="visible"
       style="overflow:visible">
      <path
         d="M 2.3594,-15.312 H 7.25 V 0 H 2.3594 Z m 0,-5.9688 H 7.25 v 4 H 2.3594 Z"
         id="path44"
         inkscape:connector-curvature="0" />
    </symbol>
    <symbol
       id="g"
       overflow="visible"
       style="overflow:visible">
      <path
         d="m 16.547,-12.766 c 0.61328,-0.94531 1.3477,-1.6719 2.2031,-2.1719 0.85156,-0.5 1.7891,-0.75 2.8125,-0.75 1.7578,0 3.0977,0.54688 4.0156,1.6406 0.92578,1.0859 1.3906,2.6562 1.3906,4.7188 V -4e-4 h -4.9219 v -7.9844 -0.35938 c 0.0078,-0.13281 0.01563,-0.32031 0.01563,-0.5625 0,-1.082 -0.16406,-1.8633 -0.48438,-2.3438 -0.3125,-0.48828 -0.82422,-0.73438 -1.5312,-0.73438 -0.92969,0 -1.6484,0.38672 -2.1562,1.1562 -0.51172,0.76172 -0.77344,1.8672 -0.78125,3.3125 v 7.5156 h -4.9219 v -7.9844 c 0,-1.6953 -0.14844,-2.7852 -0.4375,-3.2656 -0.29297,-0.48828 -0.8125,-0.73438 -1.5625,-0.73438 -0.9375,0 -1.6641,0.38672 -2.1719,1.1562 -0.51172,0.76172 -0.76562,1.8594 -0.76562,3.2969 v 7.5312 h -4.9219 v -15.312 h 4.9219 v 2.2344 c 0.60156,-0.86328 1.2891,-1.5156 2.0625,-1.9531 0.78125,-0.4375 1.6406,-0.65625 2.5781,-0.65625 1.0625,0 2,0.25781 2.8125,0.76562 0.8125,0.51172 1.4258,1.2305 1.8438,2.1562 z"
         id="path47"
         inkscape:connector-curvature="0" />
    </symbol>
    <symbol
       id="d"
       overflow="visible"
       style="overflow:visible">
      <path
         d="m 9.6406,-12.188 c -1.0859,0 -1.9141,0.39062 -2.4844,1.1719 -0.57422,0.78125 -0.85938,1.9062 -0.85938,3.375 0,1.4688 0.28516,2.5938 0.85938,3.375 0.57031,0.77344 1.3984,1.1562 2.4844,1.1562 1.0625,0 1.875,-0.38281 2.4375,-1.1562 0.57031,-0.78125 0.85938,-1.9062 0.85938,-3.375 0,-1.4688 -0.28906,-2.5938 -0.85938,-3.375 -0.5625,-0.78125 -1.375,-1.1719 -2.4375,-1.1719 z m 0,-3.5 c 2.6328,0 4.6914,0.71484 6.1719,2.1406 1.4766,1.418 2.2188,3.3867 2.2188,5.9062 0,2.5117 -0.74219,4.4805 -2.2188,5.9062 C 14.332,-0.317 12.2734,0.39 9.6406,0.39 6.9922,0.39 4.9258,-0.31703 3.4375,-1.735 1.9453,-3.1608 1.2031,-5.1295 1.2031,-7.6412 c 0,-2.5195 0.74219,-4.4883 2.2344,-5.9062 1.4883,-1.4258 3.5547,-2.1406 6.2031,-2.1406 z"
         id="path50"
         inkscape:connector-curvature="0" />
    </symbol>
    <symbol
       id="s"
       overflow="visible"
       style="overflow:visible">
      <path
         d="M 17.75,-9.3281 V 0 h -4.9219 v -7.1094 c 0,-1.3438 -0.03125,-2.2656 -0.09375,-2.7656 -0.0625,-0.5 -0.16797,-0.86719 -0.3125,-1.1094 -0.1875,-0.3125 -0.44922,-0.55469 -0.78125,-0.73438 -0.32422,-0.17578 -0.69531,-0.26562 -1.1094,-0.26562 -1.0234,0 -1.8242,0.39844 -2.4062,1.1875 -0.58594,0.78125 -0.875,1.8711 -0.875,3.2656 V -1e-4 H 2.3594 v -21.281 H 7.25 v 8.2031 c 0.73828,-0.88281 1.5195,-1.5391 2.3438,-1.9688 0.83203,-0.42578 1.75,-0.64062 2.75,-0.64062 1.7695,0 3.1133,0.54688 4.0312,1.6406 0.91406,1.0859 1.375,2.6562 1.375,4.7188 z"
         id="path53"
         inkscape:connector-curvature="0" />
    </symbol>
    <symbol
       id="r"
       overflow="visible"
       style="overflow:visible">
      <path
         d="m 2.5781,-20.406 h 5.875 l 7.4219,14 v -14 h 4.9844 V 0 h -5.875 L 7.5625,-14 V 0 H 2.5781 Z"
         id="path56"
         inkscape:connector-curvature="0" />
    </symbol>
    <symbol
       id="q"
       overflow="visible"
       style="overflow:visible">
      <path
         d="M 17.75,-9.3281 V 0 h -4.9219 v -7.1406 c 0,-1.3203 -0.03125,-2.2344 -0.09375,-2.7344 -0.0625,-0.5 -0.16797,-0.86719 -0.3125,-1.1094 -0.1875,-0.3125 -0.44922,-0.55469 -0.78125,-0.73438 -0.32422,-0.17578 -0.69531,-0.26562 -1.1094,-0.26562 -1.0234,0 -1.8242,0.39844 -2.4062,1.1875 -0.58594,0.78125 -0.875,1.8711 -0.875,3.2656 V -1e-4 H 2.3594 v -15.312 H 7.25 v 2.2344 c 0.73828,-0.88281 1.5195,-1.5391 2.3438,-1.9688 0.83203,-0.42578 1.75,-0.64062 2.75,-0.64062 1.7695,0 3.1133,0.54688 4.0312,1.6406 0.91406,1.0859 1.375,2.6562 1.375,4.7188 z"
         id="path59"
         inkscape:connector-curvature="0" />
    </symbol>
    <symbol
       id="p"
       overflow="visible"
       style="overflow:visible">
      <path
         d="m 2.5781,-20.406 h 8.7344 c 2.5938,0 4.582,0.57812 5.9688,1.7344 1.3945,1.1484 2.0938,2.7891 2.0938,4.9219 0,2.1367 -0.69922,3.7812 -2.0938,4.9375 -1.3867,1.1562 -3.375,1.7344 -5.9688,1.7344 H 7.8281 V 3e-4 h -5.25 z m 5.25,3.8125 v 5.7031 H 10.75 c 1.0195,0 1.8047,-0.25 2.3594,-0.75 0.5625,-0.5 0.84375,-1.2031 0.84375,-2.1094 0,-0.91406 -0.28125,-1.6172 -0.84375,-2.1094 -0.55469,-0.48828 -1.3398,-0.73438 -2.3594,-0.73438 z"
         id="path62"
         inkscape:connector-curvature="0" />
    </symbol>
    <symbol
       id="o"
       overflow="visible"
       style="overflow:visible">
      <path
         d="M 2.3594,-15.312 H 7.25 v 15.031 c 0,2.0508 -0.49609,3.6172 -1.4844,4.7031 -0.98047,1.082 -2.4062,1.625 -4.2812,1.625 H -0.9375 V 2.8283 h 0.85938 c 0.92578,0 1.5625,-0.21094 1.9062,-0.625 0.35156,-0.41797 0.53125,-1.2461 0.53125,-2.4844 z m 0,-5.9688 H 7.25 v 4 H 2.3594 Z"
         id="path65"
         inkscape:connector-curvature="0" />
    </symbol>
    <symbol
       id="n"
       overflow="visible"
       style="overflow:visible">
      <path
         d="m 14.719,-14.828 v 3.9844 c -0.65625,-0.45703 -1.3242,-0.79688 -2,-1.0156 -0.66797,-0.21875 -1.3594,-0.32812 -2.0781,-0.32812 -1.3672,0 -2.4336,0.40234 -3.2031,1.2031 -0.76172,0.79297 -1.1406,1.9062 -1.1406,3.3438 0,1.4297 0.37891,2.543 1.1406,3.3438 0.76953,0.79297 1.8359,1.1875 3.2031,1.1875 0.75781,0 1.4844,-0.10938 2.1719,-0.32812 0.6875,-0.22656 1.3203,-0.56641 1.9062,-1.0156 v 4 c -0.76172,0.28125 -1.5391,0.48828 -2.3281,0.625 -0.78125,0.14453 -1.5742,0.21875 -2.375,0.21875 -2.7617,0 -4.9219,-0.70703 -6.4844,-2.125 -1.5547,-1.4141 -2.3281,-3.3828 -2.3281,-5.9062 0,-2.5312 0.77344,-4.5039 2.3281,-5.9219 1.5625,-1.4141 3.7227,-2.125 6.4844,-2.125 0.80078,0 1.5938,0.07422 2.375,0.21875 0.78125,0.13672 1.5547,0.35156 2.3281,0.64062 z"
         id="path68"
         inkscape:connector-curvature="0" />
    </symbol>
  </defs>
  <g
     id="g153"
     transform="translate(0,-624.99998)">
    <path
       d="m 51.30715,640.91672 c -0.22091,0.49604 -0.62003,1.21297 -1.19913,2.14972 l -0.0825,0.16554 -0.0836,0.0825 c -0.22091,0.19265 -0.48218,0.26185 -0.78557,0.20648 -0.30281,-0.0548 -0.49604,-0.22091 -0.57794,-0.49603 l -0.66215,-1.48808 c -0.0825,-0.24917 -0.35818,-0.37202 -0.82711,-0.37202 -0.71579,0 -1.3364,0.22091 -1.86076,0.66157 -0.55083,0.46778 -0.82711,1.0336 -0.82711,1.69509 0,0.99207 0.19265,1.66807 0.5791,2.02569 0.24801,0.27513 0.64772,0.41356 1.19912,0.41356 0.22091,0 0.46778,-0.0686 0.74406,-0.20648 0.52314,-0.30282 0.96437,-0.49604 1.32313,-0.57909 0.27512,-0.0548 0.49603,0 0.66157,0.16553 0.22091,0.13785 0.3305,0.34491 0.3305,0.62004 v 0.74405 l -0.0836,0.28954 c -0.30281,1.04744 -0.9367,2.30136 -1.90166,3.76227 l 0.86806,1.53075 c 0.49718,-0.71695 1.08896,-1.69568 1.77762,-2.93643 1.40561,-2.53496 2.37062,-4.17586 2.89435,-4.91871 2.23271,-3.4457 4.94706,-5.16796 8.1447,-5.16796 0.35876,0 1.0757,0.0958 2.15075,0.28954 l 1.81912,0.41355 c 0.27513,0.0825 0.4545,0.22091 0.53641,0.41356 0.11074,0.19265 0.124,0.42739 0.0415,0.70309 l -1.07512,2.89435 c -0.57909,1.46213 -1.0607,2.43928 -1.44714,2.93643 -0.38587,0.55083 -1.26776,0.99148 -2.64629,1.32313 -0.85422,0.19265 -1.36351,0.41356 -1.52957,0.66157 -0.66157,1.21297 -1.66806,3.4866 -3.01823,6.82155 l -1.86076,4.42451 5.83005,-0.0421 c 1.48807,0.0836 2.56315,0.33049 3.22421,0.74405 1.15759,0.71694 1.73732,2.21941 1.73732,4.50645 0,0.85422 -0.9788,1.833 -2.93643,2.93525 -1.6254,0.96496 -2.99004,1.44715 -4.09229,1.44715 -0.71694,0 -1.43271,-0.66157 -2.15075,-1.98464 -0.32992,-0.60505 -0.6062,-0.97822 -0.82711,-1.11607 l -4.71347,1.48807 c -2.14972,0.63446 -3.92794,1.08896 -5.33229,1.36409 -0.66215,1.46098 -1.76434,3.03211 -3.3072,4.71347 l -0.0421,0.0415 c 0.6062,0.30281 1.24007,0.74347 1.90284,1.32313 1.84629,1.5994 2.77032,3.14226 2.77032,4.63152 0,1.65359 -0.86806,3.76227 -2.6048,6.32498 -1.57003,2.28808 -2.35674,4.60332 -2.35674,6.94558 l 0.0415,1.44715 c 2.70166,-0.22091 4.53348,0.17937 5.49841,1.19913 0.71579,0.77173 0.9367,1.84628 0.66157,3.22421 -0.11016,0.44066 -0.38587,0.66157 -0.82711,0.66157 h -8.64082 c -0.38586,0 -0.63446,-0.19207 -0.74347,-0.57794 -0.44067,-1.15759 -1.04744,-2.48077 -1.81912,-3.97002 -1.46098,-2.39705 -2.19121,-3.66541 -2.19121,-3.80391 0,-0.79942 0.57909,-1.74943 1.73731,-2.85271 0.63447,-0.63446 1.00649,-1.08839 1.11608,-1.36351 -0.41356,-0.44067 -1.57121,-1.18586 -3.47287,-2.23271 l -3.34883,-1.73732 -0.0415,0.0421 c -0.3305,0.57794 -0.78557,1.59823 -1.36409,3.05869 l -0.0415,0.12401 c -0.82711,1.54403 -2.04001,2.66016 -3.63839,3.34883 -2.42539,0.99207 -3.88512,1.63972 -4.38242,1.94374 -1.04744,0.66157 -1.57002,1.36351 -1.57002,2.10867 0,0.52315 0.12343,1.00649 0.37144,1.44715 0.0554,0.16554 0.27628,0.22091 0.66215,0.16554 0.82711,-0.16554 1.74942,-0.16554 2.77031,0 1.3785,0.19264 2.24659,1.29486 2.6048,3.30719 0.0548,0.27513 0,0.49604 -0.16554,0.66157 -0.13785,0.22091 -0.33049,0.32993 -0.57909,0.32993 h -8.0623 c -0.41355,0 -0.67483,-0.22091 -0.78557,-0.66158 l -3.0172,-10.74949 -0.0421,-0.20648 c 0,-1.40561 1.26834,-2.74197 3.8045,-4.01033 1.98361,-0.99207 2.97674,-2.0124 2.97674,-3.05928 0,-1.95644 -0.20648,-3.28018 -0.62003,-3.96884 -0.27513,-0.41356 -0.84095,-0.78558 -1.69509,-1.11723 -2.45301,-0.90959 -4.45109,-2.12196 -5.99512,-3.6372 -2.48077,-0.3305 -4.63034,-1.11722 -6.44961,-2.35733 C 1.25448,668.46781 0,666.33197 0,663.8236 c 0,-1.6254 0.37144,-3.19646 1.11607,-4.71229 0.79942,-1.59941 1.91495,-2.59151 3.34884,-2.97733 0.2209,-0.32993 0.42739,-0.59293 0.62003,-0.78558 h 0.0415 c 0.68983,-0.66157 1.36409,-1.10222 2.02569,-1.32313 0.77231,-0.27512 2.08106,-0.0415 3.92794,0.7031 0.55141,0.22148 1.35139,0.63503 2.39764,1.24007 0.63446,0.19265 1.29486,-0.0686 1.9836,-0.78442 0.22149,-0.24917 0.46893,-0.3305 0.74406,-0.24917 0.33049,0.0836 0.53755,0.27628 0.62003,0.57909 0.27513,1.04744 0.41356,1.73732 0.41356,2.06718 0,1.01974 -0.35876,1.84629 -1.07511,2.48077 -0.71695,0.74405 -1.76434,1.11722 -3.14227,1.11722 -1.04744,0 -2.35732,-0.66215 -3.92794,-1.98464 -1.24007,-1.07511 -2.35732,-1.6127 -3.35001,-1.6127 l -0.62004,0.0415 c -1.04744,0.22148 -1.90166,0.96496 -2.56316,2.2327 -0.63446,1.24008 -0.95111,2.56434 -0.95111,3.96884 0,1.95703 1.01974,3.63839 3.05928,5.04452 1.68136,1.15701 3.69376,1.88778 6.03603,2.19062 l 1.90284,0.0836 c 4.27168,0 7.81306,-1.00648 10.62546,-3.01823 2.83942,-2.04001 4.25839,-4.6708 4.25839,-7.89663 0,-0.9367 -0.22091,-2.05331 -0.66215,-3.34884 l -0.36914,-0.99667 c -0.68983,-0.22091 -1.29544,-0.46778 -1.81912,-0.74406 -0.13785,1.62658 -0.86805,3.15615 -2.19121,4.59003 -0.13727,0.16439 -0.32992,0.24802 -0.57909,0.24802 -0.22091,0 -0.41355,-0.0686 -0.57794,-0.20648 -0.13785,-0.13785 -0.20648,-0.3305 -0.20648,-0.57909 -0.0271,-0.22091 0.0271,-0.41356 0.16438,-0.57909 1.43272,-1.54286 2.0124,-3.18332 1.73732,-4.9199 -0.19264,-0.85422 -0.51044,-1.63868 -0.95111,-2.35673 -0.11016,-0.19265 -0.13727,-0.39913 -0.0825,-0.62004 0.0825,-0.22091 0.22091,-0.38587 0.41356,-0.49603 0.19264,-0.11074 0.39913,-0.13785 0.62003,-0.0836 0.22091,0.0836 0.38587,0.22091 0.49604,0.41356 0.49718,0.88248 0.84094,1.73732 1.03359,2.56434 0.63446,0.55083 1.54404,0.97822 2.72868,1.2816 l 0.74405,0.16554 c 0.99207,0.16439 3.36212,0.32992 7.11111,0.49604 3.14285,0.11074 5.42974,0.48218 6.86363,1.11607 1.70838,0.79942 2.75585,2.06718 3.14226,3.8045 0.13785,-0.91017 0.16554,-1.84629 0.0825,-2.81122 -0.0271,-0.19265 0.0415,-0.38587 0.20648,-0.57909 0.13785,-0.16439 0.3178,-0.24802 0.53756,-0.24802 0.22091,-0.0271 0.42739,0.0415 0.62003,0.20648 0.16554,0.13785 0.24802,0.3178 0.24802,0.53756 0.27513,3.11465 -0.31665,5.58154 -1.77763,7.40065 -0.2209,0.30282 -0.50929,0.38587 -0.86805,0.24802 -0.41355,-0.13785 -0.59293,-0.39913 -0.5364,-0.78557 l 0.0415,-2.35674 c 0,-1.87449 -0.78557,-3.18434 -2.35732,-3.92794 -1.15702,-0.49718 -3.23809,-0.8271 -6.24304,-0.99207 -2.94854,-0.0836 -5.19512,-0.2209 -6.73797,-0.41355 v 0.0825 c 0.55083,1.46098 0.8271,2.75703 0.8271,3.8863 0,3.77556 -1.66806,6.84931 -5.00361,9.21978 -3.08571,2.17733 -6.83602,3.26511 -11.24547,3.26511 1.13049,0.82711 2.41211,1.48926 3.84481,1.98464 1.18471,0.41356 2.0251,1.01974 2.52167,1.81912 0.6062,1.01974 0.90959,2.61853 0.90959,4.79586 0,1.73673 -1.29487,3.23869 -3.8863,4.50646 -1.8457,0.9367 -2.81063,1.74942 -2.89435,2.43927 l 2.81122,10.08667 h 6.32557 c -0.19264,-0.60505 -0.52429,-0.94996 -0.99207,-1.03359 -0.82711,-0.13728 -1.5712,-0.13728 -2.2327,0 -1.15759,0.19264 -1.95644,-0.13728 -2.39764,-0.99148 -0.38529,-0.68984 -0.57793,-1.43272 -0.57793,-2.23271 0,-1.3785 0.77173,-2.53495 2.31524,-3.47286 0.52314,-0.3305 2.08106,-1.01974 4.67079,-2.06718 1.21297,-0.52315 2.15076,-1.3785 2.81122,-2.56316 0.55141,-1.51643 1.03359,-2.6048 1.44715,-3.26629 0.19265,-0.3305 0.39913,-0.60621 0.62004,-0.82711 0.63446,-0.68868 1.68135,-1.47426 3.14226,-2.35733 1.90166,-0.99148 3.49988,-1.90166 4.79586,-2.72868 1.04859,-0.85422 2.12255,-1.81912 3.2248,-2.89435 l 0.78558,-0.86805 c 1.01974,-1.07511 1.88778,-2.20509 2.60361,-3.39033 -1.15701,-0.11074 -2.42539,-0.82711 -3.80391,-2.15075 -1.32313,-1.40561 -2.08106,-2.17733 -2.2736,-2.31524 -0.16554,-0.11017 -0.27513,-0.26128 -0.3305,-0.4545 -0.0548,-0.19265 -0.0271,-0.38587 0.0836,-0.5791 0.24802,-0.49603 0.6062,-0.62003 1.07512,-0.37201 0.19264,0.0836 1.07511,0.93785 2.64628,2.56433 1.12933,1.15702 2.09435,1.73673 2.89435,1.73673 l 0.99207,-0.0825 c 1.21297,-0.19264 3.0454,-0.68983 5.49782,-1.48925 3.33495,-0.99148 5.07227,-1.48808 5.20944,-1.48808 0.77232,0 1.50255,0.64772 2.19122,1.94374 0.38587,0.71579 0.66157,1.10222 0.82711,1.15702 0.71694,0 1.80583,-0.42739 3.26629,-1.28161 1.3785,-0.77231 2.06718,-1.28161 2.06718,-1.52957 0,-1.62657 -0.34491,-2.64628 -1.03359,-3.05928 -0.35876,-0.27512 -1.14433,-0.4545 -2.35733,-0.53755 l -11.24546,0.124 -0.0415,0.16554 c -0.0836,0.22091 -0.22091,0.37144 -0.41355,0.4545 -0.22091,0.0825 -0.42739,0.0825 -0.62004,0 -0.49719,-0.19265 -0.64772,-0.55141 -0.4545,-1.07511 l 0.24802,-0.62004 c 0.44066,-1.62657 0.68868,-2.72927 0.74347,-3.30719 0.0836,-0.99207 -0.13727,-2.06718 -0.66157,-3.22481 l -0.0825,-0.28953 c -0.82711,-1.54404 -1.33698,-2.43928 -1.53075,-2.68719 -0.46777,-0.63446 -0.93669,-1.08896 -1.40503,-1.36409 -0.44066,-0.27513 -0.53755,-0.66157 -0.29011,-1.15759 0.27628,-0.41356 0.64772,-0.5093 1.11722,-0.28954 0.35818,0.22091 0.74348,0.53755 1.15702,0.95111 0.35876,-0.6062 0.70366,-1.26776 1.03359,-1.98464 -0.30282,0.13785 -0.66158,0.20648 -1.07511,0.20648 -0.88133,0 -1.59941,-0.23417 -2.14973,-0.70309 -0.8271,-0.68984 -1.24007,-1.81912 -1.24007,-3.39092 0,-1.15702 0.48219,-2.14972 1.44715,-2.97674 0.77173,-0.66157 1.72225,-0.99207 2.85153,-0.99207 1.15759,0 1.94374,0.42739 2.35732,1.28161 l 0.0415,0.0836 0.41355,-0.74405 c 0.49604,-0.9367 0.74406,-1.6127 0.74406,-2.02569 0,-0.88133 -0.92343,-1.80539 -2.77091,-2.77032 -1.68136,-0.71694 -3.19646,-1.41946 -4.54795,-2.10867 -0.44066,-0.24917 -0.56467,-0.6062 -0.37202,-1.0757 0.38587,-0.77174 0.63504,-1.43215 0.74405,-1.98361 -1.92927,-1.29487 -3.61003,-2.20509 -5.04392,-2.72868 l -1.73496,-0.49489 c -0.90958,-0.24801 -1.80538,-0.37201 -2.68718,-0.37201 -4.49258,0 -8.21336,1.80583 -11.16308,5.41719 -2.67331,3.25183 -4.01033,6.71081 -4.01033,10.3774 0,1.68136 0.44066,3.58302 1.32313,5.70439 0.91016,2.31642 1.36409,3.7069 1.36409,4.17644 0.0271,0.57794 -0.0836,1.19798 -0.3305,1.86076 -0.24802,0.71579 -0.79942,1.39178 -1.6536,2.0251 -0.19264,0.13785 -0.39913,0.19265 -0.62003,0.16554 -0.22091,-0.0271 -0.39913,-0.12343 -0.53641,-0.28954 -0.13785,-0.19265 -0.19265,-0.39913 -0.16554,-0.62004 0.0271,-0.2209 0.12344,-0.39912 0.28954,-0.53755 0.63446,-0.49604 1.03359,-0.9367 1.19913,-1.32313 0.16554,-0.41356 0.24802,-0.81268 0.24802,-1.19913 -0.11017,-0.5514 -0.55083,-1.77763 -1.32313,-3.67988 -0.93785,-2.25987 -1.40561,-4.35525 -1.40561,-6.28408 0,-4.05182 1.44714,-7.84126 4.34078,-11.3695 3.3072,-4.02421 7.45603,-6.03602 12.44459,-6.03602 1.04744,0 2.08106,0.12343 3.10077,0.37144 0.5514,0.11074 1.17144,0.30339 1.86076,0.57909 1.04744,0.35876 2.38493,1.03359 4.01092,2.02569 l -0.66215,-0.90959 c -0.13727,-0.16553 -0.19207,-0.35876 -0.16438,-0.57909 0,-0.24802 0.0957,-0.44066 0.28953,-0.57909 0.16554,-0.13785 0.35876,-0.19265 0.5791,-0.16554 0.24801,0 0.44066,0.0969 0.57909,0.29012 1.01974,1.21296 1.52956,2.46629 1.52956,3.76227 v 0.0825 c 0,0.5514 -0.20648,1.30987 -0.62003,2.2736 0.96496,0.46893 2.24658,1.0607 3.84481,1.77763 2.48076,1.24007 3.72078,2.64629 3.72078,4.2169 -0.003,0.71752 -0.33396,1.64031 -0.99553,2.77091 z m 9.63218,-0.0415 c -2.59032,0 -4.86452,1.48925 -6.82155,4.46481 -0.52314,0.77232 -1.46098,2.37062 -2.81063,4.79586 -0.85422,1.54404 -1.63972,2.82569 -2.35732,3.84481 0.52429,1.29487 0.71694,2.50779 0.57909,3.63721 -0.0271,0.52429 -0.20648,1.3785 -0.53641,2.56434 h 3.18332 l 2.06718,-5.08542 c 1.3785,-3.44451 2.42598,-5.76094 3.14226,-6.94499 0.35876,-0.68983 1.21296,-1.19913 2.56434,-1.53075 0.90959,-0.2209 1.47425,-0.4545 1.69509,-0.70309 0.30281,-0.38587 0.71579,-1.22624 1.24007,-2.52167 l 0.78557,-2.06718 -0.8692,-0.20648 c -0.82826,-0.16438 -1.4483,-0.24744 -1.86179,-0.24744 z m -23.8538,37.20926 c -1.04744,0.71694 -2.68718,1.66866 -4.91989,2.85271 -0.68868,0.38587 -1.3364,0.81268 -1.94315,1.28161 l 2.89435,1.53075 c 1.87449,1.01974 3.12794,1.81912 3.76227,2.39704 0.44067,0.38587 0.66157,0.78558 0.66157,1.19913 0,0.68983 -0.57909,1.55792 -1.73672,2.6048 -0.60621,0.6062 -0.9788,1.11607 -1.11723,1.52956 l 1.90284,3.18435 c 0.77174,1.35024 1.35024,2.57645 1.73673,3.6787 h 7.35917 c 0.0271,-0.52315 -0.0836,-0.89574 -0.3305,-1.11608 -0.66157,-0.74405 -2.31524,-0.93669 -4.96153,-0.57909 -0.22091,0.0554 -0.42739,0 -0.62004,-0.16553 -0.19264,-0.16439 -0.28954,-0.35819 -0.28954,-0.57794 l -0.124,-2.43928 c 0,-2.67331 0.88132,-5.29198 2.64628,-7.85514 1.54286,-2.34226 2.31525,-4.14824 2.31525,-5.41601 0,-0.96497 -0.73021,-2.09436 -2.19122,-3.39092 -0.68868,-0.57909 -1.36351,-1.03359 -2.02509,-1.36351 -1.07743,1.04627 -2.08225,1.92764 -3.01942,2.64451 z M 7.73156,655.51086 c -0.38587,0.16554 -0.7031,0.35876 -0.95111,0.57909 1.0757,0.24802 2.20509,0.85422 3.39091,1.81912 1.24008,1.10222 2.19062,1.6536 2.85271,1.6536 0.88133,0 1.57003,-0.22091 2.06719,-0.66157 0.32992,-0.35876 0.49603,-0.79943 0.49603,-1.32371 l -0.0825,-0.41355 c -0.82711,0.5514 -1.70897,0.64772 -2.64629,0.29011 l -0.16553,-0.0421 c -0.90959,-0.52315 -1.6536,-0.90959 -2.23271,-1.15702 -1.43387,-0.57852 -2.34285,-0.82653 -2.72868,-0.74405 z"
       id="path73"
       inkscape:connector-curvature="0"
       style="fill:#525252;fill-opacity:1;fill-rule:evenodd;stroke-width:0.14765581" />
  </g>
</svg>
