<?xml version="1.0" encoding="UTF-8" standalone="no"?>
<svg
   xmlns:dc="http://purl.org/dc/elements/1.1/"
   xmlns:cc="http://creativecommons.org/ns#"
   xmlns:rdf="http://www.w3.org/1999/02/22-rdf-syntax-ns#"
   xmlns:svg="http://www.w3.org/2000/svg"
   xmlns="http://www.w3.org/2000/svg"
   xmlns:sodipodi="http://sodipodi.sourceforge.net/DTD/sodipodi-0.dtd"
   xmlns:inkscape="http://www.inkscape.org/namespaces/inkscape"
   width="100"
   height="100"
   version="1.1"
   viewBox="0 0 75.000002 75.000002"
   id="svg155"
   sodipodi:docname="rhinoceros.svg"
   inkscape:version="0.92.4 (5da689c313, 2019-01-14)">
  <metadata
     id="metadata159">
    <rdf:RDF>
      <cc:Work
         rdf:about="">
        <dc:format>image/svg+xml</dc:format>
        <dc:type
           rdf:resource="http://purl.org/dc/dcmitype/StillImage" />
        <dc:title></dc:title>
      </cc:Work>
    </rdf:RDF>
  </metadata>
  <sodipodi:namedview
     pagecolor="#ffffff"
     bordercolor="#666666"
     borderopacity="1"
     objecttolerance="10"
     gridtolerance="10"
     guidetolerance="10"
     inkscape:pageopacity="0"
     inkscape:pageshadow="2"
     inkscape:window-width="1366"
     inkscape:window-height="703"
     id="namedview157"
     showgrid="false"
     units="px"
     inkscape:zoom="1.430376"
     inkscape:cx="27.764474"
     inkscape:cy="63.093684"
     inkscape:window-x="0"
     inkscape:window-y="0"
     inkscape:window-maximized="1"
     inkscape:current-layer="g153" />
  <defs
     id="defs71">
    <symbol
       id="w"
       overflow="visible"
       style="overflow:visible">
      <path
         d="m 18.766,-1.125 c -0.96875,0.5 -1.9805,0.875 -3.0312,1.125 -1.043,0.25781 -2.1367,0.39062 -3.2812,0.39062 -3.3984,0 -6.0898,-0.94531 -8.0781,-2.8438 -1.9922,-1.9062 -2.9844,-4.4844 -2.9844,-7.7344 0,-3.2578 0.99219,-5.8359 2.9844,-7.7344 1.9883,-1.9062 4.6797,-2.8594 8.0781,-2.8594 1.1445,0 2.2383,0.13281 3.2812,0.39062 1.0508,0.25 2.0625,0.625 3.0312,1.125 v 4.2188 c -0.98047,-0.65625 -1.9453,-1.1406 -2.8906,-1.4531 -0.94922,-0.3125 -1.9492,-0.46875 -3,-0.46875 -1.875,0 -3.3516,0.60547 -4.4219,1.8125 -1.0742,1.1992 -1.6094,2.8555 -1.6094,4.9688 0,2.1055 0.53516,3.7617 1.6094,4.9688 1.0703,1.1992 2.5469,1.7969 4.4219,1.7969 1.0508,0 2.0508,-0.14844 3,-0.45312 0.94531,-0.3125 1.9102,-0.80078 2.8906,-1.4688 z"
         id="path2"
         inkscape:connector-curvature="0" />
    </symbol>
    <symbol
       id="c"
       overflow="visible"
       style="overflow:visible">
      <path
         d="m 13.734,-11.141 c -0.4375,-0.19531 -0.87109,-0.34375 -1.2969,-0.4375 -0.41797,-0.10156 -0.83984,-0.15625 -1.2656,-0.15625 -1.2617,0 -2.2305,0.40625 -2.9062,1.2188 -0.67969,0.80469 -1.0156,1.9531 -1.0156,3.4531 v 7.0625 H 2.3591 v -15.312 h 4.8906 v 2.5156 c 0.625,-1 1.3438,-1.7266 2.1562,-2.1875 0.82031,-0.46875 1.8008,-0.70312 2.9375,-0.70312 0.16406,0 0.34375,0.01172 0.53125,0.03125 0.19531,0.01172 0.47656,0.03906 0.84375,0.07813 z"
         id="path5"
         inkscape:connector-curvature="0" />
    </symbol>
    <symbol
       id="a"
       overflow="visible"
       style="overflow:visible">
      <path
         d="m 17.641,-7.7031 v 1.4062 H 6.188 c 0.125,1.1484 0.53906,2.0078 1.25,2.5781 0.70703,0.57422 1.7031,0.85938 2.9844,0.85938 1.0312,0 2.082,-0.14844 3.1562,-0.45312 1.082,-0.3125 2.1914,-0.77344 3.3281,-1.3906 v 3.7656 c -1.1562,0.4375 -2.3125,0.76562 -3.4688,0.98438 -1.1562,0.22656 -2.3125,0.34375 -3.4688,0.34375 -2.7734,0 -4.9297,-0.70312 -6.4688,-2.1094 -1.5312,-1.4062 -2.2969,-3.3789 -2.2969,-5.9219 0,-2.5 0.75391,-4.4609 2.2656,-5.8906 1.5078,-1.4375 3.582,-2.1562 6.2188,-2.1562 2.4062,0 4.332,0.73047 5.7812,2.1875 1.4453,1.4492 2.1719,3.3828 2.1719,5.7969 z m -5.0312,-1.625 c 0,-0.92578 -0.27344,-1.6719 -0.8125,-2.2344 -0.54297,-0.57031 -1.25,-0.85938 -2.125,-0.85938 -0.94922,0 -1.7188,0.26562 -2.3125,0.79688 -0.5937,0.53126 -0.96484,1.2969 -1.1094,2.2969 z"
         id="path8"
         inkscape:connector-curvature="0" />
    </symbol>
    <symbol
       id="f"
       overflow="visible"
       style="overflow:visible">
      <path
         d="m 9.2188,-6.8906 c -1.0234,0 -1.793,0.17188 -2.3125,0.51562 -0.51172,0.34375 -0.76562,0.85547 -0.76562,1.5312 0,0.625 0.20703,1.1172 0.625,1.4688 0.41406,0.34375 0.98828,0.51562 1.7188,0.51562 0.92578,0 1.7031,-0.32812 2.3281,-0.98438 0.63281,-0.66406 0.95312,-1.4922 0.95312,-2.4844 v -0.5625 z m 7.4688,-1.8438 V 0 h -4.9219 v -2.2656 c -0.65625,0.92969 -1.3984,1.6055 -2.2188,2.0312 -0.82422,0.41406 -1.8242,0.625 -3,0.625 -1.5859,0 -2.8711,-0.45703 -3.8594,-1.375 -0.99219,-0.92578 -1.4844,-2.1289 -1.4844,-3.6094 0,-1.7891 0.61328,-3.1016 1.8438,-3.9375 1.2383,-0.84375 3.1797,-1.2656 5.8281,-1.2656 h 2.8906 v -0.39062 c 0,-0.76953 -0.30859,-1.332 -0.92188,-1.6875 -0.61719,-0.36328 -1.5703,-0.54688 -2.8594,-0.54688 -1.0547,0 -2.0312,0.10547 -2.9375,0.3125 -0.89844,0.21094 -1.7305,0.52344 -2.5,0.9375 v -3.7344 c 1.0391,-0.25 2.0859,-0.44141 3.1406,-0.57812 1.0625,-0.13281 2.125,-0.20312 3.1875,-0.20312 2.7578,0 4.75,0.54688 5.9688,1.6406 1.2266,1.0859 1.8438,2.8555 1.8438,5.3125 z"
         id="path11"
         inkscape:connector-curvature="0" />
    </symbol>
    <symbol
       id="b"
       overflow="visible"
       style="overflow:visible">
      <path
         d="m 7.7031,-19.656 v 4.3438 H 12.75 v 3.5 H 7.7031 v 6.5 c 0,0.71094 0.14062,1.1875 0.42188,1.4375 0.28126,0.25 0.83594,0.375 1.6719,0.375 h 2.5156 v 3.5 h -4.1875 c -1.9375,0 -3.3125,-0.39844 -4.125,-1.2031 -0.80469,-0.8125 -1.2031,-2.1797 -1.2031,-4.1094 v -6.5 h -2.4219 v -3.5 h 2.4219 v -4.3438 z"
         id="path14"
         inkscape:connector-curvature="0" />
    </symbol>
    <symbol
       id="m"
       overflow="visible"
       style="overflow:visible">
      <path
         d="m 12.766,-13.078 v -8.2031 h 4.9219 V -1e-4 H 12.766 v -2.2188 c -0.66797,0.90625 -1.4062,1.5703 -2.2188,1.9844 -0.8126,0.4141 -1.7578,0.625 -2.8281,0.625 -1.8867,0 -3.4336,-0.75 -4.6406,-2.25 -1.2109,-1.5 -1.8125,-3.4258 -1.8125,-5.7812 0,-2.3633 0.60156,-4.2969 1.8125,-5.7969 1.207,-1.5 2.7539,-2.25 4.6406,-2.25 1.0625,0 2,0.21484 2.8125,0.64062 0.82031,0.42969 1.5664,1.0859 2.2344,1.9688 z m -3.2188,9.9219 c 1.0391,0 1.8359,-0.37891 2.3906,-1.1406 0.55078,-0.76953 0.82812,-1.8828 0.82812,-3.3438 0,-1.457 -0.27734,-2.5664 -0.82812,-3.3281 -0.55469,-0.76953 -1.3516,-1.1562 -2.3906,-1.1562 -1.043,0 -1.8398,0.38672 -2.3906,1.1562 -0.55469,0.76172 -0.82812,1.8711 -0.82812,3.3281 0,1.4609 0.27344,2.5742 0.82812,3.3438 0.55078,0.76172 1.3477,1.1406 2.3906,1.1406 z"
         id="path17"
         inkscape:connector-curvature="0" />
    </symbol>
    <symbol
       id="l"
       overflow="visible"
       style="overflow:visible">
      <path
         d="m 10.5,-3.1562 c 1.0508,0 1.8516,-0.37891 2.4062,-1.1406 0.55078,-0.76953 0.82812,-1.8828 0.82812,-3.3438 0,-1.457 -0.27734,-2.5664 -0.82812,-3.3281 -0.55469,-0.76953 -1.3555,-1.1562 -2.4062,-1.1562 -1.0547,0 -1.8594,0.38672 -2.4219,1.1562 -0.55469,0.77344 -0.82812,1.8828 -0.82812,3.3281 0,1.4492 0.27344,2.5586 0.82812,3.3281 0.5625,0.77344 1.3672,1.1562 2.4219,1.1562 z m -3.25,-9.9219 c 0.67578,-0.88281 1.4219,-1.5391 2.2344,-1.9688 0.82031,-0.42578 1.7656,-0.64062 2.8281,-0.64062 1.8945,0 3.4453,0.75 4.6562,2.25 1.207,1.5 1.8125,3.4336 1.8125,5.7969 0,2.3555 -0.60547,4.2812 -1.8125,5.7812 -1.2109,1.5 -2.7617,2.25 -4.6562,2.25 -1.0625,0 -2.0078,-0.21094 -2.8281,-0.625 C 8.6719,-0.6602 7.9258,-1.32032 7.25,-2.21882 V -2e-5 H 2.3594 v -21.281 H 7.25 Z"
         id="path20"
         inkscape:connector-curvature="0" />
    </symbol>
    <symbol
       id="k"
       overflow="visible"
       style="overflow:visible">
      <path
         d="m 0.34375,-15.312 h 4.8906 l 4.125,10.391 3.5,-10.391 h 4.8906 l -6.4375,16.766 c -0.64844,1.6953 -1.4023,2.8828 -2.2656,3.5625 -0.86719,0.6875 -2,1.0312 -3.4062,1.0312 H 2.79685 V 2.8289 h 1.5312 c 0.83203,0 1.4375,-0.13672 1.8125,-0.40625 C 6.52336,2.16093 6.82024,1.69218 7.03117,1.01645 L 7.17179,0.59457 Z"
         id="path23"
         inkscape:connector-curvature="0" />
    </symbol>
    <symbol
       id="j"
       overflow="visible"
       style="overflow:visible">
      <path
         d="m 16.781,-19.766 v 4.3125 c -1.125,-0.5 -2.2266,-0.875 -3.2969,-1.125 -1.0625,-0.25781 -2.0703,-0.39062 -3.0156,-0.39062 -1.25,0 -2.1797,0.17969 -2.7812,0.53125 -0.60547,0.34375 -0.90625,0.88281 -0.90625,1.6094 0,0.54297 0.20312,0.96875 0.60938,1.2812 0.40625,0.30469 1.1406,0.5625 2.2031,0.78125 l 2.25,0.45312 c 2.2695,0.44922 3.8789,1.1406 4.8281,2.0781 0.95703,0.92969 1.4375,2.2461 1.4375,3.9531 0,2.25 -0.66797,3.9297 -2,5.0312 -1.3359,1.0938 -3.3711,1.6406 -6.1094,1.6406 -1.3047,0 -2.6055,-0.125 -3.9062,-0.375 -1.3047,-0.23828 -2.6055,-0.59766 -3.9062,-1.0781 v -4.4531 c 1.3008,0.69922 2.5625,1.2266 3.7812,1.5781 1.2188,0.34375 2.3906,0.51562 3.5156,0.51562 1.1562,0 2.0352,-0.1875 2.6406,-0.5625 0.61328,-0.38281 0.92188,-0.9375 0.92188,-1.6562 0,-0.63281 -0.21094,-1.125 -0.625,-1.4688 -0.41797,-0.34375 -1.2461,-0.65625 -2.4844,-0.9375 l -2.0312,-0.4375 c -2.043,-0.4375 -3.5391,-1.1328 -4.4844,-2.0938 -0.9375,-0.95703 -1.4062,-2.25 -1.4062,-3.875 0,-2.0312 0.65625,-3.5938 1.9688,-4.6875 1.31255,-1.0937 3.1953,-1.6406 5.6562,-1.6406 1.125,0 2.2734,0.08594 3.4531,0.25 1.1875,0.16797 2.4141,0.42188 3.6875,0.76562 z"
         id="path26"
         inkscape:connector-curvature="0" />
    </symbol>
    <symbol
       id="i"
       overflow="visible"
       style="overflow:visible">
      <path
         d="m 12.422,-21.281 v 3.2188 H 9.7189 c -0.6875,0 -1.1719,0.125 -1.4531,0.375 -0.27344,0.25 -0.40625,0.6875 -0.40625,1.3125 v 1.0625 h 4.1875 v 3.5 H 7.85955 V -2e-4 h -4.8906 v -11.812 h -2.4375 v -3.5 h 2.4375 v -1.0625 c 0,-1.6641 0.46094,-2.8984 1.3906,-3.7031 0.92578,-0.80078 2.3672,-1.2031 4.3281,-1.2031 z"
         id="path29"
         inkscape:connector-curvature="0" />
    </symbol>
    <symbol
       id="e"
       overflow="visible"
       style="overflow:visible">
      <path
         d="m 2.1875,-5.9688 v -9.3438 h 4.9219 v 1.5312 c 0,0.83594 -0.00781,1.875 -0.015625,3.125 -0.011719,1.25 -0.015625,2.0859 -0.015625,2.5 0,1.2422 0.03125,2.1328 0.09375,2.6719 0.070313,0.54297 0.17969,0.93359 0.32812,1.1719 0.20703,0.32422 0.47266,0.57422 0.79688,0.75 0.32031,0.16797 0.69141,0.25 1.1094,0.25 1.0195,0 1.8203,-0.39062 2.4062,-1.1719 0.58203,-0.78125 0.875,-1.8672 0.875,-3.2656 v -7.5625 h 4.8906 V -6e-4 H 12.6875 V -2.2194 C 11.94531,-1.32096 11.1641,-0.6608 10.3437,-0.235 9.51948,0.17906 8.6093,0.39 7.6093,0.39 5.8476,0.39 4.5038,-0.14906 3.5781,-1.235 2.64841,-2.317 2.1875,-3.8952 2.1875,-5.9694 Z"
         id="path32"
         inkscape:connector-curvature="0" />
    </symbol>
    <symbol
       id="h"
       overflow="visible"
       style="overflow:visible">
      <path
         d="M 2.3594,-21.281 H 7.25 V 0 H 2.3594 Z"
         id="path35"
         inkscape:connector-curvature="0" />
    </symbol>
    <symbol
       id="v"
       overflow="visible"
       style="overflow:visible">
      <path
         d="m 2.5781,-20.406 h 6.6875 l 4.6562,10.922 4.6719,-10.922 h 6.6875 V 0 H 20.2968 V -14.938 L 15.5937,-3.922 H 12.2656 L 7.5625,-14.938 V 0 H 2.5781 Z"
         id="path38"
         inkscape:connector-curvature="0" />
    </symbol>
    <symbol
       id="u"
       overflow="visible"
       style="overflow:visible">
      <path
         d="m 14.312,-14.828 v 3.7188 c -1.043,-0.4375 -2.0547,-0.76562 -3.0312,-0.98438 -0.98047,-0.21875 -1.9023,-0.32812 -2.7656,-0.32812 -0.92969,0 -1.6211,0.11719 -2.0781,0.34375 -0.44922,0.23047 -0.67188,0.58984 -0.67188,1.0781 0,0.38672 0.17188,0.68359 0.51562,0.89062 0.34375,0.21094 0.95703,0.36719 1.8438,0.46875 l 0.85938,0.125 c 2.5078,0.32422 4.1953,0.85156 5.0625,1.5781 0.86328,0.73047 1.2969,1.8711 1.2969,3.4219 0,1.6367 -0.60547,2.8672 -1.8125,3.6875 -1.1992,0.8125 -2.9922,1.2188 -5.375,1.2188 -1.0234,0 -2.0742,-0.078125 -3.1562,-0.23438 -1.0742,-0.15625 -2.1797,-0.39453 -3.3125,-0.71875 v -3.7188 c 0.96875,0.48047 1.9609,0.83984 2.9844,1.0781 1.0312,0.23047 2.0781,0.34375 3.1406,0.34375 0.95703,0 1.6758,-0.12891 2.1562,-0.39062 0.47656,-0.26953 0.71875,-0.66406 0.71875,-1.1875 0,-0.4375 -0.16797,-0.75781 -0.5,-0.96875 -0.33594,-0.21875 -0.99609,-0.38281 -1.9844,-0.5 L 7.34339,-6.01551 c -2.1797,-0.26953 -3.7031,-0.77344 -4.5781,-1.5156 -0.875,-0.73828 -1.3125,-1.8594 -1.3125,-3.3594 0,-1.625 0.55078,-2.8281 1.6562,-3.6094 1.1133,-0.78906 2.8203,-1.1875 5.125,-1.1875 0.89453,0 1.8359,0.07422 2.8281,0.21875 1,0.13672 2.082,0.35156 3.25,0.64062 z"
         id="path41"
         inkscape:connector-curvature="0" />
    </symbol>
    <symbol
       id="t"
       overflow="visible"
       style="overflow:visible">
      <path
         d="M 2.3594,-15.312 H 7.25 V 0 H 2.3594 Z m 0,-5.9688 H 7.25 v 4 H 2.3594 Z"
         id="path44"
         inkscape:connector-curvature="0" />
    </symbol>
    <symbol
       id="g"
       overflow="visible"
       style="overflow:visible">
      <path
         d="m 16.547,-12.766 c 0.61328,-0.94531 1.3477,-1.6719 2.2031,-2.1719 0.85156,-0.5 1.7891,-0.75 2.8125,-0.75 1.7578,0 3.0977,0.54688 4.0156,1.6406 0.92578,1.0859 1.3906,2.6562 1.3906,4.7188 V -4e-4 h -4.9219 v -7.9844 -0.35938 c 0.0078,-0.13281 0.01563,-0.32031 0.01563,-0.5625 0,-1.082 -0.16406,-1.8633 -0.48438,-2.3438 -0.3125,-0.48828 -0.82422,-0.73438 -1.5312,-0.73438 -0.92969,0 -1.6484,0.38672 -2.1562,1.1562 -0.51172,0.76172 -0.77344,1.8672 -0.78125,3.3125 v 7.5156 h -4.9219 v -7.9844 c 0,-1.6953 -0.14844,-2.7852 -0.4375,-3.2656 -0.29297,-0.48828 -0.8125,-0.73438 -1.5625,-0.73438 -0.9375,0 -1.6641,0.38672 -2.1719,1.1562 -0.51172,0.76172 -0.76562,1.8594 -0.76562,3.2969 v 7.5312 h -4.9219 v -15.312 h 4.9219 v 2.2344 c 0.60156,-0.86328 1.2891,-1.5156 2.0625,-1.9531 0.78125,-0.4375 1.6406,-0.65625 2.5781,-0.65625 1.0625,0 2,0.25781 2.8125,0.76562 0.8125,0.51172 1.4258,1.2305 1.8438,2.1562 z"
         id="path47"
         inkscape:connector-curvature="0" />
    </symbol>
    <symbol
       id="d"
       overflow="visible"
       style="overflow:visible">
      <path
         d="m 9.6406,-12.188 c -1.0859,0 -1.9141,0.39062 -2.4844,1.1719 -0.57422,0.78125 -0.85938,1.9062 -0.85938,3.375 0,1.4688 0.28516,2.5938 0.85938,3.375 0.57031,0.77344 1.3984,1.1562 2.4844,1.1562 1.0625,0 1.875,-0.38281 2.4375,-1.1562 0.57031,-0.78125 0.85938,-1.9062 0.85938,-3.375 0,-1.4688 -0.28906,-2.5938 -0.85938,-3.375 -0.5625,-0.78125 -1.375,-1.1719 -2.4375,-1.1719 z m 0,-3.5 c 2.6328,0 4.6914,0.71484 6.1719,2.1406 1.4766,1.418 2.2188,3.3867 2.2188,5.9062 0,2.5117 -0.74219,4.4805 -2.2188,5.9062 C 14.332,-0.317 12.2734,0.39 9.6406,0.39 6.9922,0.39 4.9258,-0.31703 3.4375,-1.735 1.9453,-3.1608 1.2031,-5.1295 1.2031,-7.6412 c 0,-2.5195 0.74219,-4.4883 2.2344,-5.9062 1.4883,-1.4258 3.5547,-2.1406 6.2031,-2.1406 z"
         id="path50"
         inkscape:connector-curvature="0" />
    </symbol>
    <symbol
       id="s"
       overflow="visible"
       style="overflow:visible">
      <path
         d="M 17.75,-9.3281 V 0 h -4.9219 v -7.1094 c 0,-1.3438 -0.03125,-2.2656 -0.09375,-2.7656 -0.0625,-0.5 -0.16797,-0.86719 -0.3125,-1.1094 -0.1875,-0.3125 -0.44922,-0.55469 -0.78125,-0.73438 -0.32422,-0.17578 -0.69531,-0.26562 -1.1094,-0.26562 -1.0234,0 -1.8242,0.39844 -2.4062,1.1875 -0.58594,0.78125 -0.875,1.8711 -0.875,3.2656 V -1e-4 H 2.3594 v -21.281 H 7.25 v 8.2031 c 0.73828,-0.88281 1.5195,-1.5391 2.3438,-1.9688 0.83203,-0.42578 1.75,-0.64062 2.75,-0.64062 1.7695,0 3.1133,0.54688 4.0312,1.6406 0.91406,1.0859 1.375,2.6562 1.375,4.7188 z"
         id="path53"
         inkscape:connector-curvature="0" />
    </symbol>
    <symbol
       id="r"
       overflow="visible"
       style="overflow:visible">
      <path
         d="m 2.5781,-20.406 h 5.875 l 7.4219,14 v -14 h 4.9844 V 0 h -5.875 L 7.5625,-14 V 0 H 2.5781 Z"
         id="path56"
         inkscape:connector-curvature="0" />
    </symbol>
    <symbol
       id="q"
       overflow="visible"
       style="overflow:visible">
      <path
         d="M 17.75,-9.3281 V 0 h -4.9219 v -7.1406 c 0,-1.3203 -0.03125,-2.2344 -0.09375,-2.7344 -0.0625,-0.5 -0.16797,-0.86719 -0.3125,-1.1094 -0.1875,-0.3125 -0.44922,-0.55469 -0.78125,-0.73438 -0.32422,-0.17578 -0.69531,-0.26562 -1.1094,-0.26562 -1.0234,0 -1.8242,0.39844 -2.4062,1.1875 -0.58594,0.78125 -0.875,1.8711 -0.875,3.2656 V -1e-4 H 2.3594 v -15.312 H 7.25 v 2.2344 c 0.73828,-0.88281 1.5195,-1.5391 2.3438,-1.9688 0.83203,-0.42578 1.75,-0.64062 2.75,-0.64062 1.7695,0 3.1133,0.54688 4.0312,1.6406 0.91406,1.0859 1.375,2.6562 1.375,4.7188 z"
         id="path59"
         inkscape:connector-curvature="0" />
    </symbol>
    <symbol
       id="p"
       overflow="visible"
       style="overflow:visible">
      <path
         d="m 2.5781,-20.406 h 8.7344 c 2.5938,0 4.582,0.57812 5.9688,1.7344 1.3945,1.1484 2.0938,2.7891 2.0938,4.9219 0,2.1367 -0.69922,3.7812 -2.0938,4.9375 -1.3867,1.1562 -3.375,1.7344 -5.9688,1.7344 H 7.8281 V 3e-4 h -5.25 z m 5.25,3.8125 v 5.7031 H 10.75 c 1.0195,0 1.8047,-0.25 2.3594,-0.75 0.5625,-0.5 0.84375,-1.2031 0.84375,-2.1094 0,-0.91406 -0.28125,-1.6172 -0.84375,-2.1094 -0.55469,-0.48828 -1.3398,-0.73438 -2.3594,-0.73438 z"
         id="path62"
         inkscape:connector-curvature="0" />
    </symbol>
    <symbol
       id="o"
       overflow="visible"
       style="overflow:visible">
      <path
         d="M 2.3594,-15.312 H 7.25 v 15.031 c 0,2.0508 -0.49609,3.6172 -1.4844,4.7031 -0.98047,1.082 -2.4062,1.625 -4.2812,1.625 H -0.9375 V 2.8283 h 0.85938 c 0.92578,0 1.5625,-0.21094 1.9062,-0.625 0.35156,-0.41797 0.53125,-1.2461 0.53125,-2.4844 z m 0,-5.9688 H 7.25 v 4 H 2.3594 Z"
         id="path65"
         inkscape:connector-curvature="0" />
    </symbol>
    <symbol
       id="n"
       overflow="visible"
       style="overflow:visible">
      <path
         d="m 14.719,-14.828 v 3.9844 c -0.65625,-0.45703 -1.3242,-0.79688 -2,-1.0156 -0.66797,-0.21875 -1.3594,-0.32812 -2.0781,-0.32812 -1.3672,0 -2.4336,0.40234 -3.2031,1.2031 -0.76172,0.79297 -1.1406,1.9062 -1.1406,3.3438 0,1.4297 0.37891,2.543 1.1406,3.3438 0.76953,0.79297 1.8359,1.1875 3.2031,1.1875 0.75781,0 1.4844,-0.10938 2.1719,-0.32812 0.6875,-0.22656 1.3203,-0.56641 1.9062,-1.0156 v 4 c -0.76172,0.28125 -1.5391,0.48828 -2.3281,0.625 -0.78125,0.14453 -1.5742,0.21875 -2.375,0.21875 -2.7617,0 -4.9219,-0.70703 -6.4844,-2.125 -1.5547,-1.4141 -2.3281,-3.3828 -2.3281,-5.9062 0,-2.5312 0.77344,-4.5039 2.3281,-5.9219 1.5625,-1.4141 3.7227,-2.125 6.4844,-2.125 0.80078,0 1.5938,0.07422 2.375,0.21875 0.78125,0.13672 1.5547,0.35156 2.3281,0.64062 z"
         id="path68"
         inkscape:connector-curvature="0" />
    </symbol>
  </defs>
  <g
     id="g153"
     transform="translate(0,-624.99998)">
    <path
       d="m 56.965699,650.6192 c 0.55159,0.68891 0.86949,1.28203 0.95142,1.77762 0.57928,-0.79911 1.25491,-1.39223 2.02635,-1.77762 1.18508,-0.63466 2.27434,-0.59311 3.26735,0.12348 0.66179,0.44195 1.03393,1.22663 1.11643,2.35808 0.16559,1.02007 0.0548,1.79268 -0.3306,2.316 -0.4962,0.77256 -1.24048,1.54453 -2.23225,2.31599 l -1.36453,0.86833 c 0.44081,0.77257 1.03393,1.94438 1.77821,3.5155 0.3583,0.79968 0.71602,1.19951 1.07546,1.19951 0.52331,0 1.12969,-0.53657 1.81971,-1.61321 1.01891,-1.51633 2.01246,-2.27434 2.9777,-2.27434 0.82738,0 1.37895,0.41368 1.65413,1.24047 l 0.78583,-1.11643 c 1.26817,-1.95708 2.04067,-3.10178 2.31599,-3.43234 0.2481,-0.33003 0.48235,-0.4962 0.70332,-0.4962 0.96528,0 1.46146,0.71718 1.48974,2.15042 0,3.0331 -0.6485,5.9693 -1.94437,8.80919 -1.12969,2.39842 -1.74999,3.76349 -1.86136,4.0942 0,0.16559 0.0687,0.45465 0.20655,0.86834 0.22098,0.55158 0.33061,0.95141 0.33061,1.19951 0,0.27522 -0.20655,0.64793 -0.62024,1.11643 -0.63467,0.7443 -2.08174,2.12324 -4.34219,4.13571 -0.16559,0.16559 -0.35888,0.24809 -0.57928,0.24809 -1.02007,0 -2.24731,-0.28963 -3.68107,-0.86833 -1.51633,-0.71602 -2.84034,-1.29529 -3.97013,-1.73729 -0.46792,-0.1379 -0.86833,-0.3179 -1.19951,-0.53773 -1.65414,1.32413 -3.01818,2.44006 -4.0942,3.34992 -1.73729,1.6271 -2.79825,3.30826 -3.18434,5.04614 -0.30349,1.32356 -1.32356,3.21197 -3.06027,5.66577 -1.48856,2.12324 -2.23343,3.51549 -2.23343,4.1772 0,1.02007 0.34502,1.81971 1.03392,2.39842 0.79969,0.71717 1.28318,1.8197 1.44762,3.30826 0.0271,0.22098 -0.0415,0.44081 -0.20655,0.66179 -0.1102,0.16559 -0.31675,0.2481 -0.62024,0.2481 l -8.85188,10e-4 c -0.55158,0 -0.82737,-0.27522 -0.82737,-0.82738 l 0.28963,-4.96313 c 0,-3.69378 -0.6064,-6.75449 -1.81971,-9.18126 -6.72687,1.6819 -12.13193,1.73729 -16.21195,0.16559 -2.5086,4.24589 -3.00606,8.8374 -1.48856,13.771 0.0548,0.24925 0.0139,0.48292 -0.12405,0.70389 -0.16559,0.22098 -0.39925,0.33003 -0.70332,0.33003 h -2.52366 v 0.0421 l -0.0415,-0.0421 h -2.9362 c -0.35888,0 -0.6064,-0.15116 -0.7443,-0.45464 -0.13731,-0.41369 -0.4407999,-0.86834 -0.9098799,-1.36396 -1.13085,-1.32413 -1.69564,-2.3442 -1.69564,-3.06027 l 0.12347,-2.9362 c 0,-1.37895 -0.12347,-2.5086 -0.37156,-3.39201 l -2.81213,-7.44397 c -1.351826,-3.74975 -2.026344,-6.56188 -2.026344,-8.43698 l 0.04154,-0.95027 c -0.881613,1.57054 -1.282023,3.21197 -1.198364,4.92149 0.02712,0.2481 -0.02827,0.45465 -0.16559,0.62024 -0.137895,0.16443 -0.317903,0.24809 -0.53772995,0.24809 -0.220979,0.0271 -0.427528,-0.0271 -0.620237,-0.16559 -0.165591,-0.16559 -0.248098,-0.35887 -0.248098,-0.57928 -0.192709,-3.39142 1.15796695,-6.49319 4.05313295,-9.30532 0.9918,-1.84689 2.52249,-3.5155 4.59034,-5.00406 3.7767799,-2.64714 8.1877999,-3.97012 13.2345399,-3.97012 1.10258,0 3.6112,0.15231 7.52712,0.45464 2.9783,-0.0271 6.42452,-1.04778 10.33926,-3.06027 4.1357,-2.17803 7.63672,-3.26735 10.50483,-3.26735 l 0.99239,0.0421 c 0.0825,-0.66236 0.28963,-1.28317 0.62024,-1.86136 0.6889,-1.13085 1.6271,-1.69623 2.81153,-1.69623 0.74487,-10e-4 1.50363,0.44081 2.27434,1.32241 z m 3.72199,1.40607 c -0.57813,0.33003 -1.06105,0.77199 -1.44762,1.32356 -0.24809,0.38599 -0.42752,0.75871 -0.53657,1.11643 -0.0837,0.44196 -0.22098,0.91046 -0.41369,1.40606 0.38599,0.35888 0.79968,0.81295 1.24047,1.36453 l 1.32356,-0.86833 c 0.77256,-0.6064 1.36453,-1.21336 1.7782,-1.81971 0.13732,-0.27522 0.16559,-0.7039 0.0825,-1.28202 -0.0548,-0.57928 -0.19271,-0.97912 -0.41369,-1.19952 -0.4685,-0.30291 -1.00623,-0.31733 -1.61322,-0.041 z m -4.96314,-0.28963 c -0.44081,-0.52332 -0.78467,-0.78583 -1.03392,-0.78583 -0.6064,0 -1.07546,0.30349 -1.40549,0.91046 -0.27637,0.46792 -0.41369,1.06104 -0.41369,1.77761 v 0.16559 c 0,0.66179 0.0415,1.02007 0.12347,1.07546 0.22098,0.63525 0.44081,1.50303 0.66179,2.60564 0.0554,0.19271 0.0138,0.386 -0.12348,0.57928 -0.13789,0.19271 -0.30348,0.30291 -0.49734,0.33003 -0.22098,0.0554 -0.41369,0.015 -0.57813,-0.12347 -0.19271,-0.1379 -0.3179,-0.30349 -0.37214,-0.49735 -0.19271,-0.90988 -0.39926,-1.65413 -0.62024,-2.23224 -0.11077,-0.24925 -0.19271,-0.57928 -0.24809,-0.9924 l -0.95142,-0.0837 c -2.53578,0 -5.77595,1.02007 -9.71905,3.06028 -4.1357,2.12324 -7.87216,3.18537 -11.2076,3.18537 -3.99834,-0.24925 -6.47991,-0.37214 -7.44397,-0.37214 -4.68723,0 -8.78202,1.21336 -12.2836299,3.63839 -1.90227,1.40606 -3.29452,2.9229 -4.1772,4.54942 v 0.0421 c -0.71602,1.24047 -1.07546,2.67417 -1.07546,4.30009 0,1.6271 0.64793,4.25977 1.94378,7.89978 0.91046,2.28882 1.86136,4.78368 2.85363,7.48562 0.33061,1.07546 0.46793,2.38468 0.41369,3.92921 l -0.12347,2.9362 c 0.0271,0 0.0958,0.12405 0.20655,0.37214 0.22098,0.44081 0.5919699,0.95027 1.1164299,1.53007 l 0.95142,1.28202 h 1.19836 c -1.90227,-5.3485 -1.55724,-10.87586 1.03393,-16.58416 -1.7915,-1.95708 -3.05968,-4.52166 -3.80514,-7.69211 -0.0825,-0.52332 0.12405,-0.8545 0.62023,-0.9924 0.22098,-0.0548 0.42753,-0.0271 0.62024,0.0837 0.19271,0.13731 0.31675,0.31675 0.37214,0.53657 0.71602,3.11566 1.95707,5.55558 3.72198,7.32108 l 0.0416,0.0415 c 0.937,0.96528 2.09502,1.76432 3.47399,2.39782 3.72198,1.65414 8.86458,1.6825 15.42469,0.0837 -1.21336,-2.23342 -1.88839,-4.25977 -2.02576,-6.08007 -0.0283,-0.22098 0.0415,-0.41369 0.20655,-0.57812 0.13732,-0.1656 0.30291,-0.26194 0.4962,-0.29021 0.22097,-0.0271 0.41368,0.0271 0.57927,0.16559 0.16559,0.16559 0.26137,0.35887 0.28964,0.57928 0.16559,1.79268 0.89603,3.80514 2.19192,6.03797 l 0.20655,0.37214 c 1.54335,2.72957 2.31599,6.21744 2.31599,10.46274 0,0.71717 -0.0969,2.09606 -0.28963,4.1357 h 3.4734 c -0.13732,-0.27522 -0.28964,-0.48234 -0.45465,-0.62024 -0.74372,-0.85449 -1.1297,-1.62592 -1.15739,-2.31599 -0.0837,-0.55101 -0.015,-1.74999 0.20655,-3.59791 0.19213,-1.8751 1.19836,-4.38385 3.01817,-7.52772 1.6819,-2.86693 2.86752,-4.97687 3.55641,-6.32703 l 0.002,-3.92921 c 0,-0.55159 0.26194,-0.82738 0.78583,-0.82738 0.55158,0 0.82737,0.27522 0.82737,0.82738 v 4.09419 c 0,0.19271 -0.0271,0.33003 -0.0825,0.41369 l -3.68107,6.53352 c -1.6819,2.95068 -2.63385,5.26652 -2.85364,6.94783 -0.13789,1.35068 -0.20654,2.4538 -0.20654,3.30827 0.0548,0.33003 0.30348,0.74372 0.74429,1.24047 0.46792,0.46793 0.81294,1.06105 1.03392,1.77762 h 1.81971 c -0.16559,-0.63467 -0.39925,-1.07546 -0.70389,-1.32356 -1.04778,-0.90988 -1.57054,-2.12265 -1.57054,-3.63956 0,-1.01892 0.82738,-2.72957 2.48157,-5.12754 1.62592,-2.31717 2.56399,-4.01222 2.81154,-5.08706 0.52447,-2.06785 1.75103,-4.01163 3.68107,-5.83134 0.71602,-0.66178 1.99917,-1.70893 3.84606,-3.14328 l -0.95142,-0.95142 c -0.93816,-1.12969 -1.58545,-2.38467 -1.94378,-3.76348 -0.0554,-0.19271 -0.0283,-0.386 0.0825,-0.57928 0.0825,-0.22098 0.23425,-0.35888 0.45465,-0.41369 0.22098,-0.0548 0.44081,-0.0271 0.66179,0.0825 0.19271,0.11078 0.3179,0.27637 0.37214,0.49735 0.30348,1.18624 0.84121,2.23343 1.61321,3.14328 0.46793,0.55159 0.96528,0.97912 1.48856,1.28203 0.386,0.30348 0.81295,0.52446 1.28203,0.66178 0.66236,0.22156 2.05396,0.79968 4.17779,1.73788 0.9918,0.46793 1.88839,0.71603 2.68806,0.74372 2.37079,-2.12265 3.76349,-3.4601 4.17721,-4.01163 l -0.16559,-0.4962 c -0.22098,-0.57927 -0.33061,-1.06104 -0.33061,-1.44761 0,-0.30349 0.64793,-1.8751 1.94437,-4.71499 1.21336,-2.53578 1.8336,-5.15575 1.86136,-7.85769 l -1.57171,2.3575 c -0.82738,1.35183 -1.61322,2.4538 -2.3575,3.30826 v 0.0415 h -0.0415 c -0.71718,0.79969 -1.36453,1.39281 -1.94437,1.77821 -0.46793,0.2481 -0.8545,0.15231 -1.15739,-0.28963 -0.24925,-0.46908 -0.15231,-0.8545 0.28963,-1.15797 0.46793,-0.2481 0.96527,-0.67505 1.48856,-1.28202 0.0837,-0.30349 0.12404,-0.55159 0.12404,-0.7443 0,-0.57928 -0.0554,-0.937 -0.16559,-1.07546 -0.46792,0.16559 -1.0068,0.70332 -1.61321,1.61322 -1.07546,1.54336 -2.13654,2.316 -3.18435,2.316 -0.96527,0 -1.80641,-0.70332 -2.52248,-2.10936 -0.99239,-1.95766 -1.58545,-3.12895 -1.7782,-3.51549 l -0.28964,-0.53773 c -0.49734,-0.71603 -1.06219,-1.35068 -1.69622,-1.90228 l -0.41369,0.99239 c -0.0825,0.22098 -0.22098,0.37214 -0.41369,0.45465 -0.19271,0.0825 -0.39926,0.0825 -0.62024,0 -0.19271,-0.0825 -0.34387,-0.23424 -0.45464,-0.45465 -0.0825,-0.16559 -0.0825,-0.35887 0,-0.57928 l 0.74429,-1.90227 0.0415,-0.0837 0.0415,-0.16444 c 0.27522,-0.88277 0.41369,-1.66861 0.41369,-2.35809 5.8e-4,-0.27234 -0.19213,-0.61736 -0.5787,-1.03104 z m -40.52988,31.18319 c -2.2606,5.34908 -2.42618,10.47721 -0.49619,15.38481 h 0.95142 c -1.29587,-4.87939 -0.67563,-9.49749 1.86136,-13.85475 -0.77199,-0.41369 -1.54395,-0.92372 -2.31659,-1.53006 z"
       id="path73"
       inkscape:connector-curvature="0"
       style="fill-rule:evenodd;stroke-width:0.14770363;fill:#525252;fill-opacity:1" />
  </g>
</svg>
