<?xml version="1.0" encoding="UTF-8" standalone="no"?>
<svg
   xmlns:dc="http://purl.org/dc/elements/1.1/"
   xmlns:cc="http://creativecommons.org/ns#"
   xmlns:rdf="http://www.w3.org/1999/02/22-rdf-syntax-ns#"
   xmlns:svg="http://www.w3.org/2000/svg"
   xmlns="http://www.w3.org/2000/svg"
   xmlns:sodipodi="http://sodipodi.sourceforge.net/DTD/sodipodi-0.dtd"
   xmlns:inkscape="http://www.inkscape.org/namespaces/inkscape"
   width="200"
   height="100"
   version="1.1"
   viewBox="0 0 150 75.000002"
   id="svg4"
   sodipodi:docname="login.svg"
   inkscape:version="0.92.4 (5da689c313, 2019-01-14)">
  <metadata
     id="metadata10">
    <rdf:RDF>
      <cc:Work
         rdf:about="">
        <dc:format>image/svg+xml</dc:format>
        <dc:type
           rdf:resource="http://purl.org/dc/dcmitype/StillImage" />
        <dc:title />
      </cc:Work>
    </rdf:RDF>
  </metadata>
  <defs
     id="defs8" />
  <sodipodi:namedview
     pagecolor="#ffffff"
     bordercolor="#666666"
     borderopacity="1"
     objecttolerance="10"
     gridtolerance="10"
     guidetolerance="10"
     inkscape:pageopacity="0"
     inkscape:pageshadow="2"
     inkscape:window-width="1366"
     inkscape:window-height="703"
     id="namedview6"
     showgrid="false"
     units="px"
     inkscape:zoom="2.8607519"
     inkscape:cx="101.29686"
     inkscape:cy="73.549481"
     inkscape:window-x="0"
     inkscape:window-y="0"
     inkscape:window-maximized="1"
     inkscape:current-layer="svg4" />
  <path
     d="m 67.854399,9.2010942 c 0,-0.7569414 -0.60566,-1.3626237 -1.36262,-1.3626237 H 7.757393 c -0.756945,0 -1.362626,0.605654 -1.362626,1.3626237 V 13.489955 H 4.224991 V 5.6686908 h 65.798408 v 7.8212642 h -2.16978 V 9.2010942 Z m 4.89451,-4.8945144 c 0,-0.7569407 -0.60566,-1.3626235 -1.36262,-1.3626235 H 2.862624 C 2.105679,2.9439563 1.5,3.5496098 1.5,4.3065798 V 66.320785 c 0,0.756949 0.605654,1.362623 1.362624,1.362623 0.756945,0 1.362624,-0.605654 1.362624,-1.362623 v -14.07788 h 2.169777 v 14.07788 c 0,0.554895 0.353343,1.110294 0.958495,1.261581 l 21.899779,7.316615 c 0.15129,0.10102 0.35334,0.10102 0.55489,0.10102 0.70618,0 1.36263,-0.605653 1.36263,-1.311798 l -0.0503,-57.119567 c 0,-0.605653 -0.35334,-1.110283 -0.90824,-1.311797 L 16.134447,10.564347 h 19.628732 v 57.119564 h 30.72917 c 0.75695,0 1.36262,-0.605654 1.36262,-1.362622 v -14.07788 h 2.16979 v 14.07788 c 0,0.75694 0.60565,1.362622 1.36262,1.362622 0.75697,0 1.36262,-0.605654 1.36262,-1.362622 V 4.3070834 Z M 6.39464,16.215201 V 49.517792 H 4.224862 V 16.215201 Z M 67.854269,49.517792 V 16.215201 h 2.16978 V 49.517792 Z M 42.524129,35.288075 c 0,-0.706182 0.60565,-1.311798 1.36262,-1.311798 0.75695,0 1.36262,0.605653 1.36262,1.311798 v 4.894514 c 0,0.75695 -0.60565,1.362624 -1.36262,1.362624 -0.75695,0 -1.36262,-0.605654 -1.36262,-1.362624 z m -19.729107,3.68372 c 0,-0.756941 0.605654,-1.362623 1.362632,-1.362623 0.756967,0 1.362625,0.605654 1.362625,1.362623 v 4.894515 c 0,0.75694 -0.605658,1.362622 -1.362625,1.362622 -0.756978,0 -1.362632,-0.605654 -1.362632,-1.362622 z"
     id="path2"
     inkscape:connector-curvature="0"
     style="fill:#525252;fill-opacity:1;fill-rule:evenodd;stroke-width:0.12867084" />
  <path
     style="fill:#525252;fill-opacity:1;fill-rule:evenodd;stroke-width:0.11558716"
     inkscape:connector-curvature="0"
     id="path2-3"
     d="M 147.75,50.85704 V 4.2800437 c 0,-0.7607991 -0.5978,-1.3586151 -1.35861,-1.3586151 H 77.858611 c -0.76079,0 -1.35861,0.597807 -1.35861,1.3586151 V 66.291387 c 0,0.760798 0.59781,1.358614 1.35861,1.358614 0.76081,0 1.35861,-0.597807 1.35861,-1.358614 V 52.215189 h 2.17408 v 14.076198 c 0,0.760798 0.59781,1.358614 1.35861,1.358614 H 110.73934 V 7.8128437 H 82.749911 c -0.76079,0 -1.35861,0.597806 -1.35861,1.358614 v 4.2934803 h -2.17408 V 5.6388847 h 65.815329 v 7.8260533 h -2.17408 V 9.1714577 c 0,-0.760798 -0.5978,-1.358614 -1.35861,-1.358614 H 113.4561 V 67.650001 h 28.04376 c 0.7608,0 1.35861,-0.597807 1.35861,-1.358614 V 52.215189 h 2.17408 v 14.076198 c 0,0.760798 0.5978,1.358614 1.35861,1.358614 0.76081,0 1.35862,-0.597807 1.35862,-1.358614 V 50.855881 Z m -4.89119,-34.673839 h 2.17409 v 33.315691 h -2.17409 z m -61.468089,0 v 33.315691 h -2.17407 V 16.183201 Z m 36.141799,19.076501 c 0,-0.706619 0.5978,-1.358601 1.35861,-1.358601 0.76079,0 1.35861,0.651972 1.35861,1.358601 v 4.89119 c 0,0.760798 -0.59781,1.358614 -1.35861,1.358614 -0.7608,0 -1.35861,-0.597807 -1.35861,-1.358614 z m -12.17364,-1.358601 c 0.76079,0 1.35861,0.651972 1.35861,1.358601 v 4.89119 c 0,0.760798 -0.59781,1.358614 -1.35861,1.358614 -0.7608,0 -1.35861,-0.597807 -1.35861,-1.358614 v -4.89119 c 0,-0.706619 0.5978,-1.358601 1.35861,-1.358601 z" />
</svg>
