<?xml version="1.0" encoding="UTF-8" standalone="no"?>
<svg
   xmlns:dc="http://purl.org/dc/elements/1.1/"
   xmlns:cc="http://creativecommons.org/ns#"
   xmlns:rdf="http://www.w3.org/1999/02/22-rdf-syntax-ns#"
   xmlns:svg="http://www.w3.org/2000/svg"
   xmlns="http://www.w3.org/2000/svg"
   xmlns:sodipodi="http://sodipodi.sourceforge.net/DTD/sodipodi-0.dtd"
   xmlns:inkscape="http://www.inkscape.org/namespaces/inkscape"
   width="200"
   height="100"
   version="1.1"
   viewBox="0 0 150 75.000002"
   id="svg4"
   sodipodi:docname="login.svg"
   inkscape:version="0.92.4 (5da689c313, 2019-01-14)">
  <metadata
     id="metadata10">
    <rdf:RDF>
      <cc:Work
         rdf:about="">
        <dc:format>image/svg+xml</dc:format>
        <dc:type
           rdf:resource="http://purl.org/dc/dcmitype/StillImage" />
        <dc:title />
      </cc:Work>
    </rdf:RDF>
  </metadata>
  <defs
     id="defs8" />
  <sodipodi:namedview
     pagecolor="#ffffff"
     bordercolor="#666666"
     borderopacity="1"
     objecttolerance="10"
     gridtolerance="10"
     guidetolerance="10"
     inkscape:pageopacity="0"
     inkscape:pageshadow="2"
     inkscape:window-width="1366"
     inkscape:window-height="701"
     id="namedview6"
     showgrid="false"
     units="px"
     inkscape:zoom="2.8607519"
     inkscape:cx="101.29686"
     inkscape:cy="73.549481"
     inkscape:window-x="0"
     inkscape:window-y="0"
     inkscape:window-maximized="1"
     inkscape:current-layer="svg4" />
  <path
     d="m 142.8544,6.8010943 c 0,-0.7569414 -0.60566,-1.3626237 -1.36262,-1.3626237 H 82.757394 c -0.756945,0 -1.362626,0.605654 -1.362626,1.3626237 V 11.089955 H 79.224992 V 3.2686909 H 145.0234 v 7.8212641 h -2.16978 V 6.8010943 Z m 4.89451,-4.8945144 c 0,-0.7569407 -0.60566,-1.36262355 -1.36262,-1.36262355 H 77.862625 c -0.756945,0 -1.362624,0.60565355 -1.362624,1.36262355 V 63.920785 c 0,0.756949 0.605654,1.362623 1.362624,1.362623 0.756945,0 1.362624,-0.605654 1.362624,-1.362623 v -14.07788 h 2.169777 v 14.07788 c 0,0.554895 0.353343,1.110294 0.958495,1.261581 l 21.899779,7.316615 c 0.15129,0.10102 0.35334,0.10102 0.55489,0.10102 0.70618,0 1.36263,-0.605653 1.36263,-1.311798 l -0.0503,-57.119567 c 0,-0.605653 -0.35334,-1.110283 -0.90824,-1.311797 L 91.134448,8.164347 h 19.628732 v 57.119564 h 30.72917 c 0.75695,0 1.36262,-0.605654 1.36262,-1.362622 v -14.07788 h 2.16979 v 14.07788 c 0,0.75694 0.60565,1.362622 1.36262,1.362622 0.75697,0 1.36262,-0.605654 1.36262,-1.362622 V 1.9070835 Z M 81.394641,13.815201 V 47.117792 H 79.224863 V 13.815201 Z M 142.85427,47.117792 V 13.815201 h 2.16978 V 47.117792 Z M 117.52413,32.888075 c 0,-0.706182 0.60565,-1.311798 1.36262,-1.311798 0.75695,0 1.36262,0.605653 1.36262,1.311798 v 4.894514 c 0,0.75695 -0.60565,1.362624 -1.36262,1.362624 -0.75695,0 -1.36262,-0.605654 -1.36262,-1.362624 z m -19.729107,3.68372 c 0,-0.756941 0.605654,-1.362623 1.362632,-1.362623 0.756967,0 1.362625,0.605654 1.362625,1.362623 v 4.894515 c 0,0.75694 -0.605658,1.362622 -1.362625,1.362622 -0.756978,0 -1.362632,-0.605654 -1.362632,-1.362622 z"
     id="path2"
     inkscape:connector-curvature="0"
     style="fill:#525252;fill-opacity:1;fill-rule:evenodd;stroke-width:0.12867084" />
  <path
     style="fill:#525252;fill-opacity:1;fill-rule:evenodd;stroke-width:0.11558716"
     inkscape:connector-curvature="0"
     id="path2-3"
     d="M 72.750002,48.45704 V 1.8800439 c 0,-0.7607991 -0.597806,-1.35861508 -1.358614,-1.35861508 H 2.8586097 C 2.0978199,0.52142882 1.5,1.1192358 1.5,1.8800439 V 63.891387 c 0,0.760798 0.5978099,1.358614 1.3586097,1.358614 0.76081,0 1.3586099,-0.597807 1.3586099,-1.358614 V 49.815189 h 2.1740803 v 14.076198 c 0,0.760798 0.5978099,1.358614 1.3586099,1.358614 H 35.73934 V 5.4128439 H 7.7499097 c -0.7607899,0 -1.3586098,0.597806 -1.3586098,1.358614 V 11.064938 H 4.2172196 V 3.2388849 H 70.032546 V 11.064938 H 67.858471 V 6.7714579 c 0,-0.760798 -0.597806,-1.358614 -1.358614,-1.358614 H 38.4561 V 65.250001 h 28.043757 c 0.760798,0 1.358614,-0.597807 1.358614,-1.358614 V 49.815189 h 2.174075 v 14.076198 c 0,0.760798 0.597807,1.358614 1.358614,1.358614 0.760808,0 1.358614,-0.597807 1.358614,-1.358614 V 48.455881 Z M 67.858813,13.783201 h 2.174085 v 33.315691 h -2.174085 z m -61.4680931,0 V 47.098892 H 4.2166496 V 13.783201 Z M 42.53252,32.859702 c 0,-0.706619 0.5978,-1.358601 1.35861,-1.358601 0.76079,0 1.35861,0.651972 1.35861,1.358601 v 4.89119 c 0,0.760798 -0.59781,1.358614 -1.35861,1.358614 -0.7608,0 -1.35861,-0.597807 -1.35861,-1.358614 z M 30.35888,31.501101 c 0.76079,0 1.35861,0.651972 1.35861,1.358601 v 4.89119 c 0,0.760798 -0.59781,1.358614 -1.35861,1.358614 -0.7608,0 -1.35861,-0.597807 -1.35861,-1.358614 v -4.89119 c 0,-0.706619 0.5978,-1.358601 1.35861,-1.358601 z" />
</svg>
