<?xml version="1.0" encoding="UTF-8" standalone="no"?>
<svg
   xmlns:dc="http://purl.org/dc/elements/1.1/"
   xmlns:cc="http://creativecommons.org/ns#"
   xmlns:rdf="http://www.w3.org/1999/02/22-rdf-syntax-ns#"
   xmlns:svg="http://www.w3.org/2000/svg"
   xmlns="http://www.w3.org/2000/svg"
   xmlns:sodipodi="http://sodipodi.sourceforge.net/DTD/sodipodi-0.dtd"
   xmlns:inkscape="http://www.inkscape.org/namespaces/inkscape"
   width="400"
   height="200"
   version="1.1"
   viewBox="0 0 300 150"
   id="svg135"
   sodipodi:docname="logo.svg"
   inkscape:version="0.92.4 (5da689c313, 2019-01-14)">
  <metadata
     id="metadata139">
    <rdf:RDF>
      <cc:Work
         rdf:about="">
        <dc:format>image/svg+xml</dc:format>
        <dc:type
           rdf:resource="http://purl.org/dc/dcmitype/StillImage" />
        <dc:title />
      </cc:Work>
    </rdf:RDF>
  </metadata>
  <sodipodi:namedview
     pagecolor="#ffffff"
     bordercolor="#666666"
     borderopacity="1"
     objecttolerance="10"
     gridtolerance="10"
     guidetolerance="10"
     inkscape:pageopacity="0"
     inkscape:pageshadow="2"
     inkscape:window-width="1366"
     inkscape:window-height="703"
     id="namedview137"
     showgrid="false"
     units="px"
     inkscape:zoom="1.0114285"
     inkscape:cx="81.352532"
     inkscape:cy="100.84442"
     inkscape:window-x="0"
     inkscape:window-y="0"
     inkscape:window-maximized="1"
     inkscape:current-layer="svg135" />
  <defs
     id="defs65">
    <symbol
       id="u"
       overflow="visible"
       style="overflow:visible">
      <path
         d="M 2.2188,-0.125 C 2.10161,-0.070312 1.98442,-0.03125 1.85942,0 1.73442,0.03125 1.60161,0.046875 1.4688,0.046875 c -0.39844,0 -0.71484,-0.10938 -0.95312,-0.32812 -0.23047,-0.22656 -0.34375,-0.53516 -0.34375,-0.92188 0,-0.38281 0.11328,-0.6875 0.34375,-0.90625 0.23828,-0.22656 0.55469,-0.34375 0.95312,-0.34375 0.13281,0 0.26562,0.015625 0.39062,0.046875 0.125,0.023438 0.24219,0.0625 0.35938,0.125 v 0.5 C 2.10161,-1.851562 1.98833,-1.90625 1.87505,-1.9375 1.75786,-1.976562 1.64458,-2 1.5313,-2 c -0.23047,0 -0.40625,0.074219 -0.53125,0.21875 -0.125,0.13672 -0.1875,0.32812 -0.1875,0.57812 0,0.25 0.0625,0.44922 0.1875,0.59375 0.125,0.13672 0.30078,0.20312 0.53125,0.20312 0.11328,0 0.22656,-0.015625 0.34375,-0.046875 0.11328,-0.039063 0.22656,-0.097656 0.34375,-0.17188 z"
         id="path2"
         inkscape:connector-curvature="0" />
    </symbol>
    <symbol
       id="b"
       overflow="visible"
       style="overflow:visible">
      <path
         d="M 1.625,-1.3125 C 1.570312,-1.34375 1.51953,-1.363281 1.46875,-1.375 1.414062,-1.382812 1.36719,-1.390625 1.32813,-1.390625 c -0.15625,0 -0.27734,0.054687 -0.35938,0.15625 -0.074219,0.09375 -0.10938,0.23047 -0.10938,0.40625 V -5e-6 H 0.28125 v -1.8125 h 0.57812 v 0.29688 c 0.070313,-0.11328 0.15625,-0.19531 0.25,-0.25 0.10156,-0.0625 0.21875,-0.09375 0.34375,-0.09375 0.019531,0 0.039063,0.00781 0.0625,0.015625 H 1.625 Z"
         id="path5"
         inkscape:connector-curvature="0" />
    </symbol>
    <symbol
       id="a"
       overflow="visible"
       style="overflow:visible">
      <path
         d="M 2.0938,-0.90625 V -0.75 H 0.7344 c 0.007813,0.13672 0.054687,0.24219 0.14062,0.3125 0.082031,0.0625 0.20312,0.09375 0.35938,0.09375 0.125,0 0.25,-0.015625 0.375,-0.046875 0.125,-0.039063 0.25391,-0.097656 0.39062,-0.17188 v 0.45312 C 1.8633,-0.054697 1.72658,-0.019541 1.59377,-5e-6 1.45705,0.031245 1.31643,0.04687 1.17189,0.04687 c -0.32422,0 -0.57812,-0.082031 -0.76562,-0.25 -0.17969,-0.16406 -0.26562,-0.39844 -0.26562,-0.70312 0,-0.28906 0.085937,-0.51953 0.26562,-0.6875 0.17578,-0.17578 0.42188,-0.26562 0.73438,-0.26562 0.28906,0 0.51953,0.089844 0.6875,0.26562 0.17578,0.16797 0.26562,0.39844 0.26562,0.6875 z M 1.48442,-1.10937 c 0,-0.10156 -0.03125,-0.1875 -0.09375,-0.25 -0.0625,-0.070313 -0.14844,-0.10938 -0.25,-0.10938 -0.11719,0 -0.21094,0.03125 -0.28125,0.09375 -0.0625,0.0625 -0.10547,0.15234 -0.125,0.26562 z"
         id="path8"
         inkscape:connector-curvature="0" />
    </symbol>
    <symbol
       id="j"
       overflow="visible"
       style="overflow:visible">
      <path
         d="m 1.0938,-0.8125 c -0.125,0 -0.21875,0.023438 -0.28125,0.0625 -0.0625,0.042969 -0.09375,0.10156 -0.09375,0.17188 0,0.074219 0.023438,0.13281 0.078125,0.17188 0.050781,0.042969 0.11719,0.0625 0.20312,0.0625 0.11328,0 0.20703,-0.035156 0.28125,-0.10938 0.070312,-0.082031 0.10938,-0.17969 0.10938,-0.29688 v -0.0625 z m 0.875,-0.21875 V -5e-5 H 1.39068 V -0.26567 C 1.316461,-0.1602 1.22662,-0.08208 1.12506,-0.03129 1.03131,0.019491 0.91412,0.046835 0.78131,0.046835 c -0.1875,0 -0.34375,-0.050781 -0.46875,-0.15625 -0.11719,-0.11328 -0.17188,-0.25781 -0.17188,-0.4375 0,-0.20703 0.070313,-0.35938 0.21875,-0.45312 0.14453,-0.10156 0.375,-0.15625 0.6875,-0.15625 H 1.39068 V -1.20316 c 0,-0.09375 -0.039063,-0.16016 -0.10938,-0.20312 -0.074219,-0.039062 -0.1875,-0.0625 -0.34375,-0.0625 -0.11719,0 -0.23047,0.015625 -0.34375,0.046875 -0.10547,0.023437 -0.20312,0.054687 -0.29688,0.09375 v -0.4375 c 0.125,-0.03125 0.25,-0.050781 0.375,-0.0625 0.125,-0.019531 0.25,-0.03125 0.375,-0.03125 0.33203,0 0.56641,0.070313 0.70312,0.20312 0.14453,0.125 0.21875,0.33594 0.21875,0.625 z"
         id="path11"
         inkscape:connector-curvature="0" />
    </symbol>
    <symbol
       id="c"
       overflow="visible"
       style="overflow:visible">
      <path
         d="m 0.90625,-2.3281 v 0.51562 H 1.5 V -1.3906 H 0.90625 v 0.76562 c 0,0.085938 0.015625,0.14062 0.046875,0.17188 0.039063,0.023437 0.10938,0.03125 0.20312,0.03125 h 0.29688 V 3e-5 h -0.5 c -0.21875,0 -0.38281,-0.046875 -0.48438,-0.14062 -0.09375,-0.09375 -0.14062,-0.25391 -0.14062,-0.48438 v -0.76562 h -0.28125 v -0.42188 h 0.28125 v -0.51562 z"
         id="path14"
         inkscape:connector-curvature="0" />
    </symbol>
    <symbol
       id="i"
       overflow="visible"
       style="overflow:visible">
      <path
         d="M 1.5156,-1.5469 V -2.51565 H 2.09372 V -5e-5 H 1.5156 V -0.26567 C 1.429663,-0.1602 1.34372,-0.08208 1.24998,-0.03129 1.15624,0.0195 1.03904,0.046835 0.90623,0.046835 c -0.21875,0 -0.40234,-0.085938 -0.54688,-0.26562 -0.13672,-0.17578 -0.20312,-0.40625 -0.20312,-0.6875 0,-0.28125 0.066406,-0.50781 0.20312,-0.6875 0.14453,-0.17578 0.32812,-0.26562 0.54688,-0.26562 0.125,0 0.23438,0.027344 0.32812,0.078125 0.10156,0.054688 0.19531,0.13281 0.28125,0.23438 z M 1.12498,-0.375 c 0.125,0 0.21875,-0.039062 0.28125,-0.125 0.070312,-0.09375 0.10938,-0.22656 0.10938,-0.40625 0,-0.16406 -0.039063,-0.29688 -0.10938,-0.39062 -0.0625,-0.09375 -0.15625,-0.14062 -0.28125,-0.14062 -0.125,0 -0.21875,0.046875 -0.28125,0.14062 -0.0625,0.093745 -0.09375,0.22656 -0.09375,0.39062 0,0.17969 0.03125,0.3125 0.09375,0.40625 0.0625,0.085938 0.15625,0.125 0.28125,0.125 z"
         id="path17"
         inkscape:connector-curvature="0" />
    </symbol>
    <symbol
       id="h"
       overflow="visible"
       style="overflow:visible">
      <path
         d="m 1.25,-0.375 c 0.11328,0 0.20312,-0.039062 0.26562,-0.125 C 1.585933,-0.59375 1.625,-0.72656 1.625,-0.90625 1.625,-1.07031 1.585938,-1.20313 1.51562,-1.29687 1.45312,-1.39062 1.36328,-1.43749 1.25,-1.43749 c -0.125,0 -0.22656,0.046875 -0.29688,0.14062 -0.0625,0.09375 -0.09375,0.22656 -0.09375,0.39062 0,0.17969 0.03125,0.3125 0.09375,0.40625 C 1.023433,-0.414062 1.125,-0.375 1.25,-0.375 Z M 0.85938,-1.5469 c 0.082031,-0.10156 0.17188,-0.17969 0.26562,-0.23438 0.09375,-0.050781 0.20312,-0.078125 0.32812,-0.078125 0.22656,0 0.41016,0.089844 0.54688,0.26562 0.14453,0.17969 0.21875,0.40625 0.21875,0.6875 0,0.28125 -0.074219,0.51172 -0.21875,0.6875 -0.13672,0.17969 -0.32031,0.26562 -0.54688,0.26562 -0.125,0 -0.23438,-0.027344 -0.32812,-0.078125 C 1.03126,-0.082071 0.94141,-0.1602 0.85938,-0.26567 V -5e-5 H 0.28126 v -2.5156 h 0.57812 z"
         id="path20"
         inkscape:connector-curvature="0" />
    </symbol>
    <symbol
       id="g"
       overflow="visible"
       style="overflow:visible">
      <path
         d="m 0.046875,-1.8125 h 0.57812 l 0.48438,1.2344 0.40625,-1.2344 h 0.57812 l -0.75,1.9844 c -0.085938,0.19531 -0.17969,0.33594 -0.28125,0.42188 -0.09375,0.082031 -0.22656,0.125 -0.39062,0.125 H 0.328125 V 0.32816 h 0.1875 c 0.09375,0 0.16016,-0.015625 0.20312,-0.046875 0.050781,-0.03125 0.085938,-0.085938 0.10938,-0.15625 l 0.015625,-0.0625 z"
         id="path23"
         inkscape:connector-curvature="0" />
    </symbol>
    <symbol
       id="f"
       overflow="visible"
       style="overflow:visible">
      <path
         d="m 0.29688,-2.4219 h 0.79688 l 0.54688,1.2969 0.5625,-1.2969 H 2.98439 V 0 H 2.40627 v -1.7656 l -0.5625,1.2969 H 1.45315 L 0.89065,-1.7656 V 0 H 0.2969 Z"
         id="path26"
         inkscape:connector-curvature="0" />
    </symbol>
    <symbol
       id="t"
       overflow="visible"
       style="overflow:visible">
      <path
         d="M 0.28125,-1.8125 H 0.85937 V 0 H 0.28125 Z m 0,-0.70312 h 0.57812 v 0.46875 H 0.28125 Z"
         id="path29"
         inkscape:connector-curvature="0" />
    </symbol>
    <symbol
       id="s"
       overflow="visible"
       style="overflow:visible">
      <path
         d="m 1.6875,-1.75 v 0.4375 C 1.5625,-1.363281 1.44141,-1.398438 1.32812,-1.42188 1.21093,-1.45313 1.10156,-1.468755 1,-1.468755 c -0.10547,0 -0.18359,0.015625 -0.23438,0.046875 -0.054687,0.023437 -0.078125,0.0625 -0.078125,0.125 0,0.042969 0.015625,0.078125 0.046875,0.10938 0.039063,0.023438 0.11328,0.039062 0.21875,0.046875 L 1.0625,-1.125 c 0.28906,0.042969 0.48828,0.10547 0.59375,0.1875 0.10156,0.085938 0.15625,0.21875 0.15625,0.40625 0,0.1875 -0.074219,0.33594 -0.21875,0.4375 C 1.45703,0 1.25,0.04687 0.96875,0.04687 c -0.125,0 -0.25,-0.011719 -0.375,-0.03125 -0.125,-0.019531 -0.25781,-0.046875 -0.39062,-0.078125 v -0.4375 c 0.11328,0.054688 0.22656,0.09375 0.34375,0.125 0.125,0.023438 0.25,0.03125 0.375,0.03125 0.11328,0 0.19531,-0.015625 0.25,-0.046875 0.0625,-0.03125 0.09375,-0.078125 0.09375,-0.14062 0,-0.050781 -0.023437,-0.085938 -0.0625,-0.10938 C 1.160161,-0.660161 1.08204,-0.679693 0.96875,-0.70313 L 0.875,-0.718755 c -0.26172,-0.03125 -0.44531,-0.085938 -0.54688,-0.17188 -0.10547,-0.082031 -0.15625,-0.21875 -0.15625,-0.40625 0,-0.1875 0.0625,-0.32812 0.1875,-0.42188 0.13281,-0.09375 0.33594,-0.14062 0.60938,-0.14062 0.11328,0 0.22656,0.011719 0.34375,0.03125 0.11328,0.011719 0.23828,0.039063 0.375,0.078125 z"
         id="path32"
         inkscape:connector-curvature="0" />
    </symbol>
    <symbol
       id="e"
       overflow="visible"
       style="overflow:visible">
      <path
         d="m 0.26562,-0.70312 v -1.1094 h 0.57812 v 0.1875 0.375 0.28125 0.32812 c 0.007812,0.0625 0.023438,0.10547 0.046875,0.125 0.019531,0.042969 0.046875,0.074219 0.078125,0.09375 0.039062,0.023437 0.085938,0.03125 0.14062,0.03125 0.125,0 0.21875,-0.046875 0.28125,-0.14062 0.070313,-0.09375 0.10938,-0.22266 0.10938,-0.39062 V -1.81251 H 2.07811 V -1e-5 H 1.49999 V -0.26563 C 1.414052,-0.16016 1.3203,-0.08204 1.21874,-0.03125 1.12499,0.019531 1.01952,0.046875 0.90624,0.046875 c -0.21094,0 -0.37109,-0.0625 -0.48438,-0.1875 -0.10547,-0.13281 -0.15625,-0.32031 -0.15625,-0.5625 z"
         id="path35"
         inkscape:connector-curvature="0" />
    </symbol>
    <symbol
       id="r"
       overflow="visible"
       style="overflow:visible">
      <path
         d="m 1.4688,-2.5156 v 0.375 H 1.1563 c -0.085938,0 -0.14062,0.015625 -0.17188,0.046875 -0.03126,0.03125 -0.046875,0.085938 -0.046875,0.15625 v 0.125 h 0.48438 v 0.42188 H 0.937545 V 5e-6 h -0.59375 v -1.3906 h -0.28125 v -0.42188 h 0.28125 v -0.125 c 0,-0.19531 0.054688,-0.34375 0.17188,-0.4375 0.11328,-0.09375 0.28516,-0.14062 0.51562,-0.14062 z"
         id="path38"
         inkscape:connector-curvature="0" />
    </symbol>
    <symbol
       id="d"
       overflow="visible"
       style="overflow:visible">
      <path
         d="m 1.1406,-1.4375 c -0.125,0 -0.22656,0.046875 -0.29688,0.14062 -0.0625,0.085937 -0.09375,0.21484 -0.09375,0.39062 0,0.17969 0.03125,0.3125 0.09375,0.40625 0.070312,0.09375 0.17188,0.14062 0.29688,0.14062 0.125,0 0.21875,-0.046875 0.28125,-0.14062 0.070313,-0.09375 0.10938,-0.22656 0.10938,-0.40625 0,-0.17578 -0.039062,-0.30469 -0.10938,-0.39062 C 1.35935,-1.39063 1.2656,-1.4375 1.1406,-1.4375 Z m 0,-0.42188 c 0.3125,0 0.55469,0.089844 0.73438,0.26562 0.17578,0.16797 0.26562,0.39844 0.26562,0.6875 0,0.30469 -0.089844,0.53906 -0.26562,0.70312 -0.17969,0.16797 -0.42188,0.25 -0.73438,0.25 -0.3125,0 -0.55859,-0.082031 -0.73438,-0.25 C 0.22653,-0.3672 0.1406,-0.60158 0.1406,-0.90626 c 0,-0.28906 0.085937,-0.51953 0.26562,-0.6875 C 0.582,-1.76954 0.8281,-1.85938 1.1406,-1.85938 Z"
         id="path41"
         inkscape:connector-curvature="0" />
    </symbol>
    <symbol
       id="q"
       overflow="visible"
       style="overflow:visible">
      <path
         d="m 1.9531,-1.5156 c 0.070313,-0.10156 0.16016,-0.1875 0.26562,-0.25 0.10156,-0.0625 0.21094,-0.09375 0.32812,-0.09375 0.20703,0 0.36328,0.070313 0.46875,0.20312 0.11328,0.125 0.17188,0.30859 0.17188,0.54688 V 5e-5 H 2.60935 v -0.9375 -0.046875 -0.0625 c 0,-0.13281 -0.023437,-0.22656 -0.0625,-0.28125 -0.03125,-0.0625 -0.089844,-0.09375 -0.17188,-0.09375 -0.11719,0 -0.20312,0.046875 -0.26562,0.14062 -0.054687,0.09375 -0.085937,0.22656 -0.09375,0.39062 V 3.5e-5 H 1.43748 v -0.9375 c 0,-0.20703 -0.015625,-0.33594 -0.046875,-0.39062 -0.03125,-0.0625 -0.09375,-0.09375 -0.1875,-0.09375 -0.11719,0 -0.20312,0.046875 -0.26562,0.14062 -0.054688,0.09375 -0.078125,0.22656 -0.078125,0.39062 V 2.5e-5 H 0.28124 v -1.8125 h 0.57812 v 0.26562 c 0.070313,-0.10156 0.14844,-0.17969 0.23438,-0.23438 0.09375,-0.050781 0.19531,-0.078125 0.3125,-0.078125 0.125,0 0.23438,0.03125 0.32812,0.09375 0.09374,0.0625 0.16406,0.14844 0.21875,0.25 z"
         id="path44"
         inkscape:connector-curvature="0" />
    </symbol>
    <symbol
       id="p"
       overflow="visible"
       style="overflow:visible">
      <path
         d="M 2.0938,-1.1094 V 0 H 1.51568 v -0.84375 c 0,-0.15625 -0.00781,-0.25781 -0.015625,-0.3125 0,-0.0625 -0.011719,-0.10938 -0.03125,-0.14062 -0.023438,-0.039063 -0.054688,-0.070313 -0.09375,-0.09375 -0.042969,-0.019531 -0.085938,-0.03125 -0.125,-0.03125 -0.125,0 -0.22656,0.046875 -0.29688,0.14062 -0.0625,0.09375 -0.09375,0.22656 -0.09375,0.39062 V -1e-5 h -0.57812 v -2.5156 h 0.57812 v 0.96875 c 0.082031,-0.10156 0.17188,-0.17969 0.26562,-0.23438 0.10156,-0.050781 0.21094,-0.078125 0.32812,-0.078125 0.21875,0 0.37891,0.070313 0.48438,0.20312 0.10156,0.125 0.15625,0.30859 0.15625,0.54688 z"
         id="path47"
         inkscape:connector-curvature="0" />
    </symbol>
    <symbol
       id="o"
       overflow="visible"
       style="overflow:visible">
      <path
         d="M 0.29688,-2.4219 H 1 l 0.875,1.6562 V -2.4219 H 2.46875 V 0 H 1.76563 l -0.875,-1.6562 V 0 H 0.29688 Z"
         id="path50"
         inkscape:connector-curvature="0" />
    </symbol>
    <symbol
       id="n"
       overflow="visible"
       style="overflow:visible">
      <path
         d="M 2.0938,-1.1094 V 0 H 1.51568 v -0.84375 c 0,-0.15625 -0.00781,-0.25781 -0.015625,-0.3125 0,-0.0625 -0.011719,-0.10938 -0.03125,-0.14062 -0.023438,-0.039063 -0.054688,-0.070313 -0.09375,-0.09375 -0.042969,-0.019531 -0.085938,-0.03125 -0.125,-0.03125 -0.125,0 -0.22656,0.046875 -0.29688,0.14062 -0.0625,0.09375 -0.09375,0.22656 -0.09375,0.39062 V -1e-5 h -0.57812 v -1.8125 h 0.57812 v 0.26562 c 0.082031,-0.10156 0.17188,-0.17969 0.26562,-0.23438 0.10156,-0.050781 0.21094,-0.078125 0.32812,-0.078125 0.21875,0 0.37891,0.070313 0.48438,0.20312 0.10156,0.125 0.15625,0.30859 0.15625,0.54688 z"
         id="path53"
         inkscape:connector-curvature="0" />
    </symbol>
    <symbol
       id="m"
       overflow="visible"
       style="overflow:visible">
      <path
         d="m 0.29688,-2.4219 h 1.0469 c 0.30078,0 0.53516,0.074219 0.70312,0.21875 0.16406,0.13672 0.25,0.32812 0.25,0.57812 0,0.25 -0.085937,0.44531 -0.25,0.57812 -0.16797,0.13672 -0.40234,0.20312 -0.70312,0.20312 H 0.9219 V -4e-5 h -0.625 z m 0.625,0.45312 v 0.67188 h 0.34375 c 0.125,0 0.21875,-0.023437 0.28125,-0.078125 0.070313,-0.0625 0.10938,-0.14453 0.10938,-0.25 0,-0.10156 -0.039062,-0.1875 -0.10938,-0.25 -0.0625,-0.0625 -0.15625,-0.09375 -0.28125,-0.09375 z"
         id="path56"
         inkscape:connector-curvature="0" />
    </symbol>
    <symbol
       id="l"
       overflow="visible"
       style="overflow:visible">
      <path
         d="m 0.28125,-1.8125 h 0.57812 v 1.7812 c 0,0.23828 -0.058594,0.42188 -0.17188,0.54688 C 0.5703,0.64839 0.39843,0.7187 0.17187,0.7187 H -0.10938 V 0.32808 h 0.09375 c 0.11328,0 0.19141,-0.027344 0.23438,-0.078125 0.039062,-0.042969 0.0625,-0.13672 0.0625,-0.28125 z m 0,-0.70312 h 0.57812 v 0.46875 H 0.28125 Z"
         id="path59"
         inkscape:connector-curvature="0" />
    </symbol>
    <symbol
       id="k"
       overflow="visible"
       style="overflow:visible">
      <path
         d="m 1.7344,-1.75 v 0.46875 C 1.660181,-1.332031 1.58206,-1.367188 1.50002,-1.39063 1.425801,-1.42188 1.34768,-1.437505 1.26564,-1.437505 c -0.16797,0 -0.29688,0.046875 -0.39062,0.14062 -0.085938,0.09375 -0.125,0.22656 -0.125,0.39062 0,0.16797 0.039062,0.30469 0.125,0.40625 0.09375,0.09375 0.22266,0.14062 0.39062,0.14062 0.082031,0 0.16406,-0.015625 0.25,-0.046875 0.082031,-0.03125 0.15625,-0.070312 0.21875,-0.125 v 0.48438 C 1.648453,-0.01564 1.56251,0.003891 1.46877,0.01561 1.37502,0.035141 1.28127,0.04686 1.18752,0.04686 0.8633,0.04686 0.6094,-0.035171 0.4219,-0.20314 0.2344,-0.3672 0.14065,-0.60158 0.14065,-0.90626 c 0,-0.30078 0.09375,-0.53516 0.28125,-0.70312 0.1875,-0.16406 0.44141,-0.25 0.76562,-0.25 0.09375,0 0.1875,0.011719 0.28125,0.03125 0.09375,0.011719 0.17969,0.039063 0.26562,0.078125 z"
         id="path62"
         inkscape:connector-curvature="0" />
    </symbol>
  </defs>
  <path
     id="path73"
     style="fill:#525252;fill-opacity:1;fill-rule:evenodd;stroke:#040000;stroke-width:0.37446252;stroke-miterlimit:4;stroke-dasharray:none;stroke-opacity:0"
     d="m 47.860352,133.4561 c 0.258766,0.0826 0.429614,0.26971 0.512231,0.56155 0.04413,0.19274 0.09631,0.30553 0.156917,0.33859 0.115446,0.0606 0.305535,0.12939 0.5696,0.20647 0.330306,0.13215 0.495535,0.30553 0.495535,0.52031 0,0.62767 -0.261417,1.0323 -0.784611,1.21399 -0.54506,0.19275 -0.930347,0.44309 -1.156156,0.75152 0.07708,0.55612 0.189987,0.99381 0.338716,1.3131 0.253236,0.534 0.379859,0.93323 0.379859,1.19753 0,0.44047 -0.115674,0.83127 -0.347033,1.17276 l -0.685274,0.86708 c -0.644162,0.80385 -0.966417,1.92142 -0.966417,3.35294 0,0.34137 0.02213,0.69645 0.06602,1.06537 0.03306,0.30841 0.05784,0.72134 0.07431,1.23877 0,0.0495 -0.01671,0.0854 -0.04955,0.10737 -0.03306,0.0331 -0.07166,0.0495 -0.115674,0.0495 h -0.710167 c -0.10473,0 -0.156919,-0.0522 -0.156919,-0.15691 v -0.10739 c 0,-0.40728 -0.0689,-0.74612 -0.206462,-1.01581 -0.12109,-0.23124 -0.256006,-0.34692 -0.404635,-0.34692 -0.148627,0 -0.286189,0.11567 -0.412924,0.34692 -0.132151,0.28618 -0.198167,0.6248 -0.198167,1.01581 v 0.10739 c 0,0.10449 -0.05496,0.15691 -0.165217,0.15691 h -2.57661 c -0.07167,0 -0.123854,-0.0301 -0.156921,-0.0908 -0.08802,-0.1871 -0.198167,-0.44046 -0.330308,-0.75984 -1.040595,-0.58354 -1.712302,-1.12863 -2.015066,-1.6352 -0.357973,-0.62767 -0.536769,-1.36815 -0.536769,-2.22152 0,-0.96341 0.443333,-2.06462 1.329551,-3.30338 0.84785,-1.20571 1.271835,-2.10311 1.271835,-2.69229 0,-0.46787 -0.14298,-0.84519 -0.429411,-1.13138 -0.313851,-0.33031 -0.776296,-0.49554 -1.387392,-0.49554 -0.5286,0 -0.946921,0.13756 -1.255257,0.41293 -0.319483,0.26429 -0.47893,0.60003 -0.47893,1.00752 0,0.17605 0.08537,0.38252 0.256001,0.61939 0.203697,0.28078 0.443098,0.42122 0.718458,0.42122 0.03848,0 0.09079,-0.0137 0.156919,-0.0412 0.0606,-0.0276 0.123854,-0.0495 0.189987,-0.066 0.04413,-0.005 0.08537,0.003 0.123851,0.0248 0.03849,0.022 0.0606,0.0549 0.06602,0.0991 0.01094,0.0441 0.0028,0.0854 -0.02477,0.12385 -0.02753,0.0384 -0.06048,0.0606 -0.09909,0.066 l -0.132151,0.0578 c -0.09909,0.0441 -0.192749,0.066 -0.280772,0.066 -0.385376,0 -0.713058,-0.18712 -0.982756,-0.56155 -0.214756,-0.30279 -0.32214,-0.57261 -0.32214,-0.80936 0,-0.50093 0.195518,-0.92217 0.586321,-1.26354 0.385377,-0.32492 0.878052,-0.48725 1.478294,-0.48725 0.704772,0 1.247058,0.19816 1.626918,0.5946 0.346915,0.34692 0.520313,0.80107 0.520313,1.36263 0,0.65522 -0.445987,1.61585 -1.337842,2.88217 -0.84785,1.18381 -1.271832,2.22151 -1.271832,3.11343 0,0.79829 0.165215,1.48106 0.495537,2.04812 0.24229,0.41293 0.759839,0.85626 1.552621,1.32956 -1.194646,-3.26504 -0.963408,-5.55499 0.69371,-6.87104 0.09367,-0.0937 0.206462,-0.18168 0.338717,-0.2643 0.253236,-0.1871 0.801069,-0.44308 1.643283,-0.76799 0.401983,-0.23665 0.652448,-0.5671 0.751641,-0.99108 0.03283,-0.16522 0.04413,-0.52571 0.03283,-1.08186 -0.0054,-0.31949 0.189987,-0.68265 0.586558,-1.09014 0.330308,-0.33032 0.495538,-0.56156 0.495538,-0.69372 -0.0606,-0.30842 -0.09102,-0.51199 -0.09102,-0.61109 0,-0.25877 0.05519,-0.51743 0.165218,-0.7763 0.07708,-0.17627 0.162334,-0.32214 0.256235,-0.4377 0.04413,-0.0549 0.101732,-0.0743 0.173394,-0.0578 0.06591,0.022 0.104498,0.066 0.115674,0.13215 0.03848,0.2477 0.261419,0.44599 0.668936,0.5946 0.269713,0.0937 0.65522,0.18711 1.156155,0.28078 z m -2.95372,-86.174392 h 27.121951 v -3.348284 h -0.669629 c -0.502479,0 -0.836799,-0.335308 -0.836799,-0.836788 v -1.674607 c 0,-0.335309 0.335309,-0.836809 0.836799,-0.836809 h 6.529168 c 0.502489,0 0.836809,0.502489 0.836809,0.836809 v 1.674607 c 0,0.502468 -0.335309,0.836788 -0.836809,0.836788 h -0.836809 v 3.348284 H 104.34038 L 124.9329,84.615844 H 113.21384 V 147.56277 H 35.869065 V 84.615844 H 24.317096 L 44.909618,47.281708 Z M 72.529963,29.53584 c -0.836809,0.669629 -0.836809,2.344205 0.335309,3.013764 -1.506438,1.004958 -1.339298,3.013774 0.16716,4.017773 -2.176087,4.520402 4.854651,5.357031 3.850643,0.502489 2.511395,0.669629 4.353031,-1.841746 3.348274,-4.017773 3.348264,0.335309 5.0228,-3.683543 3.348264,-5.357051 1.674606,-0.669628 1.841746,-3.515394 0.836809,-4.687521 2.845645,-1.339278 2.511395,-6.362048 -0.836809,-6.529169 -0.669629,-5.18992 -8.705295,-5.18992 -8.705295,1.506418 -2.678515,-0.335289 -4.353032,3.515414 -1.674586,5.189921 -3.013785,0.502489 -3.515415,5.02279 -0.669649,6.362048 z m 7.198917,96.5993 c 0.502489,0 1.004957,0.50247 1.004957,1.00496 0,0.50247 -0.502468,1.00496 -1.004957,1.00496 -0.502489,0 -1.004958,-0.50249 -1.004958,-1.00496 0,-0.50249 0.502469,-1.00496 1.004958,-1.00496 z m -9.877452,-9.87744 h 9.374823 v 6.02678 h -9.374823 z m -3.013775,-3.01379 h 15.402612 v 26.28381 H 66.837653 Z M 48.422027,71.893778 47.249909,70.219176 c 3.013794,-3.850648 7.366067,-9.374799 10.212711,-13.058342 3.180894,4.184911 6.864437,8.873446 10.212701,13.058342 L 66.336033,71.893778 57.4626,60.341818 Z m 4.520421,-1.339293 h 4.017773 v 6.193909 h -4.017773 z m 4.854652,0 h 4.017773 v 6.193909 H 57.7971 Z m 4.017773,7.198936 V 83.94733 H 57.7971 v -6.193909 z m -4.854652,6.193909 h -4.017773 v -6.193909 h 4.017773 z M 82.742644,71.893742 81.570546,70.219158 c 3.013775,-3.850648 7.366047,-9.374817 10.212681,-13.058342 3.180895,4.184893 6.864438,8.873446 10.212713,13.058342 l -1.33928,1.674584 -8.873443,-11.55196 z m 4.520422,-1.339275 h 4.017773 v 6.193909 h -4.017773 z m 4.854651,0 h 4.017773 v 6.193909 h -4.017773 z m 4.017773,7.198919 v 6.193908 h -4.017773 v -6.193908 z m -4.854651,6.193908 h -4.017773 v -6.193908 h 4.017773 z M 66.168903,112.74301 h 16.74189 v 27.28907 h -16.74189 z m 26.116943,-2.17634 h 5.69228 v 6.69629 h -5.69228 z m 6.864437,0 h 5.692277 v 6.69629 h -5.692277 z m 5.692277,7.86843 v 6.6963 h -5.692277 v -6.6963 z m -6.864434,6.6963 h -5.69228 v -6.6963 h 5.69228 z"
     inkscape:connector-curvature="0"
     sodipodi:nodetypes="ccccscccsccscccsssscscsssscccscscscscscccccccscscscscscccccccccsccccccccccsssssssscccccccccccccccccccccccsssssccccccccccccccccccccccccccccccccccccccccccccccccccccccccccccccccccccccccccccccccccccccccc" />
  <path
     id="path73-3"
     style="fill:#525252;fill-opacity:1;fill-rule:evenodd;stroke:#000000;stroke-width:0.37446252;stroke-miterlimit:4;stroke-dasharray:none;stroke-opacity:0"
     d="m 197.86033,133.4561 c 0.25877,0.0826 0.42961,0.26971 0.51224,0.56155 0.0441,0.19274 0.0964,0.30553 0.15691,0.3386 0.11545,0.0606 0.30553,0.12938 0.5696,0.20646 0.33031,0.13215 0.49554,0.30553 0.49554,0.52031 0,0.62767 -0.26142,1.0323 -0.78461,1.21399 -0.54507,0.19275 -0.93035,0.44309 -1.15616,0.75152 0.0771,0.55612 0.18999,0.99381 0.33871,1.3131 0.25324,0.534 0.37987,0.93323 0.37987,1.19753 0,0.44047 -0.11568,0.83127 -0.34704,1.17275 l -0.68527,0.86708 c -0.64417,0.80386 -0.96641,1.92143 -0.96641,3.35295 0,0.34136 0.0222,0.69644 0.066,1.06537 0.0331,0.30841 0.0578,0.72134 0.0743,1.23877 0,0.0495 -0.0167,0.0854 -0.0495,0.10737 -0.0331,0.0331 -0.0717,0.0495 -0.11568,0.0495 h -0.71017 c -0.10473,0 -0.15691,-0.0522 -0.15691,-0.15691 v -0.10739 c 0,-0.40728 -0.0689,-0.74612 -0.20647,-1.01581 -0.12108,-0.23124 -0.256,-0.34692 -0.40464,-0.34692 -0.14861,0 -0.28618,0.11567 -0.41291,0.34692 -0.13215,0.28618 -0.19817,0.6248 -0.19817,1.01581 v 0.10739 c 0,0.10449 -0.0549,0.15691 -0.16522,0.15691 h -2.57661 c -0.0717,0 -0.12386,-0.0301 -0.15693,-0.0908 -0.088,-0.1871 -0.19816,-0.44046 -0.33031,-0.75984 -1.04059,-0.58354 -1.7123,-1.12863 -2.01506,-1.6352 -0.35797,-0.62767 -0.53677,-1.36815 -0.53677,-2.22152 0,-0.96341 0.44333,-2.06462 1.32955,-3.30338 0.84785,-1.20571 1.27183,-2.10311 1.27183,-2.69229 0,-0.46787 -0.14297,-0.84519 -0.4294,-1.13138 -0.31386,-0.33031 -0.7763,-0.49554 -1.3874,-0.49554 -0.5286,0 -0.94692,0.13756 -1.25526,0.41293 -0.31948,0.26429 -0.47892,0.60003 -0.47892,1.00752 0,0.17605 0.0854,0.38252 0.256,0.61939 0.20369,0.28078 0.4431,0.42122 0.71845,0.42122 0.0385,0 0.0908,-0.0137 0.15693,-0.0412 0.0606,-0.0276 0.12385,-0.0495 0.18998,-0.066 0.0441,-0.005 0.0854,0.003 0.12386,0.0248 0.0384,0.022 0.0606,0.0549 0.066,0.0991 0.011,0.0441 0.003,0.0854 -0.0248,0.12385 -0.0276,0.0384 -0.0605,0.0606 -0.0991,0.066 l -0.13215,0.0578 c -0.0991,0.0441 -0.19275,0.066 -0.28078,0.066 -0.38537,0 -0.71305,-0.18712 -0.98275,-0.56155 -0.21476,-0.30279 -0.32214,-0.57261 -0.32214,-0.80936 0,-0.50093 0.19551,-0.92217 0.58632,-1.26354 0.38538,-0.32492 0.87805,-0.48725 1.47829,-0.48725 0.70478,0 1.24706,0.19816 1.62692,0.5946 0.34692,0.34692 0.52031,0.80107 0.52031,1.36263 0,0.65522 -0.44598,1.61585 -1.33784,2.88217 -0.84784,1.18381 -1.27183,2.2215 -1.27183,3.11343 0,0.79829 0.16522,1.48105 0.49553,2.04812 0.2423,0.41293 0.75984,0.85626 1.55263,1.32956 -1.19465,-3.26504 -0.96341,-5.55499 0.69371,-6.87104 0.0937,-0.0937 0.20646,-0.18168 0.33871,-0.2643 0.25324,-0.1871 0.80107,-0.44308 1.64328,-0.76799 0.40199,-0.23665 0.65246,-0.5671 0.75165,-0.99108 0.0329,-0.16522 0.0441,-0.52571 0.0329,-1.08186 -0.005,-0.31949 0.18999,-0.68265 0.58656,-1.09014 0.33031,-0.33032 0.49554,-0.56156 0.49554,-0.69372 -0.0606,-0.30842 -0.091,-0.51199 -0.091,-0.61109 0,-0.25877 0.0552,-0.51743 0.16522,-0.7763 0.0771,-0.17627 0.16233,-0.32214 0.25623,-0.4377 0.0441,-0.0549 0.10174,-0.0743 0.17339,-0.0578 0.0659,0.022 0.1045,0.066 0.11568,0.13215 0.0384,0.2477 0.26142,0.44599 0.66894,0.5946 0.26971,0.0937 0.65522,0.18711 1.15615,0.28078 z m -2.9537,-86.174381 h 27.12195 v -3.348282 h -0.66963 c -0.50248,0 -0.8368,-0.335309 -0.8368,-0.836789 v -1.674607 c 0,-0.335308 0.33531,-0.836809 0.8368,-0.836809 h 6.52917 c 0.50249,0 0.83681,0.502489 0.83681,0.836809 v 1.674607 c 0,0.502468 -0.33531,0.836789 -0.83681,0.836789 h -0.83681 v 3.348282 h 27.28906 L 274.9329,84.615855 H 263.21383 V 147.56277 H 185.86906 V 84.615855 h -11.55197 l 20.59253,-37.334136 z m 34.82225,78.853421 c 0.50249,0 1.00496,0.50247 1.00496,1.00496 0,0.50247 -0.50247,1.00496 -1.00496,1.00496 -0.50249,0 -1.00496,-0.50249 -1.00496,-1.00496 0,-0.50249 0.50247,-1.00496 1.00496,-1.00496 z m -9.87745,-9.87744 h 9.37482 v 6.02678 h -9.37482 z m -3.01378,-3.01379 h 15.40261 v 26.28382 h -15.40261 z m -18.41562,-41.350121 -1.17212,-1.674602 c 3.01379,-3.850648 7.36606,-9.374799 10.21271,-13.058342 3.18089,4.184911 6.86444,8.873446 10.2127,13.058342 l -1.33929,1.674602 -8.87343,-11.55196 z m 4.52042,-1.339294 h 4.01777 v 6.19391 h -4.01777 z m 4.85465,0 h 4.01777 v 6.19391 h -4.01777 z m 4.01777,7.198936 v 6.19391 h -4.01777 v -6.19391 z m -4.85465,6.19391 h -4.01777 v -6.19391 h 4.01777 z m 25.78242,-12.053588 -1.1721,-1.674584 c 3.01378,-3.850648 7.36605,-9.374816 10.21269,-13.058341 3.18089,4.184892 6.86443,8.873445 10.2127,13.058341 l -1.33928,1.674584 -8.87343,-11.551959 z M 216.1689,112.74302 h 16.74189 v 27.28907 H 216.1689 Z m -21.76364,-2.1761 h 5.6923 v 6.69629 h -5.6923 z m 6.86444,0 h 5.69228 v 6.69629 h -5.69228 z m 5.69228,7.86844 v 6.6963 h -5.69228 v -6.6963 z m -6.86442,6.6963 h -5.6923 v -6.6963 h 5.6923 z m 42.18828,-14.56498 h 5.69228 v 6.69629 h -5.69228 z m 6.86444,0 h 5.69228 v 6.69629 h -5.69228 z m 5.69228,7.86842 v 6.6963 h -5.69228 v -6.6963 z m -6.86444,6.6963 h -5.69228 v -6.6963 h 5.69228 z"
     inkscape:connector-curvature="0"
     sodipodi:nodetypes="ccccscccsccscccsssscscsssscccscscscscscccccccscscscscscccccccccsccccccccccsssssssscccccccccccsssssccccccccccccccccccccccccccccccccccccccccccccccccccccccccccccccccccccccccccccccccccccccccc" />
</svg>
