<?xml version="1.0" encoding="UTF-8" standalone="no"?>
<svg
   xmlns:dc="http://purl.org/dc/elements/1.1/"
   xmlns:cc="http://creativecommons.org/ns#"
   xmlns:rdf="http://www.w3.org/1999/02/22-rdf-syntax-ns#"
   xmlns:svg="http://www.w3.org/2000/svg"
   xmlns="http://www.w3.org/2000/svg"
   xmlns:sodipodi="http://sodipodi.sourceforge.net/DTD/sodipodi-0.dtd"
   xmlns:inkscape="http://www.inkscape.org/namespaces/inkscape"
   width="200"
   height="100"
   version="1.1"
   viewBox="0 0 150 75.000002"
   id="svg4"
   sodipodi:docname="logout.svg"
   inkscape:version="0.92.4 (5da689c313, 2019-01-14)">
  <metadata
     id="metadata10">
    <rdf:RDF>
      <cc:Work
         rdf:about="">
        <dc:format>image/svg+xml</dc:format>
        <dc:type
           rdf:resource="http://purl.org/dc/dcmitype/StillImage" />
        <dc:title />
      </cc:Work>
    </rdf:RDF>
  </metadata>
  <defs
     id="defs8" />
  <sodipodi:namedview
     pagecolor="#ffffff"
     bordercolor="#666666"
     borderopacity="1"
     objecttolerance="10"
     gridtolerance="10"
     guidetolerance="10"
     inkscape:pageopacity="0"
     inkscape:pageshadow="2"
     inkscape:window-width="1366"
     inkscape:window-height="703"
     id="namedview6"
     showgrid="false"
     units="px"
     inkscape:zoom="2.8607519"
     inkscape:cx="45.582048"
     inkscape:cy="71.96189"
     inkscape:window-x="0"
     inkscape:window-y="0"
     inkscape:window-maximized="1"
     inkscape:current-layer="svg4" />
  <path
     style="fill:#525252;fill-opacity:1;fill-rule:evenodd;stroke-width:0.11558716"
     inkscape:connector-curvature="0"
     id="path2-3"
     d="M 147.75,56.70704 V 10.130044 c 0,-0.7607993 -0.5978,-1.3586153 -1.35861,-1.3586153 H 77.858611 c -0.76079,0 -1.35861,0.597807 -1.35861,1.3586153 v 62.011343 c 0,0.760798 0.59781,1.358614 1.35861,1.358614 0.76081,0 1.35861,-0.597807 1.35861,-1.358614 V 58.065189 h 2.17408 v 14.076198 c 0,0.760798 0.59781,1.358614 1.35861,1.358614 H 110.73934 V 13.662844 H 82.749911 c -0.76079,0 -1.35861,0.597806 -1.35861,1.358614 v 4.29348 h -2.17408 v -7.826053 h 65.815329 v 7.826053 h -2.17408 v -4.29348 c 0,-0.760798 -0.5978,-1.358614 -1.35861,-1.358614 H 113.4561 v 59.837157 h 28.04376 c 0.7608,0 1.35861,-0.597807 1.35861,-1.358614 V 58.065189 h 2.17408 v 14.076198 c 0,0.760798 0.5978,1.358614 1.35861,1.358614 0.76081,0 1.35862,-0.597807 1.35862,-1.358614 V 56.705881 Z m -4.89119,-34.673839 h 2.17409 v 33.315691 h -2.17409 z m -61.468089,0 v 33.315691 h -2.17407 V 22.033201 Z m 36.141799,19.076501 c 0,-0.706619 0.5978,-1.358601 1.35861,-1.358601 0.76079,0 1.35861,0.651972 1.35861,1.358601 v 4.89119 c 0,0.760798 -0.59781,1.358614 -1.35861,1.358614 -0.7608,0 -1.35861,-0.597807 -1.35861,-1.358614 z m -12.17364,-1.358601 c 0.76079,0 1.35861,0.651972 1.35861,1.358601 v 4.89119 c 0,0.760798 -0.59781,1.358614 -1.35861,1.358614 -0.7608,0 -1.35861,-0.597807 -1.35861,-1.358614 v -4.89119 c 0,-0.706619 0.5978,-1.358601 1.35861,-1.358601 z" />
  <path
     inkscape:connector-curvature="0"
     style="fill:#525252;fill-opacity:1;fill-rule:evenodd;stroke-width:0.11558902"
     d="m 35.775271,16.361341 v 55.74165 c 0,0.79152 0.60549,1.39701 1.35054,1.39701 h 29.33765 c 0.79152,0 1.39701,-0.60549 1.39701,-1.39701 v -14.06371 h 2.14198 v 14.06371 c 0,0.79152 0.60549,1.39701 1.39701,1.39701 0.745,0 1.35054,-0.60549 1.35054,-1.39701 V 10.12069 c 0,-0.7450096 -0.60549,-1.3505496 -1.35054,-1.3505496 H 2.85054 c -0.745,0 -1.35054,0.6055 -1.35054,1.3505496 v 61.982301 c 0,0.79152 0.60549,1.39701 1.35054,1.39701 0.74501,0 1.35054,-0.60549 1.35054,-1.39701 v -14.06371 h 2.18857 v 14.06371 c 0,0.13952 0.0465,0.23298 0.0465,0.37251 0.18648,0.6985 0.93149,1.16398 1.67651,0.97799 l 21.514581,-5.63497 c 0.65199,-0.093 1.16398,-0.65199 1.16398,-1.35054 l -0.0465,-45.82296 c 0,-0.60549 -0.37251,-1.16398 -0.97799,-1.30396 l -11.40898,-2.98046 h 17.41695 z m 6.75248,24.7742 c 0,-0.74501 0.60549,-1.35055 1.35054,-1.35055 0.745,0 1.35054,0.60549 1.35054,1.35055 v 4.88953 c 0,0.745 -0.60549,1.35054 -1.35054,1.35054 -0.74501,0 -1.35054,-0.60549 -1.35054,-1.35054 z m -18.7208,-2.98047 c 0.79152,0 1.39701,0.60549 1.39701,1.35054 v 3.25996 c 0,0.74501 -0.60549,1.35054 -1.39701,1.35054 -0.74501,0 -1.35054,-0.60549 -1.35054,-1.35054 v -3.25996 c 0,-0.745 0.60549,-1.35054 1.35054,-1.35054 z M 6.38999,21.995731 v 33.34281 H 4.20143 v -33.34281 z m 61.470251,-2.70097 V 15.01033 c 0,-0.745 -0.60549,-1.35054 -1.39701,-1.35054 H 7.74054 c -0.74501,0 -1.35055,0.60549 -1.35055,1.35054 v 4.284431 H 4.20143 V 11.47123 h 65.801371 v 7.823531 z m 0,36.04412 v -33.34281 h 2.14198 v 33.34281 z"
     id="path2-36" />
</svg>
