<?xml version="1.0" encoding="UTF-8" standalone="no"?>
<svg
   xmlns:dc="http://purl.org/dc/elements/1.1/"
   xmlns:cc="http://creativecommons.org/ns#"
   xmlns:rdf="http://www.w3.org/1999/02/22-rdf-syntax-ns#"
   xmlns:svg="http://www.w3.org/2000/svg"
   xmlns="http://www.w3.org/2000/svg"
   xmlns:sodipodi="http://sodipodi.sourceforge.net/DTD/sodipodi-0.dtd"
   xmlns:inkscape="http://www.inkscape.org/namespaces/inkscape"
   width="200"
   height="100"
   version="1.1"
   viewBox="0 0 150 75.000002"
   id="svg136"
   sodipodi:docname="ok.svg"
   inkscape:version="0.92.4 (5da689c313, 2019-01-14)">
  <metadata
     id="metadata140">
    <rdf:RDF>
      <cc:Work
         rdf:about="">
        <dc:format>image/svg+xml</dc:format>
        <dc:type
           rdf:resource="http://purl.org/dc/dcmitype/StillImage" />
        <dc:title />
      </cc:Work>
    </rdf:RDF>
  </metadata>
  <sodipodi:namedview
     pagecolor="#ffffff"
     bordercolor="#666666"
     borderopacity="1"
     objecttolerance="10"
     gridtolerance="10"
     guidetolerance="10"
     inkscape:pageopacity="0"
     inkscape:pageshadow="2"
     inkscape:window-width="1366"
     inkscape:window-height="703"
     id="namedview138"
     showgrid="false"
     units="px"
     inkscape:zoom="2.0228572"
     inkscape:cx="129.32947"
     inkscape:cy="20.693646"
     inkscape:window-x="0"
     inkscape:window-y="0"
     inkscape:window-maximized="1"
     inkscape:current-layer="g866" />
  <defs
     id="defs62">
    <symbol
       id="t"
       overflow="visible"
       style="overflow:visible">
      <path
         d="M 19.547,-1.1719 C 18.5353,-0.64846 17.4845,-0.25784 16.3908,0 15.297,0.26953 14.1564,0.40625 12.9689,0.40625 c -3.543,0 -6.3516,-0.98828 -8.4219,-2.9688 -2.0625,-1.9766 -3.0938,-4.6602 -3.0938,-8.0469 0,-3.4062 1.0312,-6.0977 3.0938,-8.0781 2.0703,-1.9766 4.8789,-2.9688 8.4219,-2.9688 1.1875,0 2.3281,0.13672 3.4219,0.40625 1.0938,0.26172 2.1445,0.65625 3.1562,1.1875 v 4.3906 c -1.0234,-0.6875 -2.0273,-1.1914 -3.0156,-1.5156 -0.98047,-0.32031 -2.0156,-0.48438 -3.1094,-0.48438 -1.9609,0 -3.5,0.625 -4.625,1.875 -1.1172,1.25 -1.6719,2.9805 -1.6719,5.1875 0,2.1875 0.55469,3.9141 1.6719,5.1719 1.125,1.25 2.6641,1.875 4.625,1.875 1.0938,0 2.1289,-0.16016 3.1094,-0.48438 0.98828,-0.32031 1.9922,-0.82812 3.0156,-1.5156 z"
         id="path2"
         inkscape:connector-curvature="0" />
    </symbol>
    <symbol
       id="b"
       overflow="visible"
       style="overflow:visible">
      <path
         d="m 14.297,-11.609 c -0.44922,-0.20703 -0.89062,-0.35938 -1.3281,-0.45312 -0.4375,-0.10156 -0.88281,-0.15625 -1.3281,-0.15625 -1.3125,0 -2.3242,0.42188 -3.0312,1.2656 -0.71094,0.83594 -1.0625,2.0391 -1.0625,3.6094 V 4.3e-4 H 2.4533 v -15.953 h 5.0938 v 2.625 c 0.65625,-1.0508 1.4062,-1.8164 2.25,-2.2969 0.85156,-0.47656 1.875,-0.71875 3.0625,-0.71875 0.17578,0 0.36328,0.01172 0.5625,0.03125 0.19531,0.01172 0.48438,0.04297 0.85938,0.09375 z"
         id="path5"
         inkscape:connector-curvature="0" />
    </symbol>
    <symbol
       id="a"
       overflow="visible"
       style="overflow:visible">
      <path
         d="m 18.375,-8.0156 v 1.4531 H 6.453 c 0.125,1.1992 0.55469,2.0938 1.2969,2.6875 0.73828,0.59375 1.7734,0.89062 3.1094,0.89062 1.0703,0 2.1719,-0.15625 3.2969,-0.46875 1.125,-0.32031 2.2812,-0.80469 3.4688,-1.4531 v 3.9375 c -1.2109,0.46094 -2.418,0.80469 -3.625,1.0312 -1.2109,0.22656 -2.4141,0.34375 -3.6094,0.34375 -2.8984,0 -5.1484,-0.72656 -6.75,-2.1875 -1.5938,-1.4688 -2.3906,-3.5312 -2.3906,-6.1875 0,-2.5938 0.78516,-4.6328 2.3594,-6.125 1.5703,-1.5 3.7344,-2.25 6.4844,-2.25 2.5078,0 4.5156,0.75781 6.0156,2.2656 1.5078,1.5117 2.2656,3.5312 2.2656,6.0625 z m -5.2344,-1.7031 c 0,-0.96875 -0.28906,-1.75 -0.85938,-2.3438 -0.5625,-0.59375 -1.2969,-0.89062 -2.2031,-0.89062 -0.99219,0 -1.7969,0.28125 -2.4219,0.84375 -0.61719,0.55469 -0.99609,1.3516 -1.1406,2.3906 z"
         id="path8"
         inkscape:connector-curvature="0" />
    </symbol>
    <symbol
       id="i"
       overflow="visible"
       style="overflow:visible">
      <path
         d="m 9.5938,-7.1719 c -1.0625,0 -1.8672,0.18359 -2.4062,0.54688 -0.53125,0.35547 -0.79688,0.88281 -0.79688,1.5781 0,0.64844 0.21094,1.1523 0.64062,1.5156 0.4375,0.36719 1.0391,0.54688 1.8125,0.54688 0.95703,0 1.7656,-0.34375 2.4219,-1.0312 0.6563,-0.68745 0.98438,-1.5469 0.98438,-2.5781 v -0.57812 z m 7.7969,-1.9375 V 0 H 12.2501 V -2.3594 C 11.5626,-1.39065 10.7892,-0.6875 9.9376,-0.25 9.08213,0.1875 8.047,0.40625 6.8282,0.40625 c -1.6562,0 -3,-0.47656 -4.0312,-1.4375 C 1.7658,-2 1.2501,-3.25005 1.2501,-4.78125 c 0,-1.875 0.64062,-3.25 1.9219,-4.125 1.2891,-0.875 3.3164,-1.3125 6.0781,-1.3125 h 3 v -0.39062 c 0,-0.8125 -0.32031,-1.4062 -0.95312,-1.7812 -0.63672,-0.375 -1.6328,-0.5625 -2.9844,-0.5625 -1.0859,0 -2.1016,0.10938 -3.0469,0.32812 -0.9375,0.21875 -1.8086,0.54688 -2.6094,0.98438 v -3.8906 c 1.082,-0.25781 2.1758,-0.45703 3.2812,-0.59375 1.1016,-0.14453 2.207,-0.21875 3.3125,-0.21875 2.875,0 4.9453,0.57031 6.2188,1.7031 1.2812,1.1367 1.9219,2.9805 1.9219,5.5312 z"
         id="path11"
         inkscape:connector-curvature="0" />
    </symbol>
    <symbol
       id="d"
       overflow="visible"
       style="overflow:visible">
      <path
         d="m 8.0156,-20.484 v 4.5312 h 5.2656 v 3.6406 H 8.0156 v 6.7656 c 0,0.74219 0.14453,1.2461 0.4375,1.5156 0.30078,0.26172 0.89062,0.39062 1.7656,0.39062 h 2.6094 V 2.2e-4 H 8.4687 c -2.0234,0 -3.4531,-0.41406 -4.2969,-1.25 -0.83594,-0.84375 -1.25,-2.2734 -1.25,-4.2969 v -6.7656 H 0.3906 v -3.6406 h 2.5312 v -4.5312 z"
         id="path14"
         inkscape:connector-curvature="0" />
    </symbol>
    <symbol
       id="h"
       overflow="visible"
       style="overflow:visible">
      <path
         d="m 13.297,-13.625 v -8.5312 h 5.1406 V -2e-4 H 13.297 v -2.3125 c -0.69922,0.94922 -1.4688,1.6406 -2.3125,2.0781 -0.84375,0.42578 -1.8242,0.64062 -2.9375,0.64062 -1.9688,0 -3.5859,-0.77344 -4.8438,-2.3281 -1.2617,-1.5625 -1.8906,-3.5781 -1.8906,-6.0469 0,-2.457 0.62891,-4.4688 1.8906,-6.0312 1.2578,-1.5625 2.875,-2.3438 4.8438,-2.3438 1.1016,0 2.0781,0.22656 2.9219,0.67188 0.85156,0.4375 1.6289,1.1211 2.3281,2.0469 z M 9.9376,-3.297 c 1.0938,0 1.9258,-0.39453 2.5,-1.1875 0.57031,-0.80078 0.85938,-1.9609 0.85938,-3.4844 0,-1.5078 -0.28906,-2.6641 -0.85938,-3.4688 -0.57422,-0.80078 -1.4062,-1.2031 -2.5,-1.2031 -1.0859,0 -1.9141,0.40234 -2.4844,1.2031 -0.57422,0.80469 -0.85938,1.9609 -0.85938,3.4688 0,1.5234 0.28516,2.6836 0.85938,3.4844 0.57031,0.79297 1.3984,1.1875 2.4844,1.1875 z"
         id="path17"
         inkscape:connector-curvature="0" />
    </symbol>
    <symbol
       id="g"
       overflow="visible"
       style="overflow:visible">
      <path
         d="m 10.938,-3.2969 c 1.0938,0 1.9258,-0.39453 2.5,-1.1875 0.57031,-0.80078 0.85938,-1.9609 0.85938,-3.4844 0,-1.5078 -0.28906,-2.6641 -0.85938,-3.4688 -0.57422,-0.80078 -1.4062,-1.2031 -2.5,-1.2031 -1.0938,0 -1.9336,0.40234 -2.5156,1.2031 -0.58594,0.80469 -0.875,1.9609 -0.875,3.4688 0,1.5117 0.28906,2.668 0.875,3.4688 0.58203,0.80469 1.4219,1.2031 2.5156,1.2031 z m -3.3906,-10.328 c 0.70703,-0.92578 1.4883,-1.6094 2.3438,-2.0469 0.85156,-0.44531 1.832,-0.67188 2.9375,-0.67188 1.9688,0 3.582,0.78125 4.8438,2.3438 1.2695,1.5625 1.9062,3.5742 1.9062,6.0312 0,2.4688 -0.63672,4.4844 -1.9062,6.0469 -1.2617,1.5547 -2.875,2.3281 -4.8438,2.3281 -1.1055,0 -2.0859,-0.21875 -2.9375,-0.65625 -0.85547,-0.4375 -1.6367,-1.125 -2.3438,-2.0625 V 7e-5 H 2.4536 v -22.156 h 5.0938 z"
         id="path20"
         inkscape:connector-curvature="0" />
    </symbol>
    <symbol
       id="f"
       overflow="visible"
       style="overflow:visible">
      <path
         d="m 0.35938,-15.953 h 5.0938 l 4.2969,10.828 3.6406,-10.828 h 5.0938 L 11.78138,1.516 C 11.10169,3.2855 10.31658,4.5238 9.42198,5.2348 8.52354,5.94183 7.34388,6.2973 5.87508,6.2973 H 2.92198 V 2.9535 h 1.5938 c 0.86328,0 1.4922,-0.14062 1.8906,-0.42188 C 6.80091,2.25818 7.1095,1.766 7.32826,1.04722 l 0.14062,-0.4375 z"
         id="path23"
         inkscape:connector-curvature="0" />
    </symbol>
    <symbol
       id="e"
       overflow="visible"
       style="overflow:visible">
      <path
         d="m 1.0312,-15.953 h 4.9531 l 2.6719,11 2.7031,-11 h 4.25 l 2.6875,10.875 2.6875,-10.875 h 4.9531 L 21.7343,0 H 16.1718 L 13.4687,-10.969 10.7968,0 H 5.2343 Z"
         id="path26"
         inkscape:connector-curvature="0" />
    </symbol>
    <symbol
       id="c"
       overflow="visible"
       style="overflow:visible">
      <path
         d="m 10.047,-12.688 c -1.1367,0 -2,0.40625 -2.5938,1.2188 -0.5938,0.81255 -0.89062,1.9805 -0.89062,3.5 0,1.5312 0.29688,2.7031 0.89062,3.5156 0.59374,0.8125 1.457,1.2188 2.5938,1.2188 1.1016,0 1.9453,-0.40625 2.5312,-1.2188 0.59375,-0.8125 0.89062,-1.9844 0.89062,-3.5156 0,-1.5195 -0.29688,-2.6875 -0.89062,-3.5 -0.58594,-0.8125 -1.4297,-1.2188 -2.5312,-1.2188 z m 0,-3.6562 c 2.7383,0 4.8789,0.74609 6.4219,2.2344 1.5391,1.4805 2.3125,3.5273 2.3125,6.1406 0,2.625 -0.77344,4.6797 -2.3125,6.1562 -1.543,1.4805 -3.6836,2.2188 -6.4219,2.2188 -2.7617,0 -4.918,-0.73828 -6.4688,-2.2188 -1.5547,-1.4766 -2.3281,-3.5312 -2.3281,-6.1562 0,-2.6133 0.77344,-4.6602 2.3281,-6.1406 1.5508,-1.4883 3.707,-2.2344 6.4688,-2.2344 z"
         id="path29"
         inkscape:connector-curvature="0" />
    </symbol>
    <symbol
       id="s"
       overflow="visible"
       style="overflow:visible">
      <path
         d="m 2.4531,-22.156 h 5.0938 v 12.062 l 5.875,-5.8594 h 5.9219 l -7.7969,7.3281 8.4062,8.625 H 13.7812 L 7.5468,-6.6565 V -3e-4 H 2.453 Z"
         id="path32"
         inkscape:connector-curvature="0" />
    </symbol>
    <symbol
       id="r"
       overflow="visible"
       style="overflow:visible">
      <path
         d="m 12.953,-22.156 v 3.3438 h -2.8281 c -0.71875,0 -1.2266,0.13281 -1.5156,0.39062 -0.28125,0.26172 -0.42188,0.71484 -0.42188,1.3594 v 1.1094 h 4.3594 v 3.6406 h -4.3594 v 12.312 h -5.0938 v -12.312 h -2.5312 v -3.6406 h 2.5312 v -1.1094 c 0,-1.7383 0.48438,-3.0195 1.4531,-3.8438 0.96875,-0.83203 2.4688,-1.25 4.5,-1.25 z"
         id="path35"
         inkscape:connector-curvature="0" />
    </symbol>
    <symbol
       id="q"
       overflow="visible"
       style="overflow:visible">
      <path
         d="m 17.234,-13.297 c 0.64453,-0.98828 1.4102,-1.7422 2.2969,-2.2656 0.89453,-0.51953 1.875,-0.78125 2.9375,-0.78125 1.832,0 3.2266,0.57031 4.1875,1.7031 0.95703,1.125 1.4375,2.7656 1.4375,4.9219 V -5e-5 h -5.125 v -8.3125 -0.39062 c 0.0078,-0.13281 0.01563,-0.32031 0.01563,-0.5625 0,-1.1328 -0.16797,-1.9531 -0.5,-2.4531 -0.32422,-0.50781 -0.85938,-0.76562 -1.6094,-0.76562 -0.96875,0 -1.7188,0.40234 -2.25,1.2031 -0.52344,0.79297 -0.79297,1.9453 -0.8125,3.4531 V -9e-5 h -5.125 v -8.3125 c 0,-1.7695 -0.15234,-2.9062 -0.45312,-3.4062 -0.30469,-0.50781 -0.84375,-0.76562 -1.625,-0.76562 -0.98047,0 -1.7344,0.40234 -2.2656,1.2031 -0.53125,0.80469 -0.79688,1.9492 -0.79688,3.4375 V -1e-5 h -5.125 v -15.953 h 5.125 v 2.3281 c 0.625,-0.89453 1.3438,-1.5703 2.1562,-2.0312 0.8125,-0.45703 1.707,-0.6875 2.6875,-0.6875 1.1016,0 2.0781,0.26562 2.9219,0.79688 0.8438,0.53126 1.4844,1.2812 1.9219,2.25 z"
         id="path38"
         inkscape:connector-curvature="0" />
    </symbol>
    <symbol
       id="p"
       overflow="visible"
       style="overflow:visible">
      <path
         d="M 18.484,-9.7188 V 0 h -5.125 v -7.4062 c 0,-1.3945 -0.03125,-2.3516 -0.09375,-2.875 -0.0625,-0.51953 -0.16797,-0.90625 -0.3125,-1.1562 -0.19922,-0.33203 -0.46875,-0.58594 -0.8125,-0.76562 -0.34375,-0.1875 -0.73438,-0.28125 -1.1719,-0.28125 -1.0625,0 -1.9023,0.41406 -2.5156,1.2344 -0.60547,0.8125 -0.90625,1.9492 -0.90625,3.4062 V 1.3e-4 H 2.4527 v -22.156 h 5.0938 v 8.5312 c 0.76953,-0.92578 1.5859,-1.6094 2.4531,-2.0469 0.86328,-0.44531 1.8164,-0.67188 2.8594,-0.67188 1.8438,0 3.2383,0.57031 4.1875,1.7031 0.95703,1.125 1.4375,2.7656 1.4375,4.9219 z"
         id="path41"
         inkscape:connector-curvature="0" />
    </symbol>
    <symbol
       id="o"
       overflow="visible"
       style="overflow:visible">
      <path
         d="m 2.6719,-21.266 h 6.125 l 7.7344,14.578 v -14.578 h 5.2031 V 0 h -6.125 L 7.875,-14.594 V 0 H 2.6719 Z"
         id="path44"
         inkscape:connector-curvature="0" />
    </symbol>
    <symbol
       id="n"
       overflow="visible"
       style="overflow:visible">
      <path
         d="m 2.2812,-6.2031 v -9.75 h 5.125 v 1.5938 c 0,0.86719 -0.00781,1.9531 -0.015625,3.2656 -0.011719,1.3047 -0.015625,2.1719 -0.015625,2.6094 0,1.2812 0.03125,2.2031 0.09375,2.7656 0.070312,0.5625 0.1875,0.97656 0.34375,1.2344 0.21875,0.33594 0.49219,0.58984 0.82812,0.76562 0.33203,0.17969 0.71875,0.26562 1.1562,0.26562 1.0625,0 1.8945,-0.40625 2.5,-1.2188 0.61328,-0.8125 0.92188,-1.9453 0.92188,-3.4062 v -7.875 h 5.0938 V -6e-5 h -5.0938 v -2.3125 c -0.77344,0.9375 -1.5898,1.625 -2.4531,2.0625 -0.85547,0.4375 -1.7969,0.65625 -2.8281,0.65625 -1.8438,0 -3.25,-0.5625 -4.2188,-1.6875 -0.96094,-1.1328 -1.4375,-2.7734 -1.4375,-4.9219 z"
         id="path47"
         inkscape:connector-curvature="0" />
    </symbol>
    <symbol
       id="m"
       overflow="visible"
       style="overflow:visible">
      <path
         d="M 18.484,-9.7188 V 0 h -5.125 v -7.4375 c 0,-1.375 -0.03125,-2.3203 -0.09375,-2.8438 -0.0625,-0.51953 -0.16797,-0.90625 -0.3125,-1.1562 -0.19922,-0.33203 -0.46875,-0.58594 -0.8125,-0.76562 -0.34375,-0.1875 -0.73438,-0.28125 -1.1719,-0.28125 -1.0625,0 -1.9023,0.41406 -2.5156,1.2344 -0.60547,0.8125 -0.90625,1.9492 -0.90625,3.4062 V 3e-5 H 2.4527 v -15.953 h 5.0938 v 2.3281 c 0.76953,-0.92578 1.5859,-1.6094 2.4531,-2.0469 0.86328,-0.44531 1.8164,-0.67188 2.8594,-0.67188 1.8438,0 3.2383,0.57031 4.1875,1.7031 0.95703,1.125 1.4375,2.7656 1.4375,4.9219 z"
         id="path50"
         inkscape:connector-curvature="0" />
    </symbol>
    <symbol
       id="l"
       overflow="visible"
       style="overflow:visible">
      <path
         d="m 2.6719,-21.266 h 9.1094 c 2.707,0 4.7852,0.60547 6.2344,1.8125 1.4453,1.1992 2.1719,2.9062 2.1719,5.125 0,2.2305 -0.72656,3.9492 -2.1719,5.1562 -1.4492,1.1992 -3.5273,1.7969 -6.2344,1.7969 H 8.1563 V -4e-4 H 2.6719 Z m 5.4844,3.9688 v 5.9375 h 3.0469 c 1.0625,0 1.8789,-0.25391 2.4531,-0.76562 0.58203,-0.51953 0.875,-1.2539 0.875,-2.2031 0,-0.94531 -0.29297,-1.6758 -0.875,-2.1875 -0.57422,-0.51953 -1.3906,-0.78125 -2.4531,-0.78125 z"
         id="path53"
         inkscape:connector-curvature="0" />
    </symbol>
    <symbol
       id="k"
       overflow="visible"
       style="overflow:visible">
      <path
         d="M 2.4531,-15.953 H 7.5469 V -0.281 C 7.5469,1.8518 7.03128,3.4846 6,4.6096 4.9766,5.7346 3.4922,6.2971 1.5469,6.2971 H -0.9687 V 2.9533 h 0.89062 c 0.96875,0 1.6289,-0.21875 1.9844,-0.65625 0.36328,-0.4375 0.54688,-1.2969 0.54688,-2.5781 z m 0,-6.2031 h 5.0938 v 4.1562 H 2.4531 Z"
         id="path56"
         inkscape:connector-curvature="0" />
    </symbol>
    <symbol
       id="j"
       overflow="visible"
       style="overflow:visible">
      <path
         d="m 15.344,-15.453 v 4.1562 c -0.69922,-0.46875 -1.3984,-0.81641 -2.0938,-1.0469 -0.69922,-0.22656 -1.4219,-0.34375 -2.1719,-0.34375 -1.4297,0 -2.5391,0.41797 -3.3281,1.25 -0.79297,0.82422 -1.1875,1.9805 -1.1875,3.4688 0,1.5 0.39453,2.668 1.1875,3.5 0.78906,0.82422 1.8984,1.2344 3.3281,1.2344 0.80078,0 1.5547,-0.11719 2.2656,-0.35938 0.71875,-0.23828 1.3828,-0.58594 2,-1.0469 v 4.1719 c -0.80469,0.29297 -1.6172,0.50781 -2.4375,0.65625 -0.8125,0.14453 -1.6367,0.21875 -2.4688,0.21875 -2.875,0 -5.125,-0.73438 -6.75,-2.2031 -1.625,-1.4766 -2.4375,-3.5352 -2.4375,-6.1719 0,-2.625 0.8125,-4.6758 2.4375,-6.1562 1.625,-1.4766 3.875,-2.2188 6.75,-2.2188 0.83203,0 1.6562,0.07813 2.4688,0.23438 0.8125,0.14844 1.625,0.36719 2.4375,0.65625 z"
         id="path59"
         inkscape:connector-curvature="0" />
    </symbol>
    <symbol
       overflow="visible"
       id="o-3">
      <path
         id="path862"
         d="m29.312-1.75c-1.5117 0.78125-3.0898 1.3711-4.7344 1.7656-1.6367 0.40625-3.3398 0.60938-5.1094 0.60938-5.3125 0-9.5273-1.4844-12.641-4.4531-3.1055-2.9688-4.6562-7-4.6562-12.094s1.5508-9.125 4.6562-12.094c3.1133-2.9688 7.3281-4.4531 12.641-4.4531 1.7695 0 3.4727 0.19922 5.1094 0.59375 1.6445 0.39844 3.2227 0.99219 4.7344 1.7812v6.5938c-1.5312-1.0391-3.0391-1.8008-4.5156-2.2812-1.4805-0.48828-3.0391-0.73438-4.6719-0.73438-2.9375 0-5.2461 0.94531-6.9219 2.8281-1.6797 1.875-2.5156 4.4648-2.5156 7.7656 0 3.293 0.83594 5.8828 2.5156 7.7656 1.6758 1.875 3.9844 2.8125 6.9219 2.8125 1.6328 0 3.1914-0.23828 4.6719-0.71875 1.4766-0.48828 2.9844-1.2539 4.5156-2.2969z" />
    </symbol>
    <symbol
       overflow="visible"
       id="h-6">
      <path
         id="path865"
         d="m21.453-17.406c-0.67969-0.3125-1.3516-0.53906-2.0156-0.6875-0.65625-0.15625-1.3203-0.23438-1.9844-0.23438-1.9688 0-3.4844 0.63281-4.5469 1.8906-1.0547 1.2617-1.5781 3.0703-1.5781 5.4219v11.016h-7.6562v-23.922h7.6562v3.9219c0.97656-1.5625 2.1016-2.7031 3.375-3.4219 1.2812-0.71875 2.8125-1.0781 4.5938-1.0781 0.25 0 0.52344 0.011719 0.82812 0.03125 0.30078 0.023438 0.73438 0.070312 1.2969 0.14062z" />
    </symbol>
    <symbol
       overflow="visible"
       id="a-7">
      <path
         id="path868"
         d="m27.562-12.031v2.1875h-17.891c0.1875 1.793 0.83203 3.1367 1.9375 4.0312 1.1133 0.89844 2.6719 1.3438 4.6719 1.3438 1.6016 0 3.25-0.23438 4.9375-0.70312 1.6875-0.47656 3.4219-1.2031 5.2031-2.1719v5.8906c-1.8047 0.6875-3.6094 1.2031-5.4219 1.5469-1.8125 0.35156-3.6211 0.53125-5.4219 0.53125-4.3359 0-7.7031-1.0977-10.109-3.2969-2.3984-2.207-3.5938-5.2969-3.5938-9.2656 0-3.9062 1.1758-6.9727 3.5312-9.2031 2.3633-2.2383 5.6094-3.3594 9.7344-3.3594 3.7578 0 6.7695 1.1367 9.0312 3.4062 2.2578 2.2617 3.3906 5.2812 3.3906 9.0625zm-7.8594-2.5312c0-1.457-0.42969-2.6289-1.2812-3.5156-0.84375-0.89453-1.9492-1.3438-3.3125-1.3438-1.4922 0-2.6992 0.41797-3.625 1.25-0.91797 0.83594-1.4922 2.0391-1.7188 3.6094z" />
    </symbol>
    <symbol
       overflow="visible"
       id="g-5">
      <path
         id="path871"
         d="m14.391-10.766c-1.5938 0-2.793 0.27344-3.5938 0.8125-0.80469 0.54297-1.2031 1.3398-1.2031 2.3906 0 0.96875 0.32031 1.7305 0.96875 2.2812 0.64453 0.54297 1.5469 0.8125 2.7031 0.8125 1.4375 0 2.6445-0.51562 3.625-1.5469 0.98828-1.0312 1.4844-2.3203 1.4844-3.875v-0.875zm11.688-2.8906v13.656h-7.7031v-3.5469c-1.0312 1.4492-2.1875 2.5078-3.4688 3.1719s-2.8398 1-4.6719 1c-2.4805 0-4.4961-0.72266-6.0469-2.1719-1.543-1.4453-2.3125-3.3203-2.3125-5.625 0-2.8125 0.96094-4.8672 2.8906-6.1719 1.9375-1.3125 4.9688-1.9688 9.0938-1.9688h4.5156v-0.60938c0-1.207-0.48047-2.0938-1.4375-2.6562-0.94922-0.5625-2.4375-0.84375-4.4688-0.84375-1.6367 0-3.1562 0.16797-4.5625 0.5-1.4062 0.32422-2.7188 0.8125-3.9375 1.4688v-5.8281c1.6445-0.40625 3.2891-0.70703 4.9375-0.90625 1.6562-0.20703 3.3047-0.3125 4.9531-0.3125 4.3203 0 7.4375 0.85547 9.3438 2.5625 1.9141 1.6992 2.875 4.4609 2.875 8.2812z" />
    </symbol>
    <symbol
       overflow="visible"
       id="f-3">
      <path
         id="path874"
         d="m12.031-30.719v6.7969h7.875v5.4688h-7.875v10.141c0 1.1172 0.21875 1.8711 0.65625 2.2656 0.4375 0.38672 1.3125 0.57812 2.625 0.57812h3.9375v5.4688h-6.5625c-3.0234 0-5.1641-0.62891-6.4219-1.8906-1.2617-1.2578-1.8906-3.3984-1.8906-6.4219v-10.141h-3.7969v-5.4688h3.7969v-6.7969z" />
    </symbol>
    <symbol
       overflow="visible"
       id="e-5">
      <path
         id="path877"
         d="m19.953-20.422v-12.812h7.6875v33.234h-7.6875v-3.4531c-1.0547 1.4062-2.2148 2.4375-3.4844 3.0938-1.2734 0.65625-2.7422 0.98438-4.4062 0.98438-2.9492 0-5.3711-1.1719-7.2656-3.5156-1.8867-2.3438-2.8281-5.3594-2.8281-9.0469s0.94141-6.7031 2.8281-9.0469c1.8945-2.3438 4.3164-3.5156 7.2656-3.5156 1.6562 0 3.1172 0.33594 4.3906 1 1.2812 0.65625 2.4453 1.6836 3.5 3.0781zm-5.0469 15.484c1.6445 0 2.8945-0.59766 3.75-1.7969 0.86328-1.1953 1.2969-2.9297 1.2969-5.2031 0-2.2812-0.43359-4.0195-1.2969-5.2188-0.85547-1.1953-2.1055-1.7969-3.75-1.7969-1.625 0-2.8711 0.60156-3.7344 1.7969-0.85547 1.1992-1.2812 2.9375-1.2812 5.2188 0 2.2734 0.42578 4.0078 1.2812 5.2031 0.86328 1.1992 2.1094 1.7969 3.7344 1.7969z" />
    </symbol>
    <symbol
       overflow="visible"
       id="d-6">
      <path
         id="path880"
         d="m16.406-4.9375c1.6328 0 2.8828-0.59766 3.75-1.7969 0.86328-1.1953 1.2969-2.9297 1.2969-5.2031 0-2.2812-0.43359-4.0195-1.2969-5.2188-0.86719-1.1953-2.1172-1.7969-3.75-1.7969-1.6367 0-2.8906 0.60547-3.7656 1.8125-0.875 1.1992-1.3125 2.9336-1.3125 5.2031 0 2.2617 0.4375 3.9961 1.3125 5.2031 0.875 1.1992 2.1289 1.7969 3.7656 1.7969zm-5.0781-15.484c1.0508-1.3945 2.2188-2.4219 3.5-3.0781 1.2812-0.66406 2.7539-1 4.4219-1 2.9453 0 5.3672 1.1719 7.2656 3.5156 1.8945 2.3438 2.8438 5.3594 2.8438 9.0469s-0.94922 6.7031-2.8438 9.0469c-1.8984 2.3438-4.3203 3.5156-7.2656 3.5156-1.668 0-3.1406-0.33594-4.4219-1s-2.4492-1.6914-3.5-3.0781v3.4531h-7.6562v-33.234h7.6562z" />
    </symbol>
    <symbol
       overflow="visible"
       id="c-2">
      <path
         id="path883"
         d="m0.53125-23.922h7.6562l6.4219 16.234 5.4688-16.234h7.6562l-10.062 26.188c-1.0117 2.6641-2.1953 4.5234-3.5469 5.5781-1.3438 1.0625-3.1211 1.5938-5.3281 1.5938h-4.4219v-5.0156h2.3906c1.3008 0 2.2422-0.21094 2.8281-0.625 0.59375-0.40625 1.0547-1.1484 1.3906-2.2188l0.20312-0.65625z" />
    </symbol>
    <symbol
       overflow="visible"
       id="b-9">
      <path
         id="path886"
         d="m0.21875-31.891h29.391v6.2188h-10.578v25.672h-8.2188v-25.672h-10.594z" />
    </symbol>
    <symbol
       overflow="visible"
       id="n-1">
      <path
         id="path889"
         d="m27.734-14.562v14.562h-7.7031v-11.109c0-2.0938-0.046875-3.5312-0.14062-4.3125-0.085937-0.78125-0.24219-1.3594-0.46875-1.7344-0.30469-0.5-0.71094-0.88281-1.2188-1.1562-0.51172-0.28125-1.0938-0.42188-1.75-0.42188-1.5938 0-2.8516 0.61719-3.7656 1.8438-0.90625 1.2305-1.3594 2.9375-1.3594 5.125v11.766h-7.6562v-33.234h7.6562v12.812c1.1445-1.3945 2.3633-2.4219 3.6562-3.0781 1.3008-0.66406 2.7383-1 4.3125-1 2.7578 0 4.8516 0.85156 6.2812 2.5469 1.4375 1.6875 2.1562 4.1523 2.1562 7.3906z" />
    </symbol>
    <symbol
       overflow="visible"
       id="m-2">
      <path
         id="path892"
         d="m4.0156-31.891h8.2188v31.891h-8.2188z" />
    </symbol>
    <symbol
       overflow="visible"
       id="l-7">
      <path
         id="path895"
         d="m23-23.172v6.2344c-1.0312-0.71875-2.0742-1.2422-3.125-1.5781-1.043-0.34375-2.125-0.51562-3.25-0.51562-2.1367 0-3.8047 0.625-5 1.875-1.1875 1.2422-1.7812 2.9805-1.7812 5.2188 0 2.2305 0.59375 3.9688 1.7812 5.2188 1.1953 1.25 2.8633 1.875 5 1.875 1.1953 0 2.332-0.17578 3.4062-0.53125 1.0703-0.36328 2.0625-0.89453 2.9688-1.5938v6.2656c-1.1875 0.4375-2.4023 0.76562-3.6406 0.98438-1.2305 0.22656-2.4648 0.34375-3.7031 0.34375-4.3125 0-7.6875-1.1094-10.125-3.3281s-3.6562-5.2969-3.6562-9.2344c0-3.9453 1.2188-7.0234 3.6562-9.2344 2.4375-2.2188 5.8125-3.3281 10.125-3.3281 1.25 0 2.4844 0.10938 3.7031 0.32812s2.4297 0.55469 3.6406 1z" />
    </symbol>
    <symbol
       overflow="visible"
       id="k-0">
      <path
         id="path898"
         d="m15.062-19.031c-1.6992 0-2.9961 0.60938-3.8906 1.8281-0.88672 1.2188-1.3281 2.9766-1.3281 5.2656 0 2.293 0.44141 4.0469 1.3281 5.2656 0.89453 1.2188 2.1914 1.8281 3.8906 1.8281 1.6641 0 2.9375-0.60938 3.8125-1.8281 0.88281-1.2188 1.3281-2.9727 1.3281-5.2656 0-2.2891-0.44531-4.0469-1.3281-5.2656-0.875-1.2188-2.1484-1.8281-3.8125-1.8281zm0-5.4688c4.1133 0 7.3281 1.1094 9.6406 3.3281s3.4688 5.2969 3.4688 9.2344c0 3.9297-1.1562 7.0078-3.4688 9.2344-2.3125 2.2188-5.5273 3.3281-9.6406 3.3281-4.1367 0-7.3711-1.1094-9.7031-3.3281-2.3242-2.2266-3.4844-5.3047-3.4844-9.2344 0-3.9375 1.1602-7.0156 3.4844-9.2344 2.332-2.2188 5.5664-3.3281 9.7031-3.3281z" />
    </symbol>
    <symbol
       overflow="visible"
       id="j-9">
      <path
         id="path901"
         d="m27.734-14.562v14.562h-7.7031v-11.156c0-2.0625-0.046875-3.4844-0.14062-4.2656-0.085937-0.78125-0.24219-1.3594-0.46875-1.7344-0.30469-0.5-0.71094-0.88281-1.2188-1.1562-0.51172-0.28125-1.0938-0.42188-1.75-0.42188-1.5938 0-2.8516 0.61719-3.7656 1.8438-0.90625 1.2305-1.3594 2.9375-1.3594 5.125v11.766h-7.6562v-23.922h7.6562v3.5c1.1445-1.3945 2.3633-2.4219 3.6562-3.0781 1.3008-0.66406 2.7383-1 4.3125-1 2.7578 0 4.8516 0.85156 6.2812 2.5469 1.4375 1.6875 2.1562 4.1523 2.1562 7.3906z" />
    </symbol>
    <symbol
       overflow="visible"
       id="i-3">
      <path
         id="path904"
         d="m2.4531-31.891h26.812v4.9688l-17.109 20.703h17.594v6.2188h-27.781v-4.9844l17.109-20.688h-16.625z" />
    </symbol>
    <symbol
       overflow="visible"
       id="o-6">
      <path
         id="path1002"
         d="m29.312-1.75c-1.5117 0.78125-3.0898 1.3711-4.7344 1.7656-1.6367 0.40625-3.3398 0.60938-5.1094 0.60938-5.3125 0-9.5273-1.4844-12.641-4.4531-3.1055-2.9688-4.6562-7-4.6562-12.094s1.5508-9.125 4.6562-12.094c3.1133-2.9688 7.3281-4.4531 12.641-4.4531 1.7695 0 3.4727 0.19922 5.1094 0.59375 1.6445 0.39844 3.2227 0.99219 4.7344 1.7812v6.5938c-1.5312-1.0391-3.0391-1.8008-4.5156-2.2812-1.4805-0.48828-3.0391-0.73438-4.6719-0.73438-2.9375 0-5.2461 0.94531-6.9219 2.8281-1.6797 1.875-2.5156 4.4648-2.5156 7.7656 0 3.293 0.83594 5.8828 2.5156 7.7656 1.6758 1.875 3.9844 2.8125 6.9219 2.8125 1.6328 0 3.1914-0.23828 4.6719-0.71875 1.4766-0.48828 2.9844-1.2539 4.5156-2.2969z" />
    </symbol>
    <symbol
       overflow="visible"
       id="h-0">
      <path
         id="path1005"
         d="m21.453-17.406c-0.67969-0.3125-1.3516-0.53906-2.0156-0.6875-0.65625-0.15625-1.3203-0.23438-1.9844-0.23438-1.9688 0-3.4844 0.63281-4.5469 1.8906-1.0547 1.2617-1.5781 3.0703-1.5781 5.4219v11.016h-7.6562v-23.922h7.6562v3.9219c0.97656-1.5625 2.1016-2.7031 3.375-3.4219 1.2812-0.71875 2.8125-1.0781 4.5938-1.0781 0.25 0 0.52344 0.011719 0.82812 0.03125 0.30078 0.023438 0.73438 0.070312 1.2969 0.14062z" />
    </symbol>
    <symbol
       overflow="visible"
       id="a-6">
      <path
         id="path1008"
         d="m27.562-12.031v2.1875h-17.891c0.1875 1.793 0.83203 3.1367 1.9375 4.0312 1.1133 0.89844 2.6719 1.3438 4.6719 1.3438 1.6016 0 3.25-0.23438 4.9375-0.70312 1.6875-0.47656 3.4219-1.2031 5.2031-2.1719v5.8906c-1.8047 0.6875-3.6094 1.2031-5.4219 1.5469-1.8125 0.35156-3.6211 0.53125-5.4219 0.53125-4.3359 0-7.7031-1.0977-10.109-3.2969-2.3984-2.207-3.5938-5.2969-3.5938-9.2656 0-3.9062 1.1758-6.9727 3.5312-9.2031 2.3633-2.2383 5.6094-3.3594 9.7344-3.3594 3.7578 0 6.7695 1.1367 9.0312 3.4062 2.2578 2.2617 3.3906 5.2812 3.3906 9.0625zm-7.8594-2.5312c0-1.457-0.42969-2.6289-1.2812-3.5156-0.84375-0.89453-1.9492-1.3438-3.3125-1.3438-1.4922 0-2.6992 0.41797-3.625 1.25-0.91797 0.83594-1.4922 2.0391-1.7188 3.6094z" />
    </symbol>
    <symbol
       overflow="visible"
       id="g-2">
      <path
         id="path1011"
         d="m14.391-10.766c-1.5938 0-2.793 0.27344-3.5938 0.8125-0.80469 0.54297-1.2031 1.3398-1.2031 2.3906 0 0.96875 0.32031 1.7305 0.96875 2.2812 0.64453 0.54297 1.5469 0.8125 2.7031 0.8125 1.4375 0 2.6445-0.51562 3.625-1.5469 0.98828-1.0312 1.4844-2.3203 1.4844-3.875v-0.875zm11.688-2.8906v13.656h-7.7031v-3.5469c-1.0312 1.4492-2.1875 2.5078-3.4688 3.1719s-2.8398 1-4.6719 1c-2.4805 0-4.4961-0.72266-6.0469-2.1719-1.543-1.4453-2.3125-3.3203-2.3125-5.625 0-2.8125 0.96094-4.8672 2.8906-6.1719 1.9375-1.3125 4.9688-1.9688 9.0938-1.9688h4.5156v-0.60938c0-1.207-0.48047-2.0938-1.4375-2.6562-0.94922-0.5625-2.4375-0.84375-4.4688-0.84375-1.6367 0-3.1562 0.16797-4.5625 0.5-1.4062 0.32422-2.7188 0.8125-3.9375 1.4688v-5.8281c1.6445-0.40625 3.2891-0.70703 4.9375-0.90625 1.6562-0.20703 3.3047-0.3125 4.9531-0.3125 4.3203 0 7.4375 0.85547 9.3438 2.5625 1.9141 1.6992 2.875 4.4609 2.875 8.2812z" />
    </symbol>
    <symbol
       overflow="visible"
       id="f-6">
      <path
         id="path1014"
         d="m12.031-30.719v6.7969h7.875v5.4688h-7.875v10.141c0 1.1172 0.21875 1.8711 0.65625 2.2656 0.4375 0.38672 1.3125 0.57812 2.625 0.57812h3.9375v5.4688h-6.5625c-3.0234 0-5.1641-0.62891-6.4219-1.8906-1.2617-1.2578-1.8906-3.3984-1.8906-6.4219v-10.141h-3.7969v-5.4688h3.7969v-6.7969z" />
    </symbol>
    <symbol
       overflow="visible"
       id="e-1">
      <path
         id="path1017"
         d="m19.953-20.422v-12.812h7.6875v33.234h-7.6875v-3.4531c-1.0547 1.4062-2.2148 2.4375-3.4844 3.0938-1.2734 0.65625-2.7422 0.98438-4.4062 0.98438-2.9492 0-5.3711-1.1719-7.2656-3.5156-1.8867-2.3438-2.8281-5.3594-2.8281-9.0469s0.94141-6.7031 2.8281-9.0469c1.8945-2.3438 4.3164-3.5156 7.2656-3.5156 1.6562 0 3.1172 0.33594 4.3906 1 1.2812 0.65625 2.4453 1.6836 3.5 3.0781zm-5.0469 15.484c1.6445 0 2.8945-0.59766 3.75-1.7969 0.86328-1.1953 1.2969-2.9297 1.2969-5.2031 0-2.2812-0.43359-4.0195-1.2969-5.2188-0.85547-1.1953-2.1055-1.7969-3.75-1.7969-1.625 0-2.8711 0.60156-3.7344 1.7969-0.85547 1.1992-1.2812 2.9375-1.2812 5.2188 0 2.2734 0.42578 4.0078 1.2812 5.2031 0.86328 1.1992 2.1094 1.7969 3.7344 1.7969z" />
    </symbol>
    <symbol
       overflow="visible"
       id="d-8">
      <path
         id="path1020"
         d="m16.406-4.9375c1.6328 0 2.8828-0.59766 3.75-1.7969 0.86328-1.1953 1.2969-2.9297 1.2969-5.2031 0-2.2812-0.43359-4.0195-1.2969-5.2188-0.86719-1.1953-2.1172-1.7969-3.75-1.7969-1.6367 0-2.8906 0.60547-3.7656 1.8125-0.875 1.1992-1.3125 2.9336-1.3125 5.2031 0 2.2617 0.4375 3.9961 1.3125 5.2031 0.875 1.1992 2.1289 1.7969 3.7656 1.7969zm-5.0781-15.484c1.0508-1.3945 2.2188-2.4219 3.5-3.0781 1.2812-0.66406 2.7539-1 4.4219-1 2.9453 0 5.3672 1.1719 7.2656 3.5156 1.8945 2.3438 2.8438 5.3594 2.8438 9.0469s-0.94922 6.7031-2.8438 9.0469c-1.8984 2.3438-4.3203 3.5156-7.2656 3.5156-1.668 0-3.1406-0.33594-4.4219-1s-2.4492-1.6914-3.5-3.0781v3.4531h-7.6562v-33.234h7.6562z" />
    </symbol>
    <symbol
       overflow="visible"
       id="c-7">
      <path
         id="path1023"
         d="m0.53125-23.922h7.6562l6.4219 16.234 5.4688-16.234h7.6562l-10.062 26.188c-1.0117 2.6641-2.1953 4.5234-3.5469 5.5781-1.3438 1.0625-3.1211 1.5938-5.3281 1.5938h-4.4219v-5.0156h2.3906c1.3008 0 2.2422-0.21094 2.8281-0.625 0.59375-0.40625 1.0547-1.1484 1.3906-2.2188l0.20312-0.65625z" />
    </symbol>
    <symbol
       overflow="visible"
       id="b-92">
      <path
         id="path1026"
         d="m0.21875-31.891h29.391v6.2188h-10.578v25.672h-8.2188v-25.672h-10.594z" />
    </symbol>
    <symbol
       overflow="visible"
       id="n-0">
      <path
         id="path1029"
         d="m27.734-14.562v14.562h-7.7031v-11.109c0-2.0938-0.046875-3.5312-0.14062-4.3125-0.085937-0.78125-0.24219-1.3594-0.46875-1.7344-0.30469-0.5-0.71094-0.88281-1.2188-1.1562-0.51172-0.28125-1.0938-0.42188-1.75-0.42188-1.5938 0-2.8516 0.61719-3.7656 1.8438-0.90625 1.2305-1.3594 2.9375-1.3594 5.125v11.766h-7.6562v-33.234h7.6562v12.812c1.1445-1.3945 2.3633-2.4219 3.6562-3.0781 1.3008-0.66406 2.7383-1 4.3125-1 2.7578 0 4.8516 0.85156 6.2812 2.5469 1.4375 1.6875 2.1562 4.1523 2.1562 7.3906z" />
    </symbol>
    <symbol
       overflow="visible"
       id="m-23">
      <path
         id="path1032"
         d="m4.0156-31.891h8.2188v31.891h-8.2188z" />
    </symbol>
    <symbol
       overflow="visible"
       id="l-75">
      <path
         id="path1035"
         d="m23-23.172v6.2344c-1.0312-0.71875-2.0742-1.2422-3.125-1.5781-1.043-0.34375-2.125-0.51562-3.25-0.51562-2.1367 0-3.8047 0.625-5 1.875-1.1875 1.2422-1.7812 2.9805-1.7812 5.2188 0 2.2305 0.59375 3.9688 1.7812 5.2188 1.1953 1.25 2.8633 1.875 5 1.875 1.1953 0 2.332-0.17578 3.4062-0.53125 1.0703-0.36328 2.0625-0.89453 2.9688-1.5938v6.2656c-1.1875 0.4375-2.4023 0.76562-3.6406 0.98438-1.2305 0.22656-2.4648 0.34375-3.7031 0.34375-4.3125 0-7.6875-1.1094-10.125-3.3281s-3.6562-5.2969-3.6562-9.2344c0-3.9453 1.2188-7.0234 3.6562-9.2344 2.4375-2.2188 5.8125-3.3281 10.125-3.3281 1.25 0 2.4844 0.10938 3.7031 0.32812s2.4297 0.55469 3.6406 1z" />
    </symbol>
    <symbol
       overflow="visible"
       id="k-9">
      <path
         id="path1038"
         d="m15.062-19.031c-1.6992 0-2.9961 0.60938-3.8906 1.8281-0.88672 1.2188-1.3281 2.9766-1.3281 5.2656 0 2.293 0.44141 4.0469 1.3281 5.2656 0.89453 1.2188 2.1914 1.8281 3.8906 1.8281 1.6641 0 2.9375-0.60938 3.8125-1.8281 0.88281-1.2188 1.3281-2.9727 1.3281-5.2656 0-2.2891-0.44531-4.0469-1.3281-5.2656-0.875-1.2188-2.1484-1.8281-3.8125-1.8281zm0-5.4688c4.1133 0 7.3281 1.1094 9.6406 3.3281s3.4688 5.2969 3.4688 9.2344c0 3.9297-1.1562 7.0078-3.4688 9.2344-2.3125 2.2188-5.5273 3.3281-9.6406 3.3281-4.1367 0-7.3711-1.1094-9.7031-3.3281-2.3242-2.2266-3.4844-5.3047-3.4844-9.2344 0-3.9375 1.1602-7.0156 3.4844-9.2344 2.332-2.2188 5.5664-3.3281 9.7031-3.3281z" />
    </symbol>
    <symbol
       overflow="visible"
       id="j-2">
      <path
         id="path1041"
         d="m27.734-14.562v14.562h-7.7031v-11.156c0-2.0625-0.046875-3.4844-0.14062-4.2656-0.085937-0.78125-0.24219-1.3594-0.46875-1.7344-0.30469-0.5-0.71094-0.88281-1.2188-1.1562-0.51172-0.28125-1.0938-0.42188-1.75-0.42188-1.5938 0-2.8516 0.61719-3.7656 1.8438-0.90625 1.2305-1.3594 2.9375-1.3594 5.125v11.766h-7.6562v-23.922h7.6562v3.5c1.1445-1.3945 2.3633-2.4219 3.6562-3.0781 1.3008-0.66406 2.7383-1 4.3125-1 2.7578 0 4.8516 0.85156 6.2812 2.5469 1.4375 1.6875 2.1562 4.1523 2.1562 7.3906z" />
    </symbol>
    <symbol
       overflow="visible"
       id="i-2">
      <path
         id="path1044"
         d="m2.4531-31.891h26.812v4.9688l-17.109 20.703h17.594v6.2188h-27.781v-4.9844l17.109-20.688h-16.625z" />
    </symbol>
  </defs>
  <g
     id="g271">
    <g
       id="g166"
       transform="matrix(0.16483517,0,0,0.16483517,54.807693,-8.6538478)">
      <g
         id="g280"
         style="fill:#252525;fill-opacity:1">
        <g
           id="g134"
           transform="matrix(0.96296295,0,0,0.96296295,58.462964,-35.129616)"
           style="fill:#525252;fill-opacity:1">
          <g
             id="g866"
             transform="matrix(0.8,0,0,0.8,22.749999,103.25)"
             style="fill:#525252;fill-opacity:1">
            <g
               id="g945"
               transform="matrix(7.8749998,0,0,7.8749998,-1540.5345,-4228.868)"
               style="fill:#525252;fill-opacity:1">
              <path
                 id="path909"
                 d="m 172.95475,542.55468 h -15.77374 c -5.86443,0 -11.48906,2.32977 -15.63614,6.47699 -4.14722,4.14666 -6.47699,9.77143 -6.47699,15.63614 v 15.77374 c 0,5.86443 2.32977,11.48906 6.47699,15.63614 4.14666,4.14722 9.77143,6.47699 15.63614,6.47699 h 15.77374 c 5.86443,0 11.48906,-2.32977 15.63614,-6.47699 4.14722,-4.14666 6.47699,-9.77143 6.47699,-15.63614 v -15.77374 c 0,-5.86443 -2.32977,-11.48906 -6.47699,-15.63614 -4.14666,-4.14722 -9.77143,-6.47699 -15.63614,-6.47699 z m 8.14478,22.94808 -16.03207,16.97835 c -1.16048,1.2241 -2.77286,1.91672 -4.45933,1.91672 h -0.20895 c -1.73743,-0.0428 -3.3756,-0.81935 -4.50861,-2.13785 l -6.92893,-8.05857 h 5.6e-4 c -0.51277,-0.47384 -0.79961,-1.14347 -0.78919,-1.8416 0.011,-0.69761 0.31754,-1.35792 0.84403,-1.81647 0.52704,-0.45794 1.22354,-0.67073 1.91616,-0.58464 0.69266,0.0861 1.31568,0.46288 1.7144,1.03599 l 6.92893,8.05857 -5.6e-4,5.6e-4 c 0.22814,0.26599 0.55885,0.42284 0.9093,0.42997 0.34716,0.009 0.6817,-0.12943 0.92136,-0.38115 l 16.09244,-16.97835 c 0.6126,-0.5945 1.48949,-0.82813 2.31657,-0.61808 0.82758,0.2106 1.48626,0.83526 1.74024,1.65024 0.25392,0.81497 0.0669,1.70345 -0.49413,2.3462 z"
                 inkscape:connector-curvature="0"
                 style="stroke-width:0.14039817;fill:#525252;fill-opacity:1" />
            </g>
            <g
               id="g1085"
               transform="matrix(7.8749998,0,0,7.8749998,-4229.96,-4889.7532)"
               style="fill:#525252;fill-opacity:1">
              <path
                 id="path1049"
                 d="m 597.52416,645.98476 c 0.47082,0.44671 0.74542,1.06167 0.7635,1.71057 0.0186,0.64895 -0.22088,1.27873 -0.66539,1.75112 l -16.05895,16.96819 c -1.15978,1.22337 -2.77121,1.91557 -4.45666,1.91557 h -0.20883 c -1.73639,-0.0428 -3.37357,-0.81886 -4.50591,-2.13657 l -6.92478,-8.05375 h 5.6e-4 c -0.51247,-0.47356 -0.79913,-1.14279 -0.78872,-1.8405 0.011,-0.69719 0.31735,-1.3571 0.84353,-1.81538 0.52672,-0.45766 1.22281,-0.67032 1.91501,-0.58428 0.69225,0.0861 1.31489,0.4626 1.71337,1.03536 l 6.92478,8.05375 -5.6e-4,5.6e-4 c 0.22801,0.26583 0.55852,0.42259 0.90876,0.42971 0.34696,0.009 0.6813,-0.12935 0.92081,-0.38092 L 593.98749,646.07 c 0.45108,-0.49164 1.08249,-0.77831 1.74957,-0.79475 0.66704,-0.0159 1.31162,0.24006 1.7862,0.70924 z m 14.05807,2.62766 v 15.7643 c 0,5.86092 -2.32837,11.48218 -6.47255,15.62678 -4.14474,4.14474 -9.76558,6.47311 -15.62678,6.47311 h -15.80078 c -5.86092,0 -11.48218,-2.32837 -15.62678,-6.47311 -4.14474,-4.14418 -6.47311,-9.76558 -6.47311,-15.62678 v -15.7643 c 0,-5.86092 2.32837,-11.48218 6.47311,-15.62678 4.14418,-4.14474 9.76558,-6.47311 15.62678,-6.47311 h 15.7643 c 5.86092,0 11.48218,2.32837 15.62678,6.47311 4.14474,4.14418 6.47311,9.76558 6.47311,15.62678 z m -4.91099,0 v -5.6e-4 c 0,-4.55852 -1.8109,-8.93071 -5.03433,-12.15415 -3.22344,-3.22343 -7.59563,-5.03433 -12.15415,-5.03433 h -15.80078 c -4.55852,0 -8.93071,1.8109 -12.15414,5.03433 -3.22344,3.22344 -5.03434,7.59563 -5.03434,12.15415 v 15.76429 c 0,4.55853 1.8109,8.93072 5.03434,12.15415 3.22343,3.22344 7.59562,5.03433 12.15414,5.03433 h 15.7643 c 4.55852,0 8.93071,-1.81089 12.15415,-5.03433 3.22343,-3.22343 5.03433,-7.59562 5.03433,-12.15415 z"
                 inkscape:connector-curvature="0"
                 style="stroke-width:0.14031412;fill:#525252;fill-opacity:1" />
            </g>
          </g>
        </g>
      </g>
    </g>
  </g>
</svg>
