<?xml version="1.0" encoding="UTF-8" standalone="no"?>
<svg
   xmlns:dc="http://purl.org/dc/elements/1.1/"
   xmlns:cc="http://creativecommons.org/ns#"
   xmlns:rdf="http://www.w3.org/1999/02/22-rdf-syntax-ns#"
   xmlns:svg="http://www.w3.org/2000/svg"
   xmlns="http://www.w3.org/2000/svg"
   xmlns:sodipodi="http://sodipodi.sourceforge.net/DTD/sodipodi-0.dtd"
   xmlns:inkscape="http://www.inkscape.org/namespaces/inkscape"
   width="200"
   height="100"
   version="1.1"
   viewBox="0 0 150 75.000002"
   id="svg199"
   sodipodi:docname="registration.svg"
   inkscape:version="0.92.4 (5da689c313, 2019-01-14)">
  <metadata
     id="metadata203">
    <rdf:RDF>
      <cc:Work
         rdf:about="">
        <dc:format>image/svg+xml</dc:format>
        <dc:type
           rdf:resource="http://purl.org/dc/dcmitype/StillImage" />
        <dc:title />
      </cc:Work>
    </rdf:RDF>
  </metadata>
  <sodipodi:namedview
     pagecolor="#ffffff"
     bordercolor="#666666"
     borderopacity="1"
     objecttolerance="10"
     gridtolerance="10"
     guidetolerance="10"
     inkscape:pageopacity="0"
     inkscape:pageshadow="2"
     inkscape:window-width="1366"
     inkscape:window-height="701"
     id="namedview201"
     showgrid="false"
     units="px"
     inkscape:zoom="2.860752"
     inkscape:cx="141.31142"
     inkscape:cy="51.528117"
     inkscape:window-x="0"
     inkscape:window-y="0"
     inkscape:window-maximized="1"
     inkscape:current-layer="g197" />
  <defs
     id="defs65">
    <symbol
       id="u"
       overflow="visible"
       style="overflow:visible">
      <path
         d="M 2.4844,-0.14062 C 2.3594,-0.07812 2.22268,-0.03124 2.07815,0 1.94143,0.03125 1.7969,0.046875 1.64065,0.046875 c -0.44922,0 -0.80469,-0.125 -1.0625,-0.375 -0.26172,-0.25 -0.39062,-0.58594 -0.39062,-1.0156 0,-0.4375 0.12891,-0.78125 0.39062,-1.0312 0.25781,-0.25 0.61328,-0.375 1.0625,-0.375 0.15625,0 0.30078,0.023438 0.4375,0.0625 0.14453,0.03125 0.28125,0.078125 0.40625,0.14062 v 0.5625 c -0.13672,-0.09375 -0.26562,-0.16016 -0.39062,-0.20312 -0.125,-0.039062 -0.25781,-0.0625 -0.39062,-0.0625 -0.25,0 -0.44922,0.085938 -0.59375,0.25 -0.13672,0.15625 -0.20312,0.375 -0.20312,0.65625 0,0.28125 0.066406,0.5 0.20312,0.65625 0.14453,0.15625 0.34375,0.23438 0.59375,0.23438 0.13281,0 0.26562,-0.019531 0.39062,-0.0625 0.125,-0.039063 0.25391,-0.10156 0.39062,-0.1875 z"
         id="path2"
         inkscape:connector-curvature="0" />
    </symbol>
    <symbol
       id="e"
       overflow="visible"
       style="overflow:visible">
      <path
         d="M 1.8125,-1.4688 C 1.757812,-1.50005 1.70312,-1.519581 1.64062,-1.5313 1.585933,-1.539112 1.53515,-1.546925 1.48437,-1.546925 c -0.16797,0 -0.29688,0.054687 -0.39062,0.15625 C 1,-1.285205 0.95313,-1.132865 0.95313,-0.937555 v 0.9375 H 0.31251 v -2.0312 h 0.64062 v 0.34375 c 0.082031,-0.13281 0.17578,-0.23438 0.28125,-0.29688 0.11328,-0.0625 0.24219,-0.09375 0.39062,-0.09375 0.03125,0 0.054688,0.00781 0.078125,0.015625 h 0.10938 z"
         id="path5"
         inkscape:connector-curvature="0" />
    </symbol>
    <symbol
       id="b"
       overflow="visible"
       style="overflow:visible">
      <path
         d="m 2.3281,-1.0156 v 0.1875 H 0.8125 c 0.019531,0.14844 0.078125,0.26172 0.17188,0.34375 0.09375,0.074219 0.22266,0.10938 0.39062,0.10938 0.13281,0 0.27344,-0.019531 0.42188,-0.0625 0.14453,-0.039062 0.28906,-0.10156 0.4375,-0.1875 v 0.5 C 2.07813,-0.06247 1.92188,-0.0195 1.76563,3e-5 1.61719,0.03128 1.46875,0.046905 1.31251,0.046905 c -0.36719,0 -0.65234,-0.085938 -0.85938,-0.26562 -0.19922,-0.1875 -0.29688,-0.45312 -0.29688,-0.79688 0,-0.32031 0.097656,-0.57812 0.29688,-0.76562 0.19531,-0.19531 0.47266,-0.29688 0.82812,-0.29688 0.32031,0 0.57812,0.10156 0.76562,0.29688 0.1875,0.1875 0.28125,0.44531 0.28125,0.76562 z M 1.67185,-1.23435 c 0,-0.125 -0.039063,-0.22266 -0.10938,-0.29688 -0.074219,-0.070312 -0.16797,-0.10938 -0.28125,-0.10938 -0.125,0 -0.23047,0.039063 -0.3125,0.10938 -0.074219,0.0625 -0.12109,0.16406 -0.14062,0.29688 z"
         id="path8"
         inkscape:connector-curvature="0" />
    </symbol>
    <symbol
       id="d"
       overflow="visible"
       style="overflow:visible">
      <path
         d="m 1.2188,-0.90625 c -0.13672,0 -0.24219,0.023438 -0.3125,0.0625 -0.0625,0.042969 -0.09375,0.10938 -0.09375,0.20312 0,0.085937 0.023438,0.15234 0.078125,0.20312 0.050781,0.042969 0.12891,0.0625 0.23438,0.0625 0.125,0 0.22656,-0.039062 0.3125,-0.125 0.082031,-0.09375 0.125,-0.20703 0.125,-0.34375 v -0.0625 z m 0.98438,-0.25 V -5e-5 H 1.56256 v -0.29688 c -0.09375,0.125 -0.19922,0.21484 -0.3125,0.26562 -0.10547,0.050781 -0.23438,0.078125 -0.39062,0.078125 -0.21094,0 -0.38281,-0.054688 -0.51562,-0.17188 -0.125,-0.125 -0.1875,-0.28516 -0.1875,-0.48438 0,-0.23828 0.082031,-0.41016 0.25,-0.51562 0.16406,-0.11328 0.42188,-0.17188 0.76562,-0.17188 H 1.56256 V -1.34382 c 0,-0.10156 -0.042969,-0.17578 -0.125,-0.21875 -0.085938,-0.050781 -0.21094,-0.078125 -0.375,-0.078125 -0.14844,0 -0.28125,0.015625 -0.40625,0.046875 -0.11719,0.023438 -0.21875,0.058594 -0.3125,0.10938 v -0.48438 c 0.13281,-0.03125 0.26953,-0.054688 0.40625,-0.078125 0.14453,-0.019531 0.28516,-0.03125 0.42188,-0.03125 0.36328,0 0.625,0.074219 0.78125,0.21875 0.16406,0.14844 0.25,0.38281 0.25,0.70312 z"
         id="path11"
         inkscape:connector-curvature="0" />
    </symbol>
    <symbol
       id="c"
       overflow="visible"
       style="overflow:visible">
      <path
         d="m 1.0156,-2.5938 v 0.5625 h 0.67188 v 0.46875 H 1.0156 v 0.85938 c 0,0.09375 0.015625,0.15625 0.046875,0.1875 0.039062,0.03125 0.11719,0.046875 0.23438,0.046875 h 0.32812 v 0.46875 h -0.54688 c -0.26172,0 -0.44531,-0.050781 -0.54688,-0.15625 -0.10547,-0.10156 -0.15625,-0.28516 -0.15625,-0.54688 v -0.85938 h -0.32812 v -0.46875 h 0.32812 v -0.5625 z"
         id="path14"
         inkscape:connector-curvature="0" />
    </symbol>
    <symbol
       id="k"
       overflow="visible"
       style="overflow:visible">
      <path
         d="M 1.6875,-1.7344 V -2.8125 H 2.34375 V 0 H 1.6875 v -0.29688 c -0.085938,0.125 -0.18359,0.21484 -0.29688,0.26562 -0.10547,0.050781 -0.23047,0.078125 -0.375,0.078125 -0.25,0 -0.45312,-0.097656 -0.60938,-0.29688 -0.15625,-0.19531 -0.23438,-0.45312 -0.23438,-0.76562 0,-0.3125 0.078125,-0.56641 0.23438,-0.76562 0.15625,-0.19531 0.35938,-0.29688 0.60938,-0.29688 0.14453,0 0.26953,0.03125 0.375,0.09375 0.11328,0.054687 0.21094,0.13672 0.29688,0.25 z m -0.42188,1.3125 c 0.13281,0 0.23828,-0.046875 0.3125,-0.14062 0.070313,-0.10156 0.10938,-0.25391 0.10938,-0.45312 0,-0.1875 -0.039062,-0.33203 -0.10938,-0.4375 -0.074219,-0.10156 -0.17969,-0.15625 -0.3125,-0.15625 -0.13672,0 -0.24219,0.054687 -0.3125,0.15625 -0.074219,0.10547 -0.10938,0.25 -0.10938,0.4375 0,0.19922 0.035156,0.35156 0.10938,0.45312 0.070313,0.09375 0.17578,0.14062 0.3125,0.14062 z"
         id="path17"
         inkscape:connector-curvature="0" />
    </symbol>
    <symbol
       id="j"
       overflow="visible"
       style="overflow:visible">
      <path
         d="m 1.3906,-0.42188 c 0.13281,0 0.23828,-0.046875 0.3125,-0.14062 0.070313,-0.10156 0.10938,-0.25391 0.10938,-0.45312 0,-0.1875 -0.039062,-0.33203 -0.10938,-0.4375 -0.074219,-0.10156 -0.17969,-0.15625 -0.3125,-0.15625 -0.13672,0 -0.24609,0.054687 -0.32812,0.15625 -0.074219,0.10547 -0.10938,0.25 -0.10938,0.4375 0,0.19922 0.035156,0.35156 0.10938,0.45312 0.082031,0.09375 0.19141,0.14062 0.32812,0.14062 z m -0.4375,-1.3125 c 0.09375,-0.11328 0.19141,-0.19531 0.29688,-0.25 0.11328,-0.0625 0.23828,-0.09375 0.375,-0.09375 0.25,0 0.45312,0.10156 0.60938,0.29688 0.16406,0.19922 0.25,0.45312 0.25,0.76562 0,0.3125 -0.085937,0.57031 -0.25,0.76562 -0.15625,0.19922 -0.35938,0.29688 -0.60938,0.29688 -0.13672,0 -0.26172,-0.027344 -0.375,-0.078125 C 1.14451,-0.082036 1.04686,-0.171875 0.9531,-0.296875 V 5e-6 H 0.31248 v -2.8125 H 0.9531 Z"
         id="path20"
         inkscape:connector-curvature="0" />
    </symbol>
    <symbol
       id="g"
       overflow="visible"
       style="overflow:visible">
      <path
         d="m 0.046875,-2.0312 h 0.64062 l 0.54688,1.375 0.46875,-1.375 h 0.64062 l -0.84375,2.2188 c -0.09375,0.22656 -0.19922,0.38281 -0.3125,0.46875 -0.10547,0.09375 -0.25,0.14062 -0.4375,0.14062 h -0.375 V 0.37509 h 0.20312 c 0.10156,0 0.17969,-0.023438 0.23438,-0.0625 0.050781,-0.03125 0.085938,-0.089844 0.10938,-0.17188 l 0.03125,-0.0625 z"
         id="path23"
         inkscape:connector-curvature="0" />
    </symbol>
    <symbol
       id="i"
       overflow="visible"
       style="overflow:visible">
      <path
         d="m 2.7656,-0.20312 c -0.17969,0.085937 -0.35938,0.14844 -0.54688,0.1875 -0.17969,0.039062 -0.37109,0.0625 -0.57812,0.0625 -0.44922,0 -0.80469,-0.125 -1.0625,-0.375 -0.26172,-0.25 -0.39062,-0.58594 -0.39062,-1.0156 0,-0.4375 0.12891,-0.78125 0.39062,-1.0312 0.26953,-0.25 0.64062,-0.375 1.1094,-0.375 0.17578,0 0.34766,0.023438 0.51562,0.0625 0.16406,0.03125 0.32031,0.078125 0.46875,0.14062 v 0.5625 C 2.51562,-2.07805 2.36328,-2.14446 2.21875,-2.18742 2.07031,-2.226482 1.92187,-2.24992 1.76563,-2.24992 c -0.27344,0 -0.48438,0.078125 -0.64062,0.23438 -0.14844,0.15625 -0.21875,0.38281 -0.21875,0.67188 0,0.28125 0.070312,0.5 0.21875,0.65625 0.14453,0.15625 0.34766,0.23438 0.60938,0.23438 0.070313,0 0.14062,-0.003906 0.20312,-0.015625 0.0625,-0.007812 0.11719,-0.023438 0.17188,-0.046875 V -1.03115 H 1.68751 V -1.4999 h 1.0781 z"
         id="path26"
         inkscape:connector-curvature="0" />
    </symbol>
    <symbol
       id="f"
       overflow="visible"
       style="overflow:visible">
      <path
         d="M 2.3438,-1.2344 V 0 H 1.70318 v -0.9375 c 0,-0.17578 -0.00781,-0.29688 -0.015625,-0.35938 C 1.675836,-1.367193 1.660211,-1.42188 1.64068,-1.45313 1.617243,-1.492193 1.582086,-1.523443 1.5313,-1.54688 1.488331,-1.566411 1.441456,-1.57813 1.39068,-1.57813 c -0.13672,0 -0.24609,0.054687 -0.32812,0.15625 C 0.988341,-1.31641 0.95318,-1.17579 0.95318,-1 V 0 H 0.31256 v -2.0312 h 0.64062 v 0.29688 c 0.10156,-0.11328 0.20703,-0.19531 0.3125,-0.25 0.11328,-0.0625 0.23438,-0.09375 0.35938,-0.09375 0.23828,0 0.41406,0.074219 0.53125,0.21875 0.125,0.14844 0.1875,0.35547 0.1875,0.625 z"
         id="path29"
         inkscape:connector-curvature="0" />
    </symbol>
    <symbol
       id="t"
       overflow="visible"
       style="overflow:visible">
      <path
         d="m 0.34375,-2.7031 h 0.6875 v 0.98438 L 2.04685,-2.7031 H 2.84373 L 1.54683,-1.4219 2.98433,0 h -0.875 L 1.03123,-1.0625 V 0 h -0.6875 z"
         id="path32"
         inkscape:connector-curvature="0" />
    </symbol>
    <symbol
       id="h"
       overflow="visible"
       style="overflow:visible">
      <path
         d="M 2.3438,-1.2344 V 0 H 1.70318 v -0.9375 c 0,-0.17578 -0.00781,-0.29688 -0.015625,-0.35938 C 1.675836,-1.367193 1.660211,-1.42188 1.64068,-1.45313 1.617243,-1.492193 1.582086,-1.523443 1.5313,-1.54688 1.488331,-1.566411 1.441456,-1.57813 1.39068,-1.57813 c -0.13672,0 -0.24609,0.054687 -0.32812,0.15625 C 0.988341,-1.31641 0.95318,-1.17579 0.95318,-1 V 0 H 0.31256 v -2.8125 h 0.64062 v 1.0781 c 0.10156,-0.11328 0.20703,-0.19531 0.3125,-0.25 0.11328,-0.0625 0.23438,-0.09375 0.35938,-0.09375 0.23828,0 0.41406,0.074219 0.53125,0.21875 0.125,0.14844 0.1875,0.35547 0.1875,0.625 z"
         id="path35"
         inkscape:connector-curvature="0" />
    </symbol>
    <symbol
       id="a"
       overflow="visible"
       style="overflow:visible">
      <path
         d="m 1.2812,-1.6094 c -0.14844,0 -0.26172,0.054687 -0.34375,0.15625 -0.074219,0.10547 -0.10938,0.25 -0.10938,0.4375 0,0.19922 0.035156,0.35156 0.10938,0.45312 0.082031,0.10547 0.19531,0.15625 0.34375,0.15625 0.13281,0 0.23828,-0.050781 0.3125,-0.15625 0.070312,-0.10156 0.10938,-0.25391 0.10938,-0.45312 0,-0.1875 -0.039063,-0.33203 -0.10938,-0.4375 C 1.519481,-1.55471 1.41401,-1.6094 1.2812,-1.6094 Z m 0,-0.46875 c 0.34375,0 0.61328,0.09375 0.8125,0.28125 0.19531,0.1875 0.29688,0.44922 0.29688,0.78125 0,0.33594 -0.10156,0.59375 -0.29688,0.78125 C 1.89448,-0.0469 1.62495,0.04685 1.2812,0.04685 0.92573,0.04685 0.64839,-0.0469 0.45308,-0.2344 0.25386,-0.4219 0.1562,-0.67971 0.1562,-1.01565 c 0,-0.33203 0.097656,-0.59375 0.29688,-0.78125 0.19531,-0.1875 0.47266,-0.28125 0.82812,-0.28125 z"
         id="path38"
         inkscape:connector-curvature="0" />
    </symbol>
    <symbol
       id="s"
       overflow="visible"
       style="overflow:visible">
      <path
         d="m 0.34375,-2.7031 h 0.6875 v 2.1719 h 1.2344 V 5e-5 h -1.9219 z"
         id="path41"
         inkscape:connector-curvature="0" />
    </symbol>
    <symbol
       id="r"
       overflow="visible"
       style="overflow:visible">
      <path
         d="m 1.6406,-2.8125 v 0.42188 H 1.28122 c -0.09375,0 -0.15625,0.015625 -0.1875,0.046875 -0.03125,0.03125 -0.046875,0.089844 -0.046875,0.17188 v 0.14062 h 0.54688 v 0.46875 H 1.046845 V 5e-6 h -0.65625 v -1.5625 h -0.3125 v -0.46875 h 0.3125 v -0.14062 c 0,-0.21875 0.0625,-0.37891 0.1875,-0.48438 0.125,-0.10156 0.3125,-0.15625 0.5625,-0.15625 z"
         id="path44"
         inkscape:connector-curvature="0" />
    </symbol>
    <symbol
       id="q"
       overflow="visible"
       style="overflow:visible">
      <path
         d="m 2.1875,-1.6875 c 0.082031,-0.125 0.17969,-0.21875 0.29688,-0.28125 0.11328,-0.070312 0.23438,-0.10938 0.35938,-0.10938 0.23828,0 0.41406,0.074219 0.53125,0.21875 0.125,0.14844 0.1875,0.35547 0.1875,0.625 V 2e-5 H 2.92189 v -1.0625 -0.03125 -0.078125 c 0,-0.14453 -0.023437,-0.25 -0.0625,-0.3125 -0.042969,-0.0625 -0.10938,-0.09375 -0.20312,-0.09375 -0.125,0 -0.22656,0.054687 -0.29688,0.15625 -0.0625,0.09375 -0.09375,0.23438 -0.09375,0.42188 v 1 H 1.60939 v -1.0625 c 0,-0.21875 -0.023437,-0.35938 -0.0625,-0.42188 -0.03125,-0.0625 -0.10156,-0.09375 -0.20312,-0.09375 -0.125,0 -0.22656,0.054687 -0.29688,0.15625 -0.0625,0.09375 -0.09375,0.23438 -0.09375,0.42188 v 1 H 0.31252 v -2.0312 h 0.64062 v 0.29688 c 0.082031,-0.11328 0.17578,-0.19531 0.28125,-0.25 0.10156,-0.0625 0.21875,-0.09375 0.34375,-0.09375 0.13281,0 0.25391,0.039063 0.35938,0.10938 0.11328,0.0625 0.19531,0.15625 0.25,0.28125 z"
         id="path47"
         inkscape:connector-curvature="0" />
    </symbol>
    <symbol
       id="p"
       overflow="visible"
       style="overflow:visible">
      <path
         d="M 0.34375,-2.7031 H 1.125 l 0.96875,1.8594 V -2.7031 H 2.76563 V 0 H 1.98438 L 1,-1.8594 V 0 H 0.34375 Z"
         id="path50"
         inkscape:connector-curvature="0" />
    </symbol>
    <symbol
       id="o"
       overflow="visible"
       style="overflow:visible">
      <path
         d="m 0.29688,-0.78125 v -1.25 H 0.9375 v 0.20312 0.42188 0.32812 c 0,0.16797 0.003906,0.28906 0.015625,0.35938 0.007813,0.0625 0.023437,0.11719 0.046875,0.15625 0.019531,0.042969 0.050781,0.074219 0.09375,0.09375 0.039062,0.023438 0.09375,0.03125 0.15625,0.03125 0.13281,0 0.23828,-0.050781 0.3125,-0.15625 0.070312,-0.10156 0.10938,-0.25 0.10938,-0.4375 v -1 H 2.32813 V -5e-5 H 1.67188 v -0.29688 c -0.09375,0.125 -0.19922,0.21484 -0.3125,0.26562 C 1.25391,0.019471 1.13282,0.046815 1,0.046815 c -0.23047,0 -0.40625,-0.066406 -0.53125,-0.20312 -0.11719,-0.14453 -0.17188,-0.35156 -0.17188,-0.625 z"
         id="path53"
         inkscape:connector-curvature="0" />
    </symbol>
    <symbol
       id="n"
       overflow="visible"
       style="overflow:visible">
      <path
         d="m 0.34375,-2.7031 h 1.1562 c 0.34375,0 0.60156,0.078125 0.78125,0.23438 0.1875,0.15625 0.28125,0.375 0.28125,0.65625 0,0.28125 -0.09375,0.5 -0.28125,0.65625 -0.17969,0.14844 -0.4375,0.21875 -0.78125,0.21875 H 1.0312 V 3e-5 H 0.3437 Z m 0.6875,0.51562 v 0.75 h 0.39062 c 0.13281,0 0.23828,-0.03125 0.3125,-0.09375 0.070313,-0.070312 0.10938,-0.16406 0.10938,-0.28125 0,-0.125 -0.039062,-0.21875 -0.10938,-0.28125 -0.074219,-0.0625 -0.17969,-0.09375 -0.3125,-0.09375 z"
         id="path56"
         inkscape:connector-curvature="0" />
    </symbol>
    <symbol
       id="m"
       overflow="visible"
       style="overflow:visible">
      <path
         d="m 0.3125,-2.0312 h 0.64062 v 2 C 0.95312,0.23833 0.882807,0.44146 0.75,0.57818 0.625,0.72271 0.44141,0.79693 0.20312,0.79693 H -0.125 V 0.37505 h 0.10938 c 0.125,0 0.20703,-0.03125 0.25,-0.09375 0.050781,-0.054688 0.078125,-0.15625 0.078125,-0.3125 z m 0,-0.78125 H 0.95312 V -2.2812 H 0.3125 Z"
         id="path59"
         inkscape:connector-curvature="0" />
    </symbol>
    <symbol
       id="l"
       overflow="visible"
       style="overflow:visible">
      <path
         d="m 1.9531,-1.9688 v 0.53125 C 1.85935,-1.50005 1.7656,-1.53911 1.67185,-1.56255 1.585913,-1.5938 1.49997,-1.609425 1.40623,-1.609425 c -0.17969,0 -0.32031,0.054687 -0.42188,0.15625 -0.10547,0.10547 -0.15625,0.25 -0.15625,0.4375 0,0.1875 0.050781,0.33984 0.15625,0.45312 0.10156,0.10547 0.24219,0.15625 0.42188,0.15625 0.10156,0 0.19531,-0.015625 0.28125,-0.046875 0.09375,-0.03125 0.17969,-0.078125 0.26562,-0.14062 v 0.53125 C 1.84763,-0.019581 1.74216,0.003856 1.6406,0.015575 1.53513,0.035106 1.42966,0.046825 1.3281,0.046825 c -0.36719,0 -0.65234,-0.09375 -0.85938,-0.28125 -0.21094,-0.1875 -0.3125,-0.44531 -0.3125,-0.78125 0,-0.33203 0.10156,-0.59375 0.3125,-0.78125 0.20703,-0.1875 0.49219,-0.28125 0.85938,-0.28125 0.10156,0 0.20703,0.011719 0.3125,0.03125 0.10156,0.023437 0.20703,0.046875 0.3125,0.078125 z"
         id="path62"
         inkscape:connector-curvature="0" />
    </symbol>
  </defs>
  <g
     id="g197"
     style="fill:#525252;fill-opacity:1"
     transform="translate(0,-624.99998)">
    <g
       id="g147">
      <path
         style="fill:#525252;fill-opacity:1;stroke-width:0.36313713"
         id="path79"
         d="m 24.268492,632.84127 c 2.929209,1.61567 3.994508,5.30108 2.378838,8.23014 -1.615669,2.92921 -5.301076,3.99306 -8.23014,2.37742 -2.929209,-1.61566 -3.994508,-5.30107 -2.378838,-8.23014 1.615669,-2.92906 5.301075,-3.99305 8.23014,-2.37742"
         inkscape:connector-curvature="0" />
      <path
         style="fill:#525252;fill-opacity:1;stroke-width:0.36313713"
         id="path81"
         d="m 12.012613,656.8519 c -1.566028,-3.04552 -1.896556,-5.91805 -1.896556,-7.79183 0,-0.95607 0.08795,-1.5859 0.1149,-1.7561 0.212777,-1.31354 1.329155,-2.26536 2.656857,-2.26536 0.143268,0 0.289377,0.0113 0.432641,0.0355 1.456798,0.23547 2.458257,1.61284 2.22988,3.07247 -0.0057,0.044 -0.01133,0.0993 -0.01845,0.17873 -0.0142,0.15178 -0.02978,0.4057 -0.02836,0.73336 -0.0015,0.46812 0.03261,1.14471 0.17022,1.94478 0.151781,-0.29222 0.297885,-0.58019 0.436891,-0.85537 1.472412,-2.36889 1.371678,-5.73067 -0.683715,-6.90687 -2.056845,-1.17736 -5.6032058,-0.8809 -7.9806646,2.54479 -3.2398732,4.72914 -4.5817012,8.02606 -5.5378412,13.97243 -0.275189,3.29376 1.188693,4.81447 2.943408,5.63988 0.6993295,2.2143 1.6454469,6.084 1.6383658,10.7721 -0.00145,3.55904 -0.5333759,7.5863 -2.090871,11.7947 -0.6454036,1.74334 0.2439846,3.67966 1.9887568,4.32496 0.384417,0.14185 0.7801638,0.20994 1.1688658,0.20994 1.3674292,0 2.6540244,-0.83976 3.1575864,-2.19869 1.872408,-5.0585 2.50935,-9.90384 2.50935,-14.13257 -0.0071,-6.0811 -1.295092,-10.89557 -2.17599,-13.48728 0.273772,-1.65823 0.798611,-3.33774 1.441218,-4.96626 -0.175896,-0.29931 -0.334768,-0.58727 -0.476617,-0.86387 z"
         inkscape:connector-curvature="0" />
      <path
         style="fill:#525252;fill-opacity:1;stroke-width:0.36313713"
         id="path83"
         d="m 14.997601,648.27097 c 0.0085,-0.0851 0.0142,-0.14611 0.01845,-0.18015 0.0029,-0.017 0.0042,-0.0269 0.0042,-0.0298 0.182988,-1.16886 -0.61421,-2.26819 -1.784492,-2.45684 -1.174531,-0.19008 -2.279521,0.60713 -2.469623,1.78308 v -10e-4 c -0.0142,0.0936 -0.107809,0.70216 -0.107809,1.67242 0.0015,1.69371 0.280865,4.51779 1.838382,7.54781 1.546165,3.02994 4.420105,6.19875 9.250192,8.42151 0.293629,0.13476 0.601428,0.20001 0.903594,0.20001 0.814226,0 1.591558,-0.46383 1.956111,-1.2497 0.499314,-1.0795 0.02978,-2.36039 -1.049684,-2.8597 -4.025738,-1.87528 -6.07129,-4.25851 -7.23006,-6.48382 -1.147586,-2.22563 -1.360348,-4.3591 -1.358932,-5.57597 -0.0029,-0.34611 0.0142,-0.61562 0.02978,-0.78728 z"
         inkscape:connector-curvature="0" />
      <path
         style="fill:#525252;fill-opacity:1;stroke-width:0.36313713"
         id="path85"
         d="m 71.777722,673.20033 h -5.069757 c 0.723442,-0.82984 1.21709,-2.02561 1.285178,-3.78025 -0.229796,-6.01864 -1.161748,-9.45283 -3.805677,-14.53965 -1.944781,-3.68802 -5.428537,-4.41139 -7.61317,-3.49236 -1.636949,0.68938 -2.33203,2.73061 -2.080957,4.77452 0.632658,-0.78869 0.914924,-1.43976 0.919173,-1.4483 0.397199,-1.02274 1.40574,-1.71498 2.50935,-1.71498 0.330513,0 0.655353,0.061 0.966017,0.18014 0.670969,0.25675 1.201476,0.76176 1.493692,1.41849 0.292213,0.65677 0.310653,1.38871 0.0539,2.05968 -0.272353,0.67521 -1.08233,2.38592 -2.900848,4.14484 -0.304977,0.29789 -0.690796,0.63833 -1.149002,0.99013 0.736188,2.07955 1.458213,4.36745 1.865326,6.64977 H 50.59529 v -1.50644 l -33.532082,-10e-4 v 1.7249 h 1.858245 v 23.12022 h 4.024286 v -19.3356 H 43.07443 c 0.01278,0.0695 0.0227,0.13901 0.04114,0.2071 l 1.595806,6.15771 v 12.9709 h 4.025738 v -0.0411 c 0.591514,0.48229 1.339069,0.76034 2.123517,0.76034 0.279445,0 0.563153,-0.0355 0.846836,-0.10781 1.800071,-0.46525 2.880985,-2.30221 2.414281,-4.10236 l -3.395913,-13.11397 h 4.088198 v 0.71778 c 0,0.7433 0.60288,1.34615 1.346149,1.34615 h 0.896513 l 5.123502,6.88834 -5.492449,7.38331 h 3.580314 l 3.702183,-4.97752 3.702183,4.97752 h 3.580314 l -5.492449,-7.38331 5.123502,-6.88834 h 0.89506 c 0.743306,0 1.34615,-0.60288 1.34615,-1.34615 v -1.34615 c -0.0015,-0.74472 -0.604297,-1.34615 -1.347566,-1.34615 z m -7.810353,11.57936 c -0.470953,0 -0.852537,-0.38159 -0.852537,-0.85254 0,-0.47095 0.381584,-0.85254 0.852537,-0.85254 0.470952,0 0.852537,0.38159 0.852537,0.85254 0,0.47095 -0.380168,0.85254 -0.852537,0.85254 z m 0,-3.05972 -3.33349,-4.48112 h 6.666835 z"
         inkscape:connector-curvature="0" />
      <path
         style="fill:#525252;fill-opacity:1;stroke-width:0.36313713"
         id="path87"
         d="m 47.367644,657.33124 -0.84117,-0.67238 -1.956111,2.44834 c 0.424144,0.0709 0.841171,0.12625 1.248284,0.16313 z"
         inkscape:connector-curvature="0" />
      <path
         style="fill:#525252;fill-opacity:1;stroke-width:0.36313713"
         id="path89"
         d="m 41.306886,663.19227 -0.832674,1.04261 0.841171,0.67238 0.773083,-0.96743 c -0.309233,-0.19717 -0.574483,-0.45109 -0.78158,-0.74756 z"
         inkscape:connector-curvature="0" />
      <path
         style="fill:#525252;fill-opacity:1;stroke-width:0.36313713"
         id="path91"
         d="m 58.693891,653.68171 c -1.109275,-0.42697 -2.35331,0.12625 -2.781703,1.23409 h -0.0015 c -0.06383,0.15887 -0.661019,1.45396 -1.997254,2.63557 -1.350435,1.17878 -3.357603,2.31642 -6.720942,2.33062 -0.967434,0 -2.05256,-0.0993 -3.263986,-0.33619 -1.167413,-0.22838 -2.299384,0.5348 -2.526345,1.70362 -0.226961,1.16742 0.534792,2.29797 1.703622,2.52635 1.461046,0.28512 2.821394,0.41561 4.086745,0.41561 h 0.06383 c 4.672486,0 7.960692,-1.87528 9.903839,-3.77481 1.97031,-1.90647 2.696584,-3.76464 2.771753,-3.95057 0.426977,-1.11211 -0.127664,-2.35756 -1.23837,-2.78453 z"
         inkscape:connector-curvature="0" />
      <path
         style="fill:#525252;fill-opacity:1;stroke-width:0.36313713"
         id="path93"
         d="m 34.650582,665.24763 h 13.733846 v 0.6738 H 34.650582 Z"
         inkscape:connector-curvature="0" />
      <path
         style="fill:#525252;fill-opacity:1;stroke-width:0.36313713"
         id="path95"
         d="m 41.971427,649.50564 c 0.173056,0.2454 0.985844,0.007 2.174574,-0.58019 1.32062,-0.65252 3.106529,-1.73623 4.998945,-3.06822 1.513556,-1.0653 2.85404,-2.12065 3.872495,-3.02282 -0.951819,1.11494 -2.402951,2.55187 -4.10926,4.03263 -0.680882,0.59152 -1.322037,1.19298 -1.916384,1.77171 0.740473,1.17312 1.883774,2.09937 3.309378,2.54621 3.193065,1.00005 6.591665,-0.77874 7.590292,-3.97199 1.000044,-3.19307 -0.778747,-6.59167 -3.971994,-7.59029 -3.193246,-0.99863 -6.591665,0.77874 -7.590292,3.97199 -0.175896,0.56174 -0.263841,1.12914 -0.275189,1.68942 -0.181568,0.14044 -0.360301,0.27803 -0.533376,0.41561 -2.339111,1.84975 -3.828554,3.40725 -3.549084,3.80568 z"
         inkscape:connector-curvature="0" />
    </g>
    <g
       id="g136"
       transform="translate(3.1748942,7.6491409)">
      <path
         style="fill:#525252;fill-opacity:1;stroke-width:0.36313713"
         id="path85-5"
         d="m 143.60212,665.55176 h -5.06975 c 0.72344,-0.82985 1.21709,-2.02562 1.28517,-3.78026 -0.22979,-6.01864 -1.16174,-9.45283 -3.80567,-14.53964 -1.94478,-3.68802 -5.42854,-4.41139 -7.61317,-3.49236 -1.63695,0.68937 -2.33203,2.7306 -2.08096,4.77452 0.63266,-0.78869 0.91492,-1.43976 0.91917,-1.4483 0.3972,-1.02274 1.40574,-1.71498 2.50935,-1.71498 0.33052,0 0.65536,0.061 0.96602,0.18014 0.67097,0.25675 1.20148,0.76176 1.49369,1.41849 0.29222,0.65677 0.31065,1.38871 0.0539,2.05967 -0.27235,0.67521 -1.08233,2.38592 -2.90085,4.14485 -0.30497,0.29788 -0.69079,0.63832 -1.149,0.99012 0.73619,2.07955 1.45821,4.36746 1.86533,6.64977 h -7.65566 v -1.50644 l -33.532083,-9.7e-4 v 1.7249 h 1.858245 v 23.12022 h 4.024286 v -19.3356 h 20.128692 c 0.0128,0.0695 0.0227,0.13901 0.0411,0.2071 l 1.59581,6.15771 v 12.9709 h 4.02573 v -0.0411 c 0.59152,0.48229 1.33907,0.76034 2.12352,0.76034 0.27944,0 0.56315,-0.0355 0.84684,-0.10781 1.80007,-0.46525 2.88098,-2.30221 2.41428,-4.10236 l -3.39591,-13.114 h 4.08819 v 0.71778 c 0,0.7433 0.60288,1.34615 1.34615,1.34615 h 0.89652 l 5.1235,6.88834 -5.49245,7.38331 h 3.58031 l 3.70219,-4.97752 3.70218,4.97752 h 3.58031 l -5.49245,-7.38331 5.12351,-6.88834 h 0.89506 c 0.7433,0 1.34615,-0.60288 1.34615,-1.34615 v -1.34614 c -10e-4,-0.74472 -0.6043,-1.34616 -1.34757,-1.34616 z m -7.81035,11.57935 c -0.47095,0 -0.85254,-0.38159 -0.85254,-0.85254 0,-0.47095 0.38159,-0.85254 0.85254,-0.85254 0.47095,0 0.85254,0.38159 0.85254,0.85254 0,0.47095 -0.38017,0.85254 -0.85254,0.85254 z m 0,-3.05972 -3.33349,-4.48112 h 6.66683 z"
         inkscape:connector-curvature="0" />
      <path
         style="fill:#525252;fill-opacity:1;stroke-width:0.36313713"
         id="path87-3"
         d="m 119.19205,649.68266 -0.84117,-0.67237 -1.95612,2.44833 c 0.42415,0.0709 0.84118,0.12625 1.24829,0.16314 z"
         inkscape:connector-curvature="0" />
      <path
         style="fill:#525252;fill-opacity:1;stroke-width:0.36313713"
         id="path89-5"
         d="m 113.13129,655.54369 -0.83268,1.04262 0.84117,0.67237 0.77309,-0.96742 c -0.30924,-0.19718 -0.57449,-0.4511 -0.78158,-0.74757 z"
         inkscape:connector-curvature="0" />
      <path
         style="fill:#525252;fill-opacity:1;stroke-width:0.36313713"
         id="path91-6"
         d="m 130.51829,646.03314 c -1.10927,-0.42698 -2.35331,0.12625 -2.7817,1.23409 h -0.002 c -0.0638,0.15887 -0.66102,1.45395 -1.99725,2.63556 -1.35044,1.17879 -3.35761,2.31642 -6.72095,2.33062 -0.96743,0 -2.05256,-0.0993 -3.26398,-0.33619 -1.16742,-0.22838 -2.29939,0.53481 -2.52635,1.70362 -0.22696,1.16742 0.53479,2.29797 1.70362,2.52635 1.46105,0.28512 2.8214,0.41562 4.08675,0.41562 h 0.0638 c 4.67249,0 7.96069,-1.87529 9.90384,-3.77481 1.97031,-1.90647 2.69658,-3.76464 2.77175,-3.95058 0.42698,-1.1121 -0.12766,-2.35755 -1.23837,-2.78452 z"
         inkscape:connector-curvature="0" />
      <path
         style="fill:#525252;fill-opacity:1;stroke-width:0.36313713"
         id="path93-2"
         d="m 106.47498,657.59905 h 13.73385 v 0.6738 h -13.73385 z"
         inkscape:connector-curvature="0" />
      <path
         style="fill:#525252;fill-opacity:1;stroke-width:0.36313713"
         id="path95-9"
         d="m 113.79583,641.85706 c 0.17305,0.2454 0.98584,0.007 2.17457,-0.58018 1.32062,-0.65253 3.10653,-1.73624 4.99895,-3.06822 1.51355,-1.0653 2.85404,-2.12065 3.87249,-3.02283 -0.95182,1.11495 -2.40295,2.55188 -4.10926,4.03263 -0.68088,0.59152 -1.32203,1.19298 -1.91638,1.77171 0.74047,1.17312 1.88377,2.09937 3.30938,2.54622 3.19306,1.00005 6.59166,-0.77874 7.59029,-3.972 1.00004,-3.19306 -0.77875,-6.59166 -3.972,-7.59028 -3.19324,-0.99863 -6.59166,0.77874 -7.59029,3.97198 -0.17589,0.56175 -0.26384,1.12914 -0.27519,1.68942 -0.18156,0.14045 -0.3603,0.27804 -0.53337,0.41562 -2.33911,1.84974 -3.82856,3.40725 -3.54909,3.80568 z"
         inkscape:connector-curvature="0" />
    </g>
  </g>
</svg>
