<?xml version="1.0" encoding="UTF-8" standalone="no"?>
<svg
   xmlns:dc="http://purl.org/dc/elements/1.1/"
   xmlns:cc="http://creativecommons.org/ns#"
   xmlns:rdf="http://www.w3.org/1999/02/22-rdf-syntax-ns#"
   xmlns:svg="http://www.w3.org/2000/svg"
   xmlns="http://www.w3.org/2000/svg"
   xmlns:sodipodi="http://sodipodi.sourceforge.net/DTD/sodipodi-0.dtd"
   xmlns:inkscape="http://www.inkscape.org/namespaces/inkscape"
   width="100"
   height="100"
   version="1.1"
   viewBox="0 0 75.000002 75.000002"
   id="svg146"
   sodipodi:docname="reload.svg"
   inkscape:version="0.92.4 (5da689c313, 2019-01-14)">
  <metadata
     id="metadata150">
    <rdf:RDF>
      <cc:Work
         rdf:about="">
        <dc:format>image/svg+xml</dc:format>
        <dc:type
           rdf:resource="http://purl.org/dc/dcmitype/StillImage" />
        <dc:title />
      </cc:Work>
    </rdf:RDF>
  </metadata>
  <sodipodi:namedview
     pagecolor="#ffffff"
     bordercolor="#666666"
     borderopacity="1"
     objecttolerance="10"
     gridtolerance="10"
     guidetolerance="10"
     inkscape:pageopacity="0"
     inkscape:pageshadow="2"
     inkscape:window-width="1366"
     inkscape:window-height="703"
     id="namedview148"
     showgrid="false"
     inkscape:zoom="2.0228571"
     inkscape:cx="118.29481"
     inkscape:cy="30.964875"
     inkscape:window-x="0"
     inkscape:window-y="0"
     inkscape:window-maximized="1"
     inkscape:current-layer="g144"
     units="px"
     showguides="false" />
  <defs
     id="defs62">
    <symbol
       id="t"
       overflow="visible"
       style="overflow:visible">
      <path
         d="M 7.125,-0.42188 C 6.75781,-0.23438 6.375,-0.09376 5.9688,0 5.57036,0.10156 5.16021,0.15625 4.7344,0.15625 c -1.293,0 -2.3203,-0.35938 -3.0781,-1.0781 -0.75,-0.72656 -1.125,-1.7109 -1.125,-2.9531 0,-1.2383 0.375,-2.2188 1.125,-2.9375 0.75781,-0.71875 1.7852,-1.0781 3.0781,-1.0781 0.42578,0 0.83594,0.046875 1.2344,0.14062 0.40625,0.09375 0.78906,0.23438 1.1562,0.42188 v 1.6094 c -0.36719,-0.25 -0.73047,-0.42969 -1.0938,-0.54688 -0.36719,-0.125 -0.74609,-0.1875 -1.1406,-0.1875 -0.71094,0 -1.2734,0.23047 -1.6875,0.6875 -0.40625,0.46094 -0.60938,1.0898 -0.60938,1.8906 0,0.80469 0.20312,1.4336 0.60938,1.8906 0.41406,0.46094 0.97656,0.6875 1.6875,0.6875 0.39453,0 0.77344,-0.054687 1.1406,-0.17188 0.36328,-0.125 0.72656,-0.3125 1.0938,-0.5625 z"
         id="path2"
         inkscape:connector-curvature="0" />
    </symbol>
    <symbol
       id="b"
       overflow="visible"
       style="overflow:visible">
      <path
         d="m 5.2188,-4.2344 c -0.16797,-0.070313 -0.33594,-0.125 -0.5,-0.15625 -0.15625,-0.039063 -0.3125,-0.0625 -0.46875,-0.0625 -0.48047,0 -0.85156,0.15625 -1.1094,0.46875 -0.26172,0.30469 -0.39062,0.73438 -0.39062,1.2969 V 0 h -1.8594 v -5.8125 h 1.8594 v 0.95312 c 0.23828,-0.38281 0.51562,-0.66016 0.82812,-0.82812 0.3125,-0.17578 0.67969,-0.26562 1.1094,-0.26562 0.0625,0 0.12891,0.00781 0.20312,0.015625 0.070313,0 0.17969,0.00781 0.32812,0.015625 z"
         id="path5"
         inkscape:connector-curvature="0" />
    </symbol>
    <symbol
       id="a"
       overflow="visible"
       style="overflow:visible">
      <path
         d="m 6.7031,-2.9219 v 0.53125 H 2.3593 c 0.039063,0.4375 0.19531,0.76562 0.46875,0.98438 0.26953,0.21875 0.64453,0.32812 1.125,0.32812 0.39453,0 0.79688,-0.054687 1.2031,-0.17188 0.41406,-0.125 0.83594,-0.30078 1.2656,-0.53125 v 1.4219 c -0.4375,0.16797 -0.875,0.29297 -1.3125,0.375 -0.4375,0.09375 -0.88281,0.14062 -1.3281,0.14062 -1.0547,0 -1.8711,-0.26562 -2.4531,-0.79688 -0.58594,-0.53906 -0.875,-1.2969 -0.875,-2.2656 0,-0.94531 0.28516,-1.6914 0.85938,-2.2344 0.57031,-0.53906 1.3633,-0.8125 2.375,-0.8125 0.91406,0 1.6445,0.27734 2.1875,0.82812 0.55078,0.54297 0.82812,1.2773 0.82812,2.2031 z m -1.9062,-0.625 c 0,-0.35156 -0.10547,-0.63281 -0.3125,-0.84375 -0.21094,-0.21875 -0.48047,-0.32812 -0.8125,-0.32812 -0.35547,0 -0.64844,0.10547 -0.875,0.3125 -0.23047,0.19922 -0.37109,0.48438 -0.42188,0.85938 z"
         id="path8"
         inkscape:connector-curvature="0" />
    </symbol>
    <symbol
       id="e"
       overflow="visible"
       style="overflow:visible">
      <path
         d="m 3.5,-2.625 c -0.38672,0 -0.67969,0.070312 -0.875,0.20312 -0.19922,0.13672 -0.29688,0.32812 -0.29688,0.57812 0,0.24219 0.078125,0.42969 0.23438,0.5625 0.16406,0.13672 0.38281,0.20312 0.65625,0.20312 0.35156,0 0.64844,-0.125 0.89062,-0.375 0.23828,-0.25781 0.35938,-0.57812 0.35938,-0.95312 V -2.62501 Z M 6.3438,-3.3125 V 0 h -1.875 v -0.85938 c -0.25,0.35547 -0.53125,0.61719 -0.84375,0.78125 -0.3125,0.15625 -0.69531,0.23438 -1.1406,0.23438 -0.60547,0 -1.0938,-0.17578 -1.4688,-0.53125 -0.375,-0.35156 -0.5625,-0.8125 -0.5625,-1.375 0,-0.67578 0.23438,-1.1719 0.70312,-1.4844 0.46875,-0.32031 1.207,-0.48438 2.2188,-0.48438 h 1.0938 v -0.15625 c 0,-0.28906 -0.12109,-0.50391 -0.35938,-0.64062 -0.23047,-0.13281 -0.58984,-0.20312 -1.0781,-0.20312 -0.39844,0 -0.76562,0.042969 -1.1094,0.125 -0.34375,0.074219 -0.66406,0.1875 -0.95312,0.34375 v -1.4062 c 0.39453,-0.10156 0.78906,-0.17578 1.1875,-0.21875 0.40625,-0.050781 0.8125,-0.078125 1.2188,-0.078125 1.0508,0 1.8047,0.21094 2.2656,0.625 0.46875,0.40625 0.70312,1.0781 0.70312,2.0156 z"
         id="path11"
         inkscape:connector-curvature="0" />
    </symbol>
    <symbol
       id="d"
       overflow="visible"
       style="overflow:visible">
      <path
         d="m 2.9219,-7.4688 v 1.6562 h 1.9219 v 1.3281 H 2.9219 v 2.4688 c 0,0.27344 0.050781,0.45312 0.15625,0.54688 0.11328,0.09375 0.32812,0.14062 0.64062,0.14062 h 0.96875 v 1.3281 h -1.5938 c -0.74219,0 -1.2656,-0.14844 -1.5781,-0.45312 C 1.21093,-0.76572 1.0625,-1.28525 1.0625,-2.01572 v -2.4688 H 0.14062 v -1.3281 H 1.0625 v -1.6562 z"
         id="path14"
         inkscape:connector-curvature="0" />
    </symbol>
    <symbol
       id="g"
       overflow="visible"
       style="overflow:visible">
      <path
         d="M 4.8594,-4.9688 V -8.0782 H 6.7188 V -1e-4 H 4.8594 V -0.84385 C 4.59768,-0.5001 4.31252,-0.24229 4.00002,-0.07823 3.69533,0.07802 3.34377,0.15615 2.93752,0.15615 c -0.71875,0 -1.3086,-0.28516 -1.7656,-0.85938 -0.46094,-0.57031 -0.6875,-1.3047 -0.6875,-2.2031 0,-0.89453 0.22656,-1.625 0.6875,-2.1875 0.45703,-0.57031 1.0469,-0.85938 1.7656,-0.85938 0.39453,0 0.75,0.085937 1.0625,0.25 0.3125,0.15625 0.59766,0.40234 0.85938,0.73438 z M 3.625,-1.2032 c 0.39453,0 0.69531,-0.14453 0.90625,-0.4375 0.21875,-0.28906 0.32812,-0.71094 0.32812,-1.2656 0,-0.55078 -0.10938,-0.97266 -0.32812,-1.2656 C 4.32031,-4.46096 4.01953,-4.6094 3.625,-4.6094 c -0.39844,0 -0.69922,0.14844 -0.90625,0.4375 -0.21094,0.29297 -0.3125,0.71484 -0.3125,1.2656 0,0.55469 0.10156,0.97656 0.3125,1.2656 0.20703,0.29297 0.50781,0.4375 0.90625,0.4375 z"
         id="path17"
         inkscape:connector-curvature="0" />
    </symbol>
    <symbol
       id="j"
       overflow="visible"
       style="overflow:visible">
      <path
         d="m 3.9844,-1.2031 c 0.40625,0 0.71094,-0.14453 0.92188,-0.4375 0.20703,-0.28906 0.3125,-0.71094 0.3125,-1.2656 0,-0.55078 -0.10547,-0.97266 -0.3125,-1.2656 -0.21094,-0.28906 -0.51562,-0.4375 -0.92188,-0.4375 -0.39844,0 -0.70312,0.14844 -0.92188,0.4375 -0.21094,0.29297 -0.3125,0.71484 -0.3125,1.2656 0,0.55469 0.10156,0.97656 0.3125,1.2656 0.21875,0.29297 0.52344,0.4375 0.92188,0.4375 z M 2.75,-4.9687 c 0.25781,-0.33203 0.54688,-0.57812 0.85938,-0.73438 0.3125,-0.16406 0.67188,-0.25 1.0781,-0.25 0.70703,0 1.2891,0.28906 1.75,0.85938 0.46875,0.5625 0.70312,1.293 0.70312,2.1875 0,0.89844 -0.23438,1.6328 -0.70312,2.2031 -0.46094,0.57422 -1.043,0.85938 -1.75,0.85938 -0.40625,0 -0.76562,-0.078125 -1.0781,-0.23438 C 3.29688,-0.24216 3.00782,-0.49998 2.75,-0.84372 V 3e-5 H 0.8906 v -8.0781 H 2.75 Z"
         id="path20"
         inkscape:connector-curvature="0" />
    </symbol>
    <symbol
       id="i"
       overflow="visible"
       style="overflow:visible">
      <path
         d="M 0.125,-5.8125 H 1.9844 L 3.5469,-1.875 4.8907,-5.8125 H 6.7501 L 4.297,0.5469 C 4.047,1.19143 3.75794,1.6446 3.43762,1.9063 3.1134,2.16411 2.67981,2.29692 2.14072,2.29692 h -1.0781 v -1.2188 h 0.57812 c 0.32031,0 0.55078,-0.054687 0.6875,-0.15625 C 2.47277,0.82812 2.58605,0.64843 2.67199,0.39062 L 2.718865,0.21874 Z"
         id="path23"
         inkscape:connector-curvature="0" />
    </symbol>
    <symbol
       id="h"
       overflow="visible"
       style="overflow:visible">
      <path
         d="m 0.98438,-7.75 h 2 v 6.2344 h 3.5 V 0 h -5.5 z"
         id="path26"
         inkscape:connector-curvature="0" />
    </symbol>
    <symbol
       id="c"
       overflow="visible"
       style="overflow:visible">
      <path
         d="m 3.6562,-4.625 c -0.40625,0 -0.71875,0.15234 -0.9375,0.45312 -0.21875,0.29297 -0.32812,0.71484 -0.32812,1.2656 0,0.5625 0.10938,0.99609 0.32812,1.2969 0.21875,0.29297 0.53125,0.4375 0.9375,0.4375 0.40625,0 0.71875,-0.14453 0.9375,-0.4375 0.21875,-0.30078 0.32812,-0.73438 0.32812,-1.2969 0,-0.55078 -0.10938,-0.97266 -0.32812,-1.2656 C 4.37495,-4.47266 4.06245,-4.625 3.6562,-4.625 Z m 0,-1.3281 c 1.0078,0 1.7969,0.27344 2.3594,0.8125 0.5625,0.53125 0.84375,1.2773 0.84375,2.2344 0,0.96094 -0.28125,1.7109 -0.84375,2.25 -0.5625,0.54297 -1.3516,0.8125 -2.3594,0.8125 -1,0 -1.7891,-0.26953 -2.3594,-0.8125 -0.5625,-0.53906 -0.84375,-1.2891 -0.84375,-2.25 0,-0.95703 0.28125,-1.7031 0.84375,-2.2344 0.57031,-0.53906 1.3594,-0.8125 2.3594,-0.8125 z"
         id="path29"
         inkscape:connector-curvature="0" />
    </symbol>
    <symbol
       id="f"
       overflow="visible"
       style="overflow:visible">
      <path
         d="M 6.75,-3.5469 V 0 H 4.875 v -2.7188 c 0,-0.5 -0.011719,-0.84375 -0.03125,-1.0312 -0.023438,-0.1875 -0.0625,-0.32812 -0.125,-0.42188 -0.074219,-0.125 -0.17188,-0.21875 -0.29688,-0.28125 -0.125,-0.070313 -0.26562,-0.10938 -0.42188,-0.10938 -0.38672,0 -0.69531,0.15234 -0.92188,0.45312 -0.21875,0.30469 -0.32812,0.71875 -0.32812,1.25 V 1e-5 h -1.8594 v -5.8125 h 1.8594 v 0.84375 c 0.28125,-0.33203 0.57812,-0.57812 0.89062,-0.73438 0.32031,-0.16406 0.67188,-0.25 1.0469,-0.25 0.67578,0 1.1875,0.21094 1.5312,0.625 0.35156,0.40625 0.53125,1 0.53125,1.7812 z"
         id="path32"
         inkscape:connector-curvature="0" />
    </symbol>
    <symbol
       id="s"
       overflow="visible"
       style="overflow:visible">
      <path
         d="m 7.9531,-0.57812 c -0.5,0.24219 -1.0234,0.42188 -1.5625,0.54688 -0.53125,0.125 -1.0859,0.1875 -1.6562,0.1875 -1.293,0 -2.3203,-0.35938 -3.0781,-1.0781 -0.75,-0.72656 -1.125,-1.7109 -1.125,-2.9531 0,-1.25 0.38281,-2.2266 1.1562,-2.9375 0.76953,-0.71875 1.8203,-1.0781 3.1562,-1.0781 0.50781,0 1,0.046875 1.4688,0.14062 0.47656,0.09375 0.92578,0.23438 1.3438,0.42188 v 1.6094 C 7.22661,-5.95692 6.80083,-6.14052 6.3751,-6.26552 c -0.42969,-0.125 -0.85547,-0.1875 -1.2812,-0.1875 -0.80469,0 -1.4219,0.22656 -1.8594,0.67188 -0.42969,0.44922 -0.64062,1.0859 -0.64062,1.9062 0,0.82422 0.20703,1.4609 0.625,1.9062 0.41406,0.44922 1.0078,0.67188 1.7812,0.67188 0.20703,0 0.39844,-0.00781 0.57812,-0.03125 0.17578,-0.03125 0.33203,-0.070313 0.46875,-0.125 v -1.5156 h -1.2188 v -1.3438 h 3.125 z"
         id="path35"
         inkscape:connector-curvature="0" />
    </symbol>
    <symbol
       id="r"
       overflow="visible"
       style="overflow:visible">
      <path
         d="m 4.7188,-8.0781 v 1.2188 H 3.6876 c -0.26172,0 -0.44531,0.046875 -0.54688,0.14062 -0.10547,0.09375 -0.15625,0.26172 -0.15625,0.5 v 0.40625 h 1.5938 v 1.3281 H 2.98447 V 7e-5 h -1.8594 v -4.4844 H 0.20319 v -1.3281 h 0.92188 v -0.40625 c 0,-0.63281 0.17578,-1.1016 0.53125,-1.4062 C 2.00788,-7.92566 2.55476,-8.078 3.29692,-8.078 Z"
         id="path38"
         inkscape:connector-curvature="0" />
    </symbol>
    <symbol
       id="q"
       overflow="visible"
       style="overflow:visible">
      <path
         d="m 6.2812,-4.8594 c 0.23828,-0.35156 0.51953,-0.625 0.84375,-0.8125 0.32031,-0.1875 0.67578,-0.28125 1.0625,-0.28125 0.67578,0 1.1875,0.21094 1.5312,0.625 0.35156,0.40625 0.53125,1 0.53125,1.7812 V -5e-5 h -1.875 v -3.0312 -0.14062 c 0.00781,-0.050781 0.015625,-0.11719 0.015625,-0.20312 0,-0.41406 -0.0625,-0.71875 -0.1875,-0.90625 -0.125,-0.1875 -0.32422,-0.28125 -0.59375,-0.28125 -0.34375,0 -0.61719,0.14844 -0.8125,0.4375 -0.1875,0.29297 -0.28906,0.71484 -0.29688,1.2656 V 1e-5 h -1.875 v -3.0312 c 0,-0.64453 -0.058594,-1.0625 -0.17188,-1.25 -0.10547,-0.1875 -0.29688,-0.28125 -0.57812,-0.28125 -0.36719,0 -0.64844,0.15234 -0.84375,0.45312 -0.1875,0.29297 -0.28125,0.71094 -0.28125,1.25 V 8e-5 h -1.8594 v -5.8125 h 1.8594 v 0.84375 c 0.22656,-0.32031 0.48828,-0.56641 0.78125,-0.73438 0.30078,-0.16406 0.62891,-0.25 0.98438,-0.25 0.40625,0 0.75781,0.10156 1.0625,0.29688 0.3125,0.1875 0.54688,0.45312 0.70312,0.79688 z"
         id="path41"
         inkscape:connector-curvature="0" />
    </symbol>
    <symbol
       id="p"
       overflow="visible"
       style="overflow:visible">
      <path
         d="M 6.75,-3.5469 V 0 H 4.875 v -2.7031 c 0,-0.50781 -0.011719,-0.85938 -0.03125,-1.0469 -0.023438,-0.1875 -0.0625,-0.32812 -0.125,-0.42188 -0.074219,-0.125 -0.17188,-0.21875 -0.29688,-0.28125 -0.125,-0.070313 -0.26562,-0.10938 -0.42188,-0.10938 -0.38672,0 -0.69531,0.15234 -0.92188,0.45312 -0.21875,0.30469 -0.32812,0.71875 -0.32812,1.25 V 1e-5 h -1.8594 v -8.0781 h 1.8594 v 3.1094 c 0.28125,-0.33203 0.57812,-0.57812 0.89062,-0.73438 0.32031,-0.16406 0.67188,-0.25 1.0469,-0.25 0.67578,0 1.1875,0.21094 1.5312,0.625 0.35156,0.40625 0.53125,1 0.53125,1.7812 z"
         id="path44"
         inkscape:connector-curvature="0" />
    </symbol>
    <symbol
       id="o"
       overflow="visible"
       style="overflow:visible">
      <path
         d="m 0.98438,-7.75 h 2.2188 l 2.8281,5.3125 V -7.75 h 1.8906 V 0 H 5.68748 L 2.87498,-5.3281 V 0 h -1.8906 z"
         id="path47"
         inkscape:connector-curvature="0" />
    </symbol>
    <symbol
       id="n"
       overflow="visible"
       style="overflow:visible">
      <path
         d="m 0.82812,-2.2656 v -3.5469 h 1.875 v 0.57812 c 0,0.3125 -0.00781,0.71094 -0.015625,1.1875 v 0.95312 c 0,0.46875 0.00781,0.80859 0.03125,1.0156 0.03125,0.19922 0.078125,0.34375 0.14062,0.4375 0.070313,0.125 0.16406,0.22656 0.28125,0.29688 0.125,0.0625 0.26953,0.09375 0.4375,0.09375 0.38281,0 0.6875,-0.14844 0.90625,-0.45312 0.22656,-0.30078 0.34375,-0.71875 0.34375,-1.25 v -2.8594 h 1.8594 V -5e-5 h -1.8594 V -0.8438 c -0.28125,0.34375 -0.58594,0.60156 -0.90625,0.76562 -0.3125,0.15625 -0.65625,0.23438 -1.0312,0.23438 -0.66797,0 -1.1797,-0.20312 -1.5312,-0.60938 -0.35547,-0.41406 -0.53125,-1.0195 -0.53125,-1.8125 z"
         id="path50"
         inkscape:connector-curvature="0" />
    </symbol>
    <symbol
       id="m"
       overflow="visible"
       style="overflow:visible">
      <path
         d="m 0.98438,-7.75 h 3.3125 c 0.98828,0 1.7422,0.21875 2.2656,0.65625 0.53125,0.4375 0.79688,1.0586 0.79688,1.8594 0,0.82422 -0.26562,1.4531 -0.79688,1.8906 -0.52344,0.4375 -1.2773,0.65625 -2.2656,0.65625 H 2.98438 V 0 h -2 z m 2,1.4375 v 2.1719 h 1.0938 c 0.39453,0 0.69531,-0.09375 0.90625,-0.28125 0.20703,-0.1875 0.3125,-0.45703 0.3125,-0.8125 0,-0.34375 -0.10547,-0.60938 -0.3125,-0.79688 -0.21094,-0.1875 -0.51172,-0.28125 -0.90625,-0.28125 z"
         id="path53"
         inkscape:connector-curvature="0" />
    </symbol>
    <symbol
       id="l"
       overflow="visible"
       style="overflow:visible">
      <path
         d="m 0.89062,-5.8125 h 1.8594 v 5.7031 c 0,0.78125 -0.1875,1.375 -0.5625,1.7812 -0.375,0.41406 -0.91797,0.625 -1.625,0.625 H -0.35936 V 1.078 h 0.32812 c 0.35156,0 0.59375,-0.085937 0.71875,-0.25 0.13281,-0.15625 0.20312,-0.46875 0.20312,-0.9375 z m 0,-2.2656 h 1.8594 v 1.5156 h -1.8594 z"
         id="path56"
         inkscape:connector-curvature="0" />
    </symbol>
    <symbol
       id="k"
       overflow="visible"
       style="overflow:visible">
      <path
         d="M 5.5938,-5.6406 V -4.125 C 5.3438,-4.28906 5.08599,-4.41406 4.82818,-4.5 c -0.25,-0.082031 -0.51172,-0.125 -0.78125,-0.125 -0.52344,0 -0.92969,0.15234 -1.2188,0.45312 -0.29297,0.30469 -0.4375,0.72656 -0.4375,1.2656 0,0.54297 0.14453,0.96875 0.4375,1.2812 0.28906,0.30469 0.69531,0.45312 1.2188,0.45312 0.28906,0 0.56641,-0.039063 0.82812,-0.125 0.25781,-0.09375 0.5,-0.22266 0.71875,-0.39062 v 1.5156 C 5.30083,-0.06651 5.00396,0.00771 4.70318,0.0624 4.41021,0.1249 4.11334,0.15615 3.81256,0.15615 c -1.0547,0 -1.875,-0.26953 -2.4688,-0.8125 -0.59375,-0.53906 -0.89062,-1.2891 -0.89062,-2.25 0,-0.95703 0.29688,-1.7031 0.89062,-2.2344 0.59375,-0.53906 1.4141,-0.8125 2.4688,-0.8125 0.30078,0 0.59766,0.027344 0.89062,0.078125 0.30078,0.054688 0.59766,0.13281 0.89062,0.23438 z"
         id="path59"
         inkscape:connector-curvature="0" />
    </symbol>
  </defs>
  <g
     id="g144"
     transform="translate(0,-624.99998)">
    <path
       d="m 62.966138,659.03229 c -1.675764,-13.74318 -13.072862,-24.13452 -26.815412,-24.13452 -15.083632,0 -27.1507258,12.40256 -27.1507258,27.15074 0,15.08362 12.0667788,27.15072 27.1507258,27.15072 6.033704,0 6.033704,-9.05055 0,-9.05055 -10.056017,0 -18.100484,-8.04463 -18.100484,-18.10049 0,-9.72086 8.044624,-17.76518 18.100484,-17.76518 8.714772,0 16.090189,6.36887 17.429857,14.74864 h -5.027768 l 10.056018,12.73772 10.391169,-12.73772 z"
       id="path66"
       inkscape:connector-curvature="0"
       style="fill:#525252;fill-opacity:1;fill-rule:evenodd;stroke:none;stroke-width:0.15742289;stroke-opacity:1" />
  </g>
</svg>
