<?xml version="1.0" encoding="UTF-8" standalone="no"?>
<svg
   xmlns:dc="http://purl.org/dc/elements/1.1/"
   xmlns:cc="http://creativecommons.org/ns#"
   xmlns:rdf="http://www.w3.org/1999/02/22-rdf-syntax-ns#"
   xmlns:svg="http://www.w3.org/2000/svg"
   xmlns="http://www.w3.org/2000/svg"
   xmlns:sodipodi="http://sodipodi.sourceforge.net/DTD/sodipodi-0.dtd"
   xmlns:inkscape="http://www.inkscape.org/namespaces/inkscape"
   width="330"
   height="100"
   version="1.1"
   viewBox="0 0 247.5 75.000002"
   id="svg174"
   sodipodi:docname="spinner.svg"
   inkscape:version="0.92.4 (5da689c313, 2019-01-14)">
  <metadata
     id="metadata178">
    <rdf:RDF>
      <cc:Work
         rdf:about="">
        <dc:format>image/svg+xml</dc:format>
        <dc:type
           rdf:resource="http://purl.org/dc/dcmitype/StillImage" />
        <dc:title></dc:title>
      </cc:Work>
    </rdf:RDF>
  </metadata>
  <sodipodi:namedview
     pagecolor="#ffffff"
     bordercolor="#666666"
     borderopacity="1"
     objecttolerance="10"
     gridtolerance="10"
     guidetolerance="10"
     inkscape:pageopacity="0"
     inkscape:pageshadow="2"
     inkscape:window-width="1366"
     inkscape:window-height="703"
     id="namedview176"
     showgrid="false"
     units="px"
     inkscape:zoom="2.860752"
     inkscape:cx="128.79089"
     inkscape:cy="57.249723"
     inkscape:window-x="0"
     inkscape:window-y="0"
     inkscape:window-maximized="1"
     inkscape:current-layer="g2082" />
  <defs
     id="defs68">
    <symbol
       id="v"
       overflow="visible"
       style="overflow:visible">
      <path
         d="m 20.828,-1.25 c -1.0742,0.5625 -2.1953,0.98438 -3.3594,1.2656 -1.1562,0.28125 -2.3711,0.42188 -3.6406,0.42188 -3.7734,0 -6.7617,-1.0508 -8.9688,-3.1562 -2.2109,-2.1133 -3.3125,-4.9766 -3.3125,-8.5938 0,-3.625 1.1016,-6.4883 3.3125,-8.5938 2.207,-2.1133 5.1953,-3.1719 8.9688,-3.1719 1.2695,0 2.4844,0.14062 3.6406,0.42188 1.1641,0.28125 2.2852,0.70312 3.3594,1.2656 v 4.6875 c -1.0859,-0.73828 -2.1523,-1.2812 -3.2031,-1.625 -1.0547,-0.34375 -2.1641,-0.51562 -3.3281,-0.51562 -2.0859,0 -3.7266,0.67188 -4.9219,2.0156 -1.1875,1.3359 -1.7812,3.1719 -1.7812,5.5156 0,2.3437 0.59375,4.1836 1.7812,5.5156 1.1953,1.3359 2.8359,2 4.9219,2 1.1641,0 2.2734,-0.17188 3.3281,-0.51562 1.0508,-0.34375 2.1172,-0.88281 3.2031,-1.625 z"
         id="path2"
         inkscape:connector-curvature="0" />
    </symbol>
    <symbol
       id="d"
       overflow="visible"
       style="overflow:visible">
      <path
         d="m 15.25,-12.375 c -0.48047,-0.21875 -0.95312,-0.37891 -1.4219,-0.48438 -0.46875,-0.11328 -0.94531,-0.17188 -1.4219,-0.17188 -1.3984,0 -2.4766,0.44922 -3.2344,1.3438 -0.75,0.89844 -1.125,2.1836 -1.125,3.8594 V 4e-5 H 2.6093 v -17 h 5.4375 v 2.7969 c 0.69531,-1.1133 1.5,-1.9258 2.4062,-2.4375 0.90625,-0.51953 1.9883,-0.78125 3.25,-0.78125 0.1875,0 0.38281,0.01172 0.59375,0.03125 0.21875,0.01172 0.53125,0.04297 0.9375,0.09375 z"
         id="path5"
         inkscape:connector-curvature="0" />
    </symbol>
    <symbol
       id="b"
       overflow="visible"
       style="overflow:visible">
      <path
         d="M 19.578,-8.5469 V -7 H 6.875 c 0.13281,1.2734 0.59375,2.2305 1.375,2.875 0.78906,0.63672 1.8945,0.95312 3.3125,0.95312 1.1445,0 2.3164,-0.16406 3.5156,-0.5 1.207,-0.34375 2.4414,-0.85938 3.7031,-1.5469 v 4.1875 c -1.2812,0.49219 -2.5703,0.85547 -3.8594,1.0938 -1.2812,0.25 -2.5703,0.375 -3.8594,0.375 -3.0742,0 -5.4648,-0.78125 -7.1719,-2.3438 -1.6992,-1.5625 -2.5469,-3.7539 -2.5469,-6.5781 0,-2.7695 0.83203,-4.9531 2.5,-6.5469 1.6758,-1.5938 3.9844,-2.3906 6.9219,-2.3906 2.6641,0 4.8008,0.80859 6.4062,2.4219 1.6016,1.6055 2.4062,3.7578 2.4062,6.4531 z m -5.5781,-1.8125 c 0,-1.0312 -0.30469,-1.8594 -0.90625,-2.4844 -0.60547,-0.63281 -1.3906,-0.95312 -2.3594,-0.95312 -1.0547,0 -1.9062,0.29688 -2.5625,0.89062 -0.65625,0.58594 -1.0703,1.4336 -1.2344,2.5469 z"
         id="path8"
         inkscape:connector-curvature="0" />
    </symbol>
    <symbol
       id="a"
       overflow="visible"
       style="overflow:visible">
      <path
         d="m 10.234,-7.6562 c -1.1367,0 -1.9922,0.19531 -2.5625,0.57812 -0.57422,0.38672 -0.85938,0.95312 -0.85938,1.7031 0,0.6875 0.22656,1.2305 0.6875,1.625 0.46875,0.38672 1.1094,0.57812 1.9219,0.57812 1.0312,0 1.8945,-0.36328 2.5938,-1.0938 0.69531,-0.73828 1.0469,-1.6602 1.0469,-2.7656 v -0.625 z m 8.2969,-2.0469 V 0 h -5.4688 v -2.5156 c -0.73047,1.0312 -1.5547,1.7812 -2.4688,2.25 -0.90625,0.46875 -2.0156,0.70312 -3.3281,0.70312 -1.7617,0 -3.1875,-0.50781 -4.2812,-1.5312 -1.0938,-1.0312 -1.6406,-2.3633 -1.6406,-4 0,-2 0.67969,-3.4609 2.0469,-4.3906 1.375,-0.9375 3.5312,-1.4062 6.4688,-1.4062 h 3.2031 v -0.42188 c 0,-0.85156 -0.34375,-1.4766 -1.0312,-1.875 -0.67969,-0.40625 -1.7344,-0.60938 -3.1719,-0.60938 -1.1562,0 -2.2422,0.11719 -3.25,0.34375 -1,0.23047 -1.9297,0.57812 -2.7812,1.0469 v -4.1406 c 1.1562,-0.28125 2.3203,-0.49219 3.5,-0.64062 1.1758,-0.15625 2.3516,-0.23438 3.5312,-0.23438 3.0625,0 5.2695,0.60938 6.625,1.8281 1.3633,1.2109 2.0469,3.1719 2.0469,5.8906 z"
         id="path11"
         inkscape:connector-curvature="0" />
    </symbol>
    <symbol
       id="c"
       overflow="visible"
       style="overflow:visible">
      <path
         d="m 8.5469,-21.828 v 4.8281 h 5.6094 v 3.875 H 8.5469 v 7.2188 c 0,0.79297 0.15625,1.3281 0.46875,1.6094 0.3125,0.27344 0.9375,0.40625 1.875,0.40625 h 2.7812 v 3.8906 h -4.6562 c -2.1484,0 -3.668,-0.44531 -4.5625,-1.3438 -0.89844,-0.89453 -1.3438,-2.4141 -1.3438,-4.5625 v -7.2188 h -2.7031 v -3.875 h 2.7031 v -4.8281 z"
         id="path14"
         inkscape:connector-curvature="0" />
    </symbol>
    <symbol
       id="l"
       overflow="visible"
       style="overflow:visible">
      <path
         d="m 14.188,-14.516 v -9.1094 h 5.4531 V -4e-4 H 14.188 v -2.4531 c -0.75,1 -1.5781,1.7344 -2.4844,2.2031 -0.89844,0.45703 -1.9375,0.6875 -3.125,0.6875 -2.0938,0 -3.8203,-0.83203 -5.1719,-2.5 -1.3438,-1.6641 -2.0156,-3.8047 -2.0156,-6.4219 0,-2.625 0.67188,-4.7695 2.0156,-6.4375 1.3516,-1.6641 3.0781,-2.5 5.1719,-2.5 1.1758,0 2.2188,0.24219 3.125,0.71875 0.90625,0.46875 1.7344,1.1992 2.4844,2.1875 z M 10.5942,-3.5 c 1.1641,0 2.0547,-0.42578 2.6719,-1.2812 0.61328,-0.85156 0.92188,-2.0859 0.92188,-3.7031 0,-1.625 -0.30859,-2.8594 -0.92188,-3.7031 -0.61719,-0.85156 -1.5078,-1.2812 -2.6719,-1.2812 -1.1562,0 -2.043,0.42969 -2.6562,1.2812 -0.60547,0.84375 -0.90625,2.0781 -0.90625,3.7031 0,1.6172 0.30078,2.8516 0.90625,3.7031 0.61328,0.85547 1.5,1.2812 2.6562,1.2812 z"
         id="path17"
         inkscape:connector-curvature="0" />
    </symbol>
    <symbol
       id="k"
       overflow="visible"
       style="overflow:visible">
      <path
         d="m 11.656,-3.5 c 1.1641,0 2.0547,-0.42578 2.6719,-1.2812 0.61328,-0.85156 0.92188,-2.0859 0.92188,-3.7031 0,-1.625 -0.30859,-2.8594 -0.92188,-3.7031 -0.61719,-0.85156 -1.5078,-1.2812 -2.6719,-1.2812 -1.1562,0 -2.0469,0.42969 -2.6719,1.2812 -0.625,0.85547 -0.9375,2.0898 -0.9375,3.7031 0,1.6055 0.3125,2.8398 0.9375,3.7031 0.625,0.85547 1.5156,1.2812 2.6719,1.2812 z M 8.0466,-14.516 c 0.75,-0.98828 1.5781,-1.7188 2.4844,-2.1875 0.91406,-0.47656 1.9609,-0.71875 3.1406,-0.71875 2.1016,0 3.8281,0.83594 5.1719,2.5 1.3438,1.668 2.0156,3.8125 2.0156,6.4375 0,2.6172 -0.67188,4.7578 -2.0156,6.4219 -1.3438,1.668 -3.0703,2.5 -5.1719,2.5 -1.1797,0 -2.2266,-0.23438 -3.1406,-0.70312 -0.90625,-0.46875 -1.7344,-1.1953 -2.4844,-2.1875 v 2.4531 H 2.6091 v -23.625 h 5.4375 z"
         id="path20"
         inkscape:connector-curvature="0" />
    </symbol>
    <symbol
       id="f"
       overflow="visible"
       style="overflow:visible">
      <path
         d="M 0.375,-17 H 5.8125 L 10.3906,-5.469 14.2656,-17 h 5.4375 L 12.5625,1.609 C 11.84375,3.5035 11.0039,4.8278 10.0469,5.5778 9.08596,6.3278 7.8203,6.7028 6.25,6.7028 H 3.1094 V 3.1403 h 1.7031 c 0.91406,0 1.582,-0.14844 2,-0.4375 C 7.23828,2.40983 7.56641,1.88249 7.79688,1.1247 L 7.95313,0.65595 Z"
         id="path23"
         inkscape:connector-curvature="0" />
    </symbol>
    <symbol
       id="j"
       overflow="visible"
       style="overflow:visible">
      <path
         d="m 2.8594,-22.672 h 5.8438 v 8.2812 l 8.4219,-8.2812 h 6.7812 L 13.0003,-11.938 25.0313,0 H 17.7188 L 8.7032,-8.9219 V 0 H 2.8594 Z"
         id="path26"
         inkscape:connector-curvature="0" />
    </symbol>
    <symbol
       id="i"
       overflow="visible"
       style="overflow:visible">
      <path
         d="M 2.6094,-23.625 H 8.0469 V 0 H 2.6094 Z"
         id="path29"
         inkscape:connector-curvature="0" />
    </symbol>
    <symbol
       id="u"
       overflow="visible"
       style="overflow:visible">
      <path
         d="m 0.15625,-22.672 h 5.875 l 6.0156,16.734 5.9844,-16.734 h 5.875 L 15.51565,0 h -6.9688 z"
         id="path32"
         inkscape:connector-curvature="0" />
    </symbol>
    <symbol
       id="h"
       overflow="visible"
       style="overflow:visible">
      <path
         d="M 19.703,-10.359 V 0 h -5.4688 v -7.9219 c 0,-1.4688 -0.03125,-2.4766 -0.09375,-3.0312 -0.0625,-0.5625 -0.17969,-0.97266 -0.34375,-1.2344 -0.21094,-0.35156 -0.49609,-0.62891 -0.85938,-0.82812 -0.36719,-0.19531 -0.78125,-0.29688 -1.25,-0.29688 -1.1367,0 -2.0273,0.4375 -2.6719,1.3125 -0.64844,0.875 -0.96875,2.0898 -0.96875,3.6406 V 0 h -5.4375 v -17 h 5.4375 v 2.4844 c 0.82031,-0.98828 1.6914,-1.7188 2.6094,-2.1875 0.92578,-0.47656 1.9414,-0.71875 3.0469,-0.71875 1.9688,0 3.457,0.60547 4.4688,1.8125 1.0195,1.2109 1.5312,2.9609 1.5312,5.25 z"
         id="path35"
         inkscape:connector-curvature="0" />
    </symbol>
    <symbol
       id="g"
       overflow="visible"
       style="overflow:visible">
      <path
         d="m 16.344,-16.469 v 4.4219 c -0.73047,-0.5 -1.4688,-0.86719 -2.2188,-1.1094 -0.74219,-0.25 -1.5117,-0.375 -2.3125,-0.375 -1.5234,0 -2.7031,0.44531 -3.5469,1.3281 -0.84375,0.88672 -1.2656,2.125 -1.2656,3.7188 0,1.5859 0.42188,2.8203 1.2656,3.7031 0.84375,0.88672 2.0234,1.3281 3.5469,1.3281 0.85156,0 1.6602,-0.125 2.4219,-0.375 0.75781,-0.25 1.4609,-0.625 2.1094,-1.125 v 4.4531 C 15.50025,-0.1878 14.6409,0.04658 13.7659,0.20282 12.8909,0.35906 12.0081,0.4372 11.1253,0.4372 8.0628,0.4372 5.6644,-0.34796 3.9378,-1.9222 2.2073,-3.4925 1.344,-5.68 1.344,-8.4847 c 0,-2.8008 0.86328,-4.9883 2.5938,-6.5625 1.7266,-1.582 4.125,-2.375 7.1875,-2.375 0.89453,0 1.7734,0.08594 2.6406,0.25 0.86328,0.15625 1.7227,0.39062 2.5781,0.70312 z"
         id="path38"
         inkscape:connector-curvature="0" />
    </symbol>
    <symbol
       id="t"
       overflow="visible"
       style="overflow:visible">
      <path
         d="M 2.6094,-17 H 8.0469 V 0 H 2.6094 Z m 0,-6.625 h 5.4375 v 4.4375 H 2.6094 Z"
         id="path41"
         inkscape:connector-curvature="0" />
    </symbol>
    <symbol
       id="s"
       overflow="visible"
       style="overflow:visible">
      <path
         d="m 13.797,-23.625 v 3.5625 h -3 c -0.77344,0 -1.3086,0.14062 -1.6094,0.42188 -0.30469,0.28125 -0.45312,0.76562 -0.45312,1.4531 v 1.1875 h 4.6406 v 3.875 H 8.73448 V -2e-5 h -5.4375 v -13.125 h -2.7031 v -3.875 h 2.7031 v -1.1875 c 0,-1.8516 0.51562,-3.2227 1.5469,-4.1094 1.0312,-0.88281 2.6289,-1.3281 4.7969,-1.3281 z"
         id="path44"
         inkscape:connector-curvature="0" />
    </symbol>
    <symbol
       id="e"
       overflow="visible"
       style="overflow:visible">
      <path
         d="m 10.703,-13.531 c -1.2109,0 -2.1328,0.43359 -2.7656,1.2969 -0.625,0.86719 -0.9375,2.1172 -0.9375,3.75 0,1.625 0.3125,2.8711 0.9375,3.7344 0.63281,0.86719 1.5547,1.2969 2.7656,1.2969 1.1875,0 2.0938,-0.42969 2.7188,-1.2969 0.625,-0.86328 0.9375,-2.1094 0.9375,-3.7344 0,-1.6328 -0.3125,-2.8828 -0.9375,-3.75 -0.625,-0.86328 -1.5312,-1.2969 -2.7188,-1.2969 z m 0,-3.8906 c 2.9258,0 5.2109,0.79297 6.8594,2.375 1.6445,1.5859 2.4688,3.7734 2.4688,6.5625 0,2.793 -0.82422,4.9805 -2.4688,6.5625 -1.6484,1.5742 -3.9336,2.3594 -6.8594,2.3594 -2.9375,0 -5.2344,-0.78516 -6.8906,-2.3594 -1.6484,-1.582 -2.4688,-3.7695 -2.4688,-6.5625 0,-2.7891 0.82031,-4.9766 2.4688,-6.5625 1.6562,-1.582 3.9531,-2.375 6.8906,-2.375 z"
         id="path47"
         inkscape:connector-curvature="0" />
    </symbol>
    <symbol
       id="r"
       overflow="visible"
       style="overflow:visible">
      <path
         d="m 18.375,-14.188 c 0.6875,-1.0508 1.5039,-1.8516 2.4531,-2.4062 0.94531,-0.55078 1.9844,-0.82812 3.1094,-0.82812 1.957,0 3.4453,0.60547 4.4688,1.8125 1.0195,1.2109 1.5312,2.9609 1.5312,5.25 v 10.359 h -5.4688 v -8.8594 c 0.0078,-0.13281 0.01563,-0.26953 0.01563,-0.40625 0.0078,-0.14453 0.01563,-0.35156 0.01563,-0.625 0,-1.1953 -0.17969,-2.0664 -0.53125,-2.6094 -0.35547,-0.53906 -0.92969,-0.8125 -1.7188,-0.8125 -1.0312,0 -1.8281,0.42969 -2.3906,1.2812 -0.55469,0.84375 -0.83984,2.0742 -0.85938,3.6875 v 8.3438 h -5.4688 v -8.8594 c 0,-1.8828 -0.16406,-3.0977 -0.48438,-3.6406 -0.32422,-0.53906 -0.90234,-0.8125 -1.7344,-0.8125 -1.043,0 -1.8516,0.42969 -2.4219,1.2812 -0.5625,0.85547 -0.84375,2.0781 -0.84375,3.6719 v 8.3594 H 2.5779 v -17 h 5.4688 v 2.4844 c 0.66406,-0.95703 1.4297,-1.6797 2.2969,-2.1719 0.86328,-0.48828 1.8164,-0.73438 2.8594,-0.73438 1.1758,0 2.2109,0.28906 3.1094,0.85938 0.90625,0.5625 1.5938,1.3555 2.0625,2.375 z"
         id="path50"
         inkscape:connector-curvature="0" />
    </symbol>
    <symbol
       id="q"
       overflow="visible"
       style="overflow:visible">
      <path
         d="M 19.703,-10.359 V 0 h -5.4688 v -7.8906 c 0,-1.4883 -0.03125,-2.5078 -0.09375,-3.0625 -0.0625,-0.5625 -0.17969,-0.97266 -0.34375,-1.2344 -0.21094,-0.35156 -0.49609,-0.62891 -0.85938,-0.82812 -0.36719,-0.19531 -0.78125,-0.29688 -1.25,-0.29688 -1.1367,0 -2.0273,0.4375 -2.6719,1.3125 -0.64844,0.875 -0.96875,2.0898 -0.96875,3.6406 V 0 h -5.4375 v -23.625 h 5.4375 v 9.1094 c 0.82031,-0.98828 1.6914,-1.7188 2.6094,-2.1875 0.92578,-0.47656 1.9414,-0.71875 3.0469,-0.71875 1.9688,0 3.457,0.60547 4.4688,1.8125 1.0195,1.2109 1.5312,2.9609 1.5312,5.25 z"
         id="path53"
         inkscape:connector-curvature="0" />
    </symbol>
    <symbol
       id="p"
       overflow="visible"
       style="overflow:visible">
      <path
         d="M 2.8594,-22.672 H 9.375 l 8.25,15.547 v -15.547 h 5.5469 V 0 h -6.5312 l -8.25,-15.547 V 0 H 2.8595 Z"
         id="path56"
         inkscape:connector-curvature="0" />
    </symbol>
    <symbol
       id="o"
       overflow="visible"
       style="overflow:visible">
      <path
         d="M 2.4219,-6.625 V -17 h 5.4688 v 1.7031 c 0,0.91797 -0.00781,2.0742 -0.015625,3.4688 -0.011719,1.3867 -0.015625,2.3125 -0.015625,2.7812 0,1.3672 0.035156,2.3516 0.10938,2.9531 0.070312,0.60547 0.19141,1.043 0.35938,1.3125 0.22656,0.35547 0.51953,0.63281 0.875,0.82812 0.36328,0.1875 0.78125,0.28125 1.25,0.28125 1.125,0 2.0078,-0.42969 2.6562,-1.2969 0.65625,-0.875 0.98438,-2.0859 0.98438,-3.6406 v -8.3906 h 5.4375 v 17 h -5.4375 v -2.4531 c -0.82422,0.99219 -1.6953,1.7188 -2.6094,2.1875 -0.91797,0.46875 -1.9297,0.70312 -3.0312,0.70312 -1.9609,0 -3.4531,-0.59766 -4.4844,-1.7969 -1.0312,-1.207 -1.5469,-2.9609 -1.5469,-5.2656 z"
         id="path59"
         inkscape:connector-curvature="0" />
    </symbol>
    <symbol
       id="n"
       overflow="visible"
       style="overflow:visible">
      <path
         d="m 2.8594,-22.672 h 9.7031 c 2.8828,0 5.0977,0.64062 6.6406,1.9219 1.5391,1.2812 2.3125,3.1055 2.3125,5.4688 0,2.3867 -0.77344,4.2188 -2.3125,5.5 -1.543,1.2812 -3.7578,1.9219 -6.6406,1.9219 H 8.7031 V 0 H 2.8593 Z m 5.8438,4.2344 v 6.3438 h 3.2344 c 1.1328,0 2.0078,-0.27344 2.625,-0.82812 0.61328,-0.55078 0.92188,-1.3359 0.92188,-2.3594 0,-1.0078 -0.30859,-1.7852 -0.92188,-2.3281 -0.61719,-0.55078 -1.4922,-0.82812 -2.625,-0.82812 z"
         id="path62"
         inkscape:connector-curvature="0" />
    </symbol>
    <symbol
       id="m"
       overflow="visible"
       style="overflow:visible">
      <path
         d="m 2.6094,-17 h 5.4375 v 16.703 c 0,2.2695 -0.54688,4.0039 -1.6406,5.2031 C 5.3125,6.1014 3.7266,6.703 1.6563,6.703 H -1.0312 V 3.1405 h 0.9375 c 1.0312,0 1.7383,-0.23438 2.125,-0.70312 0.38281,-0.46094 0.57812,-1.3711 0.57812,-2.7344 z m 0,-6.625 h 5.4375 v 4.4375 H 2.6094 Z"
         id="path65"
         inkscape:connector-curvature="0" />
    </symbol>
  </defs>
  <g
     id="g1257"
     transform="matrix(1.269017,0,0,1.269017,-22.441637,14.559902)">
    <g
       id="g2166">
      <g
         id="g2082">
        <g
           style="fill:#525252;fill-opacity:1"
           id="g1123"
           transform="matrix(0.47280691,0,0,0.47280691,-491.75528,-25.799888)">
          <path
             sodipodi:nodetypes="ssssssssssssssssssssssssssssssssssss"
             style="fill:#525252;fill-opacity:1;stroke-width:0.25111383"
             id="path67-7"
             d="m 1104.0425,35.927445 c -7.7904,0 -14.0623,6.27207 -14.0623,14.06238 0,7.790295 6.2719,14.062365 14.0623,14.062365 h 84.3743 c 7.7902,0 14.0623,-6.27207 14.0623,-14.062365 0,-7.79031 -6.2721,-14.06238 -14.0623,-14.06238 z m 7.83,6.699133 c 4.5213,0 8.1878,3.666544 8.1878,8.188 0,4.521426 -3.6665,8.187968 -8.1878,8.187968 -4.5215,0 -8.188,-3.66465 -8.188,-8.187968 0,-4.521312 3.6665,-8.188 8.188,-8.188 z m -7.8306,32.675268 c -7.7902,0 -14.0623,6.27207 -14.0623,14.062365 0,7.79031 6.2721,14.062379 14.0623,14.062379 h 84.3743 c 7.7904,0 14.0625,-6.272069 14.0625,-14.062379 0,-7.790295 -6.2721,-14.062365 -14.0625,-14.062365 z m 7.8304,5.89616 c 4.5216,0 8.1883,3.666543 8.1883,8.18797 0,4.521456 -3.6667,8.187998 -8.1883,8.187998 -4.5212,0 -8.1879,-3.664651 -8.1879,-8.187998 0,-4.521282 3.6667,-8.18797 8.1879,-8.18797 z m -7.8308,33.478244 c -7.7903,0 -14.0624,6.27206 -14.0624,14.06236 0,7.79031 6.2721,14.06238 14.0624,14.06238 h 84.3742 c 7.7903,0 14.0624,-6.27207 14.0624,-14.06238 0,-7.7903 -6.2721,-14.06236 -14.0624,-14.06236 z m 7.831,5.09319 c 4.5212,0 8.188,3.66654 8.188,8.18796 0,4.52131 -3.6664,8.188 -8.188,8.188 -4.5214,0 -8.1879,-3.66466 -8.1879,-8.188 0,-4.52127 3.6665,-8.18796 8.1879,-8.18796 z"
             inkscape:connector-curvature="0" />
          <path
             transform="matrix(3.2142857,0,0,3.2142857,993.55055,31.528848)"
             inkscape:connector-curvature="0"
             id="path88-5"
             d="M 35.896888,8.3217208 C 35.356619,8.1139842 34.774643,7.5619694 34.523517,7.0190542 34.389515,6.7293507 34.342121,6.453218 34.343529,5.9703789 c 0.0016,-0.5579801 0.04,-0.725045 0.258109,-1.1237257 1.009063,-1.8444672 3.62969,-1.7497308 4.493461,0.16244 0.267725,0.592676 0.248564,1.4914647 -0.04433,2.0792189 -0.58572,1.1753872 -1.933735,1.7025634 -3.153885,1.2334087 z"
             style="opacity:1;fill:#00ff00;fill-opacity:1;stroke:#000000;stroke-width:0.00873896;stroke-miterlimit:4;stroke-dasharray:none;stroke-dashoffset:0;stroke-opacity:1" />
          <path
             transform="matrix(3.2142857,0,0,3.2142857,993.55055,31.528848)"
             inkscape:connector-curvature="0"
             id="path90-3"
             d="m 36.282127,32.44589 c -1.132282,-0.281056 -1.986756,-1.329406 -1.986756,-2.437542 0,-0.899314 0.582903,-1.817676 1.431149,-2.254771 1.272708,-0.655816 2.974572,0.03708 3.425484,1.394648 0.181756,0.547217 0.13685,1.463961 -0.09522,1.943769 -0.222316,0.459651 -0.760638,0.98756 -1.209102,1.185714 -0.455617,0.201315 -1.137128,0.274527 -1.565559,0.168182 z"
             style="opacity:1;fill:#00ff00;fill-opacity:1;stroke:#000000;stroke-width:0.00873896;stroke-miterlimit:4;stroke-dasharray:none;stroke-dashoffset:0;stroke-opacity:1" />
          <path
             transform="matrix(3.2142857,0,0,3.2142857,993.55055,31.528848)"
             inkscape:connector-curvature="0"
             id="path92-5"
             d="m 35.988287,20.37116 c -0.467404,-0.150559 -1.092048,-0.69656 -1.376226,-1.202961 -0.233271,-0.415682 -0.268729,-0.565141 -0.269526,-1.136065 -0.0011,-0.799292 0.204361,-1.307859 0.737427,-1.825183 0.918068,-0.890954 2.396791,-0.934618 3.34632,-0.09881 1.112393,0.979168 1.156566,2.674133 0.09608,3.686861 -0.497315,0.474922 -1.013444,0.679584 -1.692695,0.67121 -0.312418,-0.0039 -0.691041,-0.04662 -0.841383,-0.09505 z"
             style="opacity:1;fill:#00ff00;fill-opacity:1;stroke:#000000;stroke-width:0.00873896;stroke-miterlimit:4;stroke-dasharray:none;stroke-dashoffset:0;stroke-opacity:1" />
          <ellipse
             ry="7.8821654"
             rx="8.0357141"
             cy="50.956501"
             cx="1178.3719"
             id="path198"
             style="opacity:1;fill:#ddff00;fill-opacity:1;stroke:none;stroke-width:0.35141176;stroke-miterlimit:4;stroke-dasharray:none;stroke-dashoffset:0;stroke-opacity:1" />
          <ellipse
             ry="7.8821654"
             rx="8.0357141"
             cy="89.445969"
             cx="1146.2291"
             id="path198-9"
             style="opacity:1;fill:#ddff00;fill-opacity:1;stroke:none;stroke-width:0.35141176;stroke-miterlimit:4;stroke-dasharray:none;stroke-dashoffset:0;stroke-opacity:1" />
          <ellipse
             ry="7.8821654"
             rx="8.0357141"
             cy="128.10739"
             cx="1146.2291"
             id="path198-2"
             style="opacity:1;fill:#ddff00;fill-opacity:1;stroke:none;stroke-width:0.35141176;stroke-miterlimit:4;stroke-dasharray:none;stroke-dashoffset:0;stroke-opacity:1" />
        </g>
        <g
           style="fill:#525252;fill-opacity:1"
           id="g1143"
           transform="matrix(0.47280691,0,0,0.47280691,-314.88546,-44.658789)">
          <path
             sodipodi:nodetypes="ssssssssssssssssssssssssssssssssssss"
             style="fill:#525252;fill-opacity:1;stroke-width:0.25111383"
             id="path67-7-5"
             d="m 867.4578,75.814558 c -7.7904,0 -14.0623,6.27207 -14.0623,14.06238 0,7.790295 6.2719,14.062362 14.0623,14.062362 h 84.3743 c 7.7902,0 14.0623,-6.272067 14.0623,-14.062362 0,-7.79031 -6.2721,-14.06238 -14.0623,-14.06238 z m 7.83,6.699133 c 4.5213,0 8.1878,3.666544 8.1878,8.188 0,4.521426 -3.6665,8.187968 -8.1878,8.187968 -4.5215,0 -8.188,-3.66465 -8.188,-8.187968 0,-4.521312 3.6665,-8.188 8.188,-8.188 z m -7.8306,32.675269 c -7.7902,0 -14.0623,6.27207 -14.0623,14.06236 0,7.79031 6.2721,14.06238 14.0623,14.06238 h 84.3743 c 7.7904,0 14.0625,-6.27207 14.0625,-14.06238 0,-7.79029 -6.2721,-14.06236 -14.0625,-14.06236 z m 7.8304,5.89616 c 4.5216,0 8.1883,3.66654 8.1883,8.18797 0,4.52146 -3.6667,8.188 -8.1883,8.188 -4.5212,0 -8.1879,-3.66465 -8.1879,-8.188 0,-4.52128 3.6667,-8.18797 8.1879,-8.18797 z m -7.8308,33.47824 c -7.7903,0 -14.0624,6.27206 -14.0624,14.06236 0,7.79031 6.2721,14.06238 14.0624,14.06238 h 84.3742 c 7.7903,0 14.0624,-6.27207 14.0624,-14.06238 0,-7.7903 -6.2721,-14.06236 -14.0624,-14.06236 z m 7.831,5.09319 c 4.5212,0 8.188,3.66654 8.188,8.18796 0,4.52131 -3.6664,8.188 -8.188,8.188 -4.5214,0 -8.1879,-3.66466 -8.1879,-8.188 0,-4.52127 3.6665,-8.18796 8.1879,-8.18796 z"
             inkscape:connector-curvature="0" />
          <path
             inkscape:connector-curvature="0"
             id="path88-5-0"
             d="m 872.3487,98.164347 c -1.7366,-0.667724 -3.6072,-2.442056 -4.4144,-4.187142 -0.4307,-0.93119 -0.5831,-1.818758 -0.5785,-3.370741 0.01,-1.793508 0.1285,-2.330502 0.8296,-3.611976 3.2434,-5.928644 11.6669,-5.624134 14.4433,0.522129 0.8605,1.90503 0.7989,4.793994 -0.1425,6.683203 -1.8827,3.77803 -6.2156,5.472526 -10.1375,3.964527 z"
             style="opacity:1;fill:#00ff00;fill-opacity:1;stroke:#000000;stroke-width:0.02808951;stroke-miterlimit:4;stroke-dasharray:none;stroke-dashoffset:0;stroke-opacity:1" />
          <path
             inkscape:connector-curvature="0"
             id="path90-3-36"
             d="m 873.587,175.70632 c -3.6395,-0.9034 -6.386,-4.27309 -6.386,-7.83496 0,-2.89065 1.8736,-5.84253 4.6001,-7.24747 4.0908,-2.10798 9.5611,0.11918 11.0105,4.48279 0.5842,1.75891 0.4399,4.70559 -0.3061,6.24783 -0.7146,1.47745 -2.4449,3.1743 -3.8864,3.81122 -1.4645,0.64709 -3.655,0.88241 -5.0321,0.54059 z"
             style="opacity:1;fill:#00ff00;fill-opacity:1;stroke:#000000;stroke-width:0.02808951;stroke-miterlimit:4;stroke-dasharray:none;stroke-dashoffset:0;stroke-opacity:1" />
          <path
             inkscape:connector-curvature="0"
             id="path92-5-1"
             d="m 872.6425,136.89469 c -1.5024,-0.48394 -3.5102,-2.23894 -4.4236,-3.86666 -0.7498,-1.33612 -0.8638,-1.81653 -0.8663,-3.65164 0,-2.56915 0.6568,-4.20383 2.3703,-5.86666 2.9509,-2.86378 7.7039,-3.00413 10.756,-0.3176 3.5756,3.14732 3.7175,8.59543 0.3088,11.85062 -1.5985,1.52654 -3.2575,2.18438 -5.4408,2.15746 -1.0042,-0.0125 -2.2212,-0.14985 -2.7044,-0.30552 z"
             style="opacity:1;fill:#00ff00;fill-opacity:1;stroke:#000000;stroke-width:0.02808951;stroke-miterlimit:4;stroke-dasharray:none;stroke-dashoffset:0;stroke-opacity:1" />
          <ellipse
             ry="7.8821654"
             rx="8.0357141"
             cy="90.843613"
             cx="941.78723"
             id="path198-0"
             style="opacity:1;fill:#ddff00;fill-opacity:1;stroke:none;stroke-width:0.35141176;stroke-miterlimit:4;stroke-dasharray:none;stroke-dashoffset:0;stroke-opacity:1" />
          <ellipse
             ry="7.8821654"
             rx="8.0357141"
             cy="129.33308"
             cx="909.64441"
             id="path198-9-6"
             style="opacity:1;fill:#ddff00;fill-opacity:1;stroke:none;stroke-width:0.35141176;stroke-miterlimit:4;stroke-dasharray:none;stroke-dashoffset:0;stroke-opacity:1" />
          <ellipse
             ry="7.8821654"
             rx="8.0357141"
             cy="167.99451"
             cx="941.78723"
             id="path198-2-3"
             style="opacity:1;fill:#ddff00;fill-opacity:1;stroke:none;stroke-width:0.35141176;stroke-miterlimit:4;stroke-dasharray:none;stroke-dashoffset:0;stroke-opacity:1" />
        </g>
        <g
           id="g1134"
           transform="matrix(1.2857143,0,0,1.2857143,193.59882,39.417803)">
          <g
             transform="matrix(1.9524004,0,0,1.9524004,-106.96965,-13.9167)"
             id="g2198-3-2">
            <g
               style="fill:#525252;fill-opacity:1"
               id="g135-6-8"
               transform="matrix(0.1883521,0,0,0.1883521,-166.43892,-18.852778)">
              <path
                 sodipodi:nodetypes="ssssssssssssssssssssssssssssssssssss"
                 style="fill:#525252;fill-opacity:1;stroke-width:0.25111383"
                 id="path67-7-9"
                 d="m 1104.0425,35.927445 c -7.7904,0 -14.0623,6.27207 -14.0623,14.06238 0,7.790295 6.2719,14.062365 14.0623,14.062365 h 84.3743 c 7.7902,0 14.0623,-6.27207 14.0623,-14.062365 0,-7.79031 -6.2721,-14.06238 -14.0623,-14.06238 z m 7.83,6.699133 c 4.5213,0 8.1878,3.666544 8.1878,8.188 0,4.521426 -3.6665,8.187968 -8.1878,8.187968 -4.5215,0 -8.188,-3.66465 -8.188,-8.187968 0,-4.521312 3.6665,-8.188 8.188,-8.188 z m -7.8306,32.675268 c -7.7902,0 -14.0623,6.27207 -14.0623,14.062365 0,7.79031 6.2721,14.062379 14.0623,14.062379 h 84.3743 c 7.7904,0 14.0625,-6.272069 14.0625,-14.062379 0,-7.790295 -6.2721,-14.062365 -14.0625,-14.062365 z m 7.8304,5.89616 c 4.5216,0 8.1883,3.666543 8.1883,8.18797 0,4.521456 -3.6667,8.187998 -8.1883,8.187998 -4.5212,0 -8.1879,-3.664651 -8.1879,-8.187998 0,-4.521282 3.6667,-8.18797 8.1879,-8.18797 z m -7.8308,33.478244 c -7.7903,0 -14.0624,6.27206 -14.0624,14.06236 0,7.79031 6.2721,14.06238 14.0624,14.06238 h 84.3742 c 7.7903,0 14.0624,-6.27207 14.0624,-14.06238 0,-7.7903 -6.2721,-14.06236 -14.0624,-14.06236 z m 7.831,5.09319 c 4.5212,0 8.188,3.66654 8.188,8.18796 0,4.52131 -3.6664,8.188 -8.188,8.188 -4.5214,0 -8.1879,-3.66466 -8.1879,-8.188 0,-4.52127 3.6665,-8.18796 8.1879,-8.18796 z"
                 inkscape:connector-curvature="0" />
              <path
                 transform="matrix(3.2142857,0,0,3.2142857,993.55055,31.528848)"
                 inkscape:connector-curvature="0"
                 id="path88-5-7"
                 d="M 35.896888,8.3217208 C 35.356619,8.1139842 34.774643,7.5619694 34.523517,7.0190542 34.389515,6.7293507 34.342121,6.453218 34.343529,5.9703789 c 0.0016,-0.5579801 0.04,-0.725045 0.258109,-1.1237257 1.009063,-1.8444672 3.62969,-1.7497308 4.493461,0.16244 0.267725,0.592676 0.248564,1.4914647 -0.04433,2.0792189 -0.58572,1.1753872 -1.933735,1.7025634 -3.153885,1.2334087 z"
                 style="opacity:1;fill:#00ff00;fill-opacity:1;stroke:#000000;stroke-width:0.00873896;stroke-miterlimit:4;stroke-dasharray:none;stroke-dashoffset:0;stroke-opacity:1" />
              <path
                 transform="matrix(3.2142857,0,0,3.2142857,993.55055,31.528848)"
                 inkscape:connector-curvature="0"
                 id="path90-3-3"
                 d="m 36.282127,32.44589 c -1.132282,-0.281056 -1.986756,-1.329406 -1.986756,-2.437542 0,-0.899314 0.582903,-1.817676 1.431149,-2.254771 1.272708,-0.655816 2.974572,0.03708 3.425484,1.394648 0.181756,0.547217 0.13685,1.463961 -0.09522,1.943769 -0.222316,0.459651 -0.760638,0.98756 -1.209102,1.185714 -0.455617,0.201315 -1.137128,0.274527 -1.565559,0.168182 z"
                 style="opacity:1;fill:#00ff00;fill-opacity:1;stroke:#000000;stroke-width:0.00873896;stroke-miterlimit:4;stroke-dasharray:none;stroke-dashoffset:0;stroke-opacity:1" />
              <path
                 transform="matrix(3.2142857,0,0,3.2142857,993.55055,31.528848)"
                 inkscape:connector-curvature="0"
                 id="path92-5-6"
                 d="m 35.988287,20.37116 c -0.467404,-0.150559 -1.092048,-0.69656 -1.376226,-1.202961 -0.233271,-0.415682 -0.268729,-0.565141 -0.269526,-1.136065 -0.0011,-0.799292 0.204361,-1.307859 0.737427,-1.825183 0.918068,-0.890954 2.396791,-0.934618 3.34632,-0.09881 1.112393,0.979168 1.156566,2.674133 0.09608,3.686861 -0.497315,0.474922 -1.013444,0.679584 -1.692695,0.67121 -0.312418,-0.0039 -0.691041,-0.04662 -0.841383,-0.09505 z"
                 style="opacity:1;fill:#00ff00;fill-opacity:1;stroke:#000000;stroke-width:0.00873896;stroke-miterlimit:4;stroke-dasharray:none;stroke-dashoffset:0;stroke-opacity:1" />
              <ellipse
                 ry="7.8821654"
                 rx="8.0357141"
                 cy="50.956501"
                 cx="1146.2291"
                 id="path198-1"
                 style="opacity:1;fill:#ddff00;fill-opacity:1;stroke:none;stroke-width:0.35141176;stroke-miterlimit:4;stroke-dasharray:none;stroke-dashoffset:0;stroke-opacity:1" />
              <ellipse
                 ry="7.8821654"
                 rx="8.0357141"
                 cy="89.445969"
                 cx="1178.3719"
                 id="path198-9-2"
                 style="opacity:1;fill:#ddff00;fill-opacity:1;stroke:none;stroke-width:0.35141176;stroke-miterlimit:4;stroke-dasharray:none;stroke-dashoffset:0;stroke-opacity:1" />
              <ellipse
                 ry="7.8821654"
                 rx="8.0357141"
                 cy="128.10739"
                 cx="1178.3719"
                 id="path198-2-9"
                 style="opacity:1;fill:#ddff00;fill-opacity:1;stroke:none;stroke-width:0.35141176;stroke-miterlimit:4;stroke-dasharray:none;stroke-dashoffset:0;stroke-opacity:1" />
            </g>
          </g>
        </g>
      </g>
    </g>
  </g>
</svg>
