<?xml version="1.0" encoding="UTF-8" standalone="no"?>
<svg
   xmlns:dc="http://purl.org/dc/elements/1.1/"
   xmlns:cc="http://creativecommons.org/ns#"
   xmlns:rdf="http://www.w3.org/1999/02/22-rdf-syntax-ns#"
   xmlns:svg="http://www.w3.org/2000/svg"
   xmlns="http://www.w3.org/2000/svg"
   xmlns:sodipodi="http://sodipodi.sourceforge.net/DTD/sodipodi-0.dtd"
   xmlns:inkscape="http://www.inkscape.org/namespaces/inkscape"
   width="100"
   height="100"
   version="1.1"
   viewBox="0 0 75.000002 75.000002"
   id="svg18"
   sodipodi:docname="telegram.svg"
   inkscape:version="0.92.4 (5da689c313, 2019-01-14)">
  <metadata
     id="metadata24">
    <rdf:RDF>
      <cc:Work
         rdf:about="">
        <dc:format>image/svg+xml</dc:format>
        <dc:type
           rdf:resource="http://purl.org/dc/dcmitype/StillImage" />
        <dc:title />
      </cc:Work>
    </rdf:RDF>
  </metadata>
  <defs
     id="defs22" />
  <sodipodi:namedview
     pagecolor="#ffffff"
     bordercolor="#666666"
     borderopacity="1"
     objecttolerance="10"
     gridtolerance="10"
     guidetolerance="10"
     inkscape:pageopacity="0"
     inkscape:pageshadow="2"
     inkscape:window-width="1366"
     inkscape:window-height="701"
     id="namedview20"
     showgrid="false"
     units="px"
     inkscape:zoom="2.0228571"
     inkscape:cx="-102.51366"
     inkscape:cy="77.31239"
     inkscape:window-x="0"
     inkscape:window-y="0"
     inkscape:window-maximized="1"
     inkscape:current-layer="svg18" />
  <g
     id="g16"
     transform="matrix(0.1379181,0,0,0.13935286,-10.770115,-1.5180599)"
     style="fill:#525252;fill-opacity:1">
    <path
       d="m 617.52,10.895 c -1.6719,0.07813 -3.1367,1.1602 -3.6953,2.7383 -0.125,-0.20312 -0.0547,-0.46094 -0.21875,-0.64453 -1.2148,-1.293 -3.125,-1.6641 -4.7344,-0.91406 -4.8633,-1.0352 -9.9375,0.17578 -13.805,3.2969 l -1.5898,0.96484 -0.97266,0.5625 c -2.2227,0.35937 -4.4102,0.63281 -6.2891,0.87109 -1.5391,0.19531 -2.9727,0.375 -4.2031,0.5625 -7.5547,1.1523 -15.141,1.9922 -22.73,2.8281 -6.6133,0.73438 -13.227,1.4688 -19.824,2.4023 l -0.004,0.0039 c -26.82,3.3281 -53.434,8.1406 -79.723,14.414 -47.121,11.109 -94.824,19.594 -142.89,25.414 -12.32,1.7266 -24.645,3.4453 -36.965,5.2539 -13.5,1.9922 -27.02,3.5703 -40.52,5.1445 -26.336,2.5898 -52.508,6.6406 -78.395,12.137 -6.6484,1.5391 -13.332,3.2812 -20.062,5.043 v -0.0039 c -19.035,5.7617 -38.668,9.3125 -58.515997,10.578 -2.0469,0.0391 -3.793,1.4922 -4.2031,3.5 -0.41016,2.0039 0.625,4.0273 2.4922,4.8672 5.7344,2.9922 10.02,8.168 11.895,14.355 0.99219,5.0508 2.6289,9.9531 4.8711,14.586 2.929697,5.2969 6.726597,10.062 11.226997,14.105 l 1.0781,1.0664 c 1.9297,1.9414 3.8438,3.9727 5.7773,6.0234 v 0.004 c 4.6484,5.2109 9.7109,10.035 15.141,14.422 9.332,7.1367 19.277,13.348 28.898,19.363 10.332,6.2109 20.328,12.961 29.941,20.227 3.6914,2.8984 7.4844,5.7422 11.277,8.5977 h 0.004 c 9.3281,6.7188 18.242,13.992 26.695,21.781 1.1211,1.2383 2.1562,2.5547 3.0898,3.9375 1.0664,1.4648 2.168,2.8984 3.293,4.25 -0.14063,0.24609 -0.44531,0.33984 -0.53906,0.62109 -0.76562,2.293 0.47656,4.7734 2.7695,5.5391 10.168,3.4023 8.6641,26.496 7.8633,38.914 -0.20703,3.1797 -0.375,5.9297 -0.375,7.9453 v 42.281 c 0,2 -0.12109,4.1367 -0.23828,6.2891 h -0.004 c -0.55469,5.4883 -0.32812,11.027 0.66406,16.457 0.39063,1.6406 1.6992,2.9062 3.3516,3.2461 0.49609,0.11719 1.0078,0.17188 1.5195,0.17188 5.8086,0 10.973,-7.1094 16.559,-15.652 0.90625,-1.3828 1.6758,-2.5469 2.2031,-3.2461 4.375,-5.6406 8.6797,-11.227 12.664,-16.715 l 0.004,-0.004 c 0.70312,-1.0039 1.25,-2.1094 1.6211,-3.2812 0.15625,-0.41797 0.33203,-0.82812 0.53125,-1.2305 0.32422,-0.41016 0.67969,-0.80078 1.0586,-1.1602 0.74609,-0.69922 1.4297,-1.4688 2.0352,-2.293 1.1602,-1.6992 2.1992,-3.4844 3.1094,-5.332 0.65234,-1.293 1.3711,-2.5547 2.1523,-3.7734 4.7227,-6.7109 10.203,-12.855 16.332,-18.309 1.0508,1.2539 2.1758,2.4414 3.375,3.5586 0.80469,0.75391 1.625,1.5195 2.582,2.582 h -0.004 c 3.4531,4.4453 7.4609,8.4297 11.93,11.859 10.5,7.6836 21.582,14.543 33.137,20.523 l 2.9727,1.6406 c 4.1758,2.3906 8.4844,4.5391 12.902,6.4453 3.5898,1.6055 7.1602,3.2109 10.492,5.1094 7.4336,4.4258 14.664,7.9141 22.32,11.605 l 2.3086,1.0938 v -0.004 c 7.0664,3.7695 13.734,8.2461 19.895,13.367 l 1.1641,0.92188 h -0.004 c 1.8594,1.2148 3.4531,2.7969 4.6836,4.6484 0.51562,1.3359 0.78516,2.7539 0.80078,4.1875 0.0703,1.3164 0.25,2.625 0.53125,3.9141 0.13281,0.96875 0.34766,1.9297 0.63281,2.8711 0.23828,0.60938 0.35937,1.2578 0.35937,1.9141 -0.24609,2.1367 1.1016,4.1367 3.1797,4.7148 2.0703,0.5625 4.25,-0.45703 5.1406,-2.4102 0.60156,-1.1602 1.332,-2.2461 2.1719,-3.2461 1.0391,-1.3164 1.9766,-2.7109 2.8008,-4.1719 0.76953,-1.5391 1.5391,-3.2109 2.3242,-4.8867 0.71875,-1.5898 1.4531,-3.1797 2.2383,-4.7695 l 3.3828,-7.418 c 3.2656,-7.2109 6.6328,-14.645 10.391,-21.617 1.9492,-3.8789 3.9492,-7.7422 5.9453,-11.605 3.8984,-7.5352 7.9297,-15.312 11.535,-23.379 1.3516,-3.3164 2.9414,-6.6328 4.5469,-9.9453 1.6562,-3.4688 3.332,-6.9375 4.7344,-10.391 1.1797,-2.8281 2.1719,-5.6484 3.1445,-8.4609 l 0.004,0.004 c 1.4102,-4.3906 3.1602,-8.6641 5.2305,-12.785 1.2461,-2.332 2.5117,-4.6484 3.793,-6.9727 3.5742,-6.2305 6.8086,-12.652 9.6914,-19.234 1.7109,-3.9492 3.7422,-7.75 5.7773,-11.562 v 0.004 c 2.8906,-5.1523 5.4336,-10.492 7.6016,-15.988 9.1094,-23.543 19.363,-47.348 29.086,-69.734 3.9492,-9.1953 7.7578,-18.449 11.586,-27.719 8.4766,-20.543 17.242,-41.785003 27.293,-62.070003 1.9297,-3.9375 3.9141,-7.8359 5.9141,-11.75 3.2461,-6.3477 6.5117,-12.723 9.4336,-19.211 0.54688,-1.1641 1.2812,-2.4688 2.0508,-3.8711 h 0.004 c 3.0938,-4.6758 5.0352,-10.02 5.6719,-15.594 0,-2.4141 -1.9609,-4.3711 -4.375,-4.375 z m -411.47,204.78 c -3.7578,-2.8203 -7.5039,-5.6328 -11.145,-8.4922 l 0.004,-0.004 c -9.8594,-7.4648 -20.109,-14.395 -30.711,-20.762 -9.4492,-5.8945 -19.211,-12.004 -28.23,-18.895 h -0.004 c -5.0352,-4.1094 -9.7383,-8.6133 -14.062,-13.469 -1.9805,-2.1094 -3.9648,-4.2031 -5.9648,-6.2109 l -1.0938,-1.0859 c -3.8398,-3.3945 -7.0859,-7.4062 -9.6055,-11.867 -1.9727,-4.1484 -3.4062,-8.5352 -4.2539,-13.047 -1.2734,-4.5703 -3.5938,-8.7734 -6.7852,-12.281 16.535,-2.1367 32.887,-5.5234 48.91,-10.124996 6.6484,-1.7344 13.277,-3.4609 19.84,-4.9805 h 0.004 c 25.562,-5.4258 51.406,-9.4219 77.414,-11.973 13.602,-1.5898 27.191,-3.1719 40.777,-5.168 12.305,-1.8125 24.609,-3.5273 36.914,-5.2539 v -0.0039 c 48.383,-5.8555 96.398,-14.402 143.83,-25.602 25.984,-6.1914 52.293,-10.938 78.801,-14.227 6.5117,-0.92188 13.039,-1.6406 19.551,-2.3672 4.7148,-0.51953 9.418,-1.043 14.117,-1.6328 -4.8008,3.0859 -9.6211,6.1602 -14.543,9.0742 -10.98,6.5039 -21.68,13.582 -32.105,20.535 -0.18359,-0.64062 -0.66406,-1.1523 -1.2891,-1.3828 l -1.793,-0.59766 c -7.4492,-2.4766 -14.902,-4.957 -22.301,-7.5977 -2.0859,-0.74219 -4.2227,-1.3242 -6.3398,-1.9062 -1.8984,-0.51172 -3.793,-1.0352 -5.6562,-1.6758 h -0.004 c -0.55078,-0.19531 -1.1523,-0.16406 -1.6797,0.08984 -0.52734,0.25391 -0.92969,0.70312 -1.1211,1.2578 -0.19141,0.55078 -0.15625,1.1562 0.10156,1.6797 0.25781,0.52344 0.71094,0.92188 1.2656,1.1094 1.9492,0.67578 3.9492,1.2227 5.9453,1.7617 2.0156,0.55469 4.0352,1.1016 6.0156,1.8008 7.4336,2.6562 14.918,5.1445 22.406,7.6289 l 0.76953,0.25781 c -8.6445,5.7578 -17.297,11.516 -26.137,17.027 -0.23438,-0.53516 -0.67578,-0.95703 -1.2227,-1.168 -2.6484,-1.0078 -5.332,-2.0781 -8.0664,-3.1719 v 0.0039 c -11.801,-5.5117 -24.441,-9.0039 -37.395,-10.332 h -0.0859 c -1.207,-0.02344 -2.207,0.9375 -2.2305,2.1445 -0.0235,1.207 0.9375,2.207 2.1445,2.2305 12.453,1.3281 24.598,4.7148 35.941,10.023 2.4102,0.96094 4.7891,1.8945 7.1484,2.793 -3.5156,2.2539 -6.8867,4.5898 -10.316,6.9297 -0.11719,-0.09375 -0.14062,-0.25391 -0.28125,-0.32422 h -0.004 c -8.4766,-3.9375 -17.309,-7.0703 -26.371,-9.3555 l -2.957,-0.84766 v 0.0039 c -3.0156,-0.94531 -6.0938,-1.6758 -9.2109,-2.1797 l -1.2812,-0.15234 v -0.0039 c -1.1094,-0.02734 -2.1992,-0.27734 -3.2148,-0.72656 -0.48828,-0.30859 -1.0859,-0.40625 -1.6523,-0.27344 -0.5625,0.13281 -1.0508,0.48828 -1.3555,0.98438 -0.62891,1.0312 -0.30859,2.3789 0.71875,3.0156 1.5547,0.82812 3.2812,1.2891 5.043,1.3516 l 1.1289,0.12891 h -0.004 c 2.918,0.48437 5.793,1.1758 8.6172,2.0586 l 2.9727,0.84766 v -0.0039 c 8.1016,2.1172 16.02,4.8867 23.68,8.2773 -2.3594,1.6328 -4.8594,3.2031 -7.1719,4.8164 -7.4805,5.2188 -15.164,10.429996 -23.035,15.390996 -0.16406,-0.17188 -0.22266,-0.41797 -0.44531,-0.53125 -1.793,-0.94141 -3.5703,-1.8984 -5.3477,-2.8438 l -0.004,-0.004 c -6.3125,-3.6055 -12.895,-6.718792 -19.688,-9.320292 -3.4023,-1.2031 -6.8008,-2.3672 -10.219,-3.4453 l -0.75391,-0.24609 c -1.7148,-0.74609 -3.5898,-1.0391 -5.4492,-0.85547 -1.1797,0.22266 -1.957,1.3516 -1.7461,2.5312 0.21094,1.1797 1.332,1.9727 2.5156,1.7734 1.125,-0.01172 2.2383,0.22266 3.2617,0.68359 l 0.85547,0.28125 c 3.3672,1.0586 6.7344,2.2031 10.066,3.390592 v 0.004 c 6.582,2.5312 12.965,5.5586 19.09,9.0586 1.2109,0.64453 2.4258,1.293 3.6445,1.9375 -4.0977,2.4844 -8.207,4.9453 -12.469,7.1367 0.18359,-0.99609 -0.36719,-1.9844 -1.3125,-2.3516 -7.0742,-2.5195 -14.168,-4.9492 -21.277,-7.375 -4.75,-1.625 -9.4844,-3.2539 -14.234,-4.9062 -1.0781,-0.375 -2.1016,-0.80469 -3.1289,-1.2305 l 0.004,0.004 c -3.1523,-1.5938 -6.6406,-2.3906 -10.168,-2.3242 -1.1758,0.0859 -2.0703,1.0898 -2.0234,2.2656 0.0469,1.1758 1.0156,2.1055 2.1914,2.1016 l 0.17188,-0.008 c 2.8281,0.0508 5.6055,0.73438 8.1367,1.9961 1.1094,0.46094 2.2227,0.92188 3.3828,1.332 4.75,1.6484 9.5039,3.2852 14.254,4.9062 7.0234,2.4023 14.031,4.8086 21.023,7.2852 l -9.6562,4.6758 c -3.0391,1.4609 -6.1328,3.0117 -9.207,4.5156 0.57031,-0.21875 1.2031,-0.38281 1.4297,-0.99609 l -0.004,0.004 c 0.20703,-0.54297 0.18359,-1.1484 -0.0586,-1.6758 -0.24609,-0.53125 -0.69141,-0.9375 -1.2383,-1.1367 -10.145,-3.9258 -20.605,-6.9648 -31.273,-9.082 l -3.5898,-0.71875 v 0.004 c -5.0352,-1.1836 -10.168,-1.8945 -15.332,-2.1211 h -0.0351 c -1.207,-0.008 -2.1953,0.96094 -2.2031,2.1719 -0.0117,1.207 0.96094,2.1953 2.168,2.2031 4.8945,0.22656 9.7578,0.90625 14.527,2.0352 l 3.6406,0.71875 v -0.004 c 10.434,2.082 20.668,5.0586 30.59,8.8984 0.18359,0.0586 0.37109,0.0937 0.5625,0.10156 -6.2578,3.0742 -12.484,6.3555 -18.668,9.8945 v -0.004 c -0.19922,-0.31641 -0.48047,-0.57812 -0.8125,-0.75 l -6.7695,-2.4609 c -19.074,-7.5352 -38.715,-13.57 -58.73,-18.047 -0.57422,-0.125 -1.1719,-0.0117 -1.6602,0.3125 -0.48438,0.32813 -0.82031,0.83594 -0.92188,1.4141 -0.22266,1.1836 0.54688,2.3242 1.7266,2.5625 19.797,4.4375 39.219,10.41 58.09,17.867 l 4.5,1.6406 c -5.0039,3.0156 -9.793,6.3125 -14.598,9.6016 l -0.12109,-0.16016 -0.004,0.004 c -8.3984,-5.082 -17.125,-9.5938 -26.129,-13.504 -5.7812,-2.8711 -12.094,-4.5273 -18.543,-4.8594 -0.64453,-0.0625 -1.2852,0.13672 -1.7773,0.55859 -0.49219,0.41797 -0.79297,1.0195 -0.83594,1.6641 -0.0274,0.58984 0.19922,1.1641 0.625,1.5742 0.42578,0.41406 1.0078,0.62109 1.5977,0.57812 5.9922,0.28906 11.859,1.832 17.227,4.5195 8.2344,3.5703 16.227,7.6758 23.922,12.293 -4.1289,2.832 -8.2578,5.6719 -12.508,8.3516 -0.78516,0.49609 -1.5742,0.97656 -2.3633,1.4688 0.3125,-0.91016 -0.0391,-1.918 -0.85156,-2.4336 l -3.2812,-1.9492 c -5.9336,-3.7969 -12.211,-7.0312 -18.746,-9.6641 -0.68359,-0.25781 -1.4023,-0.59766 -2.1367,-0.94141 -1.8281,-0.99219 -3.8281,-1.6289 -5.8945,-1.8789 -1.1953,-0.0273 -2.2031,0.88281 -2.293,2.0742 -0.0547,1.2109 0.875,2.2422 2.0859,2.3008 1.4883,0.24609 2.9219,0.74219 4.2383,1.4688 0.85547,0.40234 1.6914,0.78516 2.4961,1.0781 6.2695,2.5508 12.293,5.668 17.996,9.3125 l 3.3164,1.9727 v 0.004 c 0.19922,0.0898 0.41406,0.14844 0.63672,0.16797 -2.2422,1.3945 -4.4883,2.7969 -6.7188,4.1797 -6.6172,4.0742 -13.344,8.2305 -19.984,12.621 h -0.004 c -10.684,-5.8516 -21.801,-10.879 -33.25,-15.039 l -3.9297,-1.5039 c -14.121,-5.4414 -27.957,-11.582 -41.461,-18.406 -1.0781,-0.52344 -2.375,-0.0859 -2.9141,0.98047 -0.54297,1.0703 -0.12891,2.375 0.93359,2.9336 13.586,6.8516 27.668,13.109 41.871,18.578 l 3.9297,1.5039 v -0.004 c 10.59,3.8906 20.898,8.5039 30.855,13.809 -5.1836,3.5352 -10.344,7.1328 -15.281,11.102 -1.9375,-1.7422 -3.9883,-3.3516 -6.1406,-4.8125 -3.3516,-2.4336 -6.8555,-4.6484 -10.496,-6.6289 -0.80469,-0.44531 -1.6055,-0.94922 -2.4258,-1.4531 -1.8984,-1.2734 -3.9336,-2.3281 -6.0664,-3.1445 -1.1406,-0.37109 -2.3711,0.24609 -2.7578,1.3828 -0.38281,1.1406 0.22266,2.375 1.3555,2.7695 1.8164,0.71484 3.5469,1.6211 5.1641,2.7109 0.88672,0.54688 1.7617,1.0859 2.6133,1.5625 3.5859,1.9609 7.0391,4.1523 10.34,6.5625 1.7617,1.1992 3.4609,2.4883 5.0859,3.8672 -3.332,2.832 -6.6094,5.7148 -9.8242,8.6523 -0.22266,0.20312 -0.46094,0.39062 -0.67969,0.59766 -3.2188,-2.3828 -6.5039,-4.6133 -9.7266,-6.6445 -1.7617,-1.1094 -3.5391,-2.2305 -5.3164,-3.4102 -0.33984,-0.23047 -0.73438,-0.50391 -1.1445,-0.80469 h 0.004 c -1.8984,-1.668 -4.2148,-2.7773 -6.6992,-3.2148 -1.1719,0.0352 -2.1484,0.90625 -2.3086,2.0664 -0.0312,0.58203 0.16797,1.1523 0.55469,1.582 0.39062,0.43359 0.93359,0.69531 1.5117,0.72656 1.6133,0.47266 3.1055,1.2852 4.375,2.3828 0.46094,0.33203 0.90625,0.64844 1.2812,0.89844 1.8125,1.1953 3.6055,2.3398 5.418,3.4688 3.0234,1.9102 5.832,3.875 8.6484,5.9219 -2.4766,2.2461 -4.957,4.4922 -7.5664,6.6172 -1.4023,-0.75 -2.8125,-1.4805 -4.2109,-2.2344 -3.707,-2.0156 -7.4336,-4.0352 -11.227,-5.9219 -0.82031,-0.41016 -1.7266,-0.96484 -2.6992,-1.5625 -2.8398,-2.0938 -6.1953,-3.3867 -9.707,-3.7344 -1.1875,0.0547 -2.1133,1.0508 -2.082,2.2383 0.0273,1.1875 0.99609,2.1367 2.1836,2.1367 0.10156,0 0.17187,-0.0156 0.25781,-0.008 2.5625,0.48828 4.9805,1.5469 7.0742,3.1016 1.0781,0.66797 2.1016,1.2891 3.0234,1.7422 3.7422,1.8711 7.418,3.8633 11.109,5.8516 0.92578,0.50391 1.8633,0.98828 2.7891,1.4883 -1.2656,1.1211 -2.5469,2.2188 -3.7656,3.3828 h 0.004 c -1.9766,1.9883 -4.0898,3.832 -6.3242,5.5195 -1.0586,0.76953 -2.1523,1.4609 -3.2656,2.1523 l -0.10938,0.082 c -3.9766,-3.2812 -8.0586,-6.4688 -12.074,-9.4883 -5.0586,-3.7852 -10.289,-7.707 -15.09,-11.91 -0.82031,-0.71875 -1.7109,-1.625 -2.6641,-2.582 -2.8789,-3.6484 -6.8203,-6.3086 -11.281,-7.6133 -0.57422,-0.0937 -1.168,0.0508 -1.6328,0.39844 -0.46875,0.35156 -0.77344,0.875 -0.84375,1.457 -0.16797,1.1953 0.66406,2.3008 1.8633,2.4688 3.4531,1.2812 6.4922,3.4883 8.7852,6.375 1.043,1.0352 2,2.0078 2.9062,2.793 4.9219,4.3047 10.219,8.2812 15.328,12.117 3.6875,2.7617 7.4023,5.7031 11.051,8.6641 v 0.004 c -0.98828,0.625 -1.9375,1.3164 -2.832,2.0742 l -1.9141,1.8633 c -2.5195,2.6992 -5.4219,5.0195 -8.6133,6.8789 -0.49609,0.27344 -1.1445,0.71875 -1.8633,1.2227 -0.46094,0.31641 -1.1953,0.83594 -1.7773,1.1797 v -0.004 c -1.8086,-1.8203 -3.4453,-3.8086 -4.8867,-5.9375 -1.2383,-1.7969 -2.6094,-3.5 -4.1016,-5.0938 -8.707,-8.0352 -17.887,-15.535 -27.5,-22.461 z m 77.484,100.86 h 0.004 c -0.95312,1.4844 -1.8242,3.0195 -2.6172,4.5977 -0.73828,1.4961 -1.5781,2.9414 -2.5117,4.3242 -0.33203,0.42187 -0.69922,0.8125 -1.0938,1.1758 -0.80469,0.76172 -1.5234,1.6016 -2.1523,2.5117 -0.58594,0.92578 -1.0547,1.918 -1.4023,2.957 -0.13672,0.40625 -0.30078,0.80078 -0.49609,1.1797 -3.9805,5.4531 -8.2188,10.973 -12.527,16.543 -0.64844,0.82031 -1.5391,2.1875 -2.6133,3.8281 -1.1953,1.8125 -4.0156,6.1172 -6.2734,8.9883 -0.0508,-2.582 0.0859,-5.2969 0.23828,-7.9453 0.12109,-2.3242 0.23828,-4.6133 0.23828,-6.7695 v -42.281 c 0,-1.8789 0.17188,-4.4258 0.35938,-7.3828 l 0.004,0.004 c 2.4336,-14.133 0.42969,-28.668 -5.7305,-41.613 0.82812,-0.48828 1.6602,-0.99609 2.3828,-1.5039 0.42578,-0.30078 0.80469,-0.57422 1.0938,-0.73438 h -0.004 c 3.8672,-2.2344 7.3906,-5.0156 10.461,-8.2578 l 1.8477,-1.793 c 1.6172,-1.4258 3.375,-2.6914 5.2461,-3.7773 1.2461,-0.79297 2.4961,-1.5898 3.707,-2.4609 2.5586,-1.9258 4.9805,-4.0273 7.2461,-6.2891 1.6758,-1.6055 3.3516,-3.2227 5.1953,-4.6758 4.7344,-3.75 9.1602,-7.8086 13.586,-11.879 3.9141,-3.5977 7.8281,-7.1953 11.98,-10.57 v 0.004 c 12.426,-9.6641 25.469,-18.504 39.051,-26.465 3.8789,-2.3828 7.7422,-4.7695 11.605,-7.2109 4.8203,-3.0234 9.5039,-6.2383 14.168,-9.4492 5.5703,-3.8281 11.16,-7.6562 16.953,-11.168 10.512,-6.3398 21.156,-11.449 32.418,-16.859 l 9.8438,-4.7617 c 15.25,-7.957 29.871,-17.07 43.73,-27.266 7.9805,-5.570298 16.254,-11.339998 24.66,-16.569998 9.1953,-5.7148 18.168,-11.707 27.156,-17.688 11.332,-7.5625 23.07,-15.391 34.984,-22.449 5.3672,-3.1797 10.629,-6.5547 15.875,-9.9297 l 1.0469,-0.65625 v 0.0039 c -4.3438,3.8008 -8.3984,7.918 -12.137,12.32 -3.4688,3.8906 -7.3086,7.4336 -11.469,10.578 -2.6328,2.1367 -5.2812,4.2891 -7.8281,6.6719 -12.031,11.262 -21.398,20.66 -29.496,29.582 -3.1289,3.4258 -6.2031,6.894498 -9.2617,10.362998 -7.7578,8.7852 -15.789,17.867 -24.488,25.977 -5.8281,5.4414 -11.211,11.238 -16.422,16.844 h -0.004 c -7.5156,8.5469 -15.711,16.473 -24.508,23.695 -6.2734,4.9141 -12.254,10.254 -18.012,15.422 -3.8281,3.418 -7.6406,6.8359 -11.57,10.145 -5.5391,4.6641 -11.57,8.9961 -17.398,13.184 -5.5391,3.9805 -11.09,7.9648 -16.371,12.305 -12.219,10.016 -23.445,21.258 -34.301,32.137 -7.5859,7.5977 -15.449,15.457 -23.5,22.762 -3.4023,3.0742 -6.9219,6.0938 -10.461,9.125 l 0.004,0.008 c -11.508,8.9648 -21.746,19.449 -30.434,31.172 z m 322.71,-285.48 c -2.9062,6.4258 -6.1016,12.672 -9.2969,18.902 -2.0156,3.957 -4.0352,7.9141 -5.9648,11.879 -2.8047,5.6523 -5.3008,11.453 -7.9219,17.199 v -0.0039 c -6.2656,2.332 -12.367,5.0664 -18.277,8.1875 -0.89453,0.46484 -1.3516,1.4805 -1.1133,2.457 0.23828,0.98047 1.1133,1.668 2.1211,1.6719 0.35156,0 0.69922,-0.08594 1.0078,-0.25 4.9062,-2.5742 9.3281,-4.5742 13.629,-6.3516 -2.3047,5.1758 -4.625,10.273 -6.8242,15.457 -0.18359,0.004 -0.35156,-0.11719 -0.53125,-0.0664 v 0.004 c -9.2188,2.3203 -18.25,5.3359 -27.02,9.0117 -0.94531,0.42188 -1.4688,1.4453 -1.2539,2.457 0.21484,1.0078 1.1094,1.7344 2.1445,1.7305 0.30469,0.004 0.60938,-0.0625 0.88672,-0.1875 7.6914,-3.2422 15.613,-5.918 23.699,-8 -1.125,2.6797 -2.2539,5.3438 -3.3594,8.0156 h -0.004 c -4.1367,0.77734 -8.207,1.8906 -12.168,3.3359 -2,0.69922 -4,1.3945 -5.9805,1.9922 -1.3828,0.40234 -2.7852,0.78516 -4.1875,1.1641 v -0.004 c -5.6562,1.1445 -11.051,3.3477 -15.891,6.4922 -0.46875,0.34766 -0.78125,0.86328 -0.86719,1.4375 -0.0859,0.57031 0.0586,1.1562 0.40234,1.625 0.71875,0.96875 2.0898,1.1758 3.0625,0.46094 4.4102,-2.7969 9.3008,-4.7617 14.422,-5.793 1.4531,-0.38672 2.8867,-0.76953 4.3047,-1.1953 2.0508,-0.61719 4.1016,-1.3242 6.168,-2.0508 2.8516,-0.99609 5.7695,-1.8867 8.6953,-2.6094 -0.875,2.1211 -1.8125,4.2852 -2.6797,6.3945 -0.52344,1.2695 -1.0625,2.5273 -1.5898,3.7969 h 0.004 c -2.5234,0.57031 -4.9844,1.3867 -7.3477,2.4375 -0.88672,0.375 -1.7617,0.74219 -2.6328,1.0859 -6.9375,2.5 -14.098,4.3438 -21.379,5.5117 -3.4688,0.64844 -6.9375,1.2148 -10.426,1.7695 -2.2734,0.375 -4.5625,0.74219 -6.8359,1.1367 -0.23828,0.043 -0.59766,0.0703 -1.0078,0.10156 -2.0859,0.17188 -4.6641,0.38672 -5.8438,2.1367 -0.71875,1.0078 -0.50781,2.4023 0.47656,3.1523 0.37891,0.25781 0.82422,0.40234 1.2812,0.41016 0.66016,0.004 1.2812,-0.32812 1.6406,-0.87891 0.91016,-0.27734 1.8555,-0.42969 2.8047,-0.46484 0.5625,-0.043 1.043,-0.0937 1.4023,-0.15234 2.2578,-0.38672 4.5273,-0.75391 6.7852,-1.1211 3.5039,-0.57422 7.0234,-1.1367 10.527,-1.7852 h -0.004 c 7.5469,-1.2188 14.961,-3.1367 22.148,-5.7305 0.92188,-0.35938 1.8477,-0.75391 2.7695,-1.1445 1.1992,-0.51172 2.3633,-0.98828 3.5273,-1.4102 -1.8633,4.5 -3.7422,8.9883 -5.6289,13.465 -1.9141,0.41406 -3.7969,0.95703 -5.6406,1.625 -0.97266,0.36719 -1.9297,0.74219 -2.9219,1.0664 -3.7656,1.1562 -7.6094,2.0469 -11.5,2.6719 l -3.3828,0.64062 c -3.5547,0.69922 -7.1445,1.1953 -10.75,1.6992 l -2.6836,0.38672 c -0.99219,0.16016 -1.9727,0.37891 -2.9414,0.65234 -1,0.30469 -2.0312,0.51172 -3.0742,0.61328 -1.1875,0.0625 -2.1055,1.0586 -2.0742,2.2461 0.0352,1.1875 1.0039,2.1328 2.1914,2.1289 h 0.12109 c 1.3438,-0.12109 2.6719,-0.375 3.9648,-0.76172 0.79687,-0.22656 1.6094,-0.41406 2.4258,-0.55469 l 2.6836,-0.375 c 3.6758,-0.51172 7.332,-1.0234 10.988,-1.7422 l 3.3164,-0.625 c 4.0898,-0.66016 8.125,-1.6055 12.082,-2.8281 1.0586,-0.35156 2.0859,-0.74219 3.1094,-1.1367 0.66016,-0.25 1.2891,-0.33594 1.9336,-0.56641 l -0.0547,0.13281 c -1.668,3.8398 -3.3828,7.9102 -5.0742,11.824 -2.1016,0.54688 -4.1328,1.3359 -6.0508,2.3594 l -0.0508,0.008 c -4.375,1.7617 -8.6992,3.6211 -13.004,5.4961 -6.5625,2.8555 -12.34,5.1523 -17.652,7.0391 -1.1406,0.40625 -1.7305,1.6602 -1.3242,2.7969 0.40234,1.1367 1.6562,1.7305 2.793,1.3242 5.3984,-1.9141 11.262,-4.2539 17.926,-7.1445 4.2734,-1.8555 8.5625,-3.6992 12.902,-5.4414 l 0.27344,-0.13672 0.13672,-0.0937 c 0.39063,-0.1875 1.0312,-0.46484 1.7109,-0.74609 -2.7812,6.4688 -5.5234,12.84 -8.2891,19.441 v -0.004 c -2.5312,0.28516 -4.9961,1.0156 -7.2812,2.1484 -3.9531,1.9219 -8.0352,3.5625 -12.219,4.9141 -1.418,0.48828 -2.8711,0.94922 -4.3047,1.4102 -5.1797,1.5273 -10.234,3.4414 -15.125,5.7227 -0.52344,0.25781 -0.92578,0.71094 -1.1133,1.2617 -0.1875,0.55469 -0.14844,1.1562 0.11328,1.6797 0.25781,0.52344 0.71484,0.91797 1.2695,1.1016 0.55469,0.18359 1.1602,0.13672 1.6797,-0.12891 4.6953,-2.1758 9.543,-4.0039 14.508,-5.4688 1.4688,-0.46875 2.9219,-0.94141 4.375,-1.4258 4.3672,-1.4219 8.6328,-3.1367 12.766,-5.1367 1.0547,-0.42969 2.1445,-0.75391 3.2617,-0.96875 -2.3242,5.5977 -4.5742,11.211 -6.8281,16.84 -1.4531,0.70312 -2.9062,1.3984 -4.3477,2.1445 l -1.1094,0.57422 v -0.004 c -5.5,2.9453 -11.27,5.3555 -17.227,7.2031 -3.5391,1.0586 -7.2461,1.8633 -10.852,2.6484 -4.0859,0.88672 -8.3242,1.8125 -12.426,3.1172 v 0.004 c -1.0273,0.32422 -1.6641,1.3555 -1.5,2.4219 0.16797,1.0664 1.0859,1.8516 2.168,1.8477 0.22656,0 0.44922,-0.0352 0.66797,-0.10156 3.8984,-1.2461 8.0312,-2.1445 12.031,-3.0156 3.6758,-0.80469 7.4688,-1.625 11.176,-2.7344 6.2188,-1.9219 12.238,-4.4336 17.977,-7.5039 l 0.96875,-0.50781 c -0.70312,1.7852 -1.4766,3.5586 -2.168,5.3438 -0.78516,2.1289 -1.7422,4.1875 -2.7227,6.2539 h 0.004 c -2.7969,0.9375 -5.5,2.125 -8.0781,3.5508 -1.1641,0.625 -2.3398,1.2461 -3.5898,1.8477 v -0.004 c -5.2109,2.6055 -10.672,4.668 -16.305,6.1602 -1.9297,0.47656 -3.8789,0.88672 -5.8438,1.3086 -3.332,0.63672 -6.6289,1.4531 -9.8789,2.4453 l -1.2305,0.36719 c -2.4883,0.48828 -4.8008,1.6484 -6.6797,3.3555 -0.80859,0.89844 -0.73438,2.2773 0.16016,3.0859 0.89844,0.80859 2.2773,0.73438 3.0859,-0.16406 1.375,-1.0391 2.9727,-1.75 4.6641,-2.0742 l 1.332,-0.40234 h 0.004 c 3.1055,-0.94531 6.2578,-1.7227 9.4492,-2.332 2.0156,-0.42578 4.0156,-0.84766 6,-1.3516 h -0.004 c 5.9141,-1.5625 11.652,-3.7266 17.125,-6.4492 1.3008,-0.625 2.5469,-1.2812 3.7578,-1.9219 0.96875,-0.51562 1.9844,-0.80078 2.9375,-1.2734 -0.45312,0.85938 -0.86719,1.6914 -1.3281,2.5625 -2.1523,4.0234 -4.2891,8.0508 -6.1016,12.262 -0.54297,1.3008 -1.2148,2.5586 -1.8164,3.8438 -0.16406,0.0469 -0.33594,-0.0273 -0.49219,0.0586 l -2.7188,1.5547 0.004,0.004 c -3.707,2.25 -7.5586,4.2461 -11.535,5.9727 -5.2188,1.9805 -10.578,3.5742 -16.031,4.7773 l -3.1953,0.74219 c -2.375,0.53125 -4.7344,1.0664 -7.0742,1.7344 -1.043,0.30078 -2.0664,0.625 -3.1094,0.95703 -1.4688,0.47656 -2.9414,0.94922 -4.4766,1.3164 h -0.004 c -1.0781,0.25781 -1.793,1.2812 -1.6641,2.3867 0.13281,1.1016 1.0703,1.9297 2.1797,1.9297 0.17188,0 0.34375,-0.0195 0.51172,-0.0625 1.6406,-0.39452 3.2109,-0.89844 4.8008,-1.41019 0.97266,-0.31642 1.9648,-0.63281 2.957,-0.91406 2.2578,-0.64063 4.5469,-1.15231 6.8359,-1.6758 l 3.2656,-0.75391 v 0.004 c 5.6602,-1.2578 11.223,-2.9219 16.645,-4.9805 3.4375,-1.4883 6.7656,-3.2031 9.9688,-5.1406 -1.4297,2.7305 -2.9023,5.4414 -4.3633,8.0977 -1.3008,2.3594 -2.5977,4.707 -3.8438,7.0742 -0.52734,0.99219 -0.89844,1.9883 -1.3594,2.9805 -2.7969,1.0234 -5.5078,2.1641 -8.0547,3.3594 -1.3828,0.64844 -2.7695,1.3008 -4.2031,1.9219 h -0.004 c -5.3203,2.2266 -10.793,4.0742 -16.371,5.5195 l -2.7344,0.73437 c -4.0273,0.96484 -7.9727,2.2227 -11.812,3.7695 l -1.0586,0.42578 v 0.004 c -1.9141,0.64453 -3.6914,1.6406 -5.2461,2.9297 -0.42188,0.39844 -0.66797,0.94922 -0.68359,1.5273 -0.0156,0.58203 0.19922,1.1445 0.59766,1.5664 0.41016,0.4375 0.98828,0.6875 1.5898,0.68359 0.55859,-0.004 1.0977,-0.21875 1.5039,-0.60156 1.168,-0.89453 2.4805,-1.5898 3.8789,-2.0508 l 1.1445,-0.46875 c 3.6406,-1.4531 7.3828,-2.6406 11.195,-3.5547 l 2.7852,-0.74219 v -0.004 c 5.7773,-1.5039 11.445,-3.418 16.953,-5.7227 1.4688,-0.64844 2.9062,-1.3164 4.3047,-1.9727 1.25,-0.58594 2.5117,-1.0195 3.7344,-1.5625 -0.66406,1.7656 -1.3164,3.5312 -1.9219,5.2617 -0.92188,2.6562 -1.8633,5.3242 -2.9727,8.0234 -0.21094,0.51172 -0.48437,1.0273 -0.70312,1.5391 -4.1602,0.96875 -8.25,2.207 -12.25,3.6992 -2.0664,0.73438 -4.1523,1.4883 -6.2734,2.1523 -3.1094,0.99219 -6.2734,1.8789 -9.418,2.75 -4.0664,1.1445 -8.1328,2.2891 -12.133,3.6562 v 0.004 c -1.0117,0.34375 -1.625,1.3672 -1.4531,2.4219 0.17578,1.0547 1.0859,1.8281 2.1562,1.832 0.23828,0.004 0.47266,-0.0391 0.69922,-0.12109 3.9297,-1.3516 7.9297,-2.4609 11.91,-3.5703 3.1953,-0.90625 6.3906,-1.793 9.5703,-2.8047 2.1719,-0.68359 4.2891,-1.4531 6.4102,-2.2031 2.8594,-1.0234 5.6445,-1.9297 8.4492,-2.7227 -0.52344,1.1016 -0.97656,2.2031 -1.5117,3.3047 -0.71094,1.4883 -1.3242,2.9258 -2.0117,4.4023 v -0.004 c -0.46094,-0.15234 -0.95703,-0.13672 -1.4062,0.043 -2.7344,1.1797 -5.332,2.582 -7.8438,3.9492 l -2.0156,1.0938 c -5.1562,2.7422 -10.566,4.9766 -16.152,6.6797 -1.9805,0.59766 -4,1.1445 -6,1.6758 -3.5703,0.97266 -7.2461,1.9648 -10.836,3.3164 h 0.004 c -0.98828,0.375 -1.5703,1.4062 -1.375,2.4453 0.19141,1.043 1.1016,1.7969 2.1602,1.793 0.26953,-0.004 0.53516,-0.0508 0.78516,-0.13672 3.3672,-1.2812 6.9375,-2.2578 10.406,-3.1953 2.0508,-0.54688 4.1016,-1.0938 6.1172,-1.7109 h 0.004 c 5.8555,-1.7891 11.527,-4.1367 16.938,-7.0039 l 2.0508,-1.1094 c 1.5781,-0.85937 3.1133,-1.5859 4.6562,-2.3555 l -0.17969,0.39062 c -3.1133,6.9883 -6.707,13.898 -10.207,20.664 v -0.004 c -0.48438,-0.36328 -1.0898,-0.52344 -1.6875,-0.44531 -5.332,1.2617 -10.516,3.0859 -15.465,5.4336 -2.4766,1.0781 -4.957,2.1719 -7.5039,3.1094 -5.4023,1.9648 -10.68,4.2461 -15.809,6.8359 -0.89844,0.46094 -1.3672,1.4766 -1.1328,2.457 0.23438,0.98438 1.1133,1.6797 2.125,1.6797 0.34375,0.004 0.68359,-0.0781 0.99219,-0.23828 4.9727,-2.5117 10.09,-4.7266 15.328,-6.6328 2.6328,-0.97266 5.1953,-2.0859 7.7422,-3.1953 4.2734,-1.9883 8.7188,-3.582 13.281,-4.7656 -1.6484,3.1953 -3.3008,6.3945 -4.8555,9.5 -0.96094,1.7773 -1.7344,3.6875 -2.6523,5.5156 -2.6641,0.66406 -5.2617,1.5781 -7.7578,2.7227 l -1.2461,0.53125 v -0.004 c -2.3945,1.0664 -4.9258,1.7891 -7.5195,2.1523 -1.1406,0.15625 -1.9688,1.168 -1.8906,2.3164 0.0742,1.1484 1.0312,2.043 2.1797,2.043 l 0.28906,-0.0156 0.004,-0.004 c 2.9805,-0.41016 5.8906,-1.2383 8.6445,-2.4609 l 1.2656,-0.54688 c 1.2383,-0.53906 2.3516,-1.0078 3.4844,-1.4375 -1.7891,3.7734 -3.707,7.4883 -5.3984,11.23 l -3.2969,7.2461 c -0.76953,1.5391 -1.5391,3.2109 -2.3242,4.8867 l -0.73437,1.6055 v 0.004 c -0.21875,-1.6484 -0.69922,-3.2539 -1.4219,-4.75 -1.7734,-3.0625 -4.2227,-5.6797 -7.1602,-7.6562 l -1.043,-0.82031 c -6.6406,-5.5117 -13.832,-10.324 -21.465,-14.355 l -2.4102,-1.1797 c -7.4688,-3.6055 -14.527,-7.0078 -21.723,-11.277 -3.6406,-2.0664 -7.4688,-3.793 -11.297,-5.5195 l 0.004,-0.004 c -4.1562,-1.7734 -8.1992,-3.7969 -12.117,-6.0508 l -3.125,-1.7227 c -11.188,-5.7617 -21.906,-12.391 -32.062,-19.824 -4.1055,-3.1758 -7.7812,-6.8672 -10.938,-10.988 -0.92188,-1.0078 -1.8984,-1.9297 -2.8711,-2.8555 -1.0273,-0.95312 -1.9766,-1.9883 -2.8359,-3.0977 1.9922,-1.7344 3.9883,-3.4688 5.9805,-5.1719 3.5898,-3.0859 7.1953,-6.1602 10.648,-9.2969 8.2188,-7.4414 16.148,-15.383 23.805,-23.062 10.715,-10.723 21.789,-21.816 33.648,-31.547 5.1602,-4.2227 10.543,-8.0938 15.945,-11.973 5.9648,-4.2812 12.117,-8.707 17.926,-13.594 3.9805,-3.3594 7.8789,-6.8359 11.758,-10.312 5.6758,-5.0742 11.52,-10.312 17.586,-15.039 l 0.004,-0.004 c 9.1523,-7.5195 17.684,-15.758 25.516,-24.645 5.1094,-5.4961 10.391,-11.168 15.996,-16.406 8.9883,-8.3906 17.16,-17.637 25.07,-26.574 3.0234,-3.4336 6.0664,-6.8711 9.1602,-10.281004 7.9453,-8.7422 17.176,-17.977 29.02,-29.07 2.3945,-2.2461 4.8867,-4.2539 7.3672,-6.2617 h -0.004 c 4.5977,-3.5 8.8359,-7.4453 12.664,-11.773 7.5,-8.4219 15.844,-16.051 24.902,-22.766 3.6914,-2.9414 7.3828,-5.9375 11.031,-9.0352 -0.91016,2.1055 -2.0703,4.3086 -3.1523,6.2852 -0.875,1.5625 -1.6758,3.043 -2.3086,4.4023 z"
       id="path2"
       inkscape:connector-curvature="0"
       style="fill:#525252;fill-opacity:1" />
    <path
       d="m 120.67,435.19 c 25.738,-31.137 50.398,-63.148 75.504,-95.941 1.4727,-1.9141 1.1133,-4.6641 -0.80469,-6.1367 -1.9141,-1.4688 -4.6641,-1.1094 -6.1367,0.80469 -25.055,32.727 -49.68,64.684 -75.297,95.703 -0.73828,0.89453 -1.0938,2.043 -0.98438,3.1953 0.10938,1.1562 0.67188,2.2188 1.5664,2.957 0.89062,0.74219 2.043,1.0977 3.1953,0.98828 1.1562,-0.10938 2.2188,-0.67188 2.957,-1.5703 z"
       id="path4"
       inkscape:connector-curvature="0"
       style="fill:#525252;fill-opacity:1" />
    <path
       d="m 204.93,403.88 c -1.875,-1.5273 -4.625,-1.2578 -6.1719,0.59766 -19.242,23.398 -38.332,47.633 -56.773,72.035 -6.8203,9.2461 -13.648,18.457 -20.492,27.633 -9.668,12.75 -19.535,25.363 -29.598,37.84 -1.5078,1.8867 -1.2031,4.6406 0.68359,6.1523 1.8906,1.5078 4.6445,1.2031 6.1562,-0.68359 10.066,-12.543 20.027,-25.191 29.754,-38.043 6.8711,-9.2109 13.707,-18.434 20.508,-27.668 18.352,-24.27 37.355,-48.398 56.531,-71.691 1.5352,-1.8711 1.2695,-4.6289 -0.59766,-6.1719 z"
       id="path6"
       inkscape:connector-curvature="0"
       style="fill:#525252;fill-opacity:1" />
    <path
       d="m 285.16,394.28 c -16.391,19.773 -33.344,40.23 -51.012,59.539 -6.4609,7.0586 -13.023,14.012 -19.586,20.969 -8.1875,8.6641 -16.355,17.312 -24.32,26.18 l 0.004,0.004 c -1.6172,1.793 -1.4688,4.5547 0.32422,6.168 1.793,1.6133 4.5547,1.4688 6.168,-0.32422 7.9297,-8.8008 16.066,-17.414 24.184,-26.012 6.5977,-6.9883 13.195,-13.98 19.688,-21.07 17.824,-19.465 34.828,-40.008 51.285,-59.883 1.5391,-1.8594 1.2773,-4.6133 -0.58203,-6.1523 -1.8594,-1.5391 -4.6133,-1.2773 -6.1523,0.58203 z"
       id="path8"
       inkscape:connector-curvature="0"
       style="fill:#525252;fill-opacity:1" />
    <path
       d="m 471.85,56.738 c 2.1875,0.48828 4.375,0.92188 6.5625,1.3594 1.6562,0.33203 3.3164,0.65625 4.957,1.0078 h -0.004 c 8.2891,1.957 16.414,4.5469 24.305,7.75 0.25,0.09766 0.51562,0.14844 0.78516,0.14453 0.90625,-0.0039 1.7188,-0.5625 2.0508,-1.4102 0.42969,-1.125 -0.13672,-2.3906 -1.2656,-2.8203 -8.1016,-3.2812 -16.441,-5.9375 -24.949,-7.9375 -1.6758,-0.35938 -3.3516,-0.69141 -5.0234,-1.0234 -2.1523,-0.42578 -4.3047,-0.85547 -6.4609,-1.3398 v -0.0039 c -1.1719,-0.22266 -2.3164,0.50391 -2.6172,1.6602 -0.25781,1.1797 0.48047,2.3438 1.6602,2.6133 z"
       id="path10"
       inkscape:connector-curvature="0"
       style="fill:#525252;fill-opacity:1" />
    <path
       d="m 425.26,88.211 c 13.453,0.36719 26.598,4.0703 38.266,10.773 0.29688,0.14844 0.625,0.22266 0.95703,0.22266 1.0195,-0.0039 1.8984,-0.70703 2.1289,-1.6953 0.22656,-0.99219 -0.25781,-2.0117 -1.1719,-2.457 -12,-6.6953 -25.379,-10.539 -39.102,-11.23 -0.39453,0 -0.78516,0 -1.1797,0.0078 -1.2031,0.03516 -2.1562,1.0273 -2.1367,2.2305 0.004,0.58594 0.24609,1.1445 0.66797,1.5469 0.42188,0.40625 0.98828,0.62109 1.5703,0.60156 z"
       id="path12"
       inkscape:connector-curvature="0"
       style="fill:#525252;fill-opacity:1" />
    <path
       d="m 310.29,163.61 c 2.0664,0.41016 4.0469,1.1797 5.8438,2.2812 0.90625,0.46875 1.793,0.94141 2.6641,1.3242 4.9219,2.1953 9.4492,4.7617 14.254,7.4688 l 0.75391,0.42578 c 0.32812,0.18359 0.69922,0.28125 1.0742,0.28516 0.78906,0 1.5156,-0.42578 1.8984,-1.1133 0.59375,-1.0508 0.22656,-2.3828 -0.82031,-2.9805 l -0.75391,-0.41797 c -4.8867,-2.7695 -9.5195,-5.3828 -14.629,-7.6641 -0.78516,-0.35156 -1.5898,-0.76953 -2.4102,-1.2031 v -0.004 c -2.2734,-1.3672 -4.7812,-2.3047 -7.3984,-2.7617 -0.58594,-0.0977 -1.1836,0.0586 -1.6445,0.42969 -0.46094,0.375 -0.74219,0.92578 -0.76563,1.5195 -0.0625,0.57422 0.10547,1.1523 0.46484,1.6055 0.36328,0.45312 0.89062,0.74219 1.4688,0.80469 z"
       id="path14"
       inkscape:connector-curvature="0"
       style="fill:#525252;fill-opacity:1" />
  </g>
</svg>
